<?xml version="1.0" encoding="UTF-8" standalone="no"?>
<!-- Created with Inkscape (http://www.inkscape.org/) -->
<svg
   xmlns:svg="http://www.w3.org/2000/svg"
   xmlns="http://www.w3.org/2000/svg"
   xmlns:xlink="http://www.w3.org/1999/xlink"
   version="1.0"
   width="48"
   height="48"
   id="te1">
  <defs
     id="d1">
    <linearGradient
       id="linearGradient3549">
      <stop
         id="stop3551"
         style="stop-color:#000000;stop-opacity:1"
         offset="0" />
      <stop
         id="stop3553"
         style="stop-color:#000000;stop-opacity:0"
         offset="1" />
    </linearGradient>
    <linearGradient
       id="linearGradient2256">
      <stop
         id="stop2258"
         style="stop-color:#ff0202;stop-opacity:1"
         offset="0" />
      <stop
         id="stop2260"
         style="stop-color:#ff9b9b;stop-opacity:1"
         offset="1" />
    </linearGradient>
    <linearGradient
       id="linearGradient2248">
      <stop
         id="stop2250"
         style="stop-color:#ffffff;stop-opacity:1"
         offset="0" />
      <stop
         id="stop2252"
         style="stop-color:#ffffff;stop-opacity:0"
         offset="1" />
    </linearGradient>
    <linearGradient
       id="linearGradient9647">
      <stop
         id="stop9649"
         style="stop-color:#ffffff;stop-opacity:1"
         offset="0" />
      <stop
         id="stop9651"
         style="stop-color:#dbdbdb;stop-opacity:1"
         offset="1" />
    </linearGradient>
    <linearGradient
       id="linearGradient21644">
      <stop
         id="stop21646"
         style="stop-color:#000000;stop-opacity:1"
         offset="0" />
      <stop
         id="stop21648"
         style="stop-color:#000000;stop-opacity:0"
         offset="1" />
    </linearGradient>
    <radialGradient
       cx="25.125"
       cy="36.75"
       r="15.75"
       fx="25.125"
       fy="36.75"
       id="radialGradient21650"
       xlink:href="#linearGradient21644"
       gradientUnits="userSpaceOnUse"
       gradientTransform="matrix(1,0,0,0.595238,0,14.875)" />
    <linearGradient
       id="linearGradient4981">
      <stop
         id="stop4983"
         style="stop-color:#cc0000;stop-opacity:1"
         offset="0" />
      <stop
         id="stop4985"
         style="stop-color:#b30000;stop-opacity:1"
         offset="1" />
    </linearGradient>
    <linearGradient
       id="linearGradient11780">
      <stop
         id="stop11782"
         style="stop-color:#ff8b8b;stop-opacity:1"
         offset="0" />
      <stop
         id="stop11784"
         style="stop-color:#ec1b1b;stop-opacity:1"
         offset="1" />
    </linearGradient>
    <linearGradient
       x1="15.737001"
       y1="12.5036"
       x2="53.570126"
       y2="47.374317"
       id="linearGradient2057"
       xlink:href="#linearGradient11780"
       gradientUnits="userSpaceOnUse"
       gradientTransform="translate(0,-2)" />
    <linearGradient
       x1="23.995985"
       y1="20.105337"
       x2="41.047836"
       y2="37.959785"
       id="linearGradient4987"
       xlink:href="#linearGradient4981"
       gradientUnits="userSpaceOnUse"
       gradientTransform="translate(0,-2)" />
    <radialGradient
       cx="16.75"
       cy="10.666344"
       r="21.25"
       fx="16.75"
       fy="10.666344"
       id="radialGradient2254"
       xlink:href="#linearGradient2248"
       gradientUnits="userSpaceOnUse"
       gradientTransform="matrix(4.154957,0,0,3.198723,-52.84553,-23.50921)" />
    <linearGradient
       x1="29.508144"
       y1="16.203844"
       x2="34.256893"
       y2="52.020638"
       id="linearGradient4012"
       xlink:href="#linearGradient2256"
       gradientUnits="userSpaceOnUse"
       gradientTransform="matrix(1.3,0,0,1.3,-6.5558428,-9.599994)" />
    <radialGradient
       cx="34.073463"
       cy="45.819954"
       r="18.171362"
       fx="34.073463"
       fy="45.819954"
       id="radialGradient4028"
       xlink:href="#linearGradient9647"
       gradientUnits="userSpaceOnUse"
       gradientTransform="matrix(2.7746043,1.1395658e-7,-1.145114e-7,2.770359,-56.562256,-73.18158)" />
    <linearGradient
       x1="68.085533"
       y1="31.999981"
       x2="104.42826"
       y2="31.999981"
       id="linearGradient5329"
       xlink:href="#linearGradient3549"
       gradientUnits="userSpaceOnUse" />
    <linearGradient
       x1="68.085533"
       y1="31.999981"
       x2="104.42826"
       y2="31.999981"
       id="linearGradient5331"
       xlink:href="#linearGradient3549"
       gradientUnits="userSpaceOnUse" />
    <linearGradient
       x1="68.085533"
       y1="31.999981"
       x2="104.42826"
       y2="31.999981"
       id="linearGradient5333"
       xlink:href="#linearGradient2256"
       gradientUnits="userSpaceOnUse" />
  </defs>
  <path
     d="M 40.875,36.75 C 40.875,41.92767 33.823485,46.125 25.125,46.125 C 16.426515,46.125 9.375,41.92767 9.375,36.75 C 9.375,31.57233 16.426515,27.375 25.125,27.375 C 33.823485,27.375 40.875,31.57233 40.875,36.75 z"
     transform="matrix(1.173803,0,0,0.6,-5.265866,19.575)"
     id="p1"
     style="opacity:0.63068183;fill:url(#radialGradient21650);fill-opacity:1;fill-rule:evenodd;stroke:none;stroke-width:1;stroke-linecap:round;stroke-linejoin:round;marker:none;marker-start:none;marker-mid:none;marker-end:none;stroke-miterlimit:4;stroke-dasharray:none;stroke-dashoffset:0;stroke-opacity:1;visibility:visible;display:inline;overflow:visible" />
  <path
     d="M 15.591006,0.4919213 L 32.676311,0.4919213 L 45.497585,13.586385 L 45.497585,31.48003 L 32.848986,43.496929 L 15.418649,43.496929 L 2.4943857,30.658264 L 2.4943857,13.464078 L 15.591006,0.4919213 z"
     id="p2"
     style="fill:url(#linearGradient4987);fill-opacity:1;fill-rule:evenodd;stroke:#860000;stroke-width:1;stroke-linecap:butt;stroke-linejoin:miter;stroke-miterlimit:4;stroke-dasharray:none;stroke-opacity:1" />
  <path
     d="M 16.020655,1.5003424 L 32.248563,1.5003424 L 44.496456,13.922717 L 44.496456,31.037001 L 32.638472,42.48783 L 15.870253,42.48783 L 3.5090792,30.208718 L 3.5090792,13.84561 L 16.020655,1.5003424 z"
     id="p3"
     style="opacity:0.81318683;fill:none;fill-opacity:1;fill-rule:evenodd;stroke:url(#linearGradient2057);stroke-width:1.00000024;stroke-linecap:butt;stroke-linejoin:miter;stroke-miterlimit:4;stroke-opacity:1" />
  <g
     transform="matrix(0.4837117,0,0,0.4837117,-17.527479,6.5156617)"
     id="g1"
     style="stroke:url(#linearGradient5333);stroke-width:2.06734729;stroke-miterlimit:4;stroke-dasharray:none;stroke-opacity:1">
    <g
       id="g2"
       style="stroke:url(#linearGradient5331);stroke-width:2.06734729;stroke-miterlimit:4;stroke-dasharray:none;stroke-opacity:1">
      <g
         transform="translate(52,0)"
         id="g3"
         style="stroke:url(#linearGradient5329);stroke-width:2.06734729;stroke-miterlimit:4;stroke-dasharray:none;stroke-opacity:1">
        <path
           d="M 35.471424,60.467094 C 25.23831,60.467094 15.564818,60.467094 15.564818,33.167094 C 15.544158,8.467094 20.054685,13.228881 22.200269,15.252998 L 22.33717,10.990191 C 22.43852,7.8343957 29.941414,8.0247963 29.948617,10.513274 L 29.966978,6.6044696 C 29.986409,2.4680186 38.666245,2.885905 38.738146,5.6305369 L 38.87784,10.509555 C 38.957786,7.5033052 45.703035,6.8211575 45.90398,12.66933 C 45.90398,21.76933 45.824882,31.564858 45.704539,34.467094 C 49.222173,38.367094 53.099138,19.33183 59.894567,22.82558 C 62.932522,25.99433 51.100483,48.33808 49.821344,50.69433 C 48.60006,52.943995 43.14626,60.467094 35.471424,60.467094 z M 29.889459,8.4524405 L 30.494158,30.567094 M 38.887531,10.492939 L 38.294158,31.867094 M 42.194158,39.017094 C 42.194158,39.017094 35.694158,40.317094 33.094158,53.317094 C 35.692803,40.3117 42.222545,39.049859 42.194158,39.017094 z M 22.186936,14.985942 L 22.694158,33.329594 M 19.281658,35.929594 C 24.806055,29.927858 34.462109,29.837074 40.603134,32.267681 C 34.455941,29.828197 24.794347,29.920646 19.281658,35.929594 z"
           id="p4"
           style="fill:url(#radialGradient4028);fill-opacity:1;fill-rule:evenodd;stroke:url(#linearGradient4012);stroke-width:2.06734729;stroke-linecap:butt;stroke-linejoin:round;stroke-miterlimit:4;stroke-dasharray:none;stroke-opacity:1" />
      </g>
    </g>
  </g>
  <path
     d="M 15.6875,0.75 L 2.75,13.5625 L 2.75,30.5625 L 5.6875,33.46875 C 22.450041,33.526299 22.164665,20.450067 45.25,21.59375 L 45.25,13.6875 L 32.5625,0.75 L 15.6875,0.75 z"
     id="p0"
     style="opacity:0.28977272;fill:url(#radialGradient2254);fill-opacity:1;fill-rule:evenodd;stroke:none;stroke-width:1;stroke-linecap:butt;stroke-linejoin:miter;stroke-miterlimit:4;stroke-dasharray:none;stroke-opacity:1" />
</svg>
