<?xml version="1.0" encoding="UTF-8" standalone="no"?>
<!-- Created with Inkscape (http://www.inkscape.org/) -->
<svg
   xmlns:svg="http://www.w3.org/2000/svg"
   xmlns="http://www.w3.org/2000/svg"
   xmlns:xlink="http://www.w3.org/1999/xlink"
   version="1.0"
   width="48"
   height="48"
   id="svg1800">
  <defs
     id="defs3">
    <linearGradient
       id="linearGradient3101">
      <stop
         id="stop3103"
         style="stop-color:#000000;stop-opacity:1"
         offset="0" />
      <stop
         id="stop3105"
         style="stop-color:#000000;stop-opacity:0"
         offset="1" />
    </linearGradient>
    <radialGradient
       cx="17.3125"
       cy="25.53125"
       r="9.6875"
       fx="17.3125"
       fy="25.53125"
       id="radialGradient3107"
       xlink:href="#linearGradient3101"
       gradientUnits="userSpaceOnUse"
       gradientTransform="matrix(1,0,0,0.351613,0,16.5541)" />
    <radialGradient
       cx="17.3125"
       cy="25.53125"
       r="9.6875"
       fx="17.3125"
       fy="25.53125"
       id="radialGradient3266"
       xlink:href="#linearGradient3101"
       gradientUnits="userSpaceOnUse"
       gradientTransform="matrix(2.18291,0,0,0.7675395,-13.5037,21.78601)" />
  </defs>
  <path
     d="M 45.43487,41.382321 C 45.43487,45.488855 35.967063,48.817858 24.287929,48.817858 C 12.608796,48.817858 3.1409888,45.488855 3.1409888,41.382321 C 3.1409888,37.275787 12.608796,33.946784 24.287929,33.946784 C 35.967063,33.946784 45.43487,37.275787 45.43487,41.382321 z"
     id="path3099"
     style="opacity:0.40909101;fill:url(#radialGradient3266);fill-opacity:1;fill-rule:nonzero;stroke:none;stroke-width:1.10534;stroke-linecap:butt;stroke-linejoin:miter;marker:none;stroke-miterlimit:4;stroke-dasharray:none;stroke-dashoffset:0;stroke-opacity:1;visibility:visible;display:inline;overflow:visible" />
  <path
     d="M 45.088187,21.403811 C 45.088187,32.885846 35.780153,42.193875 24.298109,42.193875 C 12.816066,42.193875 3.5080313,32.885846 3.5080314,21.403811 C 3.5080313,9.9217755 12.816066,0.61374686 24.298109,0.61374686 C 35.780153,0.61374686 45.088187,9.9217755 45.088187,21.403811 L 45.088187,21.403811 z"
     id="path1650"
     style="fill:#3499f1;fill-opacity:1;fill-rule:nonzero;stroke:#0869ae;stroke-width:0.94500268;stroke-linecap:round;stroke-linejoin:round;stroke-miterlimit:4;stroke-dasharray:none;stroke-dashoffset:0;stroke-opacity:1" />
  <path
     d="M 44.555336,21.312495 C 44.555336,32.42327 35.548271,41.430334 24.437492,41.430334 C 13.326713,41.430334 4.3196477,32.42327 4.3196478,21.312495 C 4.3196477,10.201719 13.326713,1.1946559 24.437492,1.1946559 C 35.548271,1.1946559 44.555336,10.201719 44.555336,21.312495 L 44.555336,21.312495 z"
     id="path3392"
     style="fill:none;fill-opacity:1;fill-rule:nonzero;stroke:#81acff;stroke-width:0.91444677;stroke-linecap:round;stroke-linejoin:round;stroke-miterlimit:4;stroke-dasharray:none;stroke-dashoffset:0;stroke-opacity:1" />
  <path
     d="M 27.878592,17.227084 L 18.753546,17.227084 L 18.753546,20.170647 L 20.446095,20.170647 C 20.968114,20.172194 21.322261,20.307108 21.508537,20.575387 C 21.694805,20.843694 21.782192,21.236169 21.770698,21.752812 L 21.770698,29.9212 C 21.782192,30.437861 21.694805,30.830335 21.508536,31.098625 C 21.32226,31.366922 20.968113,31.501835 20.446095,31.503365 L 18.86393,31.503365 L 18.86393,34.446929 L 30.711771,34.446929 L 30.711771,31.503365 L 29.203195,31.503365 C 28.681162,31.501835 28.327014,31.366922 28.140753,31.098625 C 27.95447,30.830335 27.867083,30.437861 27.878592,29.9212 L 27.878592,17.227084 z"
     id="path3344"
     style="font-size:36.79499817px;font-style:normal;font-weight:normal;fill:#ffffff;fill-opacity:1;stroke:#ffffff;stroke-width:0.2;stroke-linecap:butt;stroke-linejoin:miter;stroke-miterlimit:4;stroke-dasharray:none;stroke-opacity:1;font-family:Bitstream Vera Sans" />
  <path
     d="M 43.676426,20.47678 C 43.676426,31.307396 37.624257,16.170581 25.001688,20.863168 C 12.279172,25.592912 4.4350535,31.307396 4.4350535,20.47678 C 4.4350535,9.6461627 13.22512,0.85609769 24.05574,0.85609769 C 34.886359,0.85609769 43.676426,9.6461627 43.676426,20.47678 z"
     id="path3068"
     style="fill:#fffeff;fill-opacity:0.21390399;fill-rule:nonzero;stroke:none;stroke-width:1;stroke-linecap:round;stroke-linejoin:round;stroke-miterlimit:4;stroke-dashoffset:0;stroke-opacity:1" />
  <path
     d="M 24.677467,7.8023385 C 23.755297,7.8230604 22.996411,8.1312144 22.400804,8.7268016 C 21.805189,9.322437 21.497035,10.081323 21.476342,11.003463 C 21.497035,11.925646 21.805189,12.684533 22.400805,13.280125 C 22.996411,13.875756 23.755298,14.18391 24.677467,14.204588 C 25.599621,14.183909 26.358508,13.875755 26.954129,13.280124 C 27.549731,12.684533 27.857885,11.925646 27.878592,11.003463 C 27.857884,10.081322 27.54973,9.322436 26.954128,8.726801 C 26.358508,8.1312143 25.599621,7.8230604 24.677467,7.8023385 L 24.677467,7.8023385 z"
     id="text3246"
     style="font-size:36.79499817px;font-style:normal;font-weight:normal;fill:#ffffff;fill-opacity:1;stroke:#ffffff;stroke-width:0.2;stroke-linecap:butt;stroke-linejoin:miter;stroke-miterlimit:4;stroke-dasharray:none;stroke-opacity:1;font-family:Bitstream Vera Sans" />
</svg>
