<?xml version="1.0" encoding="UTF-8" standalone="no"?>
<!-- Created with Inkscape (http://www.inkscape.org/) -->
<svg
   xmlns:svg="http://www.w3.org/2000/svg"
   xmlns="http://www.w3.org/2000/svg"
   xmlns:xlink="http://www.w3.org/1999/xlink"
   version="1.0"
   width="48"
   height="48"
   id="svg1800">
  <defs
     id="defs3">
    <linearGradient
       id="linearGradient3101">
      <stop
         id="stop3103"
         style="stop-color:#000000;stop-opacity:1"
         offset="0" />
      <stop
         id="stop3105"
         style="stop-color:#000000;stop-opacity:0"
         offset="1" />
    </linearGradient>
    <radialGradient
       cx="17.3125"
       cy="25.53125"
       r="9.6875"
       fx="17.3125"
       fy="25.53125"
       id="radialGradient3107"
       xlink:href="#linearGradient3101"
       gradientUnits="userSpaceOnUse"
       gradientTransform="matrix(1,0,0,0.351613,0,16.55413)" />
  </defs>
  <g
     id="layer1">
    <path
       d="M 27,25.53125 A 9.6875,3.40625 0 1 1 7.625,25.53125 A 9.6875,3.40625 0 1 1 27,25.53125 z"
       transform="matrix(2.182912,0,0,2.182912,-13.50372,-14.35012)"
       id="path3099"
       style="opacity:0.40909089;fill:url(#radialGradient3107);fill-opacity:1;fill-rule:nonzero;stroke:none;stroke-width:1.10533953;stroke-linecap:butt;stroke-linejoin:miter;marker:none;marker-start:none;marker-mid:none;marker-end:none;stroke-miterlimit:4;stroke-dasharray:none;stroke-dashoffset:0;stroke-opacity:1;visibility:visible;display:inline;overflow:visible" />
    <path
       d="M 46.138718,23.42804 A 22.008699,21.213203 0 1 1 2.1213188,23.42804 A 22.008699,21.213203 0 1 1 46.138718,23.42804 z"
       transform="matrix(0.94463,0,0,0.980053,1.504174,-1.556912)"
       id="path1650"
       style="opacity:1;fill:#cc0000;fill-opacity:1;fill-rule:nonzero;stroke:#680000;stroke-width:0.98214942;stroke-linecap:round;stroke-linejoin:round;stroke-miterlimit:4;stroke-dasharray:none;stroke-dashoffset:0;stroke-opacity:1" />
    <path
       d="M 46.138718,23.42804 A 22.008699,21.213203 0 1 1 2.1213188,23.42804 A 22.008699,21.213203 0 1 1 46.138718,23.42804 z"
       transform="matrix(0.914086,0,0,0.948364,2.380576,-0.905815)"
       id="path3392"
       style="opacity:1;fill:none;fill-opacity:1;fill-rule:nonzero;stroke:#ef2929;stroke-width:0.98214942;stroke-linecap:round;stroke-linejoin:round;stroke-miterlimit:4;stroke-dasharray:none;stroke-dashoffset:0;stroke-opacity:1" />
    <path
       d="M 21.464926,10.373268 C 21.336952,10.373268 21.230316,10.547762 21.230316,10.757175 L 22.295085,25.197999 C 22.295085,25.407412 22.401721,25.581906 22.529695,25.581907 C 22.529695,25.581907 23.370516,25.59381 24.063684,25.581907 C 24.292022,25.577986 24.361898,25.602219 24.568998,25.581907 C 25.262166,25.59381 26.102987,25.581907 26.102987,25.581907 C 26.230961,25.581907 26.337597,25.407412 26.337597,25.197999 L 27.402366,10.757175 C 27.402366,10.547762 27.29573,10.402799 27.167755,10.402799 L 24.587044,10.402799 C 24.577532,10.400862 24.578842,10.373268 24.568998,10.373268 L 21.464926,10.373268 z"
       id="rect1872"
       style="fill:#ffffff;fill-opacity:1;fill-rule:nonzero;stroke:none;stroke-width:4.12249994;stroke-linecap:round;stroke-linejoin:round;stroke-miterlimit:4;stroke-dashoffset:0;stroke-opacity:1" />
    <path
       d="M -11.875,34.0625 A 4.5625,3.8125 0 1 1 -21,34.0625 A 4.5625,3.8125 0 1 1 -11.875,34.0625 z"
       transform="matrix(0.504864,0,0,0.604182,32.65935,9.608845)"
       id="path2062"
       style="opacity:1;fill:#ffffff;fill-opacity:1;fill-rule:nonzero;stroke:none;stroke-width:4.12249994;stroke-linecap:round;stroke-linejoin:round;stroke-miterlimit:4;stroke-dasharray:none;stroke-dashoffset:0;stroke-opacity:1" />
    <path
       d="M 43.676426,20.47678 C 43.676426,31.307396 37.624257,16.170581 25.001688,20.863168 C 12.279172,25.592912 4.4350535,31.307396 4.4350535,20.47678 C 4.4350535,9.6461627 13.22512,0.85609769 24.05574,0.85609769 C 34.886359,0.85609769 43.676426,9.6461627 43.676426,20.47678 z"
       id="path3068"
       style="fill:#fffeff;fill-opacity:0.21390375;fill-rule:nonzero;stroke:none;stroke-width:1;stroke-linecap:round;stroke-linejoin:round;stroke-miterlimit:4;stroke-dashoffset:0;stroke-opacity:1" />
  </g>
</svg>
