<?xml version="1.0" encoding="UTF-8" standalone="no"?>
<!-- Created with Inkscape (http://www.inkscape.org/) -->
<svg xmlns:dc="http://purl.org/dc/elements/1.1/" xmlns:cc="http://creativecommons.org/ns#" xmlns:rdf="http://www.w3.org/1999/02/22-rdf-syntax-ns#" xmlns:svg="http://www.w3.org/2000/svg" xmlns="http://www.w3.org/2000/svg" xmlns:sodipodi="http://sodipodi.sourceforge.net/DTD/sodipodi-0.dtd" xmlns:inkscape="http://www.inkscape.org/namespaces/inkscape" id="svg548" sodipodi:version="0.32" width="400pt" height="400pt" sodipodi:docbase="/var/www/html/svg_gallery/svg/callouts" sodipodi:docname="round_r.svg" inkscape:version="0.45+devel" inkscape:output_extension="org.inkscape.output.svg.inkscape">
  <metadata id="metadata8"/>
  <defs id="defs550">
    <filter inkscape:collect="always" id="filter4261">
      <feGaussianBlur inkscape:collect="always" stdDeviation="6.8683288" id="feGaussianBlur4263"/>
    </filter>
  </defs>
  <sodipodi:namedview id="base" inkscape:zoom="0.7725" inkscape:cx="338.22816" inkscape:cy="200" inkscape:window-width="731" inkscape:window-height="717" inkscape:window-x="39" inkscape:window-y="24" showgrid="false" inkscape:current-layer="svg548"/>
  <path id="path796" d="M 253.27348,30.840615 C 144.11252,32.594977 47.827808,93.437371 27.385684,179.74686 C 4.0232575,278.38628 88.522142,373.10863 216.01113,391.18436 L 217.28974,391.12186 L 217.98993,391.68436 L 215.09784,391.77811 L 396.1734,476.90311 L 322.77509,387.18436 C 410.95131,367.71203 472.76761,315.0441 489.29885,245.24686 C 512.66128,146.60745 428.13193,51.885091 300.64295,33.809365 C 284.70683,31.549899 268.86792,30.589992 253.27348,30.840615 z M 322.31844,387.21561 L 322.59243,387.21561 L 322.59243,387.68436 L 322.31844,387.21561 z" style="font-size: 12px; fill: rgb(0, 0, 0); fill-opacity: 0.498039; fill-rule: evenodd; stroke-width: 2.5; filter: url(&quot;#filter4261&quot;);"/>
  <path id="path795" d="M 240.66275,22.75 C 131.50179,24.504362 35.217073,85.346756 14.77495,171.65625 C -8.5874766,270.29567 75.911407,365.01802 203.4004,383.09375 L 204.67901,383.03125 L 205.3792,383.59375 L 202.48711,383.6875 L 383.56267,468.8125 L 310.16435,379.09375 C 398.34058,359.62142 460.15688,306.95349 476.68811,237.15625 C 500.05055,138.51683 415.5212,43.794476 288.03222,25.71875 C 272.0961,23.459284 256.25717,22.499377 240.66275,22.75 z M 309.70771,379.125 L 309.98169,379.125 L 309.98169,379.59375 L 309.70771,379.125 z" style="font-size: 12px; fill: rgb(255, 255, 255); fill-rule: evenodd; stroke: rgb(0, 0, 0); stroke-width: 10; stroke-linejoin: round; stroke-dasharray: none;"/>
  <metadata id="metadata10">
    <rdf:RDF>
      <cc:Work rdf:about="">
        <dc:title>Clipart by Nicu Buculei - segmented</dc:title>
        <dc:rights>
          <cc:Agent>
            <dc:title>Nicu Buculei</dc:title>
          </cc:Agent>
        </dc:rights>
        <dc:type rdf:resource="http://purl.org/dc/dcmitype/StillImage"/>
        <cc:license rdf:resource="http://web.resource.org/cc/PublicDomain"/>
        <dc:format>image/svg+xml</dc:format>
      </cc:Work>
      <cc:License rdf:about="http://web.resource.org/cc/PublicDomain">
        <cc:permits rdf:resource="http://web.resource.org/cc/Reproduction"/>
        <cc:permits rdf:resource="http://web.resource.org/cc/Distribution"/>
        <cc:permits rdf:resource="http://web.resource.org/cc/DerivativeWorks"/>
      </cc:License>
    </rdf:RDF>
  </metadata>
</svg>