<?xml version="1.0" encoding="UTF-8" standalone="no"?>
<!-- Created with Inkscape (http://www.inkscape.org/) -->
<svg xmlns:dc="http://purl.org/dc/elements/1.1/" xmlns:cc="http://creativecommons.org/ns#" xmlns:rdf="http://www.w3.org/1999/02/22-rdf-syntax-ns#" xmlns:svg="http://www.w3.org/2000/svg" xmlns="http://www.w3.org/2000/svg" xmlns:sodipodi="http://sodipodi.sourceforge.net/DTD/sodipodi-0.dtd" xmlns:inkscape="http://www.inkscape.org/namespaces/inkscape" id="svg548" sodipodi:version="0.32" width="400pt" height="400pt" sodipodi:docbase="/var/www/html/svg_gallery/svg/callouts" sodipodi:docname="elips_l.svg" inkscape:version="0.45+devel" inkscape:output_extension="org.inkscape.output.svg.inkscape">
  <metadata id="metadata2401"/>
  <defs id="defs550">
    <filter inkscape:collect="always" id="filter3736">
      <feGaussianBlur inkscape:collect="always" stdDeviation="6.4057155" id="feGaussianBlur3738"/>
    </filter>
  </defs>
  <sodipodi:namedview id="base" inkscape:zoom="0.7725" inkscape:cx="455.01618" inkscape:cy="200" inkscape:window-width="731" inkscape:window-height="717" inkscape:window-x="5" inkscape:window-y="46" showgrid="false" inkscape:current-layer="svg548"/>
  <path id="path680" d="M 260.40721,28.813107 C 143.85282,32.034348 26.712292,93.258974 23.609407,212.90686 C 25.219181,269.72786 57.139562,310.17142 103.49189,335.34436 C 82.469337,340.40287 65.604204,351.89576 65.006124,369.96936 C 65.304763,378.23042 69.60614,384.81869 76.404776,389.78186 C 67.910896,390.54148 59.932363,394.53755 59.705138,402.12561 C 60.196692,417.15188 96.197263,415.6194 96.934606,400.71936 C 96.928085,399.90188 96.768134,399.16665 96.566908,398.43811 C 132.34557,407.29811 185.94699,395.56487 187.57227,365.84436 C 187.5622,364.70189 187.42119,363.61602 187.26586,362.53186 C 320.7339,383.49042 488.10015,323.59805 493.71187,192.65686 C 492.93613,80.372098 376.9616,25.591866 260.40721,28.813107 z" style="fill-opacity: 0.498039; fill-rule: evenodd; stroke-width: 1.25; fill: rgb(0, 0, 0); filter: url(&quot;#filter3736&quot;);"/>
  <path sodipodi:nodetypes="ccc" id="path975" d="M 481.01458,178.08511 C 471.70573,395.29283 17.124154,417.38134 10.918385,198.3332 C 17.124154,-40.962575 479.46309,-46.484411 481.01458,178.08511 z" style="font-size: 12px; fill: rgb(255, 255, 255); fill-rule: evenodd; stroke: rgb(0, 0, 0); stroke-width: 10; stroke-linejoin: round; stroke-dasharray: none;"/>
  <path sodipodi:nodetypes="ccc" id="path976" d="M 174.87857,351.28238 C 172.4515,395.66442 53.92981,400.17776 52.311798,355.41967 C 53.92981,306.52439 174.47406,305.39611 174.87857,351.28238 z" style="font-size: 12px; fill: rgb(255, 255, 255); fill-rule: evenodd; stroke: rgb(0, 0, 0); stroke-width: 10; stroke-linejoin: round; stroke-dasharray: none;"/>
  <path sodipodi:nodetypes="ccc" id="path977" d="M 84.2416,386.16395 C 83.504254,401.06398 47.49722,402.57921 47.005666,387.55293 C 47.49722,371.13771 84.118707,370.75892 84.2416,386.16395 z" style="font-size: 12px; fill: rgb(255, 255, 255); fill-rule: evenodd; stroke: rgb(0, 0, 0); stroke-width: 10; stroke-linejoin: round; stroke-dasharray: none;"/>
  <metadata id="metadata2403">
    <rdf:RDF>
      <cc:Work rdf:about="">
        <dc:title>Clipart by Nicu Buculei - segmented</dc:title>
        <dc:rights>
          <cc:Agent>
            <dc:title>Nicu Buculei</dc:title>
          </cc:Agent>
        </dc:rights>
        <dc:type rdf:resource="http://purl.org/dc/dcmitype/StillImage"/>
        <cc:license rdf:resource="http://web.resource.org/cc/PublicDomain"/>
        <dc:format>image/svg+xml</dc:format>
      </cc:Work>
      <cc:License rdf:about="http://web.resource.org/cc/PublicDomain">
        <cc:permits rdf:resource="http://web.resource.org/cc/Reproduction"/>
        <cc:permits rdf:resource="http://web.resource.org/cc/Distribution"/>
        <cc:permits rdf:resource="http://web.resource.org/cc/DerivativeWorks"/>
      </cc:License>
    </rdf:RDF>
  </metadata>
</svg>