<?xml version="1.0" encoding="UTF-8" standalone="no"?>
<!-- Created with Inkscape (http://www.inkscape.org/) -->
<svg
   xmlns:dc="http://purl.org/dc/elements/1.1/"
   xmlns:cc="http://creativecommons.org/ns#"
   xmlns:rdf="http://www.w3.org/1999/02/22-rdf-syntax-ns#"
   xmlns:svg="http://www.w3.org/2000/svg"
   xmlns="http://www.w3.org/2000/svg"
   xmlns:sodipodi="http://sodipodi.sourceforge.net/DTD/sodipodi-0.dtd"
   xmlns:inkscape="http://www.inkscape.org/namespaces/inkscape"
   id="svg548"
   sodipodi:version="0.32"
   width="400pt"
   height="400pt"
   sodipodi:docbase="/var/www/html/svg_gallery/svg/callouts"
   sodipodi:docname="cloud_r.svg"
   inkscape:version="0.45+devel"
   inkscape:output_extension="org.inkscape.output.svg.inkscape">
  <metadata
     id="metadata8" />
  <defs
     id="defs550">
    <filter
       inkscape:collect="always"
       id="filter3171">
      <feGaussianBlur
         inkscape:collect="always"
         stdDeviation="6.5758775"
         id="feGaussianBlur3173" />
    </filter>
  </defs>
  <sodipodi:namedview
     id="base"
     inkscape:zoom="0.7725"
     inkscape:cx="493.103"
     inkscape:cy="200"
     inkscape:window-width="731"
     inkscape:window-height="717"
     inkscape:window-x="34"
     inkscape:window-y="24"
     showgrid="false"
     inkscape:current-layer="svg548" />
  <path
     sodipodi:nodetypes="ccccccccccccccccccccccc"
     id="path660"
     d="M 166.37761,68.843161 C 169.97461,68.843161 202.35161,44.860461 255.11461,42.462061 C 327.06261,34.068061 357.04161,80.834561 357.04161,80.834561 C 354.64361,86.830261 406.20561,43.661161 436.18461,47.258561 C 468.56161,52.055161 481.75261,66.444661 478.15461,96.423161 C 475.75661,115.60986 455.37061,124.00386 450.57461,133.59686 C 452.97261,138.39286 479.35361,153.98286 479.35361,195.95286 C 479.35361,237.92286 452.97261,260.70586 454.17161,260.70586 C 455.37061,260.70586 480.55261,302.67586 461.36661,327.85786 C 442.18061,353.03986 388.21861,329.05786 379.82461,324.26086 C 371.43061,326.65886 371.43061,343.44686 347.44761,347.04486 C 323.46461,350.64186 293.48661,339.84986 293.48661,339.84986 L 281.49561,330.25686 L 411.00261,465.75886 L 221.53761,337.45086 C 205.94961,342.24786 209.54661,345.84486 165.17861,350.64186 C 128.00461,350.64186 136.39861,343.44686 124.40761,338.64986 C 110.01761,348.24286 51.259815,361.43486 32.073415,325.45986 C 16.484605,279.89286 40.467515,269.09986 45.264015,260.70586 C 40.467515,249.91386 24.878615,231.92686 27.276915,198.35086 C 27.276915,155.18086 38.069215,133.59686 47.662415,126.40186 C 42.865815,116.80886 23.679515,78.435961 65.649415,54.453461 C 135.19961,36.466261 165.17861,70.042361 166.37761,68.843161 z"
     style="fill-opacity:0.49803922000000000;fill-rule:evenodd;stroke-width:2.50000000000000000;fill:#000000;filter:url(#filter3171)" />
  <path
     sodipodi:nodetypes="ccccccccccccccccccccccc"
     id="path598"
     d="M 151.81451,54.280054 C 155.41151,54.280054 187.78851,30.297354 240.55151,27.898954 C 312.49951,19.504954 342.47851,66.271454 342.47851,66.271454 C 340.08051,72.267154 391.64251,29.098054 421.62151,32.695454 C 453.99851,37.492054 467.18951,51.881554 463.59151,81.860054 C 461.19351,101.04675 440.80751,109.44075 436.01151,119.03375 C 438.40951,123.82975 464.79051,139.41975 464.79051,181.38975 C 464.79051,223.35975 438.40951,246.14275 439.60851,246.14275 C 440.80751,246.14275 465.98951,288.11275 446.80351,313.29475 C 427.61751,338.47675 373.65551,314.49475 365.26151,309.69775 C 356.86751,312.09575 356.86751,328.88375 332.88451,332.48175 C 308.90151,336.07875 278.92351,325.28675 278.92351,325.28675 L 266.93251,315.69375 L 396.43951,451.19575 L 206.97451,322.88775 C 191.38651,327.68475 194.98351,331.28175 150.61551,336.07875 C 113.44151,336.07875 121.83551,328.88375 109.84451,324.08675 C 95.454508,333.67975 36.696708,346.87175 17.510308,310.89675 C 1.9214981,265.32975 25.904408,254.53675 30.700908,246.14275 C 25.904408,235.35075 10.315508,217.36375 12.713808,183.78775 C 12.713808,140.61775 23.506108,119.03375 33.099308,111.83875 C 28.302708,102.24575 9.1164081,63.872854 51.086308,39.890354 C 120.63651,21.903154 150.61551,55.479254 151.81451,54.280054 z"
     style="fill:#ffffff;fill-rule:evenodd;stroke:#000000;stroke-width:10;stroke-linejoin:round;stroke-dasharray:none" />
  <metadata
     id="metadata10">
    <rdf:RDF>
      <cc:Work
         rdf:about="">
        <dc:title>Clipart by Nicu Buculei - segmented</dc:title>
        <dc:rights>
          <cc:Agent>
            <dc:title>Nicu Buculei</dc:title>
          </cc:Agent>
        </dc:rights>
        <dc:type
           rdf:resource="http://purl.org/dc/dcmitype/StillImage" />
        <cc:license
           rdf:resource="http://web.resource.org/cc/PublicDomain" />
        <dc:format>image/svg+xml</dc:format>
      </cc:Work>
      <cc:License
         rdf:about="http://web.resource.org/cc/PublicDomain">
        <cc:permits
           rdf:resource="http://web.resource.org/cc/Reproduction" />
        <cc:permits
           rdf:resource="http://web.resource.org/cc/Distribution" />
        <cc:permits
           rdf:resource="http://web.resource.org/cc/DerivativeWorks" />
      </cc:License>
    </rdf:RDF>
  </metadata>
</svg>
