<?xml version="1.0" encoding="UTF-8" standalone="no"?>
<!-- Created with Inkscape (http://www.inkscape.org/) -->
<svg xmlns:dc="http://purl.org/dc/elements/1.1/" xmlns:cc="http://creativecommons.org/ns#" xmlns:rdf="http://www.w3.org/1999/02/22-rdf-syntax-ns#" xmlns:svg="http://www.w3.org/2000/svg" xmlns="http://www.w3.org/2000/svg" xmlns:sodipodi="http://sodipodi.sourceforge.net/DTD/sodipodi-0.dtd" xmlns:inkscape="http://www.inkscape.org/namespaces/inkscape" id="svg548" sodipodi:version="0.32" width="400pt" height="400pt" sodipodi:docbase="/var/www/html/svg_gallery/svg/callouts" sodipodi:docname="cloud.svg" inkscape:version="0.45+devel" inkscape:output_extension="org.inkscape.output.svg.inkscape">
  <metadata id="metadata8"/>
  <defs id="defs550">
    <filter inkscape:collect="always" id="filter3169">
      <feGaussianBlur inkscape:collect="always" stdDeviation="5.9066749" id="feGaussianBlur3171"/>
    </filter>
  </defs>
  <sodipodi:namedview id="base" inkscape:zoom="0.7725" inkscape:cx="200" inkscape:cy="200" inkscape:window-width="686" inkscape:window-height="717" inkscape:window-x="515" inkscape:window-y="24" showgrid="false" inkscape:current-layer="svg548"/>
  <path sodipodi:nodetypes="cccccccccccccccccc" id="path835" d="M 177.82632,71.015479 C 181.42332,71.015479 213.80032,47.032781 266.56332,44.634381 C 338.51132,36.240381 368.49032,83.006879 368.49032,83.006879 C 366.09232,89.002579 417.65432,45.833481 447.63332,49.430881 C 480.01032,54.227481 493.20132,68.616979 489.60332,98.595479 C 487.20532,117.78218 466.81932,126.17618 462.02332,135.76918 C 464.42132,140.56518 490.80232,156.15518 490.80232,198.12518 C 490.80232,240.09518 464.42132,262.87818 465.62032,262.87818 C 466.81932,262.87818 492.00132,304.84818 472.81532,330.03018 C 453.62932,355.21218 399.66732,331.23018 391.27332,326.43318 C 382.87932,328.83118 377.95325,373.90715 272.09658,378.70415 C 184.76076,378.70415 147.84732,345.61918 135.85632,340.82218 C 121.46632,350.41518 62.708521,363.60718 43.522121,327.63218 C 27.933311,282.06518 51.916221,271.27218 56.712721,262.87818 C 51.916221,252.08618 36.327321,234.09918 38.725621,200.52318 C 38.725621,157.35318 49.517921,135.76918 59.111121,128.57418 C 54.314521,118.98118 35.128221,80.608279 77.098121,56.625781 C 146.64832,38.638581 176.62732,72.214679 177.82632,71.015479 z" style="fill: rgb(0, 0, 0); fill-opacity: 0.498039; fill-rule: evenodd; stroke-width: 2.5; filter: url(&quot;#filter3169&quot;);"/>
  <path sodipodi:nodetypes="cccccccccccccccccc" id="path598" d="M 158.287,57.5163 C 161.884,57.5163 194.261,33.5336 247.024,31.1352 C 318.972,22.7412 348.951,69.5077 348.951,69.5077 C 346.553,75.5034 398.115,32.3343 428.094,35.9317 C 460.471,40.7283 473.662,55.1178 470.064,85.0963 C 467.666,104.283 447.28,112.677 442.484,122.27 C 444.882,127.066 471.263,142.656 471.263,184.626 C 471.263,226.596 444.882,249.379 446.081,249.379 C 447.28,249.379 472.462,291.349 453.276,316.531 C 434.09,341.713 380.128,317.731 371.734,312.934 C 363.34,315.332 358.41393,360.40797 252.55726,365.20497 C 165.22144,365.20497 128.308,332.12 116.317,327.323 C 101.927,336.916 43.1692,350.108 23.9828,314.133 C 8.39399,268.566 32.3769,257.773 37.1734,249.379 C 32.3769,238.587 16.788,220.6 19.1863,187.024 C 19.1863,143.854 29.9786,122.27 39.5718,115.075 C 34.7752,105.482 15.5889,67.1091 57.5588,43.1266 C 127.109,25.1394 157.088,58.7155 158.287,57.5163 z" style="fill: rgb(255, 255, 255); fill-rule: evenodd; stroke: rgb(0, 0, 0); stroke-width: 10; stroke-linejoin: round; stroke-dasharray: none;"/>
  <metadata id="metadata10">
    <rdf:RDF>
      <cc:Work rdf:about="">
        <dc:title>Clipart by Nicu Buculei - segmented</dc:title>
        <dc:rights>
          <cc:Agent>
            <dc:title>Nicu Buculei</dc:title>
          </cc:Agent>
        </dc:rights>
        <dc:type rdf:resource="http://purl.org/dc/dcmitype/StillImage"/>
        <cc:license rdf:resource="http://web.resource.org/cc/PublicDomain"/>
        <dc:format>image/svg+xml</dc:format>
      </cc:Work>
      <cc:License rdf:about="http://web.resource.org/cc/PublicDomain">
        <cc:permits rdf:resource="http://web.resource.org/cc/Reproduction"/>
        <cc:permits rdf:resource="http://web.resource.org/cc/Distribution"/>
        <cc:permits rdf:resource="http://web.resource.org/cc/DerivativeWorks"/>
      </cc:License>
    </rdf:RDF>
  </metadata>
</svg>