<?xml version="1.0" encoding="UTF-8" standalone="no"?>
<!-- Created with Inkscape (http://www.inkscape.org/) -->
<svg xmlns:dc="http://purl.org/dc/elements/1.1/" xmlns:cc="http://creativecommons.org/ns#" xmlns:rdf="http://www.w3.org/1999/02/22-rdf-syntax-ns#" xmlns:svg="http://www.w3.org/2000/svg" xmlns="http://www.w3.org/2000/svg" xmlns:sodipodi="http://sodipodi.sourceforge.net/DTD/sodipodi-0.dtd" xmlns:inkscape="http://www.inkscape.org/namespaces/inkscape" id="svg548" sodipodi:version="0.32" width="400pt" height="400pt" sodipodi:docbase="/var/www/html/svg_gallery/svg/callouts" sodipodi:docname="elips_c.svg" inkscape:version="0.45+devel" inkscape:output_extension="org.inkscape.output.svg.inkscape">
  <metadata id="metadata10"/>
  <defs id="defs550">
    <filter inkscape:collect="always" id="filter4261">
      <feGaussianBlur inkscape:collect="always" stdDeviation="6.5341381" id="feGaussianBlur4263"/>
    </filter>
  </defs>
  <sodipodi:namedview id="base" inkscape:zoom="0.7725" inkscape:cx="455.01618" inkscape:cy="200" inkscape:window-width="731" inkscape:window-height="717" inkscape:window-x="550" inkscape:window-y="34" showgrid="false" inkscape:current-layer="svg548"/>
  <path id="path670" d="M 261.21465,25.576861 C 145.06365,28.798102 28.328538,90.022728 25.236393,209.67061 C 27.95195,305.8559 116.82586,355.51568 216.44962,362.60811 C 211.47415,367.86686 208.42215,374.22369 208.17451,381.73311 C 208.87143,401.07855 231.34141,411.19407 256.81754,412.88936 C 256.00574,414.29553 255.46618,415.8542 255.41291,417.63936 C 255.90277,432.66563 291.77872,431.13315 292.51353,416.23311 C 292.49509,413.91279 291.58375,411.99265 290.1623,410.38936 C 311.74638,405.55258 329.39758,394.4697 330.31646,377.60811 C 330.2343,368.25455 325.01675,360.95448 317.00299,355.51436 C 409.83191,335.77393 489.86899,279.3998 493.71187,189.42061 C 492.93881,77.135852 377.36566,22.35562 261.21465,25.576861 z" style="fill-opacity: 0.498039; fill-rule: evenodd; stroke-width: 1.25; fill: rgb(0, 0, 0); filter: url(&quot;#filter4261&quot;);"/>
  <path sodipodi:nodetypes="ccc" id="path975" d="M 479.3664,178.08511 C 470.08977,395.29283 17.081467,417.38134 10.897175,198.3332 C 17.081467,-40.962575 477.82028,-46.484411 479.3664,178.08511 z" style="font-size: 12px; fill: rgb(255, 255, 255); fill-rule: evenodd; stroke: rgb(0, 0, 0); stroke-width: 10; stroke-linejoin: round; stroke-dasharray: none;"/>
  <path sodipodi:nodetypes="ccc" id="path976" d="M 315.97458,366.28238 C 313.55591,410.66442 195.44441,415.17776 193.832,370.41967 C 195.44441,321.52439 315.57146,320.39611 315.97458,366.28238 z" style="font-size: 12px; fill: rgb(255, 255, 255); fill-rule: evenodd; stroke: rgb(0, 0, 0); stroke-width: 10; stroke-linejoin: round; stroke-dasharray: none;"/>
  <path sodipodi:nodetypes="ccc" id="path977" d="M 278.17239,404.91395 C 277.43761,419.81398 241.55518,421.32921 241.06533,406.30293 C 241.55518,389.88771 278.04993,389.50892 278.17239,404.91395 z" style="font-size: 12px; fill: rgb(255, 255, 255); fill-rule: evenodd; stroke: rgb(0, 0, 0); stroke-width: 10; stroke-linejoin: round; stroke-dasharray: none;"/>
  <metadata id="metadata12">
    <rdf:RDF>
      <cc:Work rdf:about="">
        <dc:title>Clipart by Nicu Buculei - segmented</dc:title>
        <dc:rights>
          <cc:Agent>
            <dc:title>Nicu Buculei</dc:title>
          </cc:Agent>
        </dc:rights>
        <dc:type rdf:resource="http://purl.org/dc/dcmitype/StillImage"/>
        <cc:license rdf:resource="http://web.resource.org/cc/PublicDomain"/>
        <dc:format>image/svg+xml</dc:format>
      </cc:Work>
      <cc:License rdf:about="http://web.resource.org/cc/PublicDomain">
        <cc:permits rdf:resource="http://web.resource.org/cc/Reproduction"/>
        <cc:permits rdf:resource="http://web.resource.org/cc/Distribution"/>
        <cc:permits rdf:resource="http://web.resource.org/cc/DerivativeWorks"/>
      </cc:License>
    </rdf:RDF>
  </metadata>
</svg>