<?xml version="1.0" encoding="UTF-8" standalone="no"?>
<!-- Created with Inkscape (http://www.inkscape.org/) -->
<svg xmlns:dc="http://purl.org/dc/elements/1.1/" xmlns:cc="http://creativecommons.org/ns#" xmlns:rdf="http://www.w3.org/1999/02/22-rdf-syntax-ns#" xmlns:svg="http://www.w3.org/2000/svg" xmlns="http://www.w3.org/2000/svg" xmlns:sodipodi="http://sodipodi.sourceforge.net/DTD/sodipodi-0.dtd" xmlns:inkscape="http://www.inkscape.org/namespaces/inkscape" id="svg548" sodipodi:version="0.32" width="400pt" height="400pt" sodipodi:docbase="/var/www/html/svg_gallery/svg/callouts" sodipodi:docname="segmented.svg" inkscape:version="0.45+devel" inkscape:output_extension="org.inkscape.output.svg.inkscape">
  <metadata id="metadata2397"/>
  <defs id="defs550">
    <filter inkscape:collect="always" id="filter3734">
      <feGaussianBlur inkscape:collect="always" stdDeviation="5.8098427" id="feGaussianBlur3736"/>
    </filter>
  </defs>
  <sodipodi:namedview id="base" inkscape:zoom="0.7725" inkscape:cx="455.01618" inkscape:cy="200" inkscape:window-width="731" inkscape:window-height="717" inkscape:window-x="324" inkscape:window-y="24" showgrid="false" inkscape:current-layer="svg548"/>
  <path sodipodi:nodetypes="ccccccccccccccccccccc" id="path841" d="M 274.76391,333.76669 L 358.93439,360.45108 C 374.52339,346.06208 388.91339,330.47308 404.50139,319.68008 C 424.88739,325.67608 477.64939,338.86608 486.04339,342.46308 L 465.65839,274.11308 L 496.83539,218.95208 L 465.65839,166.19008 L 480.04739,89.444778 L 400.90439,111.02898 L 337.35039,69.059482 L 258.20639,123.02108 L 183.85939,73.855882 L 127.49939,124.22008 L 44.758996,109.83018 L 79.534096,179.38008 L 38.763296,244.13408 L 79.534096,286.10408 L 54.352096,368.84508 L 131.09639,336.46808 L 177.86439,385.63308 L 274.76391,333.76669 z" style="fill-opacity: 0.498039; fill-rule: evenodd; stroke-width: 2.5; fill: rgb(0, 0, 0); filter: url(&quot;#filter3734&quot;);"/>
  <path sodipodi:nodetypes="ccccccccccccccccccccc" id="path592" d="M 259.98352,313.82961 L 344.154,340.514 C 359.743,326.125 374.133,310.536 389.721,299.743 C 410.107,305.739 462.869,318.929 471.263,322.526 L 450.878,254.176 L 482.055,199.015 L 450.878,146.253 L 465.267,69.5077 L 386.124,91.0919 L 322.57,49.1224 L 243.426,103.084 L 169.079,53.9188 L 112.719,104.283 L 29.9786,89.8931 L 64.7537,159.443 L 23.9829,224.197 L 64.7537,266.167 L 39.5717,348.908 L 116.316,316.531 L 163.084,365.696 L 259.98352,313.82961 z" style="fill: rgb(255, 255, 255); fill-rule: evenodd; stroke: rgb(0, 0, 0); stroke-width: 10; stroke-linejoin: round; stroke-dasharray: none;"/>
  <metadata id="metadata2399">
    <rdf:RDF>
      <cc:Work rdf:about="">
        <dc:title>Clipart by Nicu Buculei - segmented</dc:title>
        <dc:rights>
          <cc:Agent>
            <dc:title>Nicu Buculei</dc:title>
          </cc:Agent>
        </dc:rights>
        <dc:type rdf:resource="http://purl.org/dc/dcmitype/StillImage"/>
        <cc:license rdf:resource="http://web.resource.org/cc/PublicDomain"/>
        <dc:format>image/svg+xml</dc:format>
      </cc:Work>
      <cc:License rdf:about="http://web.resource.org/cc/PublicDomain">
        <cc:permits rdf:resource="http://web.resource.org/cc/Reproduction"/>
        <cc:permits rdf:resource="http://web.resource.org/cc/Distribution"/>
        <cc:permits rdf:resource="http://web.resource.org/cc/DerivativeWorks"/>
      </cc:License>
    </rdf:RDF>
  </metadata>
</svg>