<?xml version="1.0" encoding="UTF-8" standalone="no"?>
<!-- Created with Inkscape (http://www.inkscape.org/) -->
<svg xmlns:dc="http://purl.org/dc/elements/1.1/" xmlns:cc="http://creativecommons.org/ns#" xmlns:rdf="http://www.w3.org/1999/02/22-rdf-syntax-ns#" xmlns:svg="http://www.w3.org/2000/svg" xmlns="http://www.w3.org/2000/svg" xmlns:sodipodi="http://sodipodi.sourceforge.net/DTD/sodipodi-0.dtd" xmlns:inkscape="http://www.inkscape.org/namespaces/inkscape" id="svg548" sodipodi:version="0.32" width="400pt" height="400pt" sodipodi:docbase="/var/www/html/svg_gallery/svg/callouts" sodipodi:docname="stared_l.svg" inkscape:version="0.45+devel" inkscape:output_extension="org.inkscape.output.svg.inkscape">
  <metadata id="metadata2421"/>
  <defs id="defs550">
    <filter inkscape:collect="always" id="filter3742">
      <feGaussianBlur inkscape:collect="always" stdDeviation="7.1066039" id="feGaussianBlur3744"/>
    </filter>
  </defs>
  <sodipodi:namedview id="base" inkscape:zoom="0.7725" inkscape:cx="200" inkscape:cy="200" inkscape:window-width="796" inkscape:window-height="717" inkscape:window-x="0" inkscape:window-y="24" showgrid="false" inkscape:current-layer="svg548"/>
  <path sodipodi:nodetypes="ccccccccccccccccccccccccccccccccccccccccc" id="path821" d="M 320.592,299.10203 L 377.88692,352.94738 L 351.57001,260.10027 L 451.07592,283.01291 L 392.15742,231.46157 L 502.13745,231.46157 L 400.01329,199.95684 L 490.35419,159.96631 L 414.28379,143.84136 L 453.70728,94.490888 L 391.58201,103.71111 L 414.4159,41.007373 L 355.19714,79.904041 L 341.27712,22.122689 L 299.18515,73.908088 C 299.18515,70.311233 274.47873,22.857107 273.1696,22.857107 C 271.86047,22.857107 247.70434,72.942 247.70434,72.942 L 203.62083,26.686826 L 192.5571,81.102992 L 151.26218,34.511061 C 151.26218,34.511061 150.35922,86.56276 147.74095,86.56276 C 145.12269,86.56276 85.208527,54.291375 85.208527,54.291375 C 85.208527,54.291375 99.58494,113.57261 99.58494,115.00443 C 99.58494,116.43624 34.578489,104.6784 34.578489,104.6784 L 88.115254,147.43941 L 31.383731,166.95223 C 31.383731,166.95223 78.937476,203.15962 77.628128,204.59143 C 76.318889,206.02325 35.586924,242.41573 35.586924,242.41573 C 35.586924,242.41573 108.18644,240.62447 106.87731,240.62447 C 106.73318,241.82342 37.459668,295.16722 37.459668,296.59904 C 37.459668,298.03085 112.83554,277.51731 112.83554,277.51731 L 62.04795,352.05055 L 146.73208,291.605 L 128.83445,357.20819 L 178.73098,316.01871 L 165.19311,351.67797 L 229.96393,320.54702 L 69.253625,498.91616 L 270.53824,319.84843 L 294.9444,363.5421 L 320.592,299.10203 z" style="fill-opacity: 0.498039; fill-rule: evenodd; stroke-width: 2.15822; fill: rgb(0, 0, 0); filter: url(&quot;#filter3742&quot;);"/>
  <path sodipodi:nodetypes="ccccccccccccccccccccccccccccccccccccccccc" id="path599" d="M 297.00654,287.77517 L 354.30146,341.62052 L 327.98455,248.77341 L 427.49046,271.68605 L 368.57195,220.13471 L 478.55199,220.13471 L 376.42783,188.62998 L 466.76873,148.63945 L 390.69833,132.5145 L 430.12182,83.164027 L 367.99655,92.384253 L 390.83044,29.680512 L 331.61168,68.57718 L 317.69166,10.795828 L 275.59969,62.581227 C 275.59969,58.984372 250.89327,11.530246 249.58414,11.530246 C 248.27501,11.530246 224.11889,61.61514 224.11889,61.61514 L 180.03537,15.359965 L 168.97163,69.776132 L 127.67672,23.1842 C 127.67672,23.1842 126.77376,75.2359 124.15549,75.2359 C 121.53723,75.2359 61.62307,42.964514 61.62307,42.964514 C 61.62307,42.964514 75.999482,102.24575 75.999482,103.67757 C 75.999482,105.10938 10.993033,93.351534 10.993033,93.351534 L 64.529798,136.11255 L 7.7982753,155.62537 C 7.7982753,155.62537 55.35202,191.83276 54.042672,193.26457 C 52.733433,194.69639 12.001468,231.08887 12.001468,231.08887 C 12.001468,231.08887 84.600981,229.29761 83.29185,229.29761 C 83.147725,230.49656 13.874212,283.84036 13.874212,285.27218 C 13.874212,286.70399 89.250085,266.19045 89.250085,266.19045 L 38.462493,340.72369 L 123.14662,280.27814 L 105.24898,345.88133 L 155.14551,304.69185 L 141.60765,340.35111 L 206.37847,309.22016 L 45.668169,487.5893 L 246.95278,308.52157 L 271.35894,352.21524 L 297.00654,287.77517 z" style="font-size: 12px; fill: rgb(255, 255, 255); fill-rule: evenodd; stroke: rgb(0, 0, 0); stroke-width: 10; stroke-linejoin: round; stroke-dasharray: none;"/>
  <metadata id="metadata2423">
    <rdf:RDF>
      <cc:Work rdf:about="">
        <dc:title>Clipart by Nicu Buculei - segmented</dc:title>
        <dc:rights>
          <cc:Agent>
            <dc:title>Nicu Buculei</dc:title>
          </cc:Agent>
        </dc:rights>
        <dc:type rdf:resource="http://purl.org/dc/dcmitype/StillImage"/>
        <cc:license rdf:resource="http://web.resource.org/cc/PublicDomain"/>
        <dc:format>image/svg+xml</dc:format>
      </cc:Work>
      <cc:License rdf:about="http://web.resource.org/cc/PublicDomain">
        <cc:permits rdf:resource="http://web.resource.org/cc/Reproduction"/>
        <cc:permits rdf:resource="http://web.resource.org/cc/Distribution"/>
        <cc:permits rdf:resource="http://web.resource.org/cc/DerivativeWorks"/>
      </cc:License>
    </rdf:RDF>
  </metadata>
</svg>