<?xml version="1.0" encoding="UTF-8" standalone="no"?>
<!-- Created with Inkscape (http://www.inkscape.org/) -->
<svg xmlns:dc="http://purl.org/dc/elements/1.1/" xmlns:cc="http://creativecommons.org/ns#" xmlns:rdf="http://www.w3.org/1999/02/22-rdf-syntax-ns#" xmlns:svg="http://www.w3.org/2000/svg" xmlns="http://www.w3.org/2000/svg" xmlns:sodipodi="http://sodipodi.sourceforge.net/DTD/sodipodi-0.dtd" xmlns:inkscape="http://www.inkscape.org/namespaces/inkscape" id="svg548" sodipodi:version="0.32" width="400pt" height="400pt" sodipodi:docbase="/var/www/html/svg_gallery/svg/callouts" sodipodi:docname="stared_c.svg" inkscape:version="0.45+devel" inkscape:output_extension="org.inkscape.output.svg.inkscape">
  <metadata id="metadata2409"/>
  <defs id="defs550">
    <filter inkscape:collect="always" id="filter4281">
      <feGaussianBlur inkscape:collect="always" stdDeviation="6.9986507" id="feGaussianBlur4283"/>
    </filter>
  </defs>
  <sodipodi:namedview id="base" inkscape:zoom="0.7725" inkscape:cx="455.01618" inkscape:cy="200" inkscape:window-width="731" inkscape:window-height="717" inkscape:window-x="28" inkscape:window-y="37" showgrid="false" inkscape:current-layer="svg548"/>
  <path sodipodi:nodetypes="ccccccccccccccccccccccccccccccccccccccccc" id="path816" d="M 316.66305,307.19264 L 386.48781,359.83904 L 348.03538,268.19089 L 448.80784,291.10352 L 389.13939,239.55218 L 500.51932,239.55218 L 397.09526,208.04746 L 488.58607,168.05693 L 411.5474,151.93198 L 451.4727,102.5815 L 388.55667,111.80173 L 411.6812,49.097988 L 351.70868,87.994656 L 337.61147,30.213304 L 294.98373,81.998703 C 294.98373,78.401848 269.96284,30.947722 268.63704,30.947722 C 267.31125,30.947722 242.84765,81.032615 242.84765,81.032615 L 198.20302,34.777441 L 186.99846,89.193607 L 145.17792,42.601676 C 145.17792,42.601676 144.26346,94.653375 141.61187,94.653375 C 138.96028,94.653375 78.283515,62.38199 78.283515,62.38199 C 78.283515,62.38199 92.842917,121.66323 92.842917,123.09504 C 92.842917,124.52686 27.009032,112.76901 27.009032,112.76901 L 81.227241,155.53003 L 23.773609,175.04285 C 23.773609,175.04285 71.932643,211.25024 70.606629,212.68205 C 69.280725,214.11387 28.030302,250.50635 28.030302,250.50635 C 28.030302,250.50635 101.5539,248.71509 100.2281,248.71509 C 100.08215,249.91404 29.926884,303.25784 29.926884,304.68965 C 29.926884,306.12147 106.26218,285.60793 106.26218,285.60793 L 54.828138,360.14117 L 140.59016,299.69561 L 122.46472,365.29881 L 172.99636,324.10933 L 175.80718,368.16244 L 224.88144,328.63764 L 260.37599,486.62102 L 273.0523,330.33814 L 308.38983,357.24291 L 316.66305,307.19264 z" style="fill-opacity: 0.498039; fill-rule: evenodd; stroke-width: 2.15822; fill: rgb(0, 0, 0); filter: url(&quot;#filter4281&quot;);"/>
  <path sodipodi:nodetypes="ccccccccccccccccccccccccccccccccccccccccc" id="path599" d="M 299.14691,289.39329 L 368.97166,342.03969 L 330.51923,250.39153 L 431.2917,273.30417 L 371.62325,221.75283 L 483.00317,221.75283 L 379.57911,190.2481 L 471.06993,150.25757 L 394.03126,134.13263 L 433.95655,84.78215 L 371.04052,94.002376 L 394.16506,31.298635 L 334.19253,70.195303 L 320.09533,12.413951 L 277.46759,64.19935 C 277.46759,60.602495 252.44669,13.148369 251.1209,13.148369 C 249.79511,13.148369 225.3315,63.233263 225.3315,63.233263 L 180.68687,16.978088 L 169.48232,71.394255 L 127.66177,24.802323 C 127.66177,24.802323 126.74731,76.854023 124.09573,76.854023 C 121.44414,76.854023 60.767361,44.582637 60.767361,44.582637 C 60.767361,44.582637 75.326763,103.86387 75.326763,105.29569 C 75.326763,106.7275 9.4928785,94.969657 9.4928785,94.969657 L 63.711087,137.73068 L 6.2574559,157.2435 C 6.2574559,157.2435 54.416489,193.45088 53.090475,194.8827 C 51.764571,196.31451 10.514149,232.707 10.514149,232.707 C 10.514149,232.707 84.037746,230.91573 82.711952,230.91573 C 82.565993,232.11469 12.41073,285.45848 12.41073,286.8903 C 12.41073,288.32211 88.746027,267.80858 88.746027,267.80858 L 37.311984,342.34181 L 123.07401,281.89626 L 104.94857,347.49946 L 155.48021,306.30997 L 158.29103,350.36309 L 207.36529,310.83828 L 242.85985,468.82167 L 255.53616,312.53879 L 290.87369,339.44355 L 299.14691,289.39329 z" style="font-size: 12px; fill: rgb(255, 255, 255); fill-rule: evenodd; stroke: rgb(0, 0, 0); stroke-width: 10; stroke-linejoin: round; stroke-dasharray: none;"/>
  <metadata id="metadata2411">
    <rdf:RDF>
      <cc:Work rdf:about="">
        <dc:title>Clipart by Nicu Buculei - segmented</dc:title>
        <dc:rights>
          <cc:Agent>
            <dc:title>Nicu Buculei</dc:title>
          </cc:Agent>
        </dc:rights>
        <dc:type rdf:resource="http://purl.org/dc/dcmitype/StillImage"/>
        <cc:license rdf:resource="http://web.resource.org/cc/PublicDomain"/>
        <dc:format>image/svg+xml</dc:format>
      </cc:Work>
      <cc:License rdf:about="http://web.resource.org/cc/PublicDomain">
        <cc:permits rdf:resource="http://web.resource.org/cc/Reproduction"/>
        <cc:permits rdf:resource="http://web.resource.org/cc/Distribution"/>
        <cc:permits rdf:resource="http://web.resource.org/cc/DerivativeWorks"/>
      </cc:License>
    </rdf:RDF>
  </metadata>
</svg>