<?xml version="1.0" encoding="UTF-8" standalone="no"?>
<!-- Created with Inkscape (http://www.inkscape.org/) -->
<svg
   xmlns:dc="http://purl.org/dc/elements/1.1/"
   xmlns:cc="http://creativecommons.org/ns#"
   xmlns:rdf="http://www.w3.org/1999/02/22-rdf-syntax-ns#"
   xmlns:svg="http://www.w3.org/2000/svg"
   xmlns="http://www.w3.org/2000/svg"
   xmlns:sodipodi="http://sodipodi.sourceforge.net/DTD/sodipodi-0.dtd"
   xmlns:inkscape="http://www.inkscape.org/namespaces/inkscape"
   id="svg548"
   sodipodi:version="0.32"
   width="400pt"
   height="400pt"
   sodipodi:docbase="/var/www/html/svg_gallery/svg/callouts"
   sodipodi:docname="cloud_l.svg"
   inkscape:version="0.45+devel"
   inkscape:output_extension="org.inkscape.output.svg.inkscape">
  <metadata
     id="metadata8" />
  <defs
     id="defs550">
    <filter
       inkscape:collect="always"
       id="filter3171">
      <feGaussianBlur
         inkscape:collect="always"
         stdDeviation="6.5758775"
         id="feGaussianBlur3173" />
    </filter>
  </defs>
  <sodipodi:namedview
     id="base"
     inkscape:zoom="0.7725"
     inkscape:cx="467.39193"
     inkscape:cy="200"
     inkscape:window-width="731"
     inkscape:window-height="717"
     inkscape:window-x="550"
     inkscape:window-y="34"
     showgrid="false"
     inkscape:current-layer="svg548" />
  <path
     sodipodi:nodetypes="ccccccccccccccccccccccc"
     id="path655"
     d="M 172.8501,70.461284 C 176.4471,70.461284 208.8241,46.478584 261.5871,44.080184 C 333.5351,35.686184 363.5141,82.452684 363.5141,82.452684 C 361.1161,88.448384 412.6781,45.279284 442.6571,48.876684 C 475.0341,53.673284 488.2251,68.062784 484.6271,98.041284 C 482.2291,117.22798 461.8431,125.62198 457.0471,135.21498 C 459.4451,140.01098 485.8261,155.60098 485.8261,197.57098 C 485.8261,239.54098 459.4451,262.32398 460.6441,262.32398 C 461.8431,262.32398 487.0251,304.29398 467.8391,329.47598 C 448.6531,354.65798 394.6911,330.67598 386.2971,325.87898 C 377.9031,328.27698 377.9031,345.06498 353.9201,348.66298 C 329.9371,352.25998 299.9591,341.46798 299.9591,341.46798 L 287.9681,331.87498 L 118.8891,467.37698 L 228.0101,339.06898 C 212.4221,343.86598 216.0191,347.46298 171.6511,352.25998 C 134.4771,352.25998 142.8711,345.06498 130.8801,340.26798 C 116.4901,349.86098 57.732307,363.05298 38.545907,327.07798 C 22.957097,281.51098 46.940007,270.71798 51.736507,262.32398 C 46.940007,251.53198 31.351107,233.54498 33.749407,199.96898 C 33.749407,156.79898 44.541707,135.21498 54.134907,128.01998 C 49.338307,118.42698 30.152007,80.054084 72.121907,56.071584 C 141.6721,38.084384 171.6511,71.660484 172.8501,70.461284 z"
     style="fill-opacity:0.49803922000000000;fill-rule:evenodd;stroke-width:2.50000000000000000;fill:#000000;filter:url(#filter3171)" />
  <path
     sodipodi:nodetypes="ccccccccccccccccccccccc"
     id="path598"
     d="M 158.287,57.5163 C 161.884,57.5163 194.261,33.5336 247.024,31.1352 C 318.972,22.7412 348.951,69.5077 348.951,69.5077 C 346.553,75.5034 398.115,32.3343 428.094,35.9317 C 460.471,40.7283 473.662,55.1178 470.064,85.0963 C 467.666,104.283 447.28,112.677 442.484,122.27 C 444.882,127.066 471.263,142.656 471.263,184.626 C 471.263,226.596 444.882,249.379 446.081,249.379 C 447.28,249.379 472.462,291.349 453.276,316.531 C 434.09,341.713 380.128,317.731 371.734,312.934 C 363.34,315.332 363.34,332.12 339.357,335.718 C 315.374,339.315 285.396,328.523 285.396,328.523 L 273.405,318.93 L 104.326,454.432 L 213.447,326.124 C 197.859,330.921 201.456,334.518 157.088,339.315 C 119.914,339.315 128.308,332.12 116.317,327.323 C 101.927,336.916 43.1692,350.108 23.9828,314.133 C 8.39399,268.566 32.3769,257.773 37.1734,249.379 C 32.3769,238.587 16.788,220.6 19.1863,187.024 C 19.1863,143.854 29.9786,122.27 39.5718,115.075 C 34.7752,105.482 15.5889,67.1091 57.5588,43.1266 C 127.109,25.1394 157.088,58.7155 158.287,57.5163 z"
     style="fill:#ffffff;fill-rule:evenodd;stroke:#000000;stroke-width:10;stroke-linejoin:round;stroke-dasharray:none" />
  <metadata
     id="metadata10">
    <rdf:RDF>
      <cc:Work
         rdf:about="">
        <dc:title>Clipart by Nicu Buculei - segmented</dc:title>
        <dc:rights>
          <cc:Agent>
            <dc:title>Nicu Buculei</dc:title>
          </cc:Agent>
        </dc:rights>
        <dc:type
           rdf:resource="http://purl.org/dc/dcmitype/StillImage" />
        <cc:license
           rdf:resource="http://web.resource.org/cc/PublicDomain" />
        <dc:format>image/svg+xml</dc:format>
      </cc:Work>
      <cc:License
         rdf:about="http://web.resource.org/cc/PublicDomain">
        <cc:permits
           rdf:resource="http://web.resource.org/cc/Reproduction" />
        <cc:permits
           rdf:resource="http://web.resource.org/cc/Distribution" />
        <cc:permits
           rdf:resource="http://web.resource.org/cc/DerivativeWorks" />
      </cc:License>
    </rdf:RDF>
  </metadata>
</svg>
