<?xml version="1.0" encoding="UTF-8" standalone="no"?>
<!-- Created with Inkscape (http://www.inkscape.org/) -->
<svg xmlns:dc="http://purl.org/dc/elements/1.1/" xmlns:cc="http://creativecommons.org/ns#" xmlns:rdf="http://www.w3.org/1999/02/22-rdf-syntax-ns#" xmlns:svg="http://www.w3.org/2000/svg" xmlns="http://www.w3.org/2000/svg" xmlns:sodipodi="http://sodipodi.sourceforge.net/DTD/sodipodi-0.dtd" xmlns:inkscape="http://www.inkscape.org/namespaces/inkscape" id="svg548" sodipodi:version="0.32" width="400pt" height="400pt" sodipodi:docbase="/var/www/html/svg_gallery/svg/callouts" sodipodi:docname="round_l.svg" inkscape:version="0.45+devel" inkscape:output_extension="org.inkscape.output.svg.inkscape">
  <metadata id="metadata2421"/>
  <defs id="defs550">
    <filter inkscape:collect="always" id="filter3239">
      <feGaussianBlur inkscape:collect="always" stdDeviation="6.9230635" id="feGaussianBlur3241"/>
    </filter>
  </defs>
  <sodipodi:namedview id="base" inkscape:zoom="0.7725" inkscape:cx="455.01618" inkscape:cy="200" inkscape:window-width="731" inkscape:window-height="717" inkscape:window-x="0" inkscape:window-y="24" showgrid="false" inkscape:current-layer="svg548"/>
  <path id="path780" d="M 257.44008,30.840615 C 148.26068,32.594977 51.959695,93.437371 31.514119,179.74687 C 8.1572899,278.34599 92.595869,373.02219 220.01919,391.15312 C 220.046,391.30501 220.00085,391.52974 219.98874,391.74687 L 219.25798,391.77812 L 119.96626,484.12187 L 323.96949,388.27812 L 321.95991,388.34062 L 323.26918,387.34062 L 326.19221,387.24687 L 323.96949,388.27812 L 326.77073,388.18437 L 326.77073,387.21562 L 326.80118,387.21562 C 415.07407,367.77053 476.9617,315.08459 493.50531,245.24687 C 516.87169,146.60745 432.32807,51.885091 304.81755,33.809365 C 288.87873,31.549899 273.03714,30.589992 257.44008,30.840615 z" style="font-size: 12px; fill-opacity: 0.498039; fill-rule: evenodd; stroke-width: 2.5; fill: rgb(0, 0, 0); filter: url(&quot;#filter3239&quot;);"/>
  <path id="path779" d="M 241.67401,22.75 C 132.4946,24.504362 36.193614,85.346756 15.748037,171.65625 C -7.6087911,270.25537 76.829788,364.93157 204.25312,383.0625 C 204.27992,383.21439 204.23477,383.43913 204.22267,383.65625 L 203.49191,383.6875 L 104.20019,476.03125 L 308.20342,380.1875 L 306.19384,380.25 L 307.50311,379.25 L 310.42614,379.15625 L 308.20342,380.1875 L 311.00466,380.09375 L 311.00466,379.125 L 311.03511,379.125 C 399.30799,359.67991 461.19562,306.99397 477.73924,237.15625 C 501.10561,138.51683 416.56199,43.794476 289.05147,25.71875 C 273.11266,23.459284 257.27106,22.499377 241.67401,22.75 z" style="font-size: 12px; fill: rgb(255, 255, 255); fill-rule: evenodd; stroke: rgb(0, 0, 0); stroke-width: 10; stroke-linejoin: round; stroke-dasharray: none;"/>
  <metadata id="metadata2423">
    <rdf:RDF>
      <cc:Work rdf:about="">
        <dc:title>Clipart by Nicu Buculei - segmented</dc:title>
        <dc:rights>
          <cc:Agent>
            <dc:title>Nicu Buculei</dc:title>
          </cc:Agent>
        </dc:rights>
        <dc:type rdf:resource="http://purl.org/dc/dcmitype/StillImage"/>
        <cc:license rdf:resource="http://web.resource.org/cc/PublicDomain"/>
        <dc:format>image/svg+xml</dc:format>
      </cc:Work>
      <cc:License rdf:about="http://web.resource.org/cc/PublicDomain">
        <cc:permits rdf:resource="http://web.resource.org/cc/Reproduction"/>
        <cc:permits rdf:resource="http://web.resource.org/cc/Distribution"/>
        <cc:permits rdf:resource="http://web.resource.org/cc/DerivativeWorks"/>
      </cc:License>
    </rdf:RDF>
  </metadata>
</svg>