<?xml version="1.0" encoding="UTF-8" standalone="no"?>
<!-- Created with Inkscape (http://www.inkscape.org/) -->
<svg xmlns:dc="http://purl.org/dc/elements/1.1/" xmlns:cc="http://creativecommons.org/ns#" xmlns:rdf="http://www.w3.org/1999/02/22-rdf-syntax-ns#" xmlns:svg="http://www.w3.org/2000/svg" xmlns="http://www.w3.org/2000/svg" xmlns:sodipodi="http://sodipodi.sourceforge.net/DTD/sodipodi-0.dtd" xmlns:inkscape="http://www.inkscape.org/namespaces/inkscape" id="svg548" sodipodi:version="0.32" width="400pt" height="400pt" sodipodi:docbase="/var/www/html/svg_gallery/svg/callouts" sodipodi:docname="elips_r.svg" inkscape:version="0.45+devel" inkscape:output_extension="org.inkscape.output.svg.inkscape">
  <metadata id="metadata2415"/>
  <defs id="defs550">
    <filter inkscape:collect="always" id="filter3203">
      <feGaussianBlur inkscape:collect="always" stdDeviation="6.406167" id="feGaussianBlur3205"/>
    </filter>
  </defs>
  <sodipodi:namedview id="base" inkscape:zoom="0.7725" inkscape:cx="455.01618" inkscape:cy="200" inkscape:window-width="731" inkscape:window-height="717" inkscape:window-x="0" inkscape:window-y="24" showgrid="false" inkscape:current-layer="svg548"/>
  <path id="path690" d="M 260.12,23.958738 C 143.55069,20.737497 27.561302,75.517729 26.785457,187.80249 C 32.397909,318.74368 199.78559,378.63605 333.27072,357.67749 C 333.11515,358.76237 332.97434,359.84672 332.96426,360.98999 C 334.58975,390.7105 388.19803,402.44374 423.98128,393.58374 C 423.78003,394.31228 423.62006,395.04751 423.61353,395.86499 C 424.35096,410.76503 460.35616,412.29751 460.84777,397.27124 C 460.62051,389.68318 452.64096,385.68711 444.14599,384.92749 C 450.9455,379.96432 455.24743,373.37605 455.5461,365.11499 C 454.94796,347.04211 438.07949,335.54881 417.05541,330.48999 C 463.41367,305.31705 495.33814,264.87349 496.94812,208.05249 C 493.84485,88.404605 376.68932,27.179979 260.12,23.958738 z" style="fill-opacity: 0.498039; fill-rule: evenodd; stroke-width: 1.25; fill: rgb(0, 0, 0); filter: url(&quot;#filter3203&quot;);"/>
  <path sodipodi:nodetypes="ccc" id="path975" d="M 10.919148,182.93947 C 20.22919,400.1472 474.86897,422.23571 481.07554,203.18756 C 474.86897,-36.108206 12.470838,-41.630042 10.919148,182.93947 z" style="font-size: 12px; fill: rgb(255, 255, 255); fill-rule: evenodd; stroke: rgb(0, 0, 0); stroke-width: 10; stroke-linejoin: round; stroke-dasharray: none;"/>
  <path sodipodi:nodetypes="ccc" id="path976" d="M 317.09437,356.13675 C 319.52176,400.51878 438.05862,405.03213 439.67685,360.27404 C 438.05862,311.37875 317.49894,310.25048 317.09437,356.13675 z" style="font-size: 12px; fill: rgb(255, 255, 255); fill-rule: evenodd; stroke: rgb(0, 0, 0); stroke-width: 10; stroke-linejoin: round; stroke-dasharray: none;"/>
  <path sodipodi:nodetypes="ccc" id="path977" d="M 407.74289,391.01832 C 408.48033,405.91835 444.49198,407.43358 444.98359,392.4073 C 444.49198,375.99208 407.8658,375.61329 407.74289,391.01832 z" style="font-size: 12px; fill: rgb(255, 255, 255); fill-rule: evenodd; stroke: rgb(0, 0, 0); stroke-width: 10; stroke-linejoin: round; stroke-dasharray: none;"/>
  <metadata id="metadata2417">
    <rdf:RDF>
      <cc:Work rdf:about="">
        <dc:title>Clipart by Nicu Buculei - segmented</dc:title>
        <dc:rights>
          <cc:Agent>
            <dc:title>Nicu Buculei</dc:title>
          </cc:Agent>
        </dc:rights>
        <dc:type rdf:resource="http://purl.org/dc/dcmitype/StillImage"/>
        <cc:license rdf:resource="http://web.resource.org/cc/PublicDomain"/>
        <dc:format>image/svg+xml</dc:format>
      </cc:Work>
      <cc:License rdf:about="http://web.resource.org/cc/PublicDomain">
        <cc:permits rdf:resource="http://web.resource.org/cc/Reproduction"/>
        <cc:permits rdf:resource="http://web.resource.org/cc/Distribution"/>
        <cc:permits rdf:resource="http://web.resource.org/cc/DerivativeWorks"/>
      </cc:License>
    </rdf:RDF>
  </metadata>
</svg>