<?xml version="1.0" encoding="UTF-8" standalone="no"?>
<!-- Created with Inkscape (http://www.inkscape.org/) -->
<svg xmlns:dc="http://purl.org/dc/elements/1.1/" xmlns:cc="http://creativecommons.org/ns#" xmlns:rdf="http://www.w3.org/1999/02/22-rdf-syntax-ns#" xmlns:svg="http://www.w3.org/2000/svg" xmlns="http://www.w3.org/2000/svg" xmlns:sodipodi="http://sodipodi.sourceforge.net/DTD/sodipodi-0.dtd" xmlns:inkscape="http://www.inkscape.org/namespaces/inkscape" id="svg548" sodipodi:version="0.32" width="400pt" height="400pt" sodipodi:docbase="/var/www/html/svg_gallery/svg/callouts" sodipodi:docname="round_c.svg" inkscape:version="0.45+devel" inkscape:output_extension="org.inkscape.output.svg.inkscape">
  <metadata id="metadata2409"/>
  <defs id="defs550">
    <filter inkscape:collect="always" id="filter3778">
      <feGaussianBlur inkscape:collect="always" stdDeviation="6.8958863" id="feGaussianBlur3780"/>
    </filter>
  </defs>
  <sodipodi:namedview id="base" inkscape:zoom="0.7725" inkscape:cx="383.96036" inkscape:cy="200" inkscape:window-width="731" inkscape:window-height="717" inkscape:window-x="0" inkscape:window-y="24" showgrid="false" inkscape:current-layer="svg548"/>
  <path id="path732" d="M 253.30212,32.458738 C 143.41791,34.2131 46.495261,95.055494 25.917699,181.36499 C 2.4004848,280.0044 87.459215,374.72675 215.79288,392.80249 L 217.04932,392.77124 C 217.00787,393.00519 217.08314,393.10057 217.01867,393.33374 L 214.87354,393.39624 L 274.9067,479.08374 L 322.40614,389.83374 L 318.14652,389.98999 C 318.28234,389.98454 320.84326,389.86499 320.84326,389.86499 L 322.52872,388.86499 L 322.92711,388.83374 L 322.40614,389.83374 L 323.08033,389.80249 L 323.08033,388.83374 L 323.11098,388.83374 C 411.95371,369.38865 474.24085,316.70271 490.89126,246.86499 C 514.40847,148.22557 429.31909,53.503214 300.98543,35.427488 C 284.94372,33.168022 268.99987,32.208115 253.30212,32.458738 z" style="font-size: 12px; fill: rgb(0, 0, 0); fill-opacity: 0.498039; fill-rule: evenodd; stroke-width: 2.5; filter: url(&quot;#filter3778&quot;);"/>
  <path id="path731" d="M 240.60783,22.75 C 130.72363,24.504362 33.800974,85.346756 13.223412,171.65625 C -10.293802,270.29567 74.764928,365.01802 203.0986,383.09375 L 204.35504,383.0625 C 204.31358,383.29646 204.38885,383.39184 204.32439,383.625 L 202.17925,383.6875 L 262.21242,469.375 L 309.71186,380.125 L 305.45223,380.28125 C 305.58806,380.27581 308.14898,380.15625 308.14898,380.15625 L 309.83444,379.15625 L 310.23282,379.125 L 309.71186,380.125 L 310.38605,380.09375 L 310.38605,379.125 L 310.41669,379.125 C 399.25942,359.67991 461.54656,306.99397 478.19698,237.15625 C 501.71419,138.51683 416.6248,43.794476 288.29115,25.71875 C 272.24944,23.459284 256.30558,22.499377 240.60783,22.75 z" style="font-size: 12px; fill: rgb(255, 255, 255); fill-rule: evenodd; stroke: rgb(0, 0, 0); stroke-width: 10; stroke-linejoin: round; stroke-dasharray: none;"/>
  <metadata id="metadata2411">
    <rdf:RDF>
      <cc:Work rdf:about="">
        <dc:title>Clipart by Nicu Buculei - segmented</dc:title>
        <dc:rights>
          <cc:Agent>
            <dc:title>Nicu Buculei</dc:title>
          </cc:Agent>
        </dc:rights>
        <dc:type rdf:resource="http://purl.org/dc/dcmitype/StillImage"/>
        <cc:license rdf:resource="http://web.resource.org/cc/PublicDomain"/>
        <dc:format>image/svg+xml</dc:format>
      </cc:Work>
      <cc:License rdf:about="http://web.resource.org/cc/PublicDomain">
        <cc:permits rdf:resource="http://web.resource.org/cc/Reproduction"/>
        <cc:permits rdf:resource="http://web.resource.org/cc/Distribution"/>
        <cc:permits rdf:resource="http://web.resource.org/cc/DerivativeWorks"/>
      </cc:License>
    </rdf:RDF>
  </metadata>
</svg>