<?xml version="1.0" encoding="UTF-8" standalone="no"?>
<!-- Created with Inkscape (http://www.inkscape.org/) -->
<svg
   xmlns:dc="http://purl.org/dc/elements/1.1/"
   xmlns:cc="http://creativecommons.org/ns#"
   xmlns:rdf="http://www.w3.org/1999/02/22-rdf-syntax-ns#"
   xmlns:svg="http://www.w3.org/2000/svg"
   xmlns="http://www.w3.org/2000/svg"
   xmlns:sodipodi="http://sodipodi.sourceforge.net/DTD/sodipodi-0.dtd"
   xmlns:inkscape="http://www.inkscape.org/namespaces/inkscape"
   id="svg548"
   sodipodi:version="0.32"
   width="400pt"
   height="400pt"
   sodipodi:docbase="/var/www/html/svg_gallery/svg/callouts"
   sodipodi:docname="stared.svg"
   inkscape:version="0.45+devel"
   inkscape:output_extension="org.inkscape.output.svg.inkscape">
  <metadata
     id="metadata2397" />
  <defs
     id="defs550">
    <filter
       inkscape:collect="always"
       id="filter4804">
      <feGaussianBlur
         inkscape:collect="always"
         stdDeviation="6.2719001"
         id="feGaussianBlur4806" />
    </filter>
  </defs>
  <sodipodi:namedview
     id="base"
     inkscape:zoom="0.7725"
     inkscape:cx="375.88997"
     inkscape:cy="200"
     inkscape:window-width="731"
     inkscape:window-height="717"
     inkscape:window-x="425"
     inkscape:window-y="94"
     showgrid="false"
     inkscape:current-layer="svg548" />
  <path
     sodipodi:nodetypes="ccccccccccccccccccccccccccccccccccccccccc"
     id="path816"
     d="M 316.22076,307.19264 L 385.59897,359.83904 L 347.39245,268.19089 L 447.52044,291.10352 L 388.23359,239.55218 L 498.9012,239.55218 L 396.13858,208.04746 L 487.04427,168.05693 L 410.49829,151.93198 L 450.16825,102.5815 L 387.65459,111.80173 L 410.63124,49.097988 L 351.04226,87.994656 L 337.03521,30.213304 L 294.68009,81.998703 C 294.68009,78.401848 269.81921,30.947722 268.5019,30.947722 C 267.18458,30.947722 242.87744,81.032615 242.87744,81.032615 L 198.51833,34.777441 L 187.38542,89.193607 L 145.83234,42.601676 C 145.83234,42.601676 144.92373,94.653375 142.2891,94.653375 C 139.65447,94.653375 79.365741,62.38199 79.365741,62.38199 C 79.365741,62.38199 93.832031,121.66323 93.832031,123.09504 C 93.832031,124.52686 28.419177,112.76901 28.419177,112.76901 L 82.290641,155.53003 L 25.204446,175.04285 C 25.204446,175.04285 73.055485,211.25024 71.737952,212.68205 C 70.420527,214.11387 29.433916,250.50635 29.433916,250.50635 C 29.433916,250.50635 102.48731,248.71509 101.16999,248.71509 C 101.02496,249.91404 31.318368,303.25784 31.318368,304.68965 C 31.318368,306.12147 107.16547,285.60793 107.16547,285.60793 L 56.06037,360.14117 L 141.27392,299.69561 L 123.2644,365.29881 L 173.47287,324.10933 L 176.26571,368.16244 L 225.02613,328.63764 L 253.9649,392.76989 L 272.88891,330.33814 L 308.00045,357.24291 L 316.22076,307.19264 z"
     style="fill-opacity:0.49803922000000000;fill-rule:evenodd;stroke-width:2.15822005000000017;fill:#000000;filter:url(#filter4804)" />
  <path
     sodipodi:nodetypes="ccccccccccccccccccccccccccccccccccccccccc"
     id="path599"
     d="M 297.23444,289.39329 L 366.61264,342.03969 L 328.40612,250.39153 L 428.53412,273.30417 L 369.24727,221.75283 L 479.91488,221.75283 L 377.15225,190.2481 L 468.05795,150.25757 L 391.51197,134.13263 L 431.18193,84.78215 L 368.66827,94.002376 L 391.64492,31.298635 L 332.05593,70.195303 L 318.04889,12.413951 L 275.69377,64.19935 C 275.69377,60.602495 250.83288,13.148369 249.51558,13.148369 C 248.19826,13.148369 223.89111,63.233263 223.89111,63.233263 L 179.532,16.978088 L 168.3991,71.394255 L 126.84601,24.802323 C 126.84601,24.802323 125.9374,76.854023 123.30278,76.854023 C 120.66815,76.854023 60.379416,44.582637 60.379416,44.582637 C 60.379416,44.582637 74.845705,103.86387 74.845705,105.29569 C 74.845705,106.7275 9.4328518,94.969657 9.4328518,94.969657 L 63.304316,137.73068 L 6.2181209,157.2435 C 6.2181209,157.2435 54.06916,193.45088 52.751626,194.8827 C 51.434202,196.31451 10.447591,232.707 10.447591,232.707 C 10.447591,232.707 83.500978,230.91573 82.183663,230.91573 C 82.038638,232.11469 12.332043,285.45848 12.332043,286.8903 C 12.332043,288.32211 88.179148,267.80858 88.179148,267.80858 L 37.074044,342.34181 L 122.28759,281.89626 L 104.27807,347.49946 L 154.48654,306.30997 L 157.27938,350.36309 L 206.0398,310.83828 L 236.56077,365.2618 L 253.9026,312.53879 L 289.01414,339.44355 L 297.23444,289.39329 z"
     style="font-size:12px;fill:#ffffff;fill-rule:evenodd;stroke:#000000;stroke-width:10;stroke-linejoin:round;stroke-dasharray:none" />
  <metadata
     id="metadata2399">
    <rdf:RDF>
      <cc:Work
         rdf:about="">
        <dc:title>Clipart by Nicu Buculei - segmented</dc:title>
        <dc:rights>
          <cc:Agent>
            <dc:title>Nicu Buculei</dc:title>
          </cc:Agent>
        </dc:rights>
        <dc:type
           rdf:resource="http://purl.org/dc/dcmitype/StillImage" />
        <cc:license
           rdf:resource="http://web.resource.org/cc/PublicDomain" />
        <dc:format>image/svg+xml</dc:format>
      </cc:Work>
      <cc:License
         rdf:about="http://web.resource.org/cc/PublicDomain">
        <cc:permits
           rdf:resource="http://web.resource.org/cc/Reproduction" />
        <cc:permits
           rdf:resource="http://web.resource.org/cc/Distribution" />
        <cc:permits
           rdf:resource="http://web.resource.org/cc/DerivativeWorks" />
      </cc:License>
    </rdf:RDF>
  </metadata>
</svg>
