<?xml version="1.0" encoding="UTF-8" standalone="no"?>
<!-- Created with Inkscape (http://www.inkscape.org/) -->
<svg xmlns:dc="http://purl.org/dc/elements/1.1/" xmlns:cc="http://creativecommons.org/ns#" xmlns:rdf="http://www.w3.org/1999/02/22-rdf-syntax-ns#" xmlns:svg="http://www.w3.org/2000/svg" xmlns="http://www.w3.org/2000/svg" xmlns:sodipodi="http://sodipodi.sourceforge.net/DTD/sodipodi-0.dtd" xmlns:inkscape="http://www.inkscape.org/namespaces/inkscape" id="svg548" sodipodi:version="0.32" width="400pt" height="400pt" sodipodi:docbase="/var/www/html/svg_gallery/svg/callouts" sodipodi:docname="rnd_rectg_c.svg" inkscape:version="0.45+devel" inkscape:output_extension="org.inkscape.output.svg.inkscape">
  <metadata id="metadata2421"/>
  <defs id="defs550">
    <filter inkscape:collect="always" id="filter3215">
      <feGaussianBlur inkscape:collect="always" stdDeviation="6.6216798" id="feGaussianBlur3217"/>
    </filter>
  </defs>
  <sodipodi:namedview id="base" inkscape:zoom="0.7725" inkscape:cx="200" inkscape:cy="200" inkscape:window-width="865" inkscape:window-height="717" inkscape:window-x="46" inkscape:window-y="24" showgrid="false" inkscape:current-layer="svg548"/>
  <path sodipodi:nodetypes="csssscccssss" id="path710" d="M 89.690184,43.300107 L 426.64998,45.698407 C 447.46298,45.846507 482.70598,51.172407 490.20398,80.473307 C 498.86498,119.00611 501.75098,292.42111 487.80498,319.10411 C 477.52398,340.62511 467.97698,347.80211 457.82798,353.87811 C 427.76298,368.32111 287.54798,365.86911 287.54798,365.86911 L 265.96398,452.20811 L 223.99398,364.67011 L 78.897784,364.67111 C 58.537684,364.67111 39.919084,351.86711 33.330484,323.89911 C 21.858924,273.11611 19.625854,130.68611 30.932084,97.261307 C 41.646284,66.722907 59.652884,43.086307 89.690184,43.300107 z" style="fill: rgb(0, 0, 0); fill-opacity: 0.498039; fill-rule: evenodd; stroke: none; stroke-width: 2.5; stroke-linecap: butt; stroke-linejoin: miter; stroke-dasharray: none; stroke-opacity: 1; filter: url(&quot;#filter3215&quot;);"/>
  <path sodipodi:nodetypes="csssscccssss" id="path559" d="M 76.7452,28.737 L 413.705,31.1353 C 434.518,31.2834 469.761,36.6093 477.259,65.9102 C 485.92,104.443 488.806,277.858 474.86,304.541 C 464.579,326.062 455.032,333.239 444.883,339.315 C 414.818,353.758 274.603,351.306 274.603,351.306 L 253.019,437.645 L 211.049,350.107 L 65.9528,350.108 C 45.5927,350.108 26.9741,337.304 20.3855,309.336 C 8.91394,258.553 6.68087,116.123 17.9871,82.6982 C 28.7013,52.1598 46.7079,28.5232 76.7452,28.737 z" style="fill: rgb(255, 255, 255); fill-opacity: 1; fill-rule: evenodd; stroke: rgb(0, 0, 0); stroke-width: 10; stroke-linecap: butt; stroke-linejoin: round; stroke-dasharray: none; stroke-opacity: 1;"/>
  <metadata id="metadata2423">
    <rdf:RDF>
      <cc:Work rdf:about="">
        <dc:title>Clipart by Nicu Buculei - segmented</dc:title>
        <dc:rights>
          <cc:Agent>
            <dc:title>Nicu Buculei</dc:title>
          </cc:Agent>
        </dc:rights>
        <dc:type rdf:resource="http://purl.org/dc/dcmitype/StillImage"/>
        <cc:license rdf:resource="http://web.resource.org/cc/PublicDomain"/>
        <dc:format>image/svg+xml</dc:format>
      </cc:Work>
      <cc:License rdf:about="http://web.resource.org/cc/PublicDomain">
        <cc:permits rdf:resource="http://web.resource.org/cc/Reproduction"/>
        <cc:permits rdf:resource="http://web.resource.org/cc/Distribution"/>
        <cc:permits rdf:resource="http://web.resource.org/cc/DerivativeWorks"/>
      </cc:License>
    </rdf:RDF>
  </metadata>
</svg>