<?xml version="1.0" encoding="UTF-8" standalone="no"?>
<!-- Created with Inkscape (http://www.inkscape.org/) -->
<svg xmlns:dc="http://purl.org/dc/elements/1.1/" xmlns:cc="http://creativecommons.org/ns#" xmlns:rdf="http://www.w3.org/1999/02/22-rdf-syntax-ns#" xmlns:svg="http://www.w3.org/2000/svg" xmlns="http://www.w3.org/2000/svg" xmlns:sodipodi="http://sodipodi.sourceforge.net/DTD/sodipodi-0.dtd" xmlns:inkscape="http://www.inkscape.org/namespaces/inkscape" id="svg548" sodipodi:version="0.32" width="400pt" height="400pt" sodipodi:docbase="/var/www/html/svg_gallery/svg/callouts" sodipodi:docname="stared_r.svg" inkscape:version="0.45+devel" inkscape:output_extension="org.inkscape.output.svg.inkscape">
  <metadata id="metadata2433"/>
  <defs id="defs550">
    <filter inkscape:collect="always" id="filter3219">
      <feGaussianBlur inkscape:collect="always" stdDeviation="7.1251142" id="feGaussianBlur3221"/>
    </filter>
  </defs>
  <sodipodi:namedview id="base" inkscape:zoom="0.7725" inkscape:cx="260.19417" inkscape:cy="200" inkscape:window-width="731" inkscape:window-height="717" inkscape:window-x="61" inkscape:window-y="24" showgrid="false" inkscape:current-layer="svg548"/>
  <path sodipodi:nodetypes="ccccccccccccccccccccccccccccccccccccccccc" id="path826" d="M 329.31353,300.77752 L 402.68901,349.82706 L 351.24832,266.57276 L 452.03619,289.4854 L 392.35863,237.93406 L 503.75558,237.93406 L 400.31571,206.42933 L 491.82051,166.4388 L 414.77006,150.31386 L 454.70146,100.96338 L 391.77581,110.18361 L 414.90388,47.479865 L 354.92218,86.376533 L 340.82283,28.595181 L 298.18857,80.38058 C 298.18857,76.783725 273.16384,29.329599 271.83785,29.329599 C 270.51185,29.329599 246.04451,79.414492 246.04451,79.414492 L 201.39305,33.159318 L 190.18678,87.575484 L 148.35984,40.983553 C 148.35984,40.983553 147.44525,93.035252 144.79326,93.035252 C 142.14127,93.035252 81.455207,60.763867 81.455207,60.763867 C 81.455207,60.763867 96.016835,120.0451 96.016835,121.47692 C 96.016835,122.90874 30.172885,111.15089 30.172885,111.15089 L 84.399383,153.91191 L 26.936968,173.42473 C 26.936968,173.42473 75.103364,209.63211 73.777147,211.06393 C 72.45104,212.49574 31.194312,248.88823 31.194312,248.88823 C 31.194312,248.88823 104.72915,247.09696 103.40315,247.09696 C 103.25717,248.29592 33.091183,301.63971 33.091183,303.07153 C 33.091183,304.50334 109.43816,283.98981 109.43816,283.98981 L 57.996244,358.52305 L 143.77139,298.07749 L 132.72548,364.87964 L 176.18254,322.4912 L 193.15618,366.54432 L 228.07555,327.01951 L 424.08853,501.7918 L 269.17258,326.32092 L 334.02142,353.22568 L 329.31353,300.77752 z" style="fill-opacity: 0.498039; fill-rule: evenodd; stroke-width: 2.15822; fill: rgb(0, 0, 0); filter: url(&quot;#filter3219&quot;);"/>
  <path sodipodi:nodetypes="ccccccccccccccccccccccccccccccccccccccccc" id="path599" d="M 307.01684,286.21441 L 380.39232,335.26396 L 328.95162,252.00966 L 429.7395,274.92229 L 370.06193,223.37095 L 481.45888,223.37095 L 378.01901,191.86623 L 469.5238,151.87569 L 392.47337,135.75075 L 432.40476,86.400273 L 369.47911,95.620499 L 392.60719,32.916758 L 332.62549,71.813426 L 318.52613,14.032074 L 275.89187,65.817473 C 275.89187,62.220618 250.86715,14.766492 249.54115,14.766492 C 248.21515,14.766492 223.74782,64.851386 223.74782,64.851386 L 179.09636,18.596211 L 167.89009,73.012378 L 126.06315,26.420446 C 126.06315,26.420446 125.14855,78.472146 122.49656,78.472146 C 119.84457,78.472146 59.158512,46.20076 59.158512,46.20076 C 59.158512,46.20076 73.72014,105.482 73.72014,106.91381 C 73.72014,108.34563 7.8761905,96.58778 7.8761905,96.58778 L 62.102688,139.3488 L 4.6402733,158.86162 C 4.6402733,158.86162 52.806669,195.069 51.480453,196.50082 C 50.154346,197.93264 8.8976168,234.32512 8.8976168,234.32512 C 8.8976168,234.32512 82.432455,232.53386 81.106458,232.53386 C 80.960477,233.73281 10.794488,287.07661 10.794488,288.50842 C 10.794488,289.94024 87.141456,269.4267 87.141456,269.4267 L 35.699549,343.95994 L 121.47469,283.51438 L 110.42878,350.31653 L 153.88585,307.9281 L 170.85948,351.98121 L 205.77886,312.45641 L 401.79184,487.22869 L 246.87589,311.75781 L 311.72473,338.66258 L 307.01684,286.21441 z" style="font-size: 12px; fill: rgb(255, 255, 255); fill-rule: evenodd; stroke: rgb(0, 0, 0); stroke-width: 10; stroke-linejoin: round; stroke-dasharray: none;"/>
  <metadata id="metadata2435">
    <rdf:RDF>
      <cc:Work rdf:about="">
        <dc:title>Clipart by Nicu Buculei - segmented</dc:title>
        <dc:rights>
          <cc:Agent>
            <dc:title>Nicu Buculei</dc:title>
          </cc:Agent>
        </dc:rights>
        <dc:type rdf:resource="http://purl.org/dc/dcmitype/StillImage"/>
        <cc:license rdf:resource="http://web.resource.org/cc/PublicDomain"/>
        <dc:format>image/svg+xml</dc:format>
      </cc:Work>
      <cc:License rdf:about="http://web.resource.org/cc/PublicDomain">
        <cc:permits rdf:resource="http://web.resource.org/cc/Reproduction"/>
        <cc:permits rdf:resource="http://web.resource.org/cc/Distribution"/>
        <cc:permits rdf:resource="http://web.resource.org/cc/DerivativeWorks"/>
      </cc:License>
    </rdf:RDF>
  </metadata>
</svg>