<?xml version="1.0" encoding="UTF-8" standalone="no"?>
<!-- Created with Inkscape (http://www.inkscape.org/) -->
<svg xmlns:dc="http://purl.org/dc/elements/1.1/" xmlns:cc="http://creativecommons.org/ns#" xmlns:rdf="http://www.w3.org/1999/02/22-rdf-syntax-ns#" xmlns:svg="http://www.w3.org/2000/svg" xmlns="http://www.w3.org/2000/svg" xmlns:sodipodi="http://sodipodi.sourceforge.net/DTD/sodipodi-0.dtd" xmlns:inkscape="http://www.inkscape.org/namespaces/inkscape" id="svg548" sodipodi:version="0.32" width="400pt" height="400pt" sodipodi:docbase="/var/www/html/svg_gallery/svg/callouts" sodipodi:docname="segmented_r.svg" inkscape:version="0.45+devel" inkscape:output_extension="org.inkscape.output.svg.inkscape">
  <metadata id="metadata8"/>
  <defs id="defs550">
    <filter inkscape:collect="always" id="filter5327">
      <feGaussianBlur inkscape:collect="always" stdDeviation="6.5922877" id="feGaussianBlur5329"/>
    </filter>
  </defs>
  <sodipodi:namedview id="base" inkscape:zoom="0.7725" inkscape:cx="386.65049" inkscape:cy="200" inkscape:window-width="731" inkscape:window-height="717" inkscape:window-x="550" inkscape:window-y="34" showgrid="false" inkscape:current-layer="svg548"/>
  <path sodipodi:nodetypes="ccccccccccccccccccccccc" id="path811" d="M 234.84435,324.31823 L 459.08435,486.20323 L 297.20035,321.92023 L 375.14435,354.29723 C 388.33435,333.91223 395.52935,330.31423 407.52035,315.92423 C 427.90635,321.92023 480.66835,335.11023 489.06235,338.70723 L 468.67735,270.35723 L 499.85435,215.19623 L 468.67735,162.43423 L 483.06635,85.68893 L 403.92335,107.27313 L 340.36935,65.30363 L 261.22535,119.26523 L 186.87835,70.10003 L 130.51835,120.46423 L 47.777953,106.07433 L 82.553053,175.62423 L 41.782253,240.37823 L 82.553053,282.34823 L 57.371053,365.08923 L 134.11535,332.71223 L 186.87835,380.67823 L 234.84435,324.31823 z" style="fill: rgb(0, 0, 0); fill-opacity: 0.498039; fill-rule: evenodd; stroke: none; stroke-width: 2.5; stroke-linecap: butt; stroke-linejoin: miter; stroke-dasharray: none; stroke-opacity: 1; filter: url(&quot;#filter5327&quot;);"/>
  <path sodipodi:nodetypes="ccccccccccccccccccccccc" id="path592" d="M 217.045,308.137 L 441.285,470.022 L 279.401,305.739 L 357.345,338.116 C 370.535,317.731 377.73,314.133 389.721,299.743 C 410.107,305.739 462.869,318.929 471.263,322.526 L 450.878,254.176 L 482.055,199.015 L 450.878,146.253 L 465.267,69.5077 L 386.124,91.0919 L 322.57,49.1224 L 243.426,103.084 L 169.079,53.9188 L 112.719,104.283 L 29.9786,89.8931 L 64.7537,159.443 L 23.9829,224.197 L 64.7537,266.167 L 39.5717,348.908 L 116.316,316.531 L 169.079,364.497 L 217.045,308.137 z" style="fill: rgb(255, 255, 255); fill-opacity: 1; fill-rule: evenodd; stroke: rgb(0, 0, 0); stroke-width: 10; stroke-linecap: butt; stroke-linejoin: round; stroke-dasharray: none; stroke-opacity: 1;"/>
  <metadata id="metadata10">
    <rdf:RDF>
      <cc:Work rdf:about="">
        <dc:title>Clipart by Nicu Buculei - segmented</dc:title>
        <dc:rights>
          <cc:Agent>
            <dc:title>Nicu Buculei</dc:title>
          </cc:Agent>
        </dc:rights>
        <dc:type rdf:resource="http://purl.org/dc/dcmitype/StillImage"/>
        <cc:license rdf:resource="http://web.resource.org/cc/PublicDomain"/>
        <dc:format>image/svg+xml</dc:format>
      </cc:Work>
      <cc:License rdf:about="http://web.resource.org/cc/PublicDomain">
        <cc:permits rdf:resource="http://web.resource.org/cc/Reproduction"/>
        <cc:permits rdf:resource="http://web.resource.org/cc/Distribution"/>
        <cc:permits rdf:resource="http://web.resource.org/cc/DerivativeWorks"/>
      </cc:License>
    </rdf:RDF>
  </metadata>
</svg>