<?xml version="1.0" encoding="UTF-8" standalone="no"?>
<!-- Created with Inkscape (http://www.inkscape.org/) -->
<svg
   xmlns:svg="http://www.w3.org/2000/svg"
   xmlns="http://www.w3.org/2000/svg"
   xmlns:xlink="http://www.w3.org/1999/xlink"
   version="1.0"
   width="48"
   height="48"
   id="svg7441">
  <defs
     id="defs7444" />
  <g
     id="g7502">
    <image
       x="0"
       y="0"
       width="48"
       height="48"
       id="image7450" />
    <g
       id="g7486">
      <path
         d="M 4.4545455,41.545455 C 3.1045455,40.195455 2,38.572865 2,37.939699 C 2,37.306534 3.3346676,38.217256 4.9659279,39.963526 L 7.9318558,43.138562 L 23.91866,42.819281 C 35.323099,42.591517 40.277305,42.128171 41.202732,41.202777 C 42.123755,40.281785 42.593204,35.404485 42.821363,24.386163 C 43.088485,11.486191 42.873615,8.4560568 41.54831,6.4333863 C 40.671381,5.0950238 39.289268,4 38.476947,4 C 37.664626,4 37,3.55 37,3 C 37,1.2684632 38.999077,1.9081679 41.545455,4.4545455 C 43.953713,6.8628039 44,7.2210999 44,23.454545 C 44,38.666667 43.838828,40.161172 42,42 C 40.161172,43.838828 38.666667,44 23.454545,44 C 7.2210999,44 6.8628039,43.953713 4.4545455,41.545455 z M 1.2996642,29 C 1.2996642,25.975 1.4871298,24.7375 1.7162544,26.25 C 1.9453791,27.7625 1.9453791,30.2375 1.7162544,31.75 C 1.4871298,33.2625 1.2996642,32.025 1.2996642,29 z M 35.309869,28.5 C 35.315482,25.2 35.50217,23.970559 35.724731,25.767909 C 35.947293,27.565259 35.9427,30.265259 35.714526,31.767909 C 35.486352,33.270559 35.304256,31.8 35.309869,28.5 z M 11.526889,25.029712 C 10.540089,23.93931 9.2303475,23.327568 8.6163532,23.670286 C 8.0023589,24.013003 8.0675,23.682392 8.7611111,22.935593 C 9.8147616,21.801147 10.381394,21.93695 12.205556,23.761111 C 13.406389,24.961944 14.14863,26.184703 13.85498,26.478353 C 13.561331,26.772003 12.51369,26.120114 11.526889,25.029712 z M 23,26.329302 C 23,25.768672 23.910633,24.485864 25.023629,23.478616 C 26.533092,22.112571 27.297452,21.944034 28.031962,22.815295 C 28.57355,23.457716 28.708801,23.757967 28.33252,23.48252 C 27.95624,23.207073 26.60249,23.964265 25.324187,25.165168 C 24.045884,26.366071 23,26.889931 23,26.329302 z M 1.408803,11.62294 C 1.118168,10.865557 1.0511794,8.0530575 1.2599396,5.3729403 C 1.6390424,0.50592055 1.6397225,0.50713493 1.8197518,6.3724447 C 1.9866618,11.810333 2.1294986,12.14333 3.75,10.872445 C 5.3360556,9.6285741 5.3714259,9.6639444 4.1275553,11.25 C 2.4724705,13.360394 2.095376,13.412121 1.408803,11.62294 z M 11.021031,10.630113 C 12.384464,9.3266745 13.684741,8.4239157 13.910536,8.6239818 C 14.552809,9.1930701 10.816803,13 9.6160439,13 C 9.0253544,13 9.6575988,11.933551 11.021031,10.630113 z M 24.654988,11.171259 C 22.073852,8.3191369 22.712193,7.3809915 25.470685,9.97246 C 27.640699,12.011083 28.157904,12.123567 29.720685,10.896774 C 31.339738,9.6258064 31.376385,9.6576212 30.127555,11.25 C 28.370629,13.490252 26.732314,13.466679 24.654988,11.171259 z M 32.907618,11.292382 C 31.624565,9.6586139 31.654863,9.6214523 33.25,10.872445 C 34.870417,12.143263 35.013697,11.810049 35.184982,6.3724447 L 35.369965,0.5 L 35.742194,5.8927884 C 36.158875,11.929589 35.056771,14.028991 32.907618,11.292382 z M 11,3.6224447 C 11,3.4147893 11.7875,2.6272893 12.75,1.8724447 C 14.336056,0.62857405 14.371426,0.66394438 13.127555,2.25 C 11.821186,3.915748 11,4.4454789 11,3.6224447 z M 23.872445,2.25 C 22.628574,0.66394438 22.663944,0.62857405 24.25,1.8724447 C 25.915748,3.1788145 26.445479,4 25.622445,4 C 25.414789,4 24.627289,3.2125 23.872445,2.25 z"
         id="path7500"
         style="fill:#b8c6d5" />
      <path
         d="M 8.8125,42.316886 C 9.534375,42.028015 10.396875,42.063542 10.729167,42.395833 C 11.061458,42.728125 10.470833,42.964474 9.4166667,42.921053 C 8.2517237,42.873069 8.0147673,42.636112 8.8125,42.316886 z M 35.8125,42.316886 C 36.534375,42.028015 37.396875,42.063542 37.729167,42.395833 C 38.061458,42.728125 37.470833,42.964474 36.416667,42.921053 C 35.251724,42.873069 35.014767,42.636112 35.8125,42.316886 z M 42.078947,36.416667 C 42.126931,35.251724 42.363888,35.014767 42.683114,35.8125 C 42.971985,36.534375 42.936458,37.396875 42.604167,37.729167 C 42.271875,38.061458 42.035526,37.470833 42.078947,36.416667 z M 4.7679091,34.275269 C 6.5652591,34.052707 9.2652591,34.0573 10.767909,34.285474 C 12.270559,34.513648 10.8,34.695744 7.5,34.690131 C 4.2,34.684518 2.9705591,34.49783 4.7679091,34.275269 z M 24.643134,34.231596 C 24.381939,33.808974 26.042882,33.60778 28.334117,33.784499 C 35.063487,34.303523 35.882417,34.759452 30.309017,34.883999 C 27.453976,34.947799 24.904329,34.654218 24.643134,34.231596 z M 10.5,26 C 9.4984106,24.893256 8.9039283,23.762738 9.1789283,23.487738 C 9.4539283,23.212738 10.498411,23.893256 11.5,25 C 12.501589,26.106744 13.096072,27.237262 12.821072,27.512262 C 12.546072,27.787262 11.501589,27.106744 10.5,26 z M 24,27.309975 C 24,26.759975 24.9,25.495486 26,24.5 C 27.1,23.504514 28,23.140025 28,23.690025 C 28,24.240025 27.1,25.504514 26,26.5 C 24.9,27.495486 24,27.859975 24,27.309975 z M 10.091594,9.75 C 11.416217,8.5125 12.659506,7.866019 12.854458,8.3133755 C 13.239308,9.1964901 10.066716,11.916552 8.5915935,11.968197 C 8.0919699,11.985688 8.7669699,10.9875 10.091594,9.75 z M 25.478616,9.9763713 C 24.112571,8.4669085 23.944034,7.7025476 24.815295,6.9680379 C 25.457716,6.4264504 25.757967,6.2911992 25.48252,6.6674796 C 25.207073,7.0437601 25.964265,8.3975101 27.165168,9.675813 C 28.366071,10.954116 28.889931,12 28.329302,12 C 27.768672,12 26.485864,11.089367 25.478616,9.9763713 z M 42.078947,9.4166667 C 42.126931,8.2517237 42.363888,8.0147673 42.683114,8.8125 C 42.971985,9.534375 42.936458,10.396875 42.604167,10.729167 C 42.271875,11.061458 42.035526,10.470833 42.078947,9.4166667 z"
         id="path7498"
         style="fill:#a0b2c9" />
      <path
         d="M 8.5,42.183165 C 6.8063552,41.794605 5.0777988,40.533999 4.5304294,39.288226 C 3.9971656,38.074557 2.6471656,36.899487 1.5304294,36.67696 C 0.41369323,36.454432 8.05,36.306618 18.5,36.348484 L 37.5,36.424603 L 21.068226,36.962302 C 5.4173743,37.474446 4.719774,37.583169 6.389655,39.25 C 7.9018887,40.759472 10.184893,41 23,41 C 35.17316,41 38.141026,40.716117 39.428571,39.428571 C 40.711101,38.146042 41,35.219556 41,23.510359 C 41,8.3800283 40.645655,6 38.393011,6 C 37.626855,6 37,5.55 37,5 C 37,3.4203029 39.618127,3.8349443 41.127555,5.6536947 C 42.163215,6.9015886 42.5,11.187157 42.5,23.11798 C 42.5,43.515996 43.493754,42.390893 25.234864,42.665137 C 17.680689,42.778599 10.15,42.561712 8.5,42.183165 z"
         id="path7496"
         style="fill:#9fa2a5" />
      <path
         d="M 10.872445,32.25 C 9.6285741,30.663944 9.6639444,30.628574 11.25,31.872445 C 12.2125,32.627289 13,33.414789 13,33.622445 C 13,34.445479 12.178814,33.915748 10.872445,32.25 z M 25.437661,28.899134 C 25.063456,28.293657 25.711898,26.843657 26.878644,25.676911 C 28.04539,24.510166 29,24.050455 29,24.655333 C 29,25.260211 28.329955,26.311199 27.51101,26.990862 C 26.692066,27.670525 26.268624,28.625626 26.570027,29.113307 C 26.871431,29.600988 26.893034,30 26.618034,30 C 26.343034,30 25.811866,29.50461 25.437661,28.899134 z M 9.2285049,26.986222 C 7.9791826,25.973332 7.3565415,24.897679 7.8448581,24.595883 C 8.758156,24.031434 12.646608,27.688903 11.910536,28.420051 C 11.684741,28.644335 10.477827,27.999112 9.2285049,26.986222 z M 2.8724447,24.25 C 1.6285741,22.663944 1.6639444,22.628574 3.25,23.872445 C 4.915748,25.178814 5.4454789,26 4.6224447,26 C 4.4147893,26 3.6272893,25.2125 2.8724447,24.25 z M 6.3986917,9.75 C 6.0030534,9.0625 6.0524775,8.8384818 6.5085231,9.2521818 C 7.6204092,10.260825 11.123391,7.0086674 10.32191,5.7118447 C 9.9604842,5.127045 10.184132,4.9957661 10.845492,5.4045085 C 12.615206,6.4982522 12.219566,8.8121246 10.065741,9.9648162 C 7.5978922,11.285569 7.2713638,11.266441 6.3986917,9.75 z M 26.5,9 C 25.504514,7.9 25.140025,7 25.690025,7 C 26.240025,7 27.504514,7.9 28.5,9 C 29.495486,10.1 29.859975,11 29.309975,11 C 28.759975,11 27.495486,10.1 26.5,9 z"
         id="path7494"
         style="fill:#708cb0" />
      <path
         d="M 9.4978082,28.996454 C 9.1114537,28.371319 7.8288927,27.469904 6.6476727,26.993309 L 4.5,26.126773 L 6.6275553,26.063386 C 8.7600262,25.999854 11.761078,28.572255 10.742636,29.590697 C 10.444335,29.888998 9.8841628,29.621588 9.4978082,28.996454 z M 27.438968,27.067439 C 28.400887,26.004531 29.838926,25.384696 30.634611,25.690029 C 31.689713,26.094909 31.362657,26.61802 29.426348,27.622589 C 25.833315,29.486677 25.367376,29.356523 27.438968,27.067439 z M 2,11.622445 C 2,11.414789 2.7875,10.627289 3.75,9.8724447 C 5.3360556,8.6285741 5.3714259,8.6639444 4.1275553,10.25 C 2.8211855,11.915748 2,12.445479 2,11.622445 z M 7,9.2774323 C 7,8.0191834 9.8583637,5.5250304 10.530297,6.1969634 C 10.795377,6.4620441 10.109503,7.4959138 9.0061308,8.4944517 C 7.9027589,9.4929896 7,9.8453308 7,9.2774323 z M 27.5,8 C 26.504514,6.9 26.140025,6 26.690025,6 C 27.240025,6 28.504514,6.9 29.5,8 C 30.495486,9.1 30.859975,10 30.309975,10 C 29.759975,10 28.495486,9.1 27.5,8 z M 10,3.6224447 C 10,3.4147893 10.7875,2.6272893 11.75,1.8724447 C 13.336056,0.62857405 13.371426,0.66394438 12.127555,2.25 C 10.821186,3.915748 10,4.4454789 10,3.6224447 z M 24.872445,2.25 C 23.628574,0.66394438 23.663944,0.62857405 25.25,1.8724447 C 26.2125,2.6272893 27,3.4147893 27,3.6224447 C 27,4.4454789 26.178814,3.915748 24.872445,2.25 z"
         id="path7492"
         style="fill:#5273a0" />
      <path
         d="M 7.75,39.919901 C 3.7473716,37.588584 6.5190517,37 21.5,37 L 37,37 L 37,22.059017 C 37,13.703209 37.418632,6.8593051 37.949827,6.5310088 C 40.051819,5.2319058 41,10.48647 41,23.434259 C 41,41.616624 41.613844,41.010204 23.25,40.969591 C 15.6875,40.952867 8.7125,40.480506 7.75,39.919901 z"
         id="path7490"
         style="fill:#5e5e5e" />
      <path
         d="M 2,28.845012 C 2,24.0296 2.1152781,23.789031 3.75,25.193013 C 4.7125,26.019656 6.2380244,26.956292 7.1400541,27.274425 C 8.0420839,27.592559 9.4700938,29.235959 10.313409,30.926425 L 11.846711,34 L 6.9233553,34 L 2,34 L 2,28.845012 z M 26.686591,30.926425 C 27.529906,29.235959 28.957916,27.592559 29.859946,27.274425 C 30.761976,26.956292 32.2875,26.019656 33.25,25.193013 C 34.884722,23.789031 35,24.0296 35,28.845012 L 35,34 L 30.076645,34 L 25.153289,34 L 26.686591,30.926425 z M 2,5.9796842 L 2,1 L 6.9796842,1 L 11.959368,1 L 10.174537,4.1948524 C 9.192879,5.9520212 6.9520212,8.192879 5.1948524,9.1745365 L 2,10.959368 L 2,5.9796842 z M 31.558661,9.128053 C 29.940925,8.1788792 27.812567,5.9617689 26.828977,4.2011413 L 25.040632,1 L 30.020316,1 L 35,1 L 35,6 C 35,8.75 34.8875,10.96711 34.75,10.926912 C 34.6125,10.886713 33.176397,10.077227 31.558661,9.128053 z"
         id="path7488"
         style="fill:#214b87" />
    </g>
  </g>
</svg>
