<?xml version="1.0" encoding="UTF-8" standalone="no"?>
<!-- Created with Inkscape (http://www.inkscape.org/) -->
<svg
   xmlns:svg="http://www.w3.org/2000/svg"
   xmlns="http://www.w3.org/2000/svg"
   version="1.0"
   width="48"
   height="48"
   id="svg7153">
  <defs
     id="defs7156" />
  <g
     id="g7164">
    <path
       d="M 14.663995,45.265349 C 14.375958,44.799296 15.689728,44.598868 17.583483,44.819953 C 20.701947,45.184016 21.131926,44.920004 22.142679,42.020556 C 23.354608,38.544012 22.360111,38.698866 33.898791,40.190005 C 35.942403,40.4541 36.519426,39.84241 37.795858,36.058799 C 38.968687,32.582291 39.051513,30.953181 38.177168,28.558799 C 37.13192,25.696397 37.159471,25.628414 38.606269,27.5 C 40.484108,29.929184 39.940821,35.91518 37.505125,39.632523 C 36.217005,41.598441 35.330112,42.025342 33.665078,41.480904 C 32.474285,41.091535 29.857645,40.556084 27.850323,40.291012 C 24.608594,39.862934 24.048933,40.127121 22.843368,42.654532 C 21.84461,44.748381 20.654243,45.580923 18.336894,45.806359 C 16.604836,45.974856 14.952031,45.731402 14.663995,45.265349 z M 10.5,38 C 10.160081,37.45 10.610081,37 11.5,37 C 12.389919,37 12.839919,37.45 12.5,38 C 12.160081,38.55 11.710081,39 11.5,39 C 11.289919,39 10.839919,38.55 10.5,38 z M 6.5070792,36.011454 C 6.1567404,35.444594 6.5581371,35.276947 7.4480622,35.618443 C 9.1804795,36.283234 9.4974491,37 8.059017,37 C 7.5414763,37 6.8431043,36.555154 6.5070792,36.011454 z M 13.078947,24.25 C 13.035526,23.5625 12.126558,23 11.059017,23 C 9.9914763,23 8.8287714,22.531963 8.4752282,21.959918 C 8.0536113,21.277728 8.8075269,21.154085 10.666211,21.600595 C 14.18559,22.446051 14.330322,22.570155 13.683114,24.1875 C 13.28991,25.1701 13.138051,25.18581 13.078947,24.25 z M 32.116001,23.95 C 31.925113,21.399371 34.029382,19.945357 36.217118,21.116198 C 40.479115,23.397149 42.678514,16.914041 39.319122,11.972506 L 37.638244,9.5 L 39.819122,11.404988 C 42.186155,13.472581 42.693282,17.836073 40.945988,21.100922 C 40.096282,22.688612 39.241746,22.948377 36.537441,22.441046 C 33.804319,21.928309 33.09483,22.15335 32.707454,23.655866 C 32.368724,24.969698 32.198645,25.05428 32.116001,23.95 z M 34.8125,10.316886 C 35.534375,10.028015 36.396875,10.063542 36.729167,10.395833 C 37.061458,10.728125 36.470833,10.964474 35.416667,10.921053 C 34.251724,10.873069 34.014767,10.636112 34.8125,10.316886 z M 28.149832,7.45 C 28.067424,5.7725 27.440714,3.7475 26.757143,2.95 C 26.071677,2.1502903 26.33154,2.2243557 27.336578,3.1151492 C 28.563325,4.2024504 29.018471,5.6730983 28.729267,7.6151492 L 28.299664,10.5 L 28.149832,7.45 z"
       id="path7178"
       style="fill:#d0d1d1" />
    <path
       d="M 20.210573,43.600859 C 20.919758,42.831332 21.657561,42.351393 21.850136,42.534328 C 22.443284,43.097787 20.939997,45 19.901556,45 C 19.362331,45 19.501389,44.370387 20.210573,43.600859 z M 22.250881,40 C 22.49904,39.076659 23.969954,38.44586 26.077012,38.359171 C 29.212754,38.23016 29.248522,38.258712 26.50325,38.699404 C 24.855038,38.963988 23.133279,39.702361 22.677119,40.340233 C 22.117043,41.123417 21.978641,41.012941 22.250881,40 z M 34,40.332422 C 34.825,39.984651 35.871759,39.205087 36.326131,38.600056 C 36.857485,37.892517 37.006325,38.035224 36.743265,39 C 36.518316,39.825 35.471557,40.604565 34.417134,40.732366 C 33.07009,40.895634 32.946049,40.776704 34,40.332422 z M 10.269032,36.307009 C 11.241999,36.053466 12.591999,36.07014 13.269032,36.344063 C 13.946064,36.617986 13.15,36.825431 11.5,36.805051 C 9.85,36.784672 9.2960644,36.560553 10.269032,36.307009 z M 38.194949,31.5 C 38.215328,29.85 38.439447,29.296064 38.692991,30.269032 C 38.946534,31.241999 38.92986,32.591999 38.655937,33.269032 C 38.382014,33.946064 38.174569,33.15 38.194949,31.5 z M 31.331871,24.422459 C 30.987675,23.525498 31.51686,22.123387 32.558487,21.172459 C 34.278445,19.602265 34.310538,19.606227 33.083356,21.237265 C 32.364447,22.192761 32.03747,23.655261 32.35674,24.487265 C 32.67601,25.319269 32.71223,26 32.43723,26 C 32.16223,26 31.664819,25.290106 31.331871,24.422459 z M 10.8125,21.316886 C 11.534375,21.028015 12.396875,21.063542 12.729167,21.395833 C 13.061458,21.728125 12.470833,21.964474 11.416667,21.921053 C 10.251724,21.873069 10.014767,21.636112 10.8125,21.316886 z M 38.25,20.919901 C 39.272841,20.324151 40.062258,18.570829 40.149832,16.70031 C 40.295405,13.590974 40.311672,13.579892 40.72209,16.310472 C 41.157156,19.205047 39.616116,22.02322 37.627555,21.969591 C 37.0074,21.952867 37.2875,21.480506 38.25,20.919901 z M 27.194949,6.5 C 27.215328,4.85 27.439447,4.2960644 27.692991,5.2690319 C 27.946534,6.2419994 27.92986,7.5919994 27.655937,8.2690319 C 27.382014,8.9460644 27.174569,8.15 27.194949,6.5 z"
       id="path7176"
       style="fill:#b0b1b1" />
    <path
       d="M 16.8125,44.316886 C 17.534375,44.028015 18.396875,44.063542 18.729167,44.395833 C 19.061458,44.728125 18.470833,44.964474 17.416667,44.921053 C 16.251724,44.873069 16.014767,44.636112 16.8125,44.316886 z M 21,40.559017 C 21,39.766476 21.408034,38.865855 21.906741,38.557637 C 22.405449,38.249419 22.577965,38.897861 22.29011,39.99862 C 21.679497,42.333607 21,42.628767 21,40.559017 z M 7.75,35.337719 C 8.4375,35.060307 9.5625,35.060307 10.25,35.337719 C 10.9375,35.615132 10.375,35.842105 9,35.842105 C 7.625,35.842105 7.0625,35.615132 7.75,35.337719 z M 32.22619,20.421277 C 33.175595,19.430051 34.16763,18.834297 34.430712,19.097379 C 34.693794,19.360461 33.917008,20.171464 32.704522,20.899609 C 30.598213,22.164527 30.576903,22.143217 32.22619,20.421277 z M 38.564293,19.706872 C 38.939824,18.720651 39.498985,18.165651 39.806872,18.473539 C 40.114759,18.781426 39.807506,19.588333 39.124088,20.266667 C 38.136472,21.246934 38.021608,21.13207 38.564293,19.706872 z"
       id="path7174"
       style="fill:#8d9191" />
    <path
       d="M 37.157895,31 C 37.157895,29.625 37.384868,29.0625 37.662281,29.75 C 37.939693,30.4375 37.939693,31.5625 37.662281,32.25 C 37.384868,32.9375 37.157895,32.375 37.157895,31 z"
       id="path7172"
       style="fill:#7a8383" />
    <path
       d="M 26.078947,5.4166667 C 26.126931,4.2517237 26.363888,4.0147673 26.683114,4.8125 C 26.971985,5.534375 26.936458,6.396875 26.604167,6.7291667 C 26.271875,7.0614583 26.035526,6.4708333 26.078947,5.4166667 z"
       id="path7170"
       style="fill:#5c6868" />
    <path
       d="M 16.956803,42.727261 C 18.308044,42.043471 19.675816,40.362605 19.996296,38.992003 C 20.489168,36.884128 21.189477,36.48037 24.539493,36.372649 C 27.894382,36.264773 27.995342,36.313263 25.199735,36.689757 C 22.757402,37.018674 21.636315,37.826365 20.887174,39.796755 C 19.778475,42.712854 18.307339,43.969067 16,43.969945 C 15.175,43.970259 15.605561,43.411052 16.956803,42.727261 z M 34.157297,38.5 C 34.154469,37.95 34.758686,35.925 35.5,34 C 36.241314,32.075 36.861782,31.175 36.878818,32 C 36.895854,32.825 36.291637,34.85 35.536115,36.5 C 34.780592,38.15 34.160124,39.05 34.157297,38.5 z M 5.389534,33.572726 C 5.0883009,32.787725 5.0411422,31.100225 5.2847367,29.822726 C 5.6283333,28.020779 5.7581693,28.215149 5.8638179,30.689635 C 5.9884551,33.608867 6.3179081,33.912524 9.75,34.271532 L 13.5,34.663794 L 9.7186152,34.831897 C 7.2432091,34.941942 5.7480722,34.507062 5.389534,33.572726 z M 29.030409,22.360784 C 29.013684,21.734215 29.868058,20.159215 30.929017,18.860784 C 32.476662,16.966734 33.109312,16.747129 34.129017,17.75 C 35.928692,19.519964 37.775168,19.299181 38.310674,17.25 C 38.739275,15.609911 38.775283,15.611882 38.883999,17.281385 C 39.025385,19.452598 36.447825,20.616551 34.703727,19.169078 C 33.226894,17.943416 31.790737,18.685871 30.194945,21.5 C 29.571175,22.6 29.047133,22.987353 29.030409,22.360784 z M 11.5,20 C 9.8695921,19.29939 9.812487,19.127582 11.190983,19.070285 C 12.121024,19.031628 13.160081,19.45 13.5,20 C 14.210664,21.149879 14.175913,21.149879 11.5,20 z M 25.345077,8.4568719 C 25.019392,7.6081515 24.976364,6.6903031 25.249458,6.4172088 C 25.522552,6.1441145 25.986016,6.8385221 26.279377,7.9603368 C 26.902527,10.343266 26.210154,10.711228 25.345077,8.4568719 z M 9.7333333,6.8759123 C 10.411667,6.1924939 11.218574,5.885241 11.526461,6.1931281 C 11.834349,6.5010152 11.279349,7.0601757 10.293128,7.4357071 C 8.8679296,7.9783917 8.7530661,7.8635281 9.7333333,6.8759123 z"
       id="path7168"
       style="fill:#324949" />
    <path
       d="M 13.024482,41.529499 C 11.939612,40.222311 12.030433,39.623853 13.572225,37.920193 C 15.155279,36.170938 15.210952,35.745373 13.960237,34.954263 C 13.157107,34.446262 11.0375,34.023735 9.25,34.015313 C 6.073512,34.000346 6,33.899549 6,29.559017 C 6,24.56102 7.3571026,22.930218 8.9850105,25.971992 C 10.411493,28.637399 11.605692,28.531423 13.548019,25.567058 C 15.567691,22.484648 13.926093,18.524558 10.951148,19.302524 C 7.5650981,20.187996 6.4975816,17.482633 8.1498932,12.20342 L 9.621991,7.5 L 14.863982,7.8465603 C 20.044129,8.1890319 20.102398,8.1611311 19.802987,5.4816567 C 19.414586,2.0058104 22.081958,-0.0067965511 24.460635,1.9673303 C 25.579667,2.8960436 25.900325,4.1773331 25.485912,6.0641413 C 24.724197,9.5322068 25.948913,10.334984 33,10.989479 C 38.499556,11.499959 38.499987,11.500268 38.344728,14.821939 C 38.149351,19.001883 37.414336,19.739851 34.96809,18.212145 C 32.384452,16.598636 32.292868,16.623393 30.451981,19.432942 C 28.410722,22.548297 29.975047,26 33.428195,26 C 36.709388,26 37.329602,28.491586 35.454031,34.1384 L 33.851026,38.964595 L 30.303389,37.482297 C 25.41945,35.441657 21.073475,35.559093 20.396464,37.75 C 18.847256,42.763465 15.480924,44.48933 13.024482,41.529499 z"
       id="path7166"
       style="fill:#030404" />
  </g>
</svg>
