<?xml version="1.0" encoding="UTF-8" standalone="no"?>
<!-- Created with Inkscape (http://www.inkscape.org/) -->
<svg
   xmlns:svg="http://www.w3.org/2000/svg"
   xmlns="http://www.w3.org/2000/svg"
   xmlns:inkscape="http://www.inkscape.org/namespaces/inkscape"
   version="1.0"
   width="525"
   height="525"
   id="svg2">
  <defs
     id="defs4">
    <filter
       id="filter3536">
      <feGaussianBlur
         id="feGaussianBlur3538"
         stdDeviation="6.5491406"
         inkscape:collect="always" />
    </filter>
  </defs>
  <g
     id="layer3"
     style="display:inline">
    <path
       d="M 61.625,18 C 60.17438,19.88894 59.14432,22.179756 57.90625,24.28125 L 57.90625,90.4375 C 58.26218,91.33549 58.32319,92.55098 57.90625,94.21875 L 57.90625,105.03125 C 58.44313,106.28723 59.21674,107.43549 60.28125,108.5 C 60.64925,108.868 58.21263,117.17043 57.90625,120.5 L 57.90625,121.59375 C 58.21274,122.81971 58.17933,123.90146 57.90625,124.875 L 57.90625,169.21875 C 59.62206,172.65864 60.95083,175.49083 61.46875,177.5625 C 62.15355,180.30168 59.55097,191.23362 59.09375,193.0625 C 58.75946,194.39964 58.36405,195.41568 57.90625,196.25 L 57.90625,285.9375 C 58.64508,288.15308 59.56499,290.22871 60.28125,293.09375 C 61.94325,299.74177 60.61624,302.47255 59.09375,308.5625 C 58.70249,310.12756 58.30759,311.85995 57.90625,313.65625 L 57.90625,436.71875 C 58.56039,439.10985 58.84564,441.05174 57.90625,443.875 L 57.90625,496.71875 L 64.625,496.71875 C 67.26011,493.56913 69.54926,490.24252 71.46875,488.21875 C 73.04089,486.56118 86.12082,490.62616 90.6875,488.21875 C 101.60706,482.46229 93.55335,476.03416 107.65625,483.46875 C 116.28236,488.01614 122.83255,481.72777 127.96875,476.3125 C 131.14177,472.96708 137.57591,473.9375 142.65625,473.9375 C 149.6556,473.9375 151.84663,472.20025 158.4375,473.9375 C 164.97427,475.66048 166.94613,479.90625 174.28125,479.90625 C 180.65763,479.90625 186.43534,471.5625 194.59375,471.5625 C 199.57875,471.56249 207.03125,496.17221 207.03125,475.125 C 207.03125,473.11151 229.9674,463.64642 233.03125,462.03125 C 238.46279,459.16791 246.27904,462.771 252.1875,459.65625 C 257.19516,457.01636 264.38656,453.85399 270.28125,450.125 C 277.14499,445.783 278.93438,465.41331 286.09375,469.1875 C 291.09138,471.82211 298.28797,463.34563 300.78125,462.03125 C 305.56819,459.50773 310.81675,458.46875 317.71875,458.46875 C 326.51058,458.46875 325.50051,453.13274 332.40625,451.3125 C 338.89191,449.603 344.20564,446.10364 351.59375,444.15625 C 359.83399,441.98426 362.76896,439.65626 366.28125,432.25 C 370.40912,423.54564 371.91769,432.26448 375.3125,435.84375 C 380.70309,441.52726 389.30584,429.07632 396.78125,427.5 C 399.39176,426.94952 402.05204,426.70945 404.6875,426.3125 C 410.71064,425.40528 412.62945,433.54949 414.84375,438.21875 C 416.97571,442.71431 421.18958,446.44087 426.15625,447.75 C 430.91857,449.00528 436.05017,447.68222 440.8125,448.9375 C 449.48717,451.224 448.36924,448.48413 452.40625,445.0625 L 452.40625,372.875 C 451.19285,371.35181 450.0918,369.71097 449.6875,368.09375 C 448.41009,362.98416 448.5,357.23363 448.5,351.4375 C 448.50001,345.40169 451.03549,340.14199 449.6875,334.75 C 448.20715,328.82864 449.78318,321.52738 452.09375,316.90625 C 452.219,316.65576 452.30591,316.42455 452.40625,316.1875 L 452.40625,310.1875 C 451.75703,308.66007 450.73039,307.08579 449.6875,305 C 446.42867,298.48235 450.04015,293.6072 452.09375,289.5 C 452.20724,289.27303 452.30007,289.04691 452.40625,288.8125 L 452.40625,184.90625 C 450.85594,181.70821 448.05227,182.08295 450.90625,176.375 C 451.51414,175.15922 451.97989,173.94027 452.40625,172.71875 L 452.40625,73.15625 C 452.16532,71.42885 452.09375,69.45099 452.09375,66.8125 C 452.09375,65.50005 452.23525,63.81863 452.40625,62.03125 L 452.40625,18 L 415.28125,18 C 414.85116,18.355462 414.41532,18.740929 413.96875,19.1875 C 410.76841,22.387839 404.49577,20.034423 400.875,22.75 C 398.00016,24.906133 394.80725,20.374913 391.40625,18 L 381.65625,18 C 379.81796,19.097273 377.98239,20.375 374.6875,20.375 C 368.06264,20.375 363.78421,23.420396 360.375,25.125 C 355.42813,27.598439 346.66207,24.221658 343.71875,22.75 C 339.94227,20.861758 334.68549,19.210854 330.34375,18 L 240.125,18 C 233.84767,19.569333 230.28089,20.375 223.4375,20.375 C 216.29234,20.375 209.14516,20.375 202,20.375 C 197.11913,20.375 195.1402,19.525968 193.46875,18 L 157.9375,18 C 151.29034,21.323583 148.69752,17.708736 143.65625,22.75 C 142.34049,24.065759 134.02383,20.565321 128.0625,18 L 61.625,18 z"
       transform="matrix(1.0372724,0,0,1,-2.083758,8)"
       id="path3440"
       style="opacity:0.25;fill:#000000;fill-opacity:1;fill-rule:nonzero;display:inline;filter:url(#filter3536)" />
  </g>
  <g
     transform="translate(-253.625,-48.625)"
     id="layer1"
     style="display:inline">
    <path
       d="M 313.3886,72.625 C 311.88392,74.51394 310.81547,76.804756 309.53125,78.90625 L 309.53125,145.0625 C 309.90045,145.96049 309.96373,147.17598 309.53125,148.84375 L 309.53125,159.65625 C 310.08815,160.91223 310.89058,162.06049 311.99477,163.125 C 312.37649,163.493 309.84905,171.79543 309.53125,175.125 L 309.53125,176.21875 C 309.84917,177.44471 309.81451,178.52646 309.53125,179.5 L 309.53125,223.84375 C 311.31101,227.28364 312.68931,230.11583 313.22653,232.1875 C 313.93686,234.92668 311.23727,245.85862 310.76301,247.6875 C 310.41626,249.02464 310.00611,250.04068 309.53125,250.875 L 309.53125,340.5625 C 310.29761,342.77808 311.25182,344.85371 311.99477,347.71875 C 313.71872,354.36677 312.34224,357.09755 310.76301,363.1875 C 310.35717,364.75256 309.94755,366.48495 309.53125,368.28125 L 309.53125,491.34375 C 310.20977,493.73485 310.50565,495.67674 309.53125,498.5 L 309.53125,551.34375 L 316.50042,551.34375 C 319.23375,548.19413 321.60822,544.86752 323.59926,542.84375 C 325.23,541.18618 338.79745,545.25116 343.53433,542.84375 C 354.8609,537.08729 346.507,530.65916 361.13555,538.09375 C 370.08318,542.64114 376.8775,536.35277 382.20514,530.9375 C 385.49643,527.59208 392.17039,528.5625 397.44008,528.5625 C 404.70032,528.5625 406.97301,526.82525 413.80954,528.5625 C 420.58995,530.28548 422.6353,534.53125 430.24382,534.53125 C 436.85786,534.53125 442.85092,526.1875 451.31341,526.1875 C 456.48422,526.18749 464.21449,550.79721 464.21449,529.75 C 464.21449,527.73651 488.00552,518.27142 491.18357,516.65625 C 496.81756,513.79291 504.92513,517.396 511.05382,514.28125 C 516.24813,511.64136 523.70756,508.47899 529.82196,504.75 C 536.94154,500.408 538.79762,520.03831 546.22384,523.8125 C 551.40774,526.44711 558.87256,517.97063 561.45877,516.65625 C 566.42414,514.13273 571.86832,513.09375 579.02757,513.09375 C 588.14709,513.09375 587.09938,507.75774 594.26251,505.9375 C 600.98991,504.228 606.50169,500.72864 614.16517,498.78125 C 622.71255,496.60926 625.75692,494.28126 629.40011,486.875 C 633.68184,478.17064 635.24664,486.88948 638.76798,490.46875 C 644.35949,496.15226 653.28288,483.70132 661.03691,482.125 C 663.74472,481.57452 666.50417,481.33445 669.23786,480.9375 C 675.48549,480.03028 677.47582,488.17449 679.77265,492.84375 C 681.98407,497.33931 686.35501,501.06587 691.5068,502.375 C 696.44661,503.63028 701.76948,502.30722 706.70932,503.5625 C 715.70731,505.849 714.54771,503.10913 718.7352,499.6875 L 718.7352,427.5 C 717.47657,425.97681 716.33448,424.33597 715.91511,422.71875 C 714.59009,417.60916 714.68335,411.85863 714.68335,406.0625 C 714.68336,400.02669 717.31334,394.76699 715.91511,389.375 C 714.37958,383.45364 716.01435,376.15238 718.41105,371.53125 C 718.54097,371.28076 718.63111,371.04955 718.7352,370.8125 L 718.7352,364.8125 C 718.06178,363.28507 716.99687,361.71079 715.91511,359.625 C 712.53482,353.10735 716.2809,348.2322 718.41105,344.125 C 718.52877,343.89803 718.62506,343.67191 718.7352,343.4375 L 718.7352,239.53125 C 717.1271,236.33321 714.21893,236.70795 717.17928,231 C 717.80983,229.78422 718.29294,228.56527 718.7352,227.34375 L 718.7352,127.78125 C 718.48528,126.05385 718.41105,124.07599 718.41105,121.4375 C 718.41105,120.12505 718.55782,118.44363 718.7352,116.65625 L 718.7352,72.625 L 680.22646,72.625 C 679.78034,72.980462 679.32825,73.365929 678.86504,73.8125 C 675.54541,77.012839 669.03898,74.659423 665.28326,77.375 C 662.30126,79.531133 658.98935,74.999913 655.46157,72.625 L 645.34818,72.625 C 643.44137,73.722273 641.53738,75 638.11968,75 C 631.2479,75 626.81,78.045396 623.27373,79.75 C 618.14247,82.223439 609.04968,78.846658 605.99666,77.375 C 602.07942,75.486758 596.6267,73.835854 592.12314,72.625 L 498.54173,72.625 C 492.03041,74.194333 488.33069,75 481.23224,75 C 473.82077,75 466.4072,75 458.99571,75 C 453.93292,75 451.88024,74.150968 450.14649,72.625 L 413.2909,72.625 C 406.39598,75.948583 403.70652,72.333736 398.47736,77.375 C 397.11255,78.690759 388.48591,75.190321 382.30239,72.625 L 313.3886,72.625 z"
       id="rect2489"
       style="opacity:1;fill:#ffffff;fill-opacity:1;fill-rule:nonzero" />
  </g>
  <g
     transform="translate(-253.625,-48.625)"
     id="layer2"
     style="display:inline">
    <g
       transform="translate(304.12765,-16.170214)"
       id="g2471"
       style="display:inline">
      <path
         d="M 20.309887,417.76462 C 18.99574,416.18117 19.686438,384.01064 21.267967,373.14031 C 21.788095,369.56531 22.446711,355.16531 22.731557,341.14031 C 23.016404,327.11531 23.426275,314.06531 23.642382,312.14031 C 24.344659,305.88468 25.371238,266.44339 25.750653,231.14031 C 26.297716,180.23818 27.051272,148.20084 27.727212,147.10715 C 28.055857,146.57539 27.928237,146.14031 27.443611,146.14031 C 26.37697,146.14031 26.591257,136.39599 27.715771,133.76433 C 28.171497,132.69781 28.01887,130.50974 27.362048,128.69333 C 26.088785,125.17219 25.910143,120.56668 26.830873,114.99932 L 27.433021,111.35833 L 38.069868,111.17686 C 63.986745,110.73472 77.257065,110.22723 78.203975,109.64201 C 78.765325,109.29507 80.233085,109.3509 81.465665,109.76606 C 82.698245,110.18123 101.93171,110.62137 124.20672,110.74415 C 146.48172,110.86694 165.60672,110.9855 166.70672,111.00763 C 167.80671,111.02976 177.48172,111.11309 188.20672,111.19281 C 227.67974,111.4862 245.98698,111.88647 246.94249,112.47701 C 247.48121,112.80995 249.42553,112.65115 251.26322,112.12411 C 253.54887,111.46859 254.81474,111.50608 255.27005,112.24279 C 255.73139,112.98924 257.82988,113.03303 262.10825,112.38549 C 265.50318,111.87165 268.51572,111.83128 268.80279,112.29578 C 269.59182,113.57245 275.20672,113.30802 275.20672,111.99419 C 275.20672,111.15894 278.52937,111.02812 287.45672,111.51191 C 294.19421,111.87703 319.05672,112.34683 342.70672,112.55592 C 366.35672,112.765 388.45056,112.96048 391.80417,112.9903 L 397.90161,113.04453 L 398.55196,129.34242 C 399.33996,149.0899 399.55348,206.0486 398.84734,208.14031 C 398.56884,208.96531 398.07047,220.21531 397.73987,233.14031 C 397.40927,246.06531 396.62947,265.64031 396.00701,276.64031 C 394.55503,302.29892 394.35164,313.40655 394.27216,371.39031 L 394.20672,419.14031 L 207.82916,419.14031 C 50.865535,419.14031 21.27142,418.9232 20.309887,417.76462 z"
         id="path2485"
         style="fill:#b5eafd" />
      <path
         d="M 19.826363,416.59151 C 18.972479,414.36633 20.173299,379.59324 21.311671,373.58028 C 22.043982,369.71217 23.529708,330.00559 23.35804,318.89031 C 23.343175,317.92781 23.457838,317.14031 23.612847,317.14031 C 23.767856,317.14031 30.377389,318.44836 38.300698,320.04708 L 52.706715,322.95385 L 78.706715,322.09669 C 93.006715,321.62525 107.41199,320.95126 110.71842,320.59894 L 116.73013,319.95835 L 118.46722,312.29933 C 124.36416,286.2991 124.7133,269.19769 119.86901,243.64031 L 116.64674,226.64031 L 82.676725,225.89332 C 63.993215,225.48248 44.929032,225.25748 40.311865,225.39332 L 31.917015,225.64031 L 28.527712,234.64031 L 25.138408,243.64031 L 25.760195,220.64031 C 26.720877,185.10447 27.433315,147.90765 27.206259,145.14031 C 26.77483,139.88209 26.973637,135.56974 27.730711,133.76433 C 28.179271,132.69464 27.980634,130.404 27.268547,128.43476 C 26.010757,124.9564 26.675154,110.72159 28.057856,111.5237 C 28.414728,111.73072 42.206715,111.53398 58.706715,111.0865 C 75.206715,110.63902 94.106715,110.64907 100.70672,111.10885 C 107.30671,111.56862 113.15671,111.60561 113.70672,111.19105 C 114.25672,110.7765 122.13172,110.58985 131.20672,110.77629 C 140.28171,110.96273 169.53171,111.29431 196.20672,111.51314 C 222.88172,111.73196 245.48859,112.23358 246.4442,112.62784 C 247.39982,113.02211 249.49907,112.88545 251.1092,112.32415 C 252.71932,111.76286 254.29715,111.56408 254.61549,111.88241 C 254.93382,112.20075 284.46349,112.5015 320.23699,112.55076 C 376.89868,112.62877 385.40188,112.83359 386.22789,114.14031 C 386.85726,115.13593 387.18124,115.21999 387.19141,114.39031 C 387.20179,113.5419 388.99451,113.14031 392.77156,113.14031 L 398.33638,113.14031 L 398.17526,119.39031 C 397.84659,132.14013 399.19003,204.30431 399.77365,205.24863 C 400.10654,205.78724 399.94233,206.77071 399.40876,207.43411 C 398.87518,208.09752 398.13905,218.09031 397.77289,229.64031 C 397.40675,241.19031 396.63521,258.96531 396.05836,269.14031 C 395.4815,279.31531 394.79471,317.00281 394.53214,352.89031 L 394.05474,418.14031 L 207.23772,418.14031 C 39.484563,418.14031 20.360044,417.98226 19.826363,416.59151 z M 312.41628,313.53536 L 327.60083,305.9304 L 343.65377,306.65746 L 359.70672,307.38451 L 372.56298,313.82282 C 379.63392,317.36388 385.61641,320.06394 385.8574,319.82295 C 386.09839,319.58196 385.21853,313.59228 383.90215,306.51255 C 382.09766,296.80766 380.11825,290.26092 375.85772,279.90632 C 372.74967,272.35263 370.20672,265.33594 370.20672,264.31368 C 370.20672,263.29142 375.15084,256.19672 381.19364,248.54767 C 392.52922,234.199 393.75345,231.5069 390.55173,227.96905 C 389.16422,226.43586 387.34604,226.14405 379.30173,226.16346 L 369.70672,226.18661 L 356.21533,238.66346 C 348.79507,245.52573 342.01918,251.14031 341.15778,251.14031 C 340.29638,251.14031 333.54251,245.7344 326.14917,239.12719 L 312.70672,227.11406 L 303.20672,227.37719 L 293.70672,227.64031 L 293.41372,233.15846 L 293.12075,238.67661 L 304.16372,251.59004 C 310.23738,258.69243 315.20672,265.30668 315.20672,266.28837 C 315.20672,267.27006 311.77257,274.27048 307.5753,281.84485 C 301.70218,292.44342 299.16066,298.33694 296.54453,307.42407 C 294.67489,313.91827 293.41057,319.66115 293.73496,320.18601 C 294.84707,321.98543 297.25812,321.12708 312.41628,313.53536 z M 48.384585,304.82199 L 36.062456,300.65271 L 36.476227,281.14651 C 36.79041,266.33513 37.299869,260.40187 38.592948,256.4948 L 40.295898,251.34928 L 56.592081,250.63045 C 71.256825,249.98358 86.886465,250.71916 101.78066,252.75715 L 105.85461,253.3146 L 107.03562,265.97745 C 108.92448,286.23005 108.92793,286.20685 102.25986,298.14031 L 96.392765,308.64031 L 78.549745,308.81579 L 60.706715,308.99127 L 48.384585,304.82199 z"
         id="path2483"
         style="fill:#44b5e8" />
      <path
         d="M 19.826363,416.59151 C 18.972479,414.36633 20.173299,379.59324 21.311671,373.58028 C 22.046925,369.69662 23.539642,329.69569 23.354362,318.84148 C 23.333525,317.62081 23.867332,317.19884 25.015186,317.5286 C 25.945527,317.79588 32.781715,319.2263 40.206715,320.70732 C 53.502183,323.35928 54.115779,323.39032 80.706715,322.75612 C 95.556715,322.40195 109.98726,321.84412 112.7746,321.51651 L 117.84247,320.92085 L 120.52705,303.78058 C 124.31826,279.57462 124.21191,266.88753 120.02497,243.89031 L 116.79335,226.14031 L 102.66272,226.14031 C 94.890885,226.14031 75.746385,225.85032 60.119407,225.49588 L 31.706715,224.85145 L 28.832129,233.03796 C 27.251106,237.54054 25.714223,240.98115 25.416833,240.68376 C 25.119443,240.38637 25.473878,222.70494 26.204465,201.39168 C 26.935053,180.07843 27.476126,160.61531 27.406849,158.14031 C 27.228836,151.78056 27.197889,149.39482 27.267405,147.39031 C 27.300784,146.42781 27.256631,143.39031 27.169286,140.64031 C 27.081942,137.89031 27.332115,134.62781 27.725228,133.39031 L 28.439978,131.14031 L 213.20998,131.14031 L 397.98001,131.14031 L 398.7232,157.89031 C 399.13194,172.60281 399.17029,188.85393 398.80839,194.00391 C 398.35307,200.48322 398.50481,203.79456 399.301,204.75391 C 400.08149,205.69434 400.12833,206.5424 399.44664,207.39031 C 398.89391,208.07781 398.14199,217.86531 397.77574,229.14031 C 397.40949,240.41531 396.63887,258.19031 396.06326,268.64031 C 395.48765,279.09031 394.80025,317.00281 394.53571,352.89031 L 394.05474,418.14031 L 207.23772,418.14031 C 39.484563,418.14031 20.360044,417.98226 19.826363,416.59151 z M 313.38135,313.55284 L 328.53102,305.96537 L 343.61887,306.68336 L 358.70672,307.40135 L 372.45672,314.27751 C 383.61159,319.85589 386.20475,320.82212 386.19625,319.39699 C 386.19051,318.43081 385.13315,312.01531 383.84658,305.14031 C 382.11379,295.88094 380.04251,289.07977 375.85703,278.90632 C 372.74936,271.35263 370.20672,264.78594 370.20672,264.31368 C 370.20672,263.84142 375.15084,257.19672 381.19364,249.54767 C 390.47376,237.80081 392.1826,235.08882 392.19364,232.09031 C 392.21363,226.66166 391.06961,226.13754 379.25671,226.16346 L 368.70672,226.18661 L 355.21533,238.66346 C 347.79507,245.52573 341.46917,251.14031 341.15778,251.14031 C 340.84639,251.14031 334.54251,245.74399 327.14917,239.1485 L 313.70672,227.15669 L 303.45672,227.1485 L 293.20672,227.14031 L 293.20672,233.45873 L 293.20672,239.77715 L 304.20672,252.64031 C 310.25671,259.71505 315.20672,265.85668 315.20672,266.28837 C 315.20672,266.72006 311.77257,273.27048 307.5753,280.84485 C 301.72516,291.40195 299.15761,297.34754 296.5753,306.31718 C 294.72258,312.7526 293.20672,318.72047 293.20672,319.57912 C 293.20672,322.62849 298.29508,321.10857 313.38135,313.55284 z M 49.206715,304.72881 L 36.706715,300.47472 L 36.40711,284.05752 C 36.146738,269.7901 36.390647,266.57436 38.269759,259.50001 L 40.432012,251.35972 L 57.069364,250.66947 C 69.448275,250.15589 77.790085,250.39317 89.660105,251.59648 C 98.434465,252.48598 105.67229,253.30972 105.74415,253.42703 C 106.0426,253.9142 108.21623,279.90422 108.21167,282.93115 C 108.20845,285.07333 106.02517,290.21815 101.95672,297.67075 L 95.706715,309.1195 L 78.706715,309.0512 L 61.706715,308.9829 L 49.206715,304.72881 z"
         id="path2481"
         style="fill:#2e88af" />
      <path
         d="M 20.298702,398.97901 C 20.334655,388.4403 20.816619,377.3028 21.369732,374.22901 C 22.250528,369.33422 22.732577,357.52412 23.322349,326.39031 C 23.455806,319.34521 23.727542,318.14031 25.182947,318.14031 C 26.120322,318.14031 32.696641,319.32453 39.79699,320.7719 C 52.486591,323.35862 53.175618,323.39253 80.206715,322.76046 C 95.331715,322.4068 109.99412,321.84754 112.78985,321.51768 L 117.87301,320.91792 L 120.55376,304.27911 C 124.36336,280.63397 124.25176,265.3887 120.10679,243.21988 C 118.40183,234.10112 116.93932,226.58321 116.85679,226.51341 C 116.77425,226.44362 97.530525,226.0632 74.092955,225.66804 L 31.479192,224.94957 L 28.61199,232.79494 C 25.203385,242.12172 24.729128,240.94603 25.690892,225.55346 L 26.392048,214.3318 L 32.765427,213.12923 C 36.957144,212.33831 52.664515,211.87765 78.652005,211.78349 L 118.16521,211.64031 L 127.56176,220.99687 L 136.9583,230.35343 L 137.70973,260.99687 C 138.58012,296.49122 139.24132,305.73543 140.88702,305.41822 C 141.52076,305.29607 145.22072,304.34286 149.10916,303.29997 C 154.22467,301.92798 157.35778,301.61984 160.44289,302.18528 C 162.78799,302.61509 164.93171,302.7439 165.20672,302.47151 C 165.48172,302.19913 165.8631,287.95068 166.05421,270.80829 C 166.36299,243.11477 166.14445,237.48297 164.09385,220.28771 L 161.78597,200.93512 L 149.49533,191.28771 L 137.20469,181.64031 L 127.9557,181.00224 C 122.86875,180.6513 98.054145,180.3138 72.812115,180.25224 L 26.917505,180.14031 L 27.555001,173.39031 C 27.905624,169.67781 28.195696,165.17781 28.199606,163.39031 L 28.206715,160.14031 L 86.978585,160.14031 L 145.75046,160.14031 L 154.22859,165.66819 C 158.89156,168.70853 165.46497,172.86093 168.83615,174.89574 C 174.929,178.57332 175.0085,178.68144 182.1495,193.00372 L 189.33338,207.41202 L 188.61942,247.16243 C 188.22673,269.02515 188.16834,287.5979 188.48963,288.43521 C 188.97656,289.70412 191.45737,289.08008 203.39028,284.68694 C 211.26432,281.78809 219.39422,278.70217 221.45672,277.82933 L 225.20672,276.24236 L 225.20672,232.32541 L 225.20672,188.40845 L 239.29554,175.09172 L 253.38437,161.77499 L 263.54554,161.01385 C 269.13419,160.59522 301.71921,160.22742 335.95672,160.19651 L 398.20672,160.14031 L 398.2631,169.89031 C 398.49743,210.40946 398.28359,219.81263 396.16526,262.14031 C 394.2039,301.33125 393.47015,339.87069 393.94245,378.89031 L 394.41752,418.14031 L 207.32542,418.14031 L 20.233332,418.14031 L 20.298702,398.97901 z M 314.33532,313.5759 L 329.43894,306.01149 L 343.57282,306.7136 L 357.70672,307.41572 L 371.44339,314.27801 C 378.99856,318.05228 385.41106,321.14031 385.69339,321.14031 C 388.23009,321.14031 382.12495,293.13496 376.75544,280.14031 C 374.14189,273.81531 371.62492,267.66605 371.16219,266.4753 C 370.45462,264.65456 372.06317,262.11029 381.27765,250.4753 C 392.19564,236.68933 392.23352,236.62259 391.97059,231.64031 L 391.70672,226.64031 L 379.70672,226.39416 L 367.70672,226.14801 L 354.76215,238.14416 C 347.64264,244.74204 341.50788,250.14031 341.12933,250.14031 C 340.75081,250.14031 334.65085,244.96799 327.5739,238.64626 L 314.70672,227.15222 L 305.45672,226.9796 C 300.36922,226.88466 295.41922,226.76948 294.45672,226.72364 C 292.9869,226.65365 292.66362,227.68097 292.43754,233.14031 L 292.16836,239.64031 L 303.66926,253.05183 L 315.17018,266.46336 L 313.31691,269.55183 C 304.64553,284.00267 299.62595,294.72817 296.57298,305.32912 C 294.72154,311.75797 293.20672,317.94547 293.20672,319.07912 C 293.20672,322.8868 298.49451,321.50952 314.33532,313.5759 z M 271.94352,256.51092 C 278.15939,253.58998 280.18357,252.15497 280.19352,250.66221 C 280.20078,249.57425 281.66922,241.97884 283.45672,233.78351 C 286.70227,218.90326 286.71245,218.8782 290.90959,215.42976 L 295.11248,211.97661 L 301.11779,214.10874 C 304.4207,215.28141 311.49132,218.01824 316.83028,220.19059 C 322.16923,222.36293 327.92555,224.13079 329.6221,224.11916 C 331.78775,224.10432 337.53791,221.05067 348.92335,213.86916 C 367.64527,202.06006 394.20672,183.51468 394.20672,182.25201 C 394.20672,180.40318 385.91875,180.14031 327.62834,180.14031 L 267.29998,180.14031 L 257.25334,194.81828 L 247.20672,209.49626 L 247.20672,237.65162 C 247.20672,253.13706 247.47389,266.07416 247.80046,266.40072 C 248.41376,267.01403 257.60226,263.25012 271.94352,256.51092 z M 49.206715,304.72876 L 36.706715,300.47462 L 36.443216,284.05747 C 36.208493,269.43313 36.43077,266.76668 38.478647,259.64031 L 40.777576,251.64031 L 56.101687,250.79127 C 67.972795,250.13355 75.170525,250.30892 88.044515,251.56953 C 97.184805,252.46454 104.94752,253.52161 105.29497,253.91857 C 105.64244,254.31553 106.50122,261.31623 107.20336,269.47569 L 108.48002,284.31107 L 102.12321,296.72569 L 95.766405,309.14031 L 78.736555,309.06161 L 61.706715,308.9829 L 49.206715,304.72876 z M 88.201545,289.39031 C 88.198695,287.32781 87.905825,281.25281 87.550715,275.89031 L 86.905065,266.14031 L 70.555895,266.14031 C 59.215703,266.14031 54.206715,266.48133 54.206715,267.2534 C 54.206715,267.8656 54.950055,273.9406 55.858581,280.7534 L 57.510447,293.14031 L 72.858585,293.14031 L 88.206715,293.14031 L 88.201545,289.39031 z M 90.799915,144.47139 C 50.340599,144.24497 28.463533,143.76842 27.653151,143.09586 C 26.971169,142.52986 26.566924,141.29582 26.754829,140.35354 C 26.942734,139.41127 27.366669,136.95281 27.696908,134.89031 L 28.297341,131.14031 L 213.09444,131.14031 L 397.89153,131.14031 L 398.10195,137.64031 L 398.31237,144.14031 L 346.50955,144.14108 C 318.01798,144.14151 262.75671,144.29395 223.70672,144.47985 C 184.65671,144.66575 124.84866,144.66194 90.799915,144.47139 z"
         id="path2479"
         style="fill:#116b98" />
      <path
         d="M 20.289465,408.64031 L 20.431569,399.14031 L 207.31914,399.14031 L 394.20672,399.14031 L 394.20672,408.64031 L 394.20672,418.14031 L 207.17703,418.14031 L 20.147361,418.14031 L 20.289465,408.64031 z M 28.822267,385.39378 L 19.93782,385.05852 L 20.594103,379.84942 C 20.955058,376.98441 21.519978,371.94031 21.84948,368.64031 L 22.448575,362.64031 L 71.828605,362.91754 L 121.20864,363.19477 L 137.37489,360.20033 C 146.26631,358.55339 153.85438,356.85364 154.23722,356.4231 C 154.62008,355.99257 157.46983,348.97043 160.57002,340.81836 L 166.20672,325.9964 L 166.16083,280.31836 C 166.11962,239.29276 165.89044,232.88069 163.91083,217.36422 L 161.70672,200.08812 L 149.83718,190.76146 L 137.96762,181.43481 L 125.93017,180.78756 C 119.30956,180.43157 94.323295,180.14031 70.405105,180.14031 L 26.917505,180.14031 L 27.555001,173.39031 C 27.905624,169.67781 28.195696,165.40281 28.199606,163.89031 L 28.206715,161.14031 L 86.986015,161.14031 L 145.76532,161.14031 L 160.23602,170.1575 L 174.70672,179.17468 L 181.85222,193.4075 L 188.99771,207.64031 L 188.53529,271.14031 L 188.07287,334.64031 L 184.75677,343.14031 C 182.93292,347.81531 180.12131,355.01531 178.50876,359.14031 L 175.57684,366.64031 L 159.14177,376.37572 L 142.70672,386.11112 L 90.206715,385.92008 C 61.331715,385.81501 33.708714,385.57817 28.822267,385.39378 z M 277.70672,385.14005 C 276.05672,384.68449 269.45021,383.1114 263.02561,381.64429 L 251.3445,378.97682 L 238.58696,365.08728 L 225.82942,351.19774 L 225.39415,270.41019 L 224.9589,189.62265 L 239.73371,175.63148 L 254.5085,161.64031 L 326.35762,161.29632 L 398.20672,160.95232 L 398.20672,169.46453 C 398.20672,174.14624 398.43687,178.57604 398.71816,179.30852 C 399.14163,180.41122 387.82537,180.58737 332.93282,180.33254 L 266.636,180.02477 L 256.91228,194.33254 L 247.18857,208.64031 L 247.19764,272.71401 L 247.20672,336.78772 L 254.79864,345.71401 C 258.9742,350.62348 263.13671,355.409 264.04864,356.34851 C 265.20561,357.54047 270.47983,358.82488 281.50041,360.59851 C 296.84987,363.06882 298.65791,363.14031 345.78315,363.14031 L 394.27221,363.14031 L 393.98946,374.39031 L 393.70672,385.64031 L 337.20672,385.80433 C 306.13171,385.89454 279.35672,385.59561 277.70672,385.14005 z M 27.706715,339.23321 C 23.479011,338.73189 22.736448,338.33139 22.899213,336.64031 C 23.005088,335.54031 23.178769,330.92781 23.285171,326.39031 C 23.450035,319.35975 23.730547,318.14031 25.182947,318.14031 C 26.120322,318.14031 32.696641,319.32435 39.79699,320.7715 C 52.492139,323.35896 53.17211,323.39229 80.706715,322.7768 C 96.106715,322.43255 110.79171,321.87091 113.34004,321.5287 L 117.97335,320.90651 L 120.54953,303.77341 C 121.96643,294.3502 123.38826,280.9468 123.70917,273.98807 C 124.2355,262.57457 123.98096,259.63738 121.10936,243.98807 C 119.35856,234.4468 117.62768,226.30124 117.26292,225.88683 C 116.89818,225.47241 97.308025,225.08283 73.729265,225.02109 L 30.858778,224.90883 L 28.091182,232.27457 L 25.323586,239.64031 L 25.271144,235.14031 C 25.242301,232.66531 25.503,226.9888 25.850475,222.52584 L 26.482247,214.41138 L 33.40203,213.17474 C 37.991052,212.35464 53.263595,211.88795 78.744585,211.78921 L 117.16736,211.64031 L 126.99563,221.43086 L 136.8239,231.22142 L 138.0369,272.93086 C 138.70405,295.87106 139.24017,317.57365 139.22831,321.15883 L 139.20672,327.67736 L 126.69654,333.90883 L 114.18636,340.14031 L 73.446535,339.98321 C 51.039636,339.8968 30.456715,339.5593 27.706715,339.23321 z M 355.95385,326.98045 L 343.20098,314.89842 L 330.74857,326.58126 L 318.29616,338.2641 L 306.50144,336.69017 C 300.01435,335.82451 293.08201,334.86771 291.09627,334.56396 C 287.54509,334.02074 287.37395,333.77386 280.66701,319.51957 L 273.84816,305.02747 L 286.69024,292.15682 L 299.53232,279.28618 L 297.80053,276.64315 C 296.84806,275.18948 292.46852,268.97084 288.06823,262.82394 C 282.42699,254.9435 280.22304,251.05689 280.59443,249.64404 C 280.88414,248.54199 282.621,241.19451 284.45415,233.31631 C 287.67016,219.49504 287.92393,218.87747 291.68481,215.72001 L 295.5825,212.44771 L 310.0489,218.27823 C 323.84365,223.83804 325.18844,224.17586 339.01316,225.55423 L 353.51103,226.99971 L 369.48821,218.99935 C 378.27567,214.59916 385.79823,211.36829 386.20503,211.81965 C 386.61182,212.27101 389.33321,215.96259 392.25255,220.02316 L 397.56043,227.40601 L 397.35488,238.02316 C 397.24184,243.86259 396.90385,249.99031 396.60379,251.64031 C 396.29536,253.33638 393.26923,257.90014 389.64148,262.14031 C 386.11226,266.26531 383.22065,269.88823 383.21572,270.19123 C 383.21077,270.49424 385.8782,273.89243 389.14336,277.74275 L 395.08001,284.74335 L 394.39336,308.11241 L 393.70672,331.48147 L 381.70672,335.2893 C 375.10672,337.3836 369.48172,339.08932 369.20672,339.0798 C 368.93172,339.07027 362.96793,333.62557 355.95385,326.98045 z M 313.38135,314.55284 L 328.53102,306.96537 L 343.61887,307.68336 L 358.70672,308.40135 L 372.4809,315.28962 C 383.45952,320.77987 386.37149,321.87451 386.82867,320.6831 C 387.14414,319.86097 386.37288,313.44002 385.11474,306.41431 C 383.34852,296.55143 381.50309,290.39919 377.01697,279.41831 C 373.82133,271.59621 371.20672,264.80452 371.20672,264.32567 C 371.20672,263.84682 376.15084,257.19672 382.19364,249.54767 C 391.29596,238.02589 393.18282,235.05345 393.19364,232.21905 C 393.21704,226.09496 391.33123,225.13718 379.30173,225.16346 L 368.70672,225.18661 L 355.21533,237.66346 C 347.79507,244.52573 341.46917,250.14031 341.15778,250.14031 C 340.84639,250.14031 334.54251,244.73495 327.14917,238.1284 L 313.70672,226.1165 L 303.20672,226.3784 L 292.70672,226.64031 L 292.41625,233.1614 L 292.12577,239.68249 L 303.16625,252.59298 C 309.23851,259.69375 314.20672,265.85367 314.20672,266.28168 C 314.20672,266.7097 310.67797,273.49049 306.36508,281.3501 C 300.2409,292.51052 297.80399,298.20259 295.23852,307.33934 C 293.43183,313.7738 292.22145,319.7363 292.54878,320.58934 C 293.65638,323.47569 298.18612,322.16314 313.38135,314.55284 z M 50.683997,304.81161 C 44.071502,302.51739 38.109002,300.27625 37.433997,299.83129 C 36.542841,299.24385 36.226981,294.58792 36.280713,282.83129 C 36.342917,269.22061 36.706044,265.44506 38.559276,259.14031 L 40.763842,251.64031 L 56.094821,250.79127 C 67.948165,250.13483 75.172075,250.30907 87.941085,251.5594 C 97.024485,252.44884 104.77012,253.37048 105.15359,253.60748 C 105.53707,253.84448 106.43792,260.95674 107.15547,269.4125 L 108.46014,284.78662 L 101.76318,296.96346 L 95.066245,309.14031 L 78.886475,309.06161 L 62.706715,308.9829 L 50.683997,304.81161 z M 89.206715,290.29587 C 89.206715,288.18143 88.913335,281.65643 88.554745,275.79587 L 87.902785,265.14031 L 70.554745,265.14031 C 57.349834,265.14031 53.20365,265.43884 53.19388,266.39031 C 53.186821,267.07781 53.94537,273.60281 54.879545,280.89031 L 56.578044,294.14031 L 72.892375,294.14031 L 89.206715,294.14031 L 89.206715,290.29587 z M 89.706715,143.23259 L 26.706715,142.64031 L 26.977392,140.14031 C 27.126265,138.76531 27.484156,136.17781 27.772705,134.39031 L 28.297341,131.14031 L 213.08793,131.14031 L 397.87851,131.14031 L 398.09504,137.14031 L 398.31155,143.14031 L 346.50914,143.14108 C 318.0178,143.14151 262.75671,143.29553 223.70672,143.48336 C 184.65671,143.67119 124.35672,143.55835 89.706715,143.23259 z"
         id="path2477"
         style="fill:#084d6a" />
      <path
         d="M 20.341557,408.64031 L 20.575823,400.14031 L 207.39127,400.14031 L 394.20672,400.14031 L 394.20672,408.64031 L 394.20672,417.14031 L 207.157,417.14031 L 20.10729,417.14031 L 20.341557,408.64031 z M 21.36153,376.89031 C 21.738913,372.35281 22.083464,367.40281 22.127198,365.89031 L 22.206715,363.14031 L 72.456715,363.13247 L 122.70672,363.12463 L 138.58481,360.17103 C 147.31778,358.54655 154.5633,357.08758 154.68598,356.92887 C 154.80866,356.77016 157.44422,349.98812 160.5428,341.85766 L 166.17656,327.07501 L 166.85217,283.21924 C 167.50238,241.01275 167.43861,238.62208 165.15688,219.64929 L 162.78597,199.93512 L 150.49533,190.28771 L 138.20469,180.64031 L 128.9557,180.00224 C 123.86875,179.6513 99.119215,179.3138 73.956715,179.25224 L 28.206715,179.14031 L 28.206715,170.64031 L 28.206715,162.14031 L 86.976155,162.14031 L 145.74559,162.14031 L 159.85423,170.89031 L 173.9629,179.64031 L 180.767,193.14031 L 187.5711,206.64031 L 187.8304,270.14031 L 188.08969,333.64031 L 181.41694,349.91983 L 174.74421,366.19935 L 158.63101,375.66983 L 142.5178,385.14031 L 81.596585,385.14031 L 20.675378,385.14031 L 21.36153,376.89031 z M 266.20672,381.54777 L 251.70672,378.154 L 245.42722,371.39716 C 241.97349,367.68089 236.12348,361.31369 232.42722,357.24781 L 225.70672,349.85532 L 225.92587,269.74781 L 226.14502,189.64031 L 239.89905,176.53332 L 253.65308,163.42633 L 266.17989,162.78738 C 273.06965,162.43595 305.59421,162.1466 338.45672,162.14437 L 398.20672,162.14031 L 398.20672,171.61531 L 398.20672,181.09031 L 394.95672,180.36531 C 393.16922,179.96656 363.41112,179.64031 328.82763,179.64031 L 265.94854,179.64031 L 255.9825,194.22955 L 246.01647,208.81879 L 246.75496,273.4706 L 247.49346,338.12241 L 254.94571,346.88136 C 259.04444,351.69878 262.91742,356.18279 263.55232,356.84582 C 264.18724,357.50885 271.81388,359.19635 280.50041,360.59582 C 295.85001,363.06876 297.65257,363.14031 344.60794,363.14031 L 392.9218,363.14031 L 393.56426,369.287 C 393.9176,372.66768 394.20672,377.61768 394.20672,380.287 L 394.20672,385.14031 L 337.45672,385.04092 L 280.70672,384.94154 L 266.20672,381.54777 z M 28.456715,339.40307 L 23.206715,339.03579 L 23.22037,330.83805 C 23.22788,326.32929 23.48748,321.6962 23.797258,320.54229 L 24.360492,318.44427 L 38.533603,321.37714 L 52.706715,324.31002 L 80.706715,323.67954 C 96.106715,323.33278 110.95199,322.7321 113.69621,322.34469 L 118.68571,321.64031 L 121.37306,305.14031 C 125.28323,281.13242 125.15517,265.25307 120.86901,242.64031 L 117.64674,225.64031 L 83.676725,224.89437 C 64.993215,224.4841 45.493494,224.2591 40.344002,224.39437 L 30.981288,224.64031 L 28.664476,230.64031 L 26.347663,236.64031 L 26.277189,226.05046 L 26.206715,215.46062 L 33.264264,214.19936 C 38.020834,213.34931 52.848501,212.88956 78.743585,212.78921 L 117.16536,212.64031 L 126.50124,221.93653 L 135.83712,231.23275 L 137.14836,267.93653 C 137.86954,288.12361 138.65465,309.68608 138.89307,315.85313 L 139.32655,327.06595 L 126.2809,333.60313 L 113.23528,340.14031 L 73.470995,339.95533 C 51.600641,339.85359 31.344215,339.60507 28.456715,339.40307 z M 303.70672,336.22199 C 297.10672,335.2928 290.79291,334.03129 289.67602,333.41863 C 288.49289,332.76961 284.97726,326.60989 281.2527,318.66011 L 274.86006,305.01554 L 287.65994,292.18719 C 296.62904,283.19814 300.22177,278.95204 299.66443,277.99958 C 299.22696,277.25198 295.12001,271.39024 290.53787,264.9735 C 285.95574,258.55675 282.20672,252.86167 282.20672,252.31776 C 282.20672,251.4351 294.40841,245.14031 296.11933,245.14031 C 296.88336,245.14031 311.24685,261.63047 313.18233,264.72967 C 314.2504,266.4399 313.3814,268.56674 306.46628,281.16719 C 300.23982,292.51278 297.81359,298.16838 295.23852,307.33934 C 293.43183,313.7738 292.22145,319.7363 292.54878,320.58934 C 293.65638,323.47569 298.18612,322.16314 313.38135,314.55284 L 328.53102,306.96537 L 343.61887,307.68336 L 358.70672,308.40135 L 372.4809,315.28962 C 383.45952,320.77987 386.37149,321.87451 386.82867,320.6831 C 387.14414,319.86097 386.37288,313.44002 385.11474,306.41431 C 383.34852,296.55143 381.50309,290.39919 377.01697,279.41831 C 373.82133,271.59621 371.20672,264.80452 371.20672,264.32567 C 371.20672,263.84682 376.15084,257.19672 382.19364,249.54767 C 391.53292,237.72594 393.18254,235.10118 393.19364,232.0453 C 393.21519,226.11746 391.21047,225.13662 379.12797,225.16346 L 368.70672,225.18661 L 355.21533,237.66346 C 347.79507,244.52573 341.47027,250.14031 341.1602,250.14031 C 340.54265,250.14031 320.20672,232.21087 320.20672,231.66642 C 320.20672,231.48158 322.33334,230.08407 324.93255,228.56083 L 329.65837,225.79132 L 341.65972,226.85794 L 353.66108,227.92457 L 369.54103,219.9729 C 378.275,215.59949 385.52451,212.16053 385.65106,212.33078 C 385.7776,212.50102 388.47447,216.18441 391.64409,220.51608 L 397.40703,228.39185 L 396.78732,240.87386 L 396.1676,253.35588 L 389.19181,261.49809 C 385.35511,265.97631 382.21392,269.89926 382.21137,270.21575 C 382.2088,270.53224 385.13171,274.20558 388.70672,278.37874 C 395.00778,285.73407 395.20672,286.13548 395.20672,291.49428 C 395.20672,294.53468 394.74206,297.30945 394.17414,297.66044 C 393.49343,298.08115 393.37114,302.64716 393.81529,311.06031 C 394.18583,318.07924 394.19849,325.37056 393.84343,327.26325 C 393.20176,330.68366 393.12477,330.72722 381.12303,334.46148 L 369.04822,338.21848 L 356.11617,326.05515 L 343.18413,313.89182 L 330.29832,326.01606 C 323.21111,332.6844 317.02871,338.08881 316.55961,338.02586 C 316.09051,337.96291 310.30672,337.15117 303.70672,336.22199 z M 49.382027,303.80979 L 37.057338,299.65102 L 37.477271,281.14566 C 37.790838,267.3276 38.327638,261.33698 39.596551,257.4948 L 41.295898,252.34928 L 57.501306,251.66046 C 69.363625,251.15625 77.833975,251.3918 89.106785,252.53938 C 97.576815,253.40163 104.61029,254.22708 104.73672,254.37371 C 104.86316,254.52034 105.55906,261.57433 106.28319,270.04923 L 107.59977,285.45816 L 104.27916,291.54923 C 102.45282,294.89933 99.631355,300.00281 98.009235,302.89031 L 95.059935,308.14031 L 78.383325,308.05444 L 61.706715,307.96856 L 49.382027,303.80979 z M 89.201545,289.39031 C 89.198695,286.77781 88.905825,280.25281 88.550715,274.89031 L 87.905065,265.14031 L 70.555895,265.14031 C 53.563874,265.14031 53.206715,265.18381 53.206715,267.2534 C 53.206715,268.4156 53.950055,274.9406 54.858581,281.7534 L 56.510447,294.14031 L 72.858585,294.14031 L 89.206715,294.14031 L 89.201545,289.39031 z M 90.100795,142.4715 L 27.494877,142.12539 L 27.710909,138.38285 C 27.829727,136.32446 27.989891,133.85281 28.066828,132.89031 C 28.199509,131.23046 37.728047,131.14031 213.03558,131.14031 L 397.86446,131.14031 L 398.08698,136.64031 L 398.30949,142.14031 L 346.50811,142.14108 C 318.01734,142.14151 262.75671,142.2939 223.70672,142.47973 C 184.65671,142.66556 124.53405,142.66186 90.100795,142.4715 z"
         id="path2475"
         style="fill:#013951" />
      <path
         d="M 20.375199,408.89031 L 20.721746,400.64031 L 207.46424,400.38769 L 394.20672,400.13506 L 394.20672,408.63769 L 394.20672,417.14031 L 207.11768,417.14031 L 20.028653,417.14031 L 20.375199,408.89031 z M 22.456715,384.47803 C 21.076041,383.92092 20.858003,378.75074 21.826619,369.537 L 22.446522,363.64031 L 73.076615,363.30693 C 121.7123,362.98668 124.25821,362.87606 137.70672,360.49895 C 145.40671,359.13792 152.46505,357.80438 153.39189,357.53552 C 154.31873,357.26666 155.85871,354.93025 156.81409,352.3435 C 157.76944,349.75674 158.90399,347.16786 159.33528,346.59042 C 159.76657,346.01297 161.7141,341.36187 163.66308,336.25463 C 167.14459,327.13155 167.20672,326.70872 167.20672,312.13699 L 167.20672,297.30524 L 176.45918,294.22277 C 181.54805,292.52742 186.04805,291.14031 186.45918,291.14031 C 186.87033,291.14031 187.20672,300.7553 187.20672,312.50696 C 187.20672,336.15856 187.98082,332.2493 178.7646,355.14031 L 174.53717,365.64031 L 158.12195,375.37572 L 141.70672,385.11112 L 82.706715,385.04677 C 50.256715,385.01137 23.144215,384.75544 22.456715,384.47803 z M 278.70672,384.14008 C 277.05672,383.6845 270.45021,382.1114 264.02561,380.64429 L 252.3445,377.97682 L 239.6555,364.16191 L 226.96649,350.34699 L 226.53223,313.38567 L 226.09797,276.42436 L 234.61945,272.76357 C 239.30627,270.75014 243.83073,268.83808 244.67382,268.51456 C 246.03299,267.99299 246.20672,271.88836 246.20672,302.88759 L 246.20672,337.84884 L 254.30668,347.24458 C 258.76166,352.41223 262.6997,356.95585 263.05787,357.34151 C 263.41607,357.72717 270.68358,359.15584 279.20791,360.51633 C 293.53265,362.80257 298.43204,363.04398 343.88432,363.70314 L 393.06193,364.41632 L 393.72663,371.52832 C 394.09222,375.43991 394.23729,379.99031 394.04902,381.64031 L 393.70672,384.64031 L 337.70672,384.80436 C 306.90671,384.89459 280.35672,384.59567 278.70672,384.14008 z M 28.406328,338.40132 L 23.105942,338.0323 L 23.406328,332.8363 L 23.706715,327.64031 L 32.706715,326.3812 C 37.656715,325.68868 56.556715,324.67492 74.706715,324.12838 C 92.856715,323.58185 110.18171,322.79845 113.20672,322.3875 L 118.70672,321.64031 L 119.55568,315.98828 L 120.40465,310.33624 L 128.76949,308.23828 C 133.37016,307.08439 137.37563,306.14031 137.67052,306.14031 C 137.96544,306.14031 138.20672,310.76115 138.20672,316.40883 L 138.20672,326.67736 L 125.69654,332.90883 L 113.18636,339.14031 L 73.446535,338.95533 C 51.589636,338.85359 31.321541,338.60428 28.406328,338.40132 z"
         id="path2473"
         style="fill:#001a30" />
    </g>
  </g>
</svg>
