<?xml version="1.0" encoding="UTF-8" standalone="no"?>
<!-- Created with Inkscape (http://www.inkscape.org/) -->
<svg
   xmlns:svg="http://www.w3.org/2000/svg"
   xmlns="http://www.w3.org/2000/svg"
   version="1.0"
   width="48"
   height="48"
   id="svg7570">
  <defs
     id="defs7573" />
  <g
     id="g7581">
    <path
       d="M 6.0197076,45.750397 C 1.4690591,43.383949 0.93819008,40.837535 1.2298956,22.775154 C 1.5951602,0.15799486 0.15885583,1.5 24,1.5 C 41.34056,1.5 42.021098,1.5766541 44.222222,3.7777778 C 46.423346,5.9789015 46.5,6.6594399 46.5,24 C 46.5,47.841144 47.842005,46.40484 25.224846,46.770104 C 13.063821,46.966504 7.823186,46.688249 6.0197076,45.750397 z M 39.958345,44.864676 C 44.909346,43.138748 46,39.372207 46,24 C 46,2.9097859 45.082715,2 23.818658,2 C 2.9651066,2 2,2.9731279 2,24 C 2,38.843787 2.9982315,42.656553 7.3843453,44.56562 C 11.306764,46.272862 35.287267,46.493023 39.958345,44.864676 z"
       id="path7595"
       style="fill:#cdd2cf" />
    <path
       d="M 7.3843453,44.56562 C 2.9982315,42.656553 2,38.843787 2,24 C 2,2.9731279 2.9651066,2 23.818658,2 C 45.082715,2 46,2.9097859 46,24 C 46,39.372207 44.909346,43.138748 39.958345,44.864676 C 35.287267,46.493023 11.306764,46.272862 7.3843453,44.56562 z M 41.685549,41.825686 C 43.911892,39.734145 44,39.060879 44,24.140137 C 44,3.0743251 44.912793,4 24.140137,4 C 3.0743251,4 4,3.087207 4,23.859863 C 4,44.925675 3.087207,44 23.859863,44 C 38.409307,44 39.514608,43.865179 41.685549,41.825686 z"
       id="path7593"
       style="fill:#9ba69f" />
    <path
       d="M 6.174314,41.685549 C 4.1348207,39.514608 4,38.409307 4,23.859863 C 4,3.087207 3.0743251,4 24.140137,4 C 44.912793,4 44,3.0743251 44,24.140137 C 44,44.912793 44.925675,44 23.859863,44 C 8.9391213,44 8.2658546,43.911892 6.174314,41.685549 z M 40.545455,40.545455 C 42.919257,38.171652 43,37.627385 43,24 C 43,4.6729996 43.327,5 24,5 C 10.372615,5 9.828348,5.0807429 7.4545455,7.4545455 C 5.0807429,9.828348 5,10.372615 5,24 C 5,37.627385 5.0807429,38.171652 7.4545455,40.545455 C 9.828348,42.919257 10.372615,43 24,43 C 37.627385,43 38.171652,42.919257 40.545455,40.545455 z"
       id="path7591"
       style="fill:#74837a" />
    <path
       d="M 7.4545455,40.545455 C 5.0807429,38.171652 5,37.627385 5,24 C 5,10.372615 5.0807429,9.828348 7.4545455,7.4545455 C 9.828348,5.0807429 10.372615,5 24,5 C 37.627385,5 38.171652,5.0807429 40.545455,7.4545455 C 42.919257,9.828348 43,10.372615 43,24 C 43,37.627385 42.919257,38.171652 40.545455,40.545455 C 38.171652,42.919257 37.627385,43 24,43 C 10.372615,43 9.828348,42.919257 7.4545455,40.545455 z M 39.171259,39.345012 C 40.771085,37.89719 41,35.998106 41,24.173753 C 41,6.2318368 41.75262,7 24.173753,7 C 6.2318368,7 7,6.2473804 7,23.826247 C 7,41.768163 6.2473804,41 23.826247,41 C 34.999956,41 37.659466,40.713167 39.171259,39.345012 z"
       id="path7589"
       style="fill:#58695f" />
    <path
       d="M 8.6549876,39.171259 C 7.286833,37.659466 7,34.999956 7,23.826247 C 7,6.2473804 6.2318368,7 24.173753,7 C 41.75262,7 41,6.2318368 41,24.173753 C 41,41.75262 41.768163,41 23.826247,41 C 12.001894,41 10.10281,40.771085 8.6549876,39.171259 z M 37.428571,37.428571 C 39.721171,35.135972 39.721171,12.864028 37.428571,10.571429 C 35.135972,8.2788294 12.864028,8.2788294 10.571429,10.571429 C 8.2788294,12.864028 8.2788294,35.135972 10.571429,37.428571 C 12.864028,39.721171 35.135972,39.721171 37.428571,37.428571 z"
       id="path7587"
       style="fill:#32473a" />
    <path
       d="M 10.571429,37.428571 C 8.2788294,35.135972 8.2788294,12.864028 10.571429,10.571429 C 12.864028,8.2788294 35.135972,8.2788294 37.428571,10.571429 C 39.721171,12.864028 39.721171,35.135972 37.428571,37.428571 C 35.135972,39.721171 12.864028,39.721171 10.571429,37.428571 z M 35.201147,35.2 C 37.009426,33.390124 37.008464,14.608464 35.2,12.8 C 33.41515,11.01515 14.611458,10.988542 12.831652,12.768348 C 11.360439,14.239561 10.465572,26.337719 11.442702,31.546267 C 11.877653,33.864755 12.875397,35.430089 14.305188,36.037146 C 17.552687,37.415959 33.630702,36.771832 35.201147,35.2 z"
       id="path7585"
       style="fill:#1c3225" />
    <path
       d="M 14.305188,36.037146 C 12.875397,35.430089 11.877653,33.864755 11.442702,31.546267 C 10.465572,26.337719 11.360439,14.239561 12.831652,12.768348 C 14.611458,10.988542 33.41515,11.01515 35.2,12.8 C 37.008464,14.608464 37.009426,33.390124 35.201147,35.2 C 33.630702,36.771832 17.552687,37.415959 14.305188,36.037146 z"
       id="path7583"
       style="fill:#0d2617" />
  </g>
</svg>
