<?xml version="1.0" encoding="UTF-8" standalone="no"?>
<!-- Created with Inkscape (http://www.inkscape.org/) -->

<svg
   xmlns:dc="http://purl.org/dc/elements/1.1/"
   xmlns:cc="http://creativecommons.org/ns#"
   xmlns:rdf="http://www.w3.org/1999/02/22-rdf-syntax-ns#"
   xmlns:svg="http://www.w3.org/2000/svg"
   xmlns="http://www.w3.org/2000/svg"
   xmlns:xlink="http://www.w3.org/1999/xlink"
   xmlns:sodipodi="http://sodipodi.sourceforge.net/DTD/sodipodi-0.dtd"
   xmlns:inkscape="http://www.inkscape.org/namespaces/inkscape"
   version="1.0"
   width="48"
   height="48"
   id="svg2"
   style="display:inline;enable-background:new"
   sodipodi:version="0.32"
   inkscape:version="0.47pre4 r22446"
   sodipodi:docname="shutter.svg"
   inkscape:output_extension="org.inkscape.output.svg.inkscape"
   inkscape:export-filename="/home/mario/shutter/experimental/share/pixmaps/shutter.xpm.png"
   inkscape:export-xdpi="60"
   inkscape:export-ydpi="60">
  <metadata
     id="metadata57">
    <rdf:RDF>
      <cc:Work
         rdf:about="">
        <dc:format>image/svg+xml</dc:format>
        <dc:type
           rdf:resource="http://purl.org/dc/dcmitype/StillImage" />
        <dc:title></dc:title>
      </cc:Work>
    </rdf:RDF>
  </metadata>
  <sodipodi:namedview
     inkscape:window-height="723"
     inkscape:window-width="1232"
     inkscape:pageshadow="2"
     inkscape:pageopacity="0.0"
     guidetolerance="10.0"
     gridtolerance="10.0"
     objecttolerance="10.0"
     borderopacity="1.0"
     bordercolor="#666666"
     pagecolor="#ffffff"
     id="base"
     showgrid="false"
     inkscape:zoom="8.065306"
     inkscape:cx="-3.2016551"
     inkscape:cy="24.140415"
     inkscape:window-x="-37"
     inkscape:window-y="25"
     inkscape:current-layer="svg2"
     inkscape:window-maximized="0" />
  <defs
     id="defs4">
    <inkscape:perspective
       sodipodi:type="inkscape:persp3d"
       inkscape:vp_x="0 : 245 : 1"
       inkscape:vp_y="0 : 1000 : 0"
       inkscape:vp_z="440 : 245 : 1"
       inkscape:persp3d-origin="220 : 163.33333 : 1"
       id="perspective59" />
    <linearGradient
       id="linearGradient6793">
      <stop
         id="stop6795"
         style="stop-color:#44b5e8;stop-opacity:1"
         offset="0" />
      <stop
         id="stop6797"
         style="stop-color:#116b98;stop-opacity:1"
         offset="1" />
    </linearGradient>
    <filter
       id="filter3383">
      <feBlend
         inkscape:collect="always"
         mode="multiply"
         in2="BackgroundImage"
         id="feBlend3385" />
    </filter>
    <filter
       id="filter3985"
       x="-0.071800567"
       width="1.1436011"
       y="-0.15538733"
       height="1.3107746">
      <feGaussianBlur
         inkscape:collect="always"
         stdDeviation="6.7803529"
         id="feGaussianBlur3987" />
    </filter>
    <filter
       id="filter3989">
      <feGaussianBlur
         inkscape:collect="always"
         stdDeviation="6.7803529"
         id="feGaussianBlur3991" />
    </filter>
    <filter
       id="filter3993"
       x="-0.1490933"
       width="1.2981865"
       y="-0.072374105"
       height="1.1447482">
      <feGaussianBlur
         inkscape:collect="always"
         stdDeviation="6.7803529"
         id="feGaussianBlur3995" />
    </filter>
    <filter
       id="filter3997"
       x="-0.081570871"
       width="1.1631417"
       y="-0.11038305"
       height="1.2207661">
      <feGaussianBlur
         inkscape:collect="always"
         stdDeviation="6.7803529"
         id="feGaussianBlur3999" />
    </filter>
    <filter
       id="filter4001"
       x="-0.07492853"
       width="1.149857"
       y="-0.12866202"
       height="1.257324">
      <feGaussianBlur
         inkscape:collect="always"
         stdDeviation="6.7803529"
         id="feGaussianBlur4003" />
    </filter>
    <filter
       id="filter4005"
       x="-0.12232576"
       width="1.2446516"
       y="-0.076450996"
       height="1.152902">
      <feGaussianBlur
         inkscape:collect="always"
         stdDeviation="6.7803529"
         id="feGaussianBlur4007" />
    </filter>
    <filter
       id="filter4009"
       x="-0.11224329"
       width="1.2244866"
       y="-0.079873785"
       height="1.1597476">
      <feGaussianBlur
         inkscape:collect="always"
         stdDeviation="6.7803529"
         id="feGaussianBlur4011" />
    </filter>
    <radialGradient
       cx="353.6283"
       cy="241.04938"
       r="220.11942"
       fx="353.6283"
       fy="241.04938"
       id="radialGradient2607"
       xlink:href="#linearGradient6793"
       gradientUnits="userSpaceOnUse"
       gradientTransform="matrix(-1,0,0,0.9878188,582.03434,46.933265)" />
    <radialGradient
       cx="353.6283"
       cy="241.04938"
       r="220.11942"
       fx="353.6283"
       fy="241.04938"
       id="radialGradient2609"
       xlink:href="#linearGradient6793"
       gradientUnits="userSpaceOnUse"
       gradientTransform="matrix(-0.999176,-0.04058613,-0.04009174,0.9870049,587.79647,48.361326)" />
    <radialGradient
       cx="353.6283"
       cy="241.04938"
       r="220.11942"
       fx="353.6283"
       fy="241.04938"
       id="radialGradient2611"
       xlink:href="#linearGradient6793"
       gradientUnits="userSpaceOnUse"
       gradientTransform="matrix(-1,0,0,0.9878188,582.03434,46.933265)" />
    <radialGradient
       cx="353.6283"
       cy="241.04938"
       r="220.11942"
       fx="353.6283"
       fy="241.04938"
       id="radialGradient2613"
       xlink:href="#linearGradient6793"
       gradientUnits="userSpaceOnUse"
       gradientTransform="matrix(-1,0,0,0.9878188,582.03434,46.933265)" />
    <radialGradient
       cx="353.6283"
       cy="241.04938"
       r="220.11942"
       fx="353.6283"
       fy="241.04938"
       id="radialGradient2615"
       xlink:href="#linearGradient6793"
       gradientUnits="userSpaceOnUse"
       gradientTransform="matrix(-1,0,0,0.9878188,582.03434,46.933265)" />
    <radialGradient
       cx="353.6283"
       cy="241.04938"
       r="220.11942"
       fx="353.6283"
       fy="241.04938"
       id="radialGradient2617"
       xlink:href="#linearGradient6793"
       gradientUnits="userSpaceOnUse"
       gradientTransform="matrix(-0.999176,-0.04058613,-0.04009174,0.9870049,587.79647,48.361326)" />
    <radialGradient
       cx="353.6283"
       cy="241.04938"
       r="220.11942"
       fx="353.6283"
       fy="241.04938"
       id="radialGradient2619"
       xlink:href="#linearGradient6793"
       gradientUnits="userSpaceOnUse"
       gradientTransform="matrix(-1,0,0,0.9878188,582.03434,46.933265)" />
    <radialGradient
       cx="353.6283"
       cy="241.04938"
       r="220.11942"
       fx="353.6283"
       fy="241.04938"
       id="radialGradient2621"
       xlink:href="#linearGradient6793"
       gradientUnits="userSpaceOnUse"
       gradientTransform="matrix(-1,0,0,0.9878188,582.03434,46.933265)" />
    <radialGradient
       cx="353.6283"
       cy="241.04938"
       r="220.11942"
       fx="353.6283"
       fy="241.04938"
       id="radialGradient2623"
       xlink:href="#linearGradient6793"
       gradientUnits="userSpaceOnUse"
       gradientTransform="matrix(-1,0,0,0.9878188,582.03434,46.933265)" />
    <radialGradient
       cx="353.6283"
       cy="241.04938"
       r="220.11942"
       fx="353.6283"
       fy="241.04938"
       id="radialGradient2625"
       xlink:href="#linearGradient6793"
       gradientUnits="userSpaceOnUse"
       gradientTransform="matrix(-1,0,0,0.9878188,582.03434,46.933265)" />
  </defs>
  <g
     id="layer3"
     style="display:none">
    <path
       d="M 324.38759,135.62452 C 279.007,138.89872 199.23785,216.07795 210.45442,215.68696 C 303.23168,212.45304 361.18255,217.79208 433.57235,240.26806 C 444.29098,243.59605 422.00588,143.15814 324.38759,135.62452 z"
       id="path2544"
       style="fill:#dbdbdb;fill-opacity:1;fill-rule:nonzero;stroke:none;stroke-width:25;stroke-linecap:butt;stroke-linejoin:round;marker-mid:none;stroke-miterlimit:4;stroke-dasharray:none;stroke-dashoffset:1;stroke-opacity:1;display:inline;filter:url(#filter3985);enable-background:new" />
    <path
       d="M 186.37822,72.150309 C 160.57833,109.62675 157.33905,256.29261 163.99898,247.2588 C 218.88951,172.80293 350.45207,80.852043 428.9148,43.825512 C 525.90264,-1.943011 243.81268,3.6410539 186.37822,72.150309 z"
       id="path2546"
       style="fill:#dbdbdb;fill-opacity:1;fill-rule:nonzero;stroke:#000000;stroke-width:0;stroke-linecap:butt;stroke-linejoin:round;marker-mid:none;stroke-miterlimit:4;stroke-dasharray:none;stroke-dashoffset:1;stroke-opacity:1;display:inline;filter:url(#filter3989);enable-background:new" />
    <path
       d="M 69.5521,231.67976 C 84.41923,274.68075 179.56014,331.84683 176.28962,321.11052 C 149.23774,232.30583 139.45061,174.93843 142.49683,99.2009 C 142.94789,87.986573 51.65499,135.42084 69.5521,231.67976 z"
       id="path2548"
       style="fill:#dbdbdb;fill-opacity:1;fill-rule:nonzero;stroke:none;stroke-width:25;stroke-linecap:butt;stroke-linejoin:round;marker-mid:none;stroke-miterlimit:4;stroke-dasharray:none;stroke-dashoffset:1;stroke-opacity:1;display:inline;filter:url(#filter3993);enable-background:new" />
    <path
       d="M 81.97729,372.8505 C 124.11382,390.0153 229.81624,356.15164 219.58677,351.53404 C 134.97422,313.33984 85.38277,282.88504 30.43637,230.67061 C 22.30057,222.93932 -2.20627,322.85836 81.97729,372.8505 z"
       id="path2550"
       style="fill:#dbdbdb;fill-opacity:1;fill-rule:nonzero;stroke:none;stroke-width:25;stroke-linecap:butt;stroke-linejoin:round;marker-mid:none;stroke-miterlimit:4;stroke-dasharray:none;stroke-dashoffset:1;stroke-opacity:1;display:inline;filter:url(#filter3997);enable-background:new" />
    <path
       d="M 203.88504,453.62703 C 244.17168,432.48219 286.43063,329.84726 276.30588,334.69014 C 192.55947,374.74786 137.30727,393.02355 61.96881,401.3645 C 50.8136,402.59953 111.39638,485.75077 203.88504,453.62703 z"
       id="path2552"
       style="fill:#dbdbdb;fill-opacity:1;fill-rule:nonzero;stroke:none;stroke-width:25;stroke-linecap:butt;stroke-linejoin:round;marker-mid:none;stroke-miterlimit:4;stroke-dasharray:none;stroke-dashoffset:1;stroke-opacity:1;display:inline;filter:url(#filter4001);enable-background:new" />
    <path
       d="M 345.96158,410.03296 C 355.80284,365.6115 304.66105,267.10125 301.82779,277.96113 C 278.39266,367.78804 256.70286,421.79138 214.46246,484.72945 C 208.208,494.04859 310.82416,501.41921 345.96158,410.03296 z"
       id="path2554"
       style="fill:#dbdbdb;fill-opacity:1;fill-rule:nonzero;stroke:none;stroke-width:25;stroke-linecap:butt;stroke-linejoin:round;marker-mid:none;stroke-miterlimit:4;stroke-dasharray:none;stroke-dashoffset:1;stroke-opacity:1;display:inline;filter:url(#filter4005);enable-background:new" />
    <path
       d="M 401.89383,270.24178 C 374.5208,233.89852 266.4087,208.76833 272.82303,217.97814 C 325.87887,294.15661 352.83718,345.73234 373.23475,418.73503 C 376.25499,429.54441 448.53158,356.32899 401.89383,270.24178 z"
       id="path2556"
       style="fill:#dbdbdb;fill-opacity:1;fill-rule:nonzero;stroke:none;stroke-width:25;stroke-linecap:butt;stroke-linejoin:round;marker-mid:none;stroke-miterlimit:4;stroke-dasharray:none;stroke-dashoffset:1;stroke-opacity:1;display:inline;filter:url(#filter4009);enable-background:new" />
  </g>
  <g
     transform="matrix(0.08887733,0,0,0.08887733,2.968632,1.5957495)"
     id="g2591"
     inkscape:export-filename="/home/mario/code/workspace/experimental/share/pixmaps/shutter.png"
     inkscape:export-xdpi="99.867409"
     inkscape:export-ydpi="99.867409">
    <g
       id="layer1">
      <path
         d="m 324.38759,135.62452 c -45.38059,3.2742 -125.14974,80.45343 -113.93317,80.06244 92.77726,-3.23392 150.72813,2.10512 223.11793,24.5811 10.71863,3.32799 -11.56647,-97.10992 -109.18476,-104.64354 z"
         id="path3212"
         style="fill:url(#radialGradient2607);fill-opacity:1;fill-rule:nonzero;stroke:none;stroke-width:25;marker-mid:none" />
      <path
         d="M 186.37822,72.150309 C 160.57833,109.62675 157.33905,256.29261 163.99898,247.2588 218.88951,172.80293 350.45207,80.852043 428.9148,43.825512 525.90264,-1.943011 243.81268,3.6410539 186.37822,72.150309 z"
         id="path3215"
         style="fill:url(#radialGradient2609);fill-opacity:1;fill-rule:nonzero;stroke:#000000;stroke-width:0;stroke-linecap:butt;stroke-linejoin:round;stroke-miterlimit:4;stroke-opacity:1;stroke-dasharray:none;stroke-dashoffset:1;marker-mid:none" />
      <path
         d="M 69.5521,231.67976 C 84.41923,274.68075 179.56014,331.84683 176.28962,321.11052 149.23774,232.30583 139.45061,174.93843 142.49683,99.2009 142.94789,87.986573 51.65499,135.42084 69.5521,231.67976 z"
         id="path3217"
         style="fill:#cde1e9;fill-opacity:1;fill-rule:nonzero;stroke:none;stroke-width:25;marker-mid:none" />
      <path
         d="m 81.97729,372.8505 c 42.13653,17.1648 147.83895,-16.69886 137.60948,-21.31646 -84.61255,-38.1942 -134.204,-68.649 -189.1504,-120.86343 -8.1358,-7.73129 -32.64264,92.18775 51.54092,142.17989 z"
         id="path3219"
         style="fill:#cde1e9;fill-opacity:1;fill-rule:nonzero;stroke:none;stroke-width:25;marker-mid:none" />
      <path
         d="m 203.88504,453.62703 c 40.28664,-21.14484 82.54559,-123.77977 72.42084,-118.93689 -83.74641,40.05772 -138.99861,58.33341 -214.33707,66.67436 -11.15521,1.23503 49.42757,84.38627 141.91623,52.26253 z"
         id="path3221"
         style="fill:url(#radialGradient2611);fill-opacity:1;fill-rule:nonzero;stroke:none;stroke-width:25;marker-mid:none" />
      <path
         d="m 345.96158,410.03296 c 9.84126,-44.42146 -41.30053,-142.93171 -44.13379,-132.07183 -23.43513,89.82691 -45.12493,143.83025 -87.36533,206.76832 -6.25446,9.31914 96.3617,16.68976 131.49912,-74.69649 z"
         id="path3223"
         style="fill:url(#radialGradient2613);fill-opacity:1;fill-rule:nonzero;stroke:none;stroke-width:25;marker-mid:none" />
      <path
         d="M 401.89383,270.24178 C 374.5208,233.89852 266.4087,208.76833 272.82303,217.97814 c 53.05584,76.17847 80.01415,127.7542 100.41172,200.75689 3.02024,10.80938 75.29683,-62.40604 28.65908,-148.49325 z"
         id="path3225"
         style="fill:url(#radialGradient2615);fill-opacity:1;fill-rule:nonzero;stroke:none;stroke-width:25;marker-mid:none" />
    </g>
    <g
       id="layer2"
       style="display:inline;filter:url(#filter3383)">
      <path
         d="M 394.59375,14.1875 C 327.87379,13.967753 219.5793,32.549337 186.375,72.15625 160.57511,109.63269 157.34007,256.28381 164,247.25 218.89053,172.79413 350.44352,80.839031 428.90625,43.8125 469.823,24.503904 443.28129,14.347856 394.59375,14.1875 z m -27.4375,16.375 c 38.64562,0.127282 59.69631,8.205098 27.21875,23.53125 -62.27961,29.38972 -166.68077,102.36958 -210.25,161.46875 -5.2863,7.17056 -2.72861,-109.22192 17.75,-138.96875 C 228.23083,45.155858 314.19744,30.388077 367.15625,30.5625 z"
         id="path3372"
         style="fill:url(#radialGradient2617);fill-opacity:1;fill-rule:nonzero;stroke:#000000;stroke-width:0;stroke-linecap:butt;stroke-linejoin:round;stroke-miterlimit:4;stroke-opacity:1;stroke-dasharray:none;stroke-dashoffset:1;marker-mid:none;display:inline;enable-background:new" />
      <path
         d="m 324.375,135.625 c -45.3806,3.27419 -125.12282,80.45349 -113.90625,80.0625 92.77726,-3.23393 150.70395,2.11777 223.09375,24.59375 10.71862,3.32798 -11.56921,-97.12263 -109.1875,-104.65625 z m 0.875,8.96875 c 73.71715,5.68907 90.56299,81.54441 82.46875,79.03125 -54.66567,-16.9729 -98.43857,-21.00462 -168.5,-18.5625 -8.47027,0.29526 51.76178,-57.99621 86.03125,-60.46875 z"
         id="path3387"
         style="fill:url(#radialGradient2619);fill-opacity:1;fill-rule:nonzero;stroke:none;stroke-width:25;marker-mid:none;display:inline;enable-background:new" />
      <path
         d="m 275.40625,216.09375 c -2.39578,0.12327 -3.39554,0.72377 -2.59375,1.875 53.05584,76.17848 80.03993,127.77856 100.4375,200.78125 3.02025,10.80939 75.294,-62.41279 28.65625,-148.5 -23.9514,-31.80036 -109.72953,-55.01915 -126.5,-54.15625 z M 292.8125,232.75 c 13.81553,-0.71086 84.45631,18.42784 104.1875,44.625 38.42021,70.91871 -21.10569,131.21728 -23.59375,122.3125 -16.80353,-60.13967 -39.0113,-102.61914 -82.71875,-165.375 -0.66052,-0.94838 0.15135,-1.46095 2.125,-1.5625 z"
         id="path3397"
         style="fill:url(#radialGradient2621);fill-opacity:1;fill-rule:nonzero;stroke:none;stroke-width:25;marker-mid:none;display:inline;enable-background:new" />
      <path
         d="m 302.53125,277.125 c -0.33385,0.0453 -0.58594,0.33469 -0.71875,0.84375 -23.43513,89.82692 -45.10335,143.81193 -87.34375,206.75 -6.25446,9.31913 96.36258,16.69875 131.5,-74.6875 9.37995,-42.3392 -36.6493,-133.82658 -43.4375,-132.90625 z m -3.75,42.3125 c 4.82565,-0.65425 37.54308,64.37032 30.875,94.46875 -24.97877,64.96538 -97.91497,59.74987 -93.46875,53.125 30.02819,-44.74191 45.43399,-83.14313 62.09375,-147 0.0944,-0.36188 0.26267,-0.56157 0.5,-0.59375 z"
         id="path3413"
         style="fill:url(#radialGradient2623);fill-opacity:1;fill-rule:nonzero;stroke:none;stroke-width:25;marker-mid:none;display:inline;enable-background:new" />
      <path
         d="m 276.75,334.53125 c -0.13283,0.0239 -0.2793,0.0806 -0.4375,0.15625 -83.74641,40.0577 -139.00529,58.34655 -214.34375,66.6875 -11.155211,1.23503 49.41759,84.37374 141.90625,52.25 39.65716,-20.81447 81.2432,-120.60017 72.875,-119.09375 z m -24.125,16.1875 c 6.49102,-1.16849 -25.73884,76.22971 -56.5,92.375 -71.74139,24.91767 -118.7466,-39.57327 -110.09375,-40.53125 58.43835,-6.46989 101.28978,-20.64686 166.25,-51.71875 0.12271,-0.0587 0.24072,-0.10645 0.34375,-0.125 z"
         id="path3423"
         style="fill:url(#radialGradient2625);fill-opacity:1;fill-rule:nonzero;stroke:none;stroke-width:25;marker-mid:none;display:inline;enable-background:new" />
    </g>
  </g>
</svg>
