<?xml version="1.0" encoding="UTF-8" standalone="no"?>
<!-- Created with Inkscape (http://www.inkscape.org/) -->

<svg
   xmlns:dc="http://purl.org/dc/elements/1.1/"
   xmlns:cc="http://creativecommons.org/ns#"
   xmlns:rdf="http://www.w3.org/1999/02/22-rdf-syntax-ns#"
   xmlns:svg="http://www.w3.org/2000/svg"
   xmlns="http://www.w3.org/2000/svg"
   xmlns:xlink="http://www.w3.org/1999/xlink"
   xmlns:sodipodi="http://sodipodi.sourceforge.net/DTD/sodipodi-0.dtd"
   xmlns:inkscape="http://www.inkscape.org/namespaces/inkscape"
   version="1.0"
   width="48"
   height="48"
   id="svg2"
   style="display:inline;enable-background:new"
   sodipodi:version="0.32"
   inkscape:version="0.47+devel r"
   sodipodi:docname="shutter.svg"
   inkscape:output_extension="org.inkscape.output.svg.inkscape"
   inkscape:export-filename="/home/mario/shutter/experimental/share/pixmaps/shutter.xpm.png"
   inkscape:export-xdpi="60"
   inkscape:export-ydpi="60">
  <metadata
     id="metadata57">
    <rdf:RDF>
      <cc:Work
         rdf:about="">
        <dc:format>image/svg+xml</dc:format>
        <dc:type
           rdf:resource="http://purl.org/dc/dcmitype/StillImage" />
        <dc:title />
      </cc:Work>
    </rdf:RDF>
  </metadata>
  <sodipodi:namedview
     inkscape:window-height="923"
     inkscape:window-width="1187"
     inkscape:pageshadow="2"
     inkscape:pageopacity="0.0"
     guidetolerance="10.0"
     gridtolerance="10.0"
     objecttolerance="10.0"
     borderopacity="1.0"
     bordercolor="#666666"
     pagecolor="#ffffff"
     id="base"
     showgrid="false"
     inkscape:zoom="13.875"
     inkscape:cx="25.871888"
     inkscape:cy="24"
     inkscape:window-x="2471"
     inkscape:window-y="84"
     inkscape:current-layer="svg2"
     inkscape:window-maximized="0" />
  <defs
     id="defs4">
    <inkscape:perspective
       sodipodi:type="inkscape:persp3d"
       inkscape:vp_x="0 : 245 : 1"
       inkscape:vp_y="0 : 1000 : 0"
       inkscape:vp_z="440 : 245 : 1"
       inkscape:persp3d-origin="220 : 163.33333 : 1"
       id="perspective59" />
    <linearGradient
       id="linearGradient6793">
      <stop
         id="stop6795"
         style="stop-color:#44b5e8;stop-opacity:1"
         offset="0" />
      <stop
         id="stop6797"
         style="stop-color:#116b98;stop-opacity:1"
         offset="1" />
    </linearGradient>
    <filter
       id="filter3383">
      <feBlend
         inkscape:collect="always"
         mode="multiply"
         in2="BackgroundImage"
         id="feBlend3385" />
    </filter>
    <filter
       id="filter3985"
       x="-0.071800567"
       width="1.1436011"
       y="-0.15538733"
       height="1.3107746">
      <feGaussianBlur
         inkscape:collect="always"
         stdDeviation="6.7803529"
         id="feGaussianBlur3987" />
    </filter>
    <filter
       id="filter3989">
      <feGaussianBlur
         inkscape:collect="always"
         stdDeviation="6.7803529"
         id="feGaussianBlur3991" />
    </filter>
    <filter
       id="filter3993"
       x="-0.1490933"
       width="1.2981865"
       y="-0.072374105"
       height="1.1447482">
      <feGaussianBlur
         inkscape:collect="always"
         stdDeviation="6.7803529"
         id="feGaussianBlur3995" />
    </filter>
    <filter
       id="filter3997"
       x="-0.081570871"
       width="1.1631417"
       y="-0.11038305"
       height="1.2207661">
      <feGaussianBlur
         inkscape:collect="always"
         stdDeviation="6.7803529"
         id="feGaussianBlur3999" />
    </filter>
    <filter
       id="filter4001"
       x="-0.07492853"
       width="1.149857"
       y="-0.12866202"
       height="1.257324">
      <feGaussianBlur
         inkscape:collect="always"
         stdDeviation="6.7803529"
         id="feGaussianBlur4003" />
    </filter>
    <filter
       id="filter4005"
       x="-0.12232576"
       width="1.2446516"
       y="-0.076450996"
       height="1.152902">
      <feGaussianBlur
         inkscape:collect="always"
         stdDeviation="6.7803529"
         id="feGaussianBlur4007" />
    </filter>
    <filter
       id="filter4009"
       x="-0.11224329"
       width="1.2244866"
       y="-0.079873785"
       height="1.1597476">
      <feGaussianBlur
         inkscape:collect="always"
         stdDeviation="6.7803529"
         id="feGaussianBlur4011" />
    </filter>
    <radialGradient
       cx="353.6283"
       cy="241.04938"
       r="220.11942"
       fx="353.6283"
       fy="241.04938"
       id="radialGradient2607"
       xlink:href="#linearGradient6793"
       gradientUnits="userSpaceOnUse"
       gradientTransform="matrix(-1,0,0,0.9878188,582.03434,46.933265)" />
    <radialGradient
       cx="353.6283"
       cy="241.04938"
       r="220.11942"
       fx="353.6283"
       fy="241.04938"
       id="radialGradient2609"
       xlink:href="#linearGradient6793"
       gradientUnits="userSpaceOnUse"
       gradientTransform="matrix(-0.999176,-0.04058613,-0.04009174,0.9870049,587.79647,48.361326)" />
    <radialGradient
       cx="353.6283"
       cy="241.04938"
       r="220.11942"
       fx="353.6283"
       fy="241.04938"
       id="radialGradient2611"
       xlink:href="#linearGradient6793"
       gradientUnits="userSpaceOnUse"
       gradientTransform="matrix(-1,0,0,0.9878188,582.03434,46.933265)" />
    <radialGradient
       cx="353.6283"
       cy="241.04938"
       r="220.11942"
       fx="353.6283"
       fy="241.04938"
       id="radialGradient2613"
       xlink:href="#linearGradient6793"
       gradientUnits="userSpaceOnUse"
       gradientTransform="matrix(-1,0,0,0.9878188,582.03434,46.933265)" />
    <radialGradient
       cx="353.6283"
       cy="241.04938"
       r="220.11942"
       fx="353.6283"
       fy="241.04938"
       id="radialGradient2615"
       xlink:href="#linearGradient6793"
       gradientUnits="userSpaceOnUse"
       gradientTransform="matrix(-1,0,0,0.9878188,582.03434,46.933265)" />
    <radialGradient
       cx="353.6283"
       cy="241.04938"
       r="220.11942"
       fx="353.6283"
       fy="241.04938"
       id="radialGradient2617"
       xlink:href="#linearGradient6793"
       gradientUnits="userSpaceOnUse"
       gradientTransform="matrix(-0.999176,-0.04058613,-0.04009174,0.9870049,587.79647,48.361326)" />
    <radialGradient
       cx="353.6283"
       cy="241.04938"
       r="220.11942"
       fx="353.6283"
       fy="241.04938"
       id="radialGradient2619"
       xlink:href="#linearGradient6793"
       gradientUnits="userSpaceOnUse"
       gradientTransform="matrix(-1,0,0,0.9878188,582.03434,46.933265)" />
    <radialGradient
       cx="353.6283"
       cy="241.04938"
       r="220.11942"
       fx="353.6283"
       fy="241.04938"
       id="radialGradient2621"
       xlink:href="#linearGradient6793"
       gradientUnits="userSpaceOnUse"
       gradientTransform="matrix(-1,0,0,0.9878188,582.03434,46.933265)" />
    <radialGradient
       cx="353.6283"
       cy="241.04938"
       r="220.11942"
       fx="353.6283"
       fy="241.04938"
       id="radialGradient2623"
       xlink:href="#linearGradient6793"
       gradientUnits="userSpaceOnUse"
       gradientTransform="matrix(-1,0,0,0.9878188,582.03434,46.933265)" />
    <radialGradient
       cx="353.6283"
       cy="241.04938"
       r="220.11942"
       fx="353.6283"
       fy="241.04938"
       id="radialGradient2625"
       xlink:href="#linearGradient6793"
       gradientUnits="userSpaceOnUse"
       gradientTransform="matrix(-1,0,0,0.9878188,582.03434,46.933265)" />
    <filter
       id="filter3380"
       inkscape:label="Desaturate"
       x="0"
       y="0"
       width="1"
       height="1"
       inkscape:menu="Color"
       inkscape:menu-tooltip="Render in shades of gray by reducing saturation to zero"
       color-interpolation-filters="sRGB">
      <feColorMatrix
         id="feColorMatrix3382"
         type="saturate"
         values="0" />
    </filter>
  </defs>
  <g
     id="layer3"
     style="display:none">
    <path
       d="M 324.38759,135.62452 C 279.007,138.89872 199.23785,216.07795 210.45442,215.68696 C 303.23168,212.45304 361.18255,217.79208 433.57235,240.26806 C 444.29098,243.59605 422.00588,143.15814 324.38759,135.62452 z"
       id="path2544"
       style="fill:#dbdbdb;fill-opacity:1;fill-rule:nonzero;stroke:none;stroke-width:25;stroke-linecap:butt;stroke-linejoin:round;marker-mid:none;stroke-miterlimit:4;stroke-dasharray:none;stroke-dashoffset:1;stroke-opacity:1;display:inline;filter:url(#filter3985);enable-background:new" />
    <path
       d="M 186.37822,72.150309 C 160.57833,109.62675 157.33905,256.29261 163.99898,247.2588 C 218.88951,172.80293 350.45207,80.852043 428.9148,43.825512 C 525.90264,-1.943011 243.81268,3.6410539 186.37822,72.150309 z"
       id="path2546"
       style="fill:#dbdbdb;fill-opacity:1;fill-rule:nonzero;stroke:#000000;stroke-width:0;stroke-linecap:butt;stroke-linejoin:round;marker-mid:none;stroke-miterlimit:4;stroke-dasharray:none;stroke-dashoffset:1;stroke-opacity:1;display:inline;filter:url(#filter3989);enable-background:new" />
    <path
       d="M 69.5521,231.67976 C 84.41923,274.68075 179.56014,331.84683 176.28962,321.11052 C 149.23774,232.30583 139.45061,174.93843 142.49683,99.2009 C 142.94789,87.986573 51.65499,135.42084 69.5521,231.67976 z"
       id="path2548"
       style="fill:#dbdbdb;fill-opacity:1;fill-rule:nonzero;stroke:none;stroke-width:25;stroke-linecap:butt;stroke-linejoin:round;marker-mid:none;stroke-miterlimit:4;stroke-dasharray:none;stroke-dashoffset:1;stroke-opacity:1;display:inline;filter:url(#filter3993);enable-background:new" />
    <path
       d="M 81.97729,372.8505 C 124.11382,390.0153 229.81624,356.15164 219.58677,351.53404 C 134.97422,313.33984 85.38277,282.88504 30.43637,230.67061 C 22.30057,222.93932 -2.20627,322.85836 81.97729,372.8505 z"
       id="path2550"
       style="fill:#dbdbdb;fill-opacity:1;fill-rule:nonzero;stroke:none;stroke-width:25;stroke-linecap:butt;stroke-linejoin:round;marker-mid:none;stroke-miterlimit:4;stroke-dasharray:none;stroke-dashoffset:1;stroke-opacity:1;display:inline;filter:url(#filter3997);enable-background:new" />
    <path
       d="M 203.88504,453.62703 C 244.17168,432.48219 286.43063,329.84726 276.30588,334.69014 C 192.55947,374.74786 137.30727,393.02355 61.96881,401.3645 C 50.8136,402.59953 111.39638,485.75077 203.88504,453.62703 z"
       id="path2552"
       style="fill:#dbdbdb;fill-opacity:1;fill-rule:nonzero;stroke:none;stroke-width:25;stroke-linecap:butt;stroke-linejoin:round;marker-mid:none;stroke-miterlimit:4;stroke-dasharray:none;stroke-dashoffset:1;stroke-opacity:1;display:inline;filter:url(#filter4001);enable-background:new" />
    <path
       d="M 345.96158,410.03296 C 355.80284,365.6115 304.66105,267.10125 301.82779,277.96113 C 278.39266,367.78804 256.70286,421.79138 214.46246,484.72945 C 208.208,494.04859 310.82416,501.41921 345.96158,410.03296 z"
       id="path2554"
       style="fill:#dbdbdb;fill-opacity:1;fill-rule:nonzero;stroke:none;stroke-width:25;stroke-linecap:butt;stroke-linejoin:round;marker-mid:none;stroke-miterlimit:4;stroke-dasharray:none;stroke-dashoffset:1;stroke-opacity:1;display:inline;filter:url(#filter4005);enable-background:new" />
    <path
       d="M 401.89383,270.24178 C 374.5208,233.89852 266.4087,208.76833 272.82303,217.97814 C 325.87887,294.15661 352.83718,345.73234 373.23475,418.73503 C 376.25499,429.54441 448.53158,356.32899 401.89383,270.24178 z"
       id="path2556"
       style="fill:#dbdbdb;fill-opacity:1;fill-rule:nonzero;stroke:none;stroke-width:25;stroke-linecap:butt;stroke-linejoin:round;marker-mid:none;stroke-miterlimit:4;stroke-dasharray:none;stroke-dashoffset:1;stroke-opacity:1;display:inline;filter:url(#filter4009);enable-background:new" />
  </g>
  <path
     id="path3225"
     style="fill:none;stroke:#3a3935;stroke-width:2;stroke-linecap:round;stroke-miterlimit:4;stroke-opacity:1;stroke-dasharray:none;marker-mid:none;opacity:0.6"
     d="m 38.687883,25.614117 c -2.432842,-3.230092 -12.041557,-5.463596 -11.471469,-4.645052 4.715462,6.770539 7.111444,11.354452 8.924326,17.842736 0.268431,0.960709 6.692181,-5.546482 2.547143,-13.197684 z m -4.971109,12.424267 c 0.874664,-3.948061 -3.670681,-12.703389 -3.922494,-11.738191 -2.082852,7.983576 -4.010583,12.783248 -7.764797,18.377016 -0.55588,0.82826 8.56437,1.483341 11.687291,-6.638825 z M 21.08939,41.912909 c 3.580569,-1.879297 7.336432,-11.001216 6.436571,-10.570793 -7.443157,3.560223 -12.353825,5.184517 -19.0497066,5.925839 -0.9914453,0.109766 4.3929906,7.500026 12.6131356,4.644954 z M 10.254555,34.733706 c 3.744982,1.525562 13.139531,-1.48415 12.230363,-1.89455 C 14.96478,29.444558 10.557225,26.737817 5.6737353,22.097137 4.9506471,21.410001 2.7725446,30.290539 10.254555,34.733706 z M 9.1502369,22.186828 C 10.471588,26.008641 18.927458,31.08941 18.636783,30.135195 16.232484,22.242471 15.36263,17.14381 15.63337,10.412461 15.673459,9.4157612 7.5595896,13.631592 9.1502369,22.186828 z M 19.533431,8.0082763 C 17.240405,11.339082 16.952507,24.374352 17.544423,23.571451 22.422947,16.954013 34.115876,8.7816632 41.089434,5.490844 49.709454,1.4230599 24.638052,1.9193566 19.533431,8.0082763 z m 12.265904,5.6414187 c -4.033306,0.291002 -11.122975,7.150486 -10.126076,7.115736 8.245795,-0.287423 13.396314,0.187097 19.830126,2.184702 0.952643,0.295783 -1.027997,-8.63087 -9.70405,-9.300438 z"
     inkscape:connector-curvature="0" />
  <path
     style="opacity:1;color:#000000;fill:#dfd8c8;stroke:none;stroke-width:2;marker:none;visibility:visible;display:inline;overflow:visible;enable-background:accumulate;fill-opacity:1"
     d="m 15.997216,27.707609 c -2.890805,-1.956237 -5.125782,-4.127437 -5.725045,-5.561677 -0.2771257,-0.663255 -0.3521961,-2.488464 -0.15321,-3.725046 0.391815,-2.434903 1.923936,-4.881281 3.977751,-6.351378 0.202932,-0.145256 0.384213,-0.264103 0.402845,-0.264103 0.01863,0 0.0556,0.851352 0.08215,1.891892 0.11358,4.451582 0.648698,7.935704 1.996338,12.998047 0.239078,0.898086 0.425295,1.64151 0.413816,1.652055 -0.01148,0.01054 -0.459069,-0.277361 -0.994643,-0.63979 z"
     id="path4054"
     inkscape:connector-curvature="0" />
  <path
     style="opacity:1;color:#000000;fill:#dfd8c8;fill-opacity:1;fill-rule:nonzero;stroke:none;stroke-width:2;marker:none;visibility:visible;display:inline;overflow:visible;enable-background:accumulate"
     d="m 18.330471,20.273874 c 0.02429,-0.396397 0.06282,-1.10991 0.08562,-1.585586 0.113286,-2.363068 0.543005,-5.608773 0.977009,-7.379426 0.455911,-1.8600289 0.794959,-2.5667455 1.532786,-3.1949633 2.307955,-1.9650924 7.324658,-3.456515 13.666719,-4.0629975 2.135528,-0.2042176 5.89423,-0.1449913 6.565855,0.1034589 0.127594,0.0472 -0.01671,0.1419763 -0.845645,0.5554248 -4.099277,2.0445888 -8.367548,4.721623 -12.675165,7.9497881 -3.351697,2.511791 -6.143512,4.956778 -8.531529,7.471654 l -0.819816,0.863368 0.04416,-0.720721 z"
     id="path4056"
     inkscape:connector-curvature="0" />
  <path
     style="opacity:1;color:#000000;fill:#dfd8c8;fill-opacity:1;fill-rule:nonzero;stroke:none;stroke-width:2;marker:none;visibility:visible;display:inline;overflow:visible;enable-background:accumulate"
     d="M 39.925942,21.421008 C 39.379254,21.244886 37.21317,20.744889 36.03405,20.522642 33.178968,19.984501 30.426277,19.737306 26.558247,19.671703 l -2.740413,-0.04648 0.854203,-0.756757 c 2.107361,-1.866956 4.494944,-3.403976 6.083611,-3.91636 0.780667,-0.251783 0.994826,-0.276392 1.644564,-0.18897 1.257651,0.169215 2.618369,0.634523 3.66486,1.253226 1.879691,1.111303 3.467417,3.014151 4.289117,5.140393 0.168829,0.436866 0.147812,0.449834 -0.428247,0.264251 z"
     id="path4058"
     inkscape:connector-curvature="0" />
  <path
     style="opacity:1;color:#000000;fill:#dfd8c8;fill-opacity:1;fill-rule:nonzero;stroke:none;stroke-width:2;marker:none;visibility:visible;display:inline;overflow:visible;enable-background:accumulate"
     d="M 36.613003,36.796396 C 36.559683,36.588288 36.309681,35.834403 36.057444,35.121095 34.70149,31.286562 32.941877,27.796948 30.305275,23.713554 29.774807,22.892 29.379204,22.210988 29.426158,22.200194 c 0.128214,-0.02948 2.195159,0.58943 3.220505,0.964316 1.148039,0.419746 3.201643,1.42433 3.855856,1.886212 0.929036,0.65591 1.261571,1.00646 1.561519,1.646115 0.654784,1.396364 0.953117,2.71621 0.951081,4.207668 -0.0024,1.789878 -0.507193,3.58769 -1.44275,5.13877 -0.31206,0.51737 -0.756771,1.1315 -0.819357,1.1315 -0.02368,0 -0.08669,-0.17027 -0.140009,-0.378379 l 0,0 z"
     id="path4060"
     inkscape:connector-curvature="0" />
  <path
     style="opacity:1;color:#000000;fill:#dfd8c8;fill-opacity:1;fill-rule:nonzero;stroke:none;stroke-width:2;marker:none;visibility:visible;display:inline;overflow:visible;enable-background:accumulate"
     d="m 23.84084,43.787387 c 0.323684,-0.471878 1.43858,-2.422645 2.051746,-3.59 1.370432,-2.609057 2.659978,-5.89567 3.759298,-9.581171 0.266036,-0.891892 0.50998,-1.702702 0.542099,-1.801802 0.05257,-0.162199 0.09077,-0.111853 0.382749,0.504505 1.463033,3.088366 2.320089,6.178289 2.18832,7.889495 -0.03867,0.502213 -0.09314,0.673845 -0.434561,1.369369 -0.69124,1.408148 -1.799394,2.747043 -2.987587,3.609666 -0.657319,0.47721 -1.80473,1.062237 -2.669416,1.361045 -0.80518,0.278245 -2.123082,0.5452 -2.691541,0.5452 l -0.351218,0 0.210111,-0.306307 z"
     id="path4062"
     inkscape:connector-curvature="0" />
  <path
     style="opacity:1;color:#000000;fill:#dfd8c8;fill-opacity:1;fill-rule:nonzero;stroke:none;stroke-width:2;marker:none;visibility:visible;display:inline;overflow:visible;enable-background:accumulate"
     d="m 15.674447,41.382252 c -1.29095,-0.232964 -2.873784,-0.918709 -4.022772,-1.74282 -0.625776,-0.448837 -1.693338,-1.417127 -1.632616,-1.4808 0.02148,-0.02253 0.280944,-0.07718 0.576576,-0.121449 3.732282,-0.558878 7.013044,-1.432442 10.706642,-2.850844 1.263206,-0.485092 3.930922,-1.611681 4.441033,-1.875469 0.117725,-0.06088 0.231013,-0.09372 0.251751,-0.07298 0.06695,0.06695 -1.468598,3.081947 -2.005075,3.936888 -1.01421,1.616262 -2.045836,2.861684 -2.863888,3.457404 -0.770584,0.561154 -2.161698,0.870602 -3.866822,0.860163 -0.554955,-0.0034 -1.268128,-0.05294 -1.584829,-0.11009 l 0,0 z"
     id="path4064"
     inkscape:connector-curvature="0" />
  <path
     style="opacity:1;color:#000000;fill:#dfd8c8;fill-opacity:1;fill-rule:nonzero;stroke:none;stroke-width:2;marker:none;visibility:visible;display:inline;overflow:visible;enable-background:accumulate"
     d="m 12.070086,34.071848 c -0.95043,-0.104819 -1.239229,-0.203971 -1.919545,-0.659026 -2.4376894,-1.630544 -3.9287329,-4.195163 -4.2447909,-7.30111 -0.083314,-0.818743 -0.03356,-2.167606 0.082603,-2.239399 0.035638,-0.02203 0.2510403,0.134116 0.4786708,0.346981 0.6250553,0.584512 1.9520244,1.668005 3.0805403,2.515313 2.5485311,1.913481 5.5401791,3.706256 9.0810811,5.441928 0.832432,0.40804 1.492433,0.742813 1.466668,0.743939 -0.02576,0.0011 -0.463602,0.116792 -0.972973,0.257035 -2.538266,0.698848 -5.462402,1.069676 -7.052254,0.894339 z"
     id="path4066"
     inkscape:connector-curvature="0" />
</svg>
