<?xml version="1.0" encoding="UTF-8" standalone="no"?>
<!-- Created with Inkscape (http://www.inkscape.org/) -->

<svg
   xmlns:dc="http://purl.org/dc/elements/1.1/"
   xmlns:cc="http://creativecommons.org/ns#"
   xmlns:rdf="http://www.w3.org/1999/02/22-rdf-syntax-ns#"
   xmlns:svg="http://www.w3.org/2000/svg"
   xmlns="http://www.w3.org/2000/svg"
   xmlns:xlink="http://www.w3.org/1999/xlink"
   xmlns:sodipodi="http://sodipodi.sourceforge.net/DTD/sodipodi-0.dtd"
   xmlns:inkscape="http://www.inkscape.org/namespaces/inkscape"
   version="1.0"
   width="48"
   height="48"
   id="svg2"
   style="display:inline;enable-background:new"
   sodipodi:version="0.32"
   inkscape:version="0.48.3.1 r9886"
   sodipodi:docname="shutter.svg"
   inkscape:output_extension="org.inkscape.output.svg.inkscape"
   inkscape:export-filename="/home/mario/shutter/artwork/icons/HighContrast/48x48/apps/shutter-panel.png"
   inkscape:export-xdpi="90"
   inkscape:export-ydpi="90">
  <metadata
     id="metadata57">
    <rdf:RDF>
      <cc:Work
         rdf:about="">
        <dc:format>image/svg+xml</dc:format>
        <dc:type
           rdf:resource="http://purl.org/dc/dcmitype/StillImage" />
        <dc:title></dc:title>
      </cc:Work>
    </rdf:RDF>
  </metadata>
  <sodipodi:namedview
     inkscape:window-height="1025"
     inkscape:window-width="1920"
     inkscape:pageshadow="2"
     inkscape:pageopacity="0"
     guidetolerance="10.0"
     gridtolerance="10.0"
     objecttolerance="10.0"
     borderopacity="1.0"
     bordercolor="#666666"
     pagecolor="#ff0000"
     id="base"
     showgrid="false"
     inkscape:zoom="8.065306"
     inkscape:cx="-25.202393"
     inkscape:cy="24.140415"
     inkscape:window-x="0"
     inkscape:window-y="27"
     inkscape:current-layer="g2591"
     inkscape:window-maximized="1" />
  <defs
     id="defs4">
    <inkscape:perspective
       sodipodi:type="inkscape:persp3d"
       inkscape:vp_x="0 : 245 : 1"
       inkscape:vp_y="0 : 1000 : 0"
       inkscape:vp_z="440 : 245 : 1"
       inkscape:persp3d-origin="220 : 163.33333 : 1"
       id="perspective59" />
    <linearGradient
       id="linearGradient6793">
      <stop
         id="stop6795"
         style="stop-color:#44b5e8;stop-opacity:1"
         offset="0" />
      <stop
         id="stop6797"
         style="stop-color:#116b98;stop-opacity:1"
         offset="1" />
    </linearGradient>
    <filter
       id="filter3383">
      <feBlend
         inkscape:collect="always"
         mode="multiply"
         in2="BackgroundImage"
         id="feBlend3385" />
    </filter>
    <filter
       id="filter3985"
       x="-0.071800567"
       width="1.1436011"
       y="-0.15538733"
       height="1.3107746">
      <feGaussianBlur
         inkscape:collect="always"
         stdDeviation="6.7803529"
         id="feGaussianBlur3987" />
    </filter>
    <filter
       id="filter3989">
      <feGaussianBlur
         inkscape:collect="always"
         stdDeviation="6.7803529"
         id="feGaussianBlur3991" />
    </filter>
    <filter
       id="filter3993"
       x="-0.1490933"
       width="1.2981865"
       y="-0.072374105"
       height="1.1447482">
      <feGaussianBlur
         inkscape:collect="always"
         stdDeviation="6.7803529"
         id="feGaussianBlur3995" />
    </filter>
    <filter
       id="filter3997"
       x="-0.081570871"
       width="1.1631417"
       y="-0.11038305"
       height="1.2207661">
      <feGaussianBlur
         inkscape:collect="always"
         stdDeviation="6.7803529"
         id="feGaussianBlur3999" />
    </filter>
    <filter
       id="filter4001"
       x="-0.07492853"
       width="1.149857"
       y="-0.12866202"
       height="1.257324">
      <feGaussianBlur
         inkscape:collect="always"
         stdDeviation="6.7803529"
         id="feGaussianBlur4003" />
    </filter>
    <filter
       id="filter4005"
       x="-0.12232576"
       width="1.2446516"
       y="-0.076450996"
       height="1.152902">
      <feGaussianBlur
         inkscape:collect="always"
         stdDeviation="6.7803529"
         id="feGaussianBlur4007" />
    </filter>
    <filter
       id="filter4009"
       x="-0.11224329"
       width="1.2244866"
       y="-0.079873785"
       height="1.1597476">
      <feGaussianBlur
         inkscape:collect="always"
         stdDeviation="6.7803529"
         id="feGaussianBlur4011" />
    </filter>
    <radialGradient
       cx="353.6283"
       cy="241.04938"
       r="220.11942"
       fx="353.6283"
       fy="241.04938"
       id="radialGradient2607"
       xlink:href="#linearGradient6793"
       gradientUnits="userSpaceOnUse"
       gradientTransform="matrix(-1,0,0,0.9878188,582.03434,46.933265)" />
    <radialGradient
       cx="353.6283"
       cy="241.04938"
       r="220.11942"
       fx="353.6283"
       fy="241.04938"
       id="radialGradient2609"
       xlink:href="#linearGradient6793"
       gradientUnits="userSpaceOnUse"
       gradientTransform="matrix(-0.999176,-0.04058613,-0.04009174,0.9870049,587.79647,48.361326)" />
    <radialGradient
       cx="353.6283"
       cy="241.04938"
       r="220.11942"
       fx="353.6283"
       fy="241.04938"
       id="radialGradient2611"
       xlink:href="#linearGradient6793"
       gradientUnits="userSpaceOnUse"
       gradientTransform="matrix(-1,0,0,0.9878188,582.03434,46.933265)" />
    <radialGradient
       cx="353.6283"
       cy="241.04938"
       r="220.11942"
       fx="353.6283"
       fy="241.04938"
       id="radialGradient2613"
       xlink:href="#linearGradient6793"
       gradientUnits="userSpaceOnUse"
       gradientTransform="matrix(-1,0,0,0.9878188,582.03434,46.933265)" />
    <radialGradient
       cx="353.6283"
       cy="241.04938"
       r="220.11942"
       fx="353.6283"
       fy="241.04938"
       id="radialGradient2615"
       xlink:href="#linearGradient6793"
       gradientUnits="userSpaceOnUse"
       gradientTransform="matrix(-1,0,0,0.9878188,582.03434,46.933265)" />
    <radialGradient
       cx="353.6283"
       cy="241.04938"
       r="220.11942"
       fx="353.6283"
       fy="241.04938"
       id="radialGradient2617"
       xlink:href="#linearGradient6793"
       gradientUnits="userSpaceOnUse"
       gradientTransform="matrix(-0.999176,-0.04058613,-0.04009174,0.9870049,587.79647,48.361326)" />
    <radialGradient
       cx="353.6283"
       cy="241.04938"
       r="220.11942"
       fx="353.6283"
       fy="241.04938"
       id="radialGradient2619"
       xlink:href="#linearGradient6793"
       gradientUnits="userSpaceOnUse"
       gradientTransform="matrix(-1,0,0,0.9878188,582.03434,46.933265)" />
    <radialGradient
       cx="353.6283"
       cy="241.04938"
       r="220.11942"
       fx="353.6283"
       fy="241.04938"
       id="radialGradient2621"
       xlink:href="#linearGradient6793"
       gradientUnits="userSpaceOnUse"
       gradientTransform="matrix(-1,0,0,0.9878188,582.03434,46.933265)" />
    <radialGradient
       cx="353.6283"
       cy="241.04938"
       r="220.11942"
       fx="353.6283"
       fy="241.04938"
       id="radialGradient2623"
       xlink:href="#linearGradient6793"
       gradientUnits="userSpaceOnUse"
       gradientTransform="matrix(-1,0,0,0.9878188,582.03434,46.933265)" />
    <radialGradient
       cx="353.6283"
       cy="241.04938"
       r="220.11942"
       fx="353.6283"
       fy="241.04938"
       id="radialGradient2625"
       xlink:href="#linearGradient6793"
       gradientUnits="userSpaceOnUse"
       gradientTransform="matrix(-1,0,0,0.9878188,582.03434,46.933265)" />
  </defs>
  <g
     transform="matrix(0.09032995,0,0,0.0908272,2.1223444,1.1043794)"
     id="g2591"
     inkscape:export-filename="/home/mario/code/workspace/experimental/share/pixmaps/shutter.png"
     inkscape:export-xdpi="99.867409"
     inkscape:export-ydpi="99.867409">
    <g
       id="g3842"
       transform="matrix(0.96553036,0,0,0.95749318,409.26639,-162.55975)"
       style="stroke-width:67.40654755;stroke-miterlimit:4;stroke-dasharray:none">
      <path
         d="m -81.691048,314.47127 c -46.326872,3.33364 -127.759372,81.91398 -116.308912,81.51589 94.71186,-3.29263 153.871125,2.14334 227.770404,25.02734 10.942136,3.38841 -11.807655,-98.87284 -111.461492,-106.54323 z"
         id="path3212-7"
         style="fill:none;stroke:#ffffff;stroke-width:67.40654755;stroke-miterlimit:4;stroke-opacity:1;stroke-dasharray:none;marker-mid:none"
         inkscape:connector-curvature="0" />
      <path
         d="m -222.5782,249.84476 c -26.33787,38.15678 -29.6447,187.4852 -22.8459,178.28739 56.03512,-75.80753 190.341032,-169.42769 270.439874,-207.12639 99.010236,-46.5994 -188.961884,-40.91397 -247.593974,28.839 z"
         id="path3215-5"
         style="fill:none;stroke:#ffffff;stroke-width:67.40654755;stroke-linecap:butt;stroke-linejoin:round;stroke-miterlimit:4;stroke-opacity:1;stroke-dasharray:none;stroke-dashoffset:1;marker-mid:none"
         inkscape:connector-curvature="0" />
      <path
         d="m -341.84039,412.27029 c 15.17714,43.78163 112.30194,101.98549 108.96322,91.05428 -27.61597,-90.41684 -37.60718,-148.82569 -34.49744,-225.93815 0.46046,-11.41791 -92.73608,36.87748 -74.46578,134.88387 z"
         id="path3217-3"
         style="fill:#ffffff;stroke:#ffffff;stroke-width:67.40654754999999909;stroke-miterlimit:4;stroke-opacity:1;stroke-dasharray:none;marker-mid:none"
         inkscape:connector-curvature="0" />
      <path
         d="m -329.15611,556.00383 c 43.01516,17.47641 150.9217,-17.00201 140.47893,-21.70344 -86.3769,-38.88757 -137.00244,-69.89524 -193.09459,-123.05757 -8.30545,-7.87164 -33.32331,93.86132 52.61566,144.76101 z"
         id="path3219-5"
         style="fill:#ffffff;stroke:#ffffff;stroke-width:67.40654754999999909;stroke-miterlimit:4;stroke-opacity:1;stroke-dasharray:none;marker-mid:none"
         inkscape:connector-curvature="0" />
      <path
         d="m -204.70633,638.24677 c 41.1267,-21.5287 84.26684,-126.02686 73.93097,-121.09606 -85.4927,40.78493 -141.89703,59.39239 -218.80645,67.88476 -11.38782,1.25745 50.45824,85.91821 144.87548,53.2113 z"
         id="path3221-9"
         style="fill:none;stroke:#ffffff;stroke-width:67.40654755;stroke-miterlimit:4;stroke-opacity:1;stroke-dasharray:none;marker-mid:none"
         inkscape:connector-curvature="0" />
      <path
         d="m -59.667195,593.8613 c 10.046471,-45.22789 -42.161735,-145.52648 -45.054075,-134.46945 -23.9238,91.45762 -46.06588,146.44133 -89.18708,210.52197 -6.38488,9.48832 98.371046,16.99274 134.241155,-76.05252 z"
         id="path3223-1"
         style="fill:none;stroke:#ffffff;stroke-width:67.40654755;stroke-miterlimit:4;stroke-opacity:1;stroke-dasharray:none;marker-mid:none"
         inkscape:connector-curvature="0" />
      <path
         d="M -2.5686397,451.53236 C -30.512455,414.52933 -140.87892,388.94293 -134.33084,398.31993 c 54.162169,77.56141 81.682616,130.07344 102.505518,204.40141 3.083219,11.00562 76.866927,-63.53895 29.2566823,-151.18898 z"
         id="path3225-6"
         style="fill:none;stroke:#ffffff;stroke-width:67.40654755;stroke-miterlimit:4;stroke-opacity:1;stroke-dasharray:none;marker-mid:none"
         inkscape:connector-curvature="0" />
    </g>
    <g
       id="layer1"
       transform="matrix(0.91870721,0,0,0.92559443,28.935082,18.750342)">
      <path
         d="m 324.38759,135.62452 c -45.38059,3.2742 -125.14974,80.45343 -113.93317,80.06244 92.77726,-3.23392 150.72813,2.10512 223.11793,24.5811 10.71863,3.32799 -11.56647,-97.10992 -109.18476,-104.64354 z"
         id="path3212"
         style="fill:#000000;fill-opacity:1;fill-rule:nonzero;stroke:none;stroke-width:25;marker-mid:none"
         inkscape:connector-curvature="0" />
      <path
         d="M 186.37822,72.150309 C 160.57833,109.62675 157.33905,256.29261 163.99898,247.2588 218.88951,172.80293 350.45207,80.852043 428.9148,43.825512 525.90264,-1.943011 243.81268,3.6410539 186.37822,72.150309 z"
         id="path3215"
         style="fill:#000000;fill-opacity:1;fill-rule:nonzero;stroke:#000000;stroke-width:0;stroke-linecap:butt;stroke-linejoin:round;stroke-miterlimit:4;stroke-opacity:1;stroke-dasharray:none;stroke-dashoffset:1;marker-mid:none"
         inkscape:connector-curvature="0" />
      <path
         d="M 69.5521,231.67976 C 84.41923,274.68075 179.56014,331.84683 176.28962,321.11052 149.23774,232.30583 139.45061,174.93843 142.49683,99.2009 142.94789,87.986573 51.65499,135.42084 69.5521,231.67976 z"
         id="path3217"
         style="fill:none;stroke:#000000;stroke-width:11.04018021;stroke-miterlimit:4;stroke-opacity:1;stroke-dasharray:none;marker-mid:none"
         inkscape:connector-curvature="0" />
      <path
         d="m 81.97729,372.8505 c 42.13653,17.1648 147.83895,-16.69886 137.60948,-21.31646 -84.61255,-38.1942 -134.204,-68.649 -189.1504,-120.86343 -8.1358,-7.73129 -32.64264,92.18775 51.54092,142.17989 z"
         id="path3219"
         style="fill:none;stroke:#000000;stroke-width:11.04018021;stroke-miterlimit:4;stroke-opacity:1;stroke-dasharray:none;marker-mid:none"
         inkscape:connector-curvature="0" />
      <path
         d="m 203.88504,453.62703 c 40.28664,-21.14484 82.54559,-123.77977 72.42084,-118.93689 -83.74641,40.05772 -138.99861,58.33341 -214.33707,66.67436 -11.15521,1.23503 49.42757,84.38627 141.91623,52.26253 z"
         id="path3221"
         style="fill:#000000;fill-opacity:1;fill-rule:nonzero;stroke:none;stroke-width:25;marker-mid:none"
         inkscape:connector-curvature="0" />
      <path
         d="m 345.96158,410.03296 c 9.84126,-44.42146 -41.30053,-142.93171 -44.13379,-132.07183 -23.43513,89.82691 -45.12493,143.83025 -87.36533,206.76832 -6.25446,9.31914 96.3617,16.68976 131.49912,-74.69649 z"
         id="path3223"
         style="fill:#000000;fill-opacity:1;fill-rule:nonzero;stroke:none;stroke-width:25;marker-mid:none"
         inkscape:connector-curvature="0" />
      <path
         d="M 401.89383,270.24178 C 374.5208,233.89852 266.4087,208.76833 272.82303,217.97814 c 53.05584,76.17847 80.01415,127.7542 100.41172,200.75689 3.02024,10.80938 75.29683,-62.40604 28.65908,-148.49325 z"
         id="path3225"
         style="fill:#000000;fill-opacity:1;fill-rule:nonzero;stroke:none;stroke-width:25;marker-mid:none"
         inkscape:connector-curvature="0" />
    </g>
  </g>
  <g
     id="layer3"
     style="display:none">
    <path
       d="M 324.38759,135.62452 C 279.007,138.89872 199.23785,216.07795 210.45442,215.68696 C 303.23168,212.45304 361.18255,217.79208 433.57235,240.26806 C 444.29098,243.59605 422.00588,143.15814 324.38759,135.62452 z"
       id="path2544"
       style="fill:#dbdbdb;fill-opacity:1;fill-rule:nonzero;stroke:none;stroke-width:25;stroke-linecap:butt;stroke-linejoin:round;marker-mid:none;stroke-miterlimit:4;stroke-dasharray:none;stroke-dashoffset:1;stroke-opacity:1;display:inline;filter:url(#filter3985);enable-background:new" />
    <path
       d="M 186.37822,72.150309 C 160.57833,109.62675 157.33905,256.29261 163.99898,247.2588 C 218.88951,172.80293 350.45207,80.852043 428.9148,43.825512 C 525.90264,-1.943011 243.81268,3.6410539 186.37822,72.150309 z"
       id="path2546"
       style="fill:#dbdbdb;fill-opacity:1;fill-rule:nonzero;stroke:#000000;stroke-width:0;stroke-linecap:butt;stroke-linejoin:round;marker-mid:none;stroke-miterlimit:4;stroke-dasharray:none;stroke-dashoffset:1;stroke-opacity:1;display:inline;filter:url(#filter3989);enable-background:new" />
    <path
       d="M 69.5521,231.67976 C 84.41923,274.68075 179.56014,331.84683 176.28962,321.11052 C 149.23774,232.30583 139.45061,174.93843 142.49683,99.2009 C 142.94789,87.986573 51.65499,135.42084 69.5521,231.67976 z"
       id="path2548"
       style="fill:#dbdbdb;fill-opacity:1;fill-rule:nonzero;stroke:none;stroke-width:25;stroke-linecap:butt;stroke-linejoin:round;marker-mid:none;stroke-miterlimit:4;stroke-dasharray:none;stroke-dashoffset:1;stroke-opacity:1;display:inline;filter:url(#filter3993);enable-background:new" />
    <path
       d="M 81.97729,372.8505 C 124.11382,390.0153 229.81624,356.15164 219.58677,351.53404 C 134.97422,313.33984 85.38277,282.88504 30.43637,230.67061 C 22.30057,222.93932 -2.20627,322.85836 81.97729,372.8505 z"
       id="path2550"
       style="fill:#dbdbdb;fill-opacity:1;fill-rule:nonzero;stroke:none;stroke-width:25;stroke-linecap:butt;stroke-linejoin:round;marker-mid:none;stroke-miterlimit:4;stroke-dasharray:none;stroke-dashoffset:1;stroke-opacity:1;display:inline;filter:url(#filter3997);enable-background:new" />
    <path
       d="M 203.88504,453.62703 C 244.17168,432.48219 286.43063,329.84726 276.30588,334.69014 C 192.55947,374.74786 137.30727,393.02355 61.96881,401.3645 C 50.8136,402.59953 111.39638,485.75077 203.88504,453.62703 z"
       id="path2552"
       style="fill:#dbdbdb;fill-opacity:1;fill-rule:nonzero;stroke:none;stroke-width:25;stroke-linecap:butt;stroke-linejoin:round;marker-mid:none;stroke-miterlimit:4;stroke-dasharray:none;stroke-dashoffset:1;stroke-opacity:1;display:inline;filter:url(#filter4001);enable-background:new" />
    <path
       d="M 345.96158,410.03296 C 355.80284,365.6115 304.66105,267.10125 301.82779,277.96113 C 278.39266,367.78804 256.70286,421.79138 214.46246,484.72945 C 208.208,494.04859 310.82416,501.41921 345.96158,410.03296 z"
       id="path2554"
       style="fill:#dbdbdb;fill-opacity:1;fill-rule:nonzero;stroke:none;stroke-width:25;stroke-linecap:butt;stroke-linejoin:round;marker-mid:none;stroke-miterlimit:4;stroke-dasharray:none;stroke-dashoffset:1;stroke-opacity:1;display:inline;filter:url(#filter4005);enable-background:new" />
    <path
       d="M 401.89383,270.24178 C 374.5208,233.89852 266.4087,208.76833 272.82303,217.97814 C 325.87887,294.15661 352.83718,345.73234 373.23475,418.73503 C 376.25499,429.54441 448.53158,356.32899 401.89383,270.24178 z"
       id="path2556"
       style="fill:#dbdbdb;fill-opacity:1;fill-rule:nonzero;stroke:none;stroke-width:25;stroke-linecap:butt;stroke-linejoin:round;marker-mid:none;stroke-miterlimit:4;stroke-dasharray:none;stroke-dashoffset:1;stroke-opacity:1;display:inline;filter:url(#filter4009);enable-background:new" />
  </g>
</svg>
