<?xml version="1.0" encoding="UTF-8" standalone="no"?>
<svg
   xmlns:i="http://ns.adobe.com/AdobeIllustrator/10.0/"
   xmlns:dc="http://purl.org/dc/elements/1.1/"
   xmlns:cc="http://web.resource.org/cc/"
   xmlns:rdf="http://www.w3.org/1999/02/22-rdf-syntax-ns#"
   xmlns:svg="http://www.w3.org/2000/svg"
   xmlns="http://www.w3.org/2000/svg"
   xmlns:xlink="http://www.w3.org/1999/xlink"
   xmlns:sodipodi="http://inkscape.sourceforge.net/DTD/sodipodi-0.dtd"
   xmlns:inkscape="http://www.inkscape.org/namespaces/inkscape"
   height="122.00000pt"
   id="svg845"
   inkscape:version="0.42.2"
   sodipodi:version="0.32"
   width="128.00000pt"
   inkscape:export-xdpi="251.07559"
   inkscape:export-ydpi="251.07559">
  <metadata
     id="metadata1389">
    <rdf:RDF>
      <cc:Work
         rdf:about="">
        <dc:title>Etiquette Icons</dc:title>
        <dc:description />
        <dc:subject>
          <rdf:Bag>
            <rdf:li>hash</rdf:li>
            <rdf:li />
            <rdf:li>application</rdf:li>
            <rdf:li>computer</rdf:li>
            <rdf:li>icons</rdf:li>
          </rdf:Bag>
        </dc:subject>
        <dc:publisher>
          <cc:Agent
             rdf:about="http://www.openclipart.org">
            <dc:title>Andy Fitzsimon</dc:title>
          </cc:Agent>
        </dc:publisher>
        <dc:creator>
          <cc:Agent>
            <dc:title>Andy Fitzsimon</dc:title>
          </cc:Agent>
        </dc:creator>
        <dc:rights>
          <cc:Agent>
            <dc:title>Andy Fitzsimon</dc:title>
          </cc:Agent>
        </dc:rights>
        <dc:date />
        <dc:format>image/svg+xml</dc:format>
        <dc:type
           rdf:resource="http://purl.org/dc/dcmitype/StillImage" />
        <cc:license
           rdf:resource="http://web.resource.org/cc/PublicDomain" />
        <dc:language>en</dc:language>
      </cc:Work>
      <cc:License
         rdf:about="http://web.resource.org/cc/PublicDomain">
        <cc:permits
           rdf:resource="http://web.resource.org/cc/Reproduction" />
        <cc:permits
           rdf:resource="http://web.resource.org/cc/Distribution" />
        <cc:permits
           rdf:resource="http://web.resource.org/cc/DerivativeWorks" />
      </cc:License>
    </rdf:RDF>
  </metadata>
  <defs
     id="defs847">
    <linearGradient
       id="linearGradient1443">
      <stop
         id="stop1444"
         offset="0.0000000"
         style="stop-color:#9db8d2;stop-opacity:1.0000000;" />
      <stop
         id="stop1447"
         offset="0.50000000"
         style="stop-color:#6988b7;stop-opacity:0.37500000;" />
      <stop
         id="stop1445"
         offset="1.0000000"
         style="stop-color:#929395;stop-opacity:0.00000000;" />
    </linearGradient>
    <linearGradient
       id="linearGradient1439">
      <stop
         id="stop1440"
         offset="0.0000000"
         style="stop-color:#9db8d2;stop-opacity:0.91764706;" />
      <stop
         id="stop1441"
         offset="1.0000000"
         style="stop-color:#4b6983;stop-opacity:0.77319586;" />
    </linearGradient>
    <linearGradient
       id="linearGradient1045">
      <stop
         id="stop1046"
         offset="0.00000000"
         style="stop-color:#ffffff;stop-opacity:0.74901962;" />
      <stop
         id="stop1047"
         offset="1.0000000"
         style="stop-color:#ffffff;stop-opacity:0.00000000;" />
    </linearGradient>
    <linearGradient
       id="linearGradient870">
      <stop
         id="stop871"
         offset="0.0000000"
         style="stop-color:#83a67f;stop-opacity:1.0000000;" />
      <stop
         id="stop872"
         offset="1.0000000"
         style="stop-color:#eaeaea;stop-opacity:1.0000000;" />
    </linearGradient>
    <linearGradient
       id="linearGradient1123"
       x1="0.78195488"
       x2="0.57894737"
       xlink:href="#linearGradient1045"
       y1="0.38281250"
       y2="0.60937500" />
    <linearGradient
       inkscape:collect="always"
       xlink:href="#linearGradient1045"
       id="linearGradient1502"
       gradientUnits="userSpaceOnUse"
       gradientTransform="matrix(1.517011,0.000000,0.000000,0.857972,-2.835271,-14.49594)"
       x1="42.530462"
       y1="133.41551"
       x2="53.520746"
       y2="163.73754" />
    <linearGradient
       inkscape:collect="always"
       xlink:href="#linearGradient1045"
       id="linearGradient1505"
       gradientUnits="userSpaceOnUse"
       gradientTransform="matrix(1.233631,0.000000,0.000000,1.055059,-2.835271,-14.49594)"
       x1="57.667630"
       y1="84.017432"
       x2="60.490723"
       y2="111.23763" />
    <radialGradient
       inkscape:collect="always"
       xlink:href="#linearGradient1439"
       id="radialGradient1508"
       gradientUnits="userSpaceOnUse"
       cx="61.564108"
       cy="105.93911"
       fx="70.482917"
       fy="88.907491"
       r="27.959115"
       gradientTransform="matrix(1.140857,0.000000,0.000000,1.140857,-2.835271,-14.49594)" />
    <linearGradient
       inkscape:collect="always"
       xlink:href="#linearGradient870"
       id="linearGradient1518"
       gradientUnits="userSpaceOnUse"
       gradientTransform="matrix(1.254235,0.000000,0.000000,1.037727,-2.835271,-14.49594)"
       x1="59.753100"
       y1="77.409041"
       x2="59.302076"
       y2="117.50446" />
    <linearGradient
       inkscape:collect="always"
       xlink:href="#linearGradient1443"
       id="linearGradient1522"
       gradientUnits="userSpaceOnUse"
       gradientTransform="matrix(1.246082,0.000000,0.000000,1.044517,-2.835271,-14.49594)"
       x1="88.958107"
       y1="38.843309"
       x2="95.367900"
       y2="96.338303" />
    <radialGradient
       inkscape:collect="always"
       xlink:href="#linearGradient1439"
       id="radialGradient2277"
       gradientUnits="userSpaceOnUse"
       gradientTransform="matrix(1.140857,0.000000,0.000000,1.140857,-2.835271,-14.49594)"
       cx="61.564108"
       cy="105.93911"
       fx="70.482917"
       fy="88.907491"
       r="27.959115" />
    <linearGradient
       inkscape:collect="always"
       xlink:href="#linearGradient1045"
       id="linearGradient2279"
       gradientUnits="userSpaceOnUse"
       gradientTransform="matrix(1.233631,0.000000,0.000000,1.055059,-2.835271,-14.49594)"
       x1="57.667630"
       y1="84.017432"
       x2="60.490723"
       y2="111.23763" />
    <linearGradient
       inkscape:collect="always"
       xlink:href="#linearGradient1045"
       id="linearGradient2281"
       gradientUnits="userSpaceOnUse"
       gradientTransform="matrix(1.517011,0.000000,0.000000,0.857972,-2.835271,-14.49594)"
       x1="42.530462"
       y1="133.41551"
       x2="53.520746"
       y2="163.73754" />
    <linearGradient
       inkscape:collect="always"
       xlink:href="#linearGradient1045"
       id="linearGradient2283"
       x1="110.05048"
       y1="138.23855"
       x2="103.69060"
       y2="145.33637"
       gradientTransform="scale(1.018660,0.981682)"
       gradientUnits="userSpaceOnUse" />
    <linearGradient
       inkscape:collect="always"
       xlink:href="#linearGradient1443"
       id="linearGradient2310"
       gradientUnits="userSpaceOnUse"
       gradientTransform="matrix(1.246082,0.000000,0.000000,1.044517,-2.835271,-14.49594)"
       x1="88.958107"
       y1="38.843309"
       x2="95.367900"
       y2="96.338303" />
    <linearGradient
       inkscape:collect="always"
       xlink:href="#linearGradient1443"
       id="linearGradient2326"
       gradientUnits="userSpaceOnUse"
       gradientTransform="matrix(1.246082,0.000000,0.000000,1.044517,-2.835271,-14.49594)"
       x1="88.958107"
       y1="38.843309"
       x2="95.367900"
       y2="96.338303" />
    <linearGradient
       inkscape:collect="always"
       xlink:href="#linearGradient1443"
       id="linearGradient2332"
       gradientUnits="userSpaceOnUse"
       gradientTransform="matrix(1.196449,-0.348179,0.291858,1.002913,-55.67348,45.01671)"
       x1="88.958107"
       y1="38.843309"
       x2="95.367900"
       y2="96.338303" />
    <linearGradient
       inkscape:collect="always"
       xlink:href="#linearGradient1443"
       id="linearGradient2341"
       gradientUnits="userSpaceOnUse"
       gradientTransform="matrix(1.303182,-0.379239,0.317894,1.092381,-74.71915,30.61828)"
       x1="88.958107"
       y1="38.843309"
       x2="95.367900"
       y2="96.338303" />
    <linearGradient
       inkscape:collect="always"
       xlink:href="#linearGradient1045"
       id="linearGradient2351"
       gradientUnits="userSpaceOnUse"
       gradientTransform="matrix(1.109533,0.000000,0.000000,1.069256,12.38078,-28.44884)"
       x1="110.05048"
       y1="138.23855"
       x2="103.69060"
       y2="145.33637" />
    <linearGradient
       inkscape:collect="always"
       xlink:href="#linearGradient1045"
       id="linearGradient2354"
       gradientUnits="userSpaceOnUse"
       gradientTransform="matrix(1.652341,0.000000,0.000000,0.934510,9.292580,-44.23793)"
       x1="42.530462"
       y1="133.41551"
       x2="53.520746"
       y2="163.73754" />
    <linearGradient
       inkscape:collect="always"
       xlink:href="#linearGradient1045"
       id="linearGradient2357"
       gradientUnits="userSpaceOnUse"
       gradientTransform="matrix(1.343681,0.000000,0.000000,1.149179,9.292580,-44.23793)"
       x1="57.667630"
       y1="84.017432"
       x2="60.490723"
       y2="111.23763" />
    <radialGradient
       inkscape:collect="always"
       xlink:href="#linearGradient1439"
       id="radialGradient2360"
       gradientUnits="userSpaceOnUse"
       gradientTransform="matrix(1.242631,0.000000,0.000000,1.242631,9.292580,-44.23793)"
       cx="61.564108"
       cy="105.93911"
       fx="70.482917"
       fy="88.907491"
       r="27.959115" />
  </defs>
  <sodipodi:namedview
     bordercolor="#666666"
     borderopacity="1.0"
     id="base"
     inkscape:cx="104.00000"
     inkscape:cy="72.541942"
     inkscape:pageopacity="0.0"
     inkscape:pageshadow="2"
     inkscape:window-height="719"
     inkscape:window-width="1024"
     inkscape:window-x="-4"
     inkscape:window-y="-4"
     inkscape:zoom="2.9414894"
     pagecolor="#ffffff"
     showborder="true"
     inkscape:current-layer="svg845" />
  <path
     style="fill:#d3d3d3;fill-opacity:1.0000000;fill-rule:evenodd;stroke-width:1.0000000pt"
     d="M 91.380197,4.2445313 C 62.333772,12.726251 33.288652,21.212473 4.2414102,29.691378 C 13.133460,59.070672 21.985253,88.462252 30.872665,117.84298 C 60.459779,109.90451 90.048091,101.97045 119.63249,94.021795 C 110.86457,63.907226 102.12703,33.782931 93.431301,3.6473433 C 92.747602,3.8464053 92.063894,4.0454683 91.380197,4.2445313 z "
     id="path2314" />
  <path
     style="fill:#ffffff;fill-rule:evenodd;stroke-width:1.0000000pt"
     sodipodi:nodetypes="ccccc"
     id="path850"
     d="M 7.3730559,30.226716 L 32.660365,113.72803 L 116.95658,91.172227 L 92.049848,5.5849417 L 7.3730559,30.226716 z " />
  <path
     style="fill:url(#linearGradient2341);fill-rule:evenodd;stroke-width:1.8367109"
     sodipodi:nodetypes="ccccc"
     id="path869"
     d="M 20.044294,42.815876 L 35.412929,97.054527 L 104.00441,79.230024 L 87.029343,22.325635 L 20.044294,42.815876 z " />
  <g
     id="Layer_1"
     i:layer="yes"
     i:dimmedPercent="50"
     i:rgbTrio="#4F008000FFFF"
     transform="matrix(0.261869,-7.620647e-2,7.397288e-2,0.254194,29.00446,41.86465)"
     style="opacity:0.37777779">
                        <g
   i:knockout="Off"
   id="g1489">
                                <path
   i:knockout="Off"
   d="M 99.094000,0.00000000 C 116.08600,0.00000000 132.38300,4.2710000 147.99500,12.807000 C 163.60300,21.348000 175.86900,33.527000 184.80000,49.353000 C 193.72500,65.178000 198.19000,81.761000 198.19000,99.093000 C 198.19000,116.34300 193.81200,132.79700 185.05800,148.44700 C 176.30500,164.10100 164.09800,176.30400 148.44800,185.05700 C 132.79400,193.81200 116.34400,198.18900 99.094000,198.18900 C 81.845000,198.18900 65.392000,193.81200 49.742000,185.05700 C 34.088000,176.30400 21.885000,164.10100 13.131000,148.44700 C 4.3770000,132.79700 0.00000000,116.34300 0.00000000,99.093000 C 0.00000000,81.761000 4.4600000,65.178000 13.390000,49.353000 C 22.315000,33.527000 34.581000,21.348000 50.194000,12.807000 C 65.803000,4.2710000 82.104000,0.00000000 99.094000,0.00000000 z M 99.094000,19.819000 C 85.516000,19.819000 72.471000,23.215000 59.970000,30.006000 C 47.468000,36.795000 37.651000,46.529000 30.519000,59.203000 C 23.382000,71.877000 19.819000,85.174000 19.819000,99.094000 C 19.819000,112.84600 23.318000,125.99400 30.324000,138.53900 C 37.327000,151.08700 47.102000,160.86200 59.650000,167.86500 C 72.194000,174.87100 85.343000,178.37100 99.093000,178.37100 C 112.84000,178.37100 125.98900,174.87100 138.53800,167.86500 C 151.08100,160.86200 160.85600,151.08700 167.86400,138.53900 C 174.86600,125.99400 178.36900,112.84600 178.36900,99.094000 C 178.36900,85.262000 174.80200,71.987000 167.66900,59.268000 C 160.53200,46.548000 150.71600,36.795000 138.21400,30.006000 C 125.71200,23.215000 112.67400,19.819000 99.094000,19.819000 z M 123.05500,113.58900 L 143.76200,120.68900 C 140.51700,131.58600 135.13700,139.92900 127.62600,145.72000 C 120.11000,151.51500 111.14800,154.40900 100.73400,154.40900 C 86.134000,154.40900 74.223000,149.60200 65.003000,139.98300 C 55.781000,130.36500 51.173000,117.09600 51.173000,100.18000 C 51.173000,89.106000 53.220000,79.227000 57.320000,70.557000 C 61.416000,61.886000 67.327000,55.402000 75.054000,51.108000 C 82.782000,46.815000 91.426000,44.665000 100.98800,44.665000 C 111.48900,44.665000 120.25700,47.208000 127.30100,52.288000 C 134.34500,57.366000 139.83000,65.377000 143.76000,76.316000 L 122.75700,81.345000 C 120.39100,75.031000 117.32600,70.442000 113.56500,67.586000 C 109.80100,64.729000 105.34700,63.300000 100.19400,63.300000 C 92.503000,63.300000 86.203000,66.221000 81.303000,72.059000 C 76.400000,77.897000 73.949000,87.034000 73.949000,99.473000 C 73.949000,111.91400 76.366000,121.07500 81.201000,126.95400 C 86.035000,132.83300 91.846000,135.77200 98.631000,135.77200 C 104.31100,135.77200 109.22900,134.06700 113.38300,130.64600 C 117.54100,127.23300 120.76200,121.54700 123.05500,113.58900 z "
   id="path1491" />

                        </g>

                </g>
  <g
     transform="matrix(3.274359,0.000000,0.000000,3.124894,130.2295,62.14083)"
     style="fill-opacity:0.070000000"
     id="g1117">
    <path
       style="stroke-width:1.0000000pt"
       id="path1098"
       d="M -3.8172287,9.3581066 C -3.8172287,14.134223 -7.6934966,18.010492 -12.469612,18.010492 C -17.245727,18.010492 -21.121997,14.134223 -21.121997,9.3581066 C -21.121997,4.5819904 -17.245727,0.70572280 -12.469612,0.70572280 C -7.6934966,0.70572280 -3.8172287,4.5819904 -3.8172287,9.3581066 z M -5.5986006,14.702227 L 3.5627467,23.609093 L 1.0179279,25.390466 L -7.6344556,16.483600 L -5.5986006,14.702227 z " />
    <path
       style="stroke-width:1.0000000pt"
       id="path1102"
       d="M -15.937500,1.0937500 C -16.969675,1.8140270 -18.113284,2.5478878 -19.054464,3.3359965 C -19.615763,4.2957407 -20.328271,5.2020552 -20.797544,6.1942302 C -20.951442,7.3703777 -21.251072,8.5491172 -21.319470,9.7238546 C -21.005543,10.910778 -20.769490,12.139886 -20.410243,13.302049 C -19.767400,14.160478 -19.188846,15.152420 -18.508186,15.930141 C -17.574906,16.504143 -16.668689,17.170100 -15.718750,17.687500 C -14.508909,17.841960 -13.296413,18.112785 -12.088152,18.196574 C -10.893080,17.890823 -9.6391339,17.725974 -8.4790160,17.337324 C -8.0352353,16.876296 -7.3446088,17.095951 -6.9744410,17.531273 C -4.3055993,20.270574 -1.6389793,23.012068 1.0312500,25.750000 C 2.0375301,25.044078 3.0580418,24.343231 4.0312500,23.593750 C 0.88075614,20.614980 -2.2144761,17.567611 -5.3437500,14.562500 C -4.8295347,13.665887 -4.2278399,12.810036 -4.0952065,11.759550 C -3.7968517,10.634972 -3.4810177,9.4790748 -3.7660858,8.3179121 C -3.9696892,6.6398528 -4.6719446,5.0751893 -5.6592508,3.7163523 C -6.4847600,2.8435040 -7.4176242,1.9938993 -8.5022026,1.4347668 C -9.8721392,0.81553058 -11.379728,0.74107628 -12.843750,0.50000000 C -13.875000,0.69791667 -14.906250,0.89583333 -15.937500,1.0937500 z " />
    <path
       style="stroke-width:1.0000000pt"
       id="path1106"
       d="M -16.156250,0.75000000 C -17.307458,1.5442523 -18.484681,2.4345028 -19.593750,3.2500000 C -20.114724,4.2807745 -20.823813,5.2551697 -21.231586,6.3197301 C -21.357419,7.5571514 -21.609063,8.8028035 -21.659316,10.035313 C -21.282889,11.262210 -20.983182,12.537824 -20.560952,13.735368 C -19.790684,14.605421 -19.128549,15.664358 -18.295873,16.420021 C -17.435440,16.890429 -16.643770,17.574288 -15.742600,17.917670 C -14.442031,18.037054 -13.135732,18.265833 -11.838567,18.319790 C -10.538212,18.004860 -9.2378558,17.689930 -7.9375000,17.375000 C -5.9140343,19.189163 -3.9006185,21.013665 -2.0676489,23.023822 C -1.0888122,24.048850 -0.087662917,25.052170 0.90625000,26.062500 C 2.0696610,25.232800 3.2441608,24.403815 4.3750000,23.531250 C 1.1937709,20.541528 -1.9333127,17.484368 -5.0937500,14.468750 C -4.6006815,12.978019 -4.0531744,11.496301 -3.5937500,10.000000 C -3.8518355,8.7188028 -3.8884326,7.3677892 -4.2905760,6.1320012 C -4.7986462,5.1758466 -5.2017624,4.1162429 -5.7685273,3.2196355 C -6.7541504,2.4863303 -7.7224716,1.7016887 -8.7187500,1.0000000 C -10.262810,0.76308016 -11.804748,0.39563509 -13.350134,0.23705398 C -14.285506,0.40803600 -15.220878,0.57901799 -16.156250,0.75000000 z " />
    <path
       style="stroke-width:1.0000000pt"
       id="path1111"
       d="M -16.406250,0.28125000 C -17.657893,1.1775668 -18.964146,2.1055740 -20.156250,3.0625000 C -20.671451,4.2157773 -21.326340,5.3328402 -21.758117,6.5077186 C -21.834252,7.8172068 -22.024855,9.1385001 -22.032138,10.440909 C -21.662436,11.575019 -21.328427,12.788618 -20.937500,13.875000 C -19.953674,14.904431 -19.005901,16.059579 -18.002474,17.013810 C -17.122830,17.375734 -16.310434,17.991366 -15.390643,18.201454 C -14.019504,18.250089 -12.633155,18.480561 -11.271133,18.419816 C -10.243255,18.165295 -9.2153776,17.910772 -8.1875000,17.656250 C -5.1981010,20.593936 -2.2072311,23.530138 0.78125000,26.468750 C 2.1538555,25.473555 3.5344811,24.474899 4.8750000,23.437500 C 1.6419022,20.405888 -1.5375161,17.307323 -4.7500000,14.250000 C -4.2878859,12.759383 -3.7740893,11.276814 -3.3437500,9.7812500 C -3.7422325,8.1898992 -3.9917650,6.5339721 -4.4794303,4.9814891 C -5.0047323,4.1738642 -5.4449437,3.2263264 -6.0197035,2.5024637 C -6.9444136,1.8582484 -7.8364291,1.1138314 -8.7812500,0.53125000 C -10.522883,0.32051170 -12.265438,0.012846603 -14.006519,-0.13870293 C -14.806430,0.0012813815 -15.606340,0.14126569 -16.406250,0.28125000 z " />
    <path
       style="stroke-width:1.0000000pt"
       id="path1116"
       d="M -16.687500,-0.21875000 C -18.055127,0.70738213 -19.378876,1.7845970 -20.718750,2.7812500 C -21.221003,4.1257511 -21.905068,5.4314163 -22.347723,6.7892152 C -22.373474,8.1292475 -22.505142,9.4839703 -22.467532,10.815226 C -22.099095,11.866653 -21.762463,12.995505 -21.375000,14.000000 C -20.337283,15.099024 -19.268314,16.237320 -18.250000,17.312500 C -17.109020,17.681609 -15.989424,18.173588 -14.835710,18.469521 C -13.420937,18.443291 -11.987992,18.564030 -10.584229,18.448720 C -9.8894857,18.267897 -9.1947428,18.087073 -8.5000000,17.906250 C -5.4689322,20.885600 -2.4364125,23.863486 0.59375000,26.843750 C 2.1755458,25.682998 3.7623579,24.514889 5.3125000,23.312500 C 1.9970249,20.238216 -1.2668438,17.099159 -4.5625000,14.000000 C -4.1003859,12.509383 -3.5865893,11.026814 -3.1562500,9.5312500 C -3.6436790,7.7485486 -4.0602015,5.9253132 -4.5905124,4.1672369 C -5.2602604,3.3284828 -5.7966778,2.2917247 -6.5453578,1.5760313 C -7.3568233,1.0734098 -8.1401888,0.47652094 -8.9687500,0.031250000 C -10.910459,-0.12934119 -12.855431,-0.42451187 -14.795105,-0.50119700 C -15.425903,-0.40704798 -16.056702,-0.31289900 -16.687500,-0.21875000 z " />
  </g>
  <path
     style="fill:#807d74;fill-opacity:1.0000000;fill-rule:evenodd;stroke-width:0.50000000"
     sodipodi:nodetypes="ccccc"
     id="path852"
     d="M 112.48399,104.61937 L 143.80798,135.07326 L 135.10688,141.16403 L 105.52310,110.71016 L 112.48399,104.61937 z " />
  <path
     style="fill:url(#radialGradient2360);fill-opacity:1.0000000;fill-rule:evenodd;stroke:#314e6c;stroke-width:1.3615100;stroke-miterlimit:4.0000000;stroke-dasharray:none;stroke-opacity:0.55974841"
     id="path853"
     d="M 118.57476,86.347039 C 118.57476,102.67728 105.32123,115.93082 88.990986,115.93082 C 72.660740,115.93082 59.407204,102.67728 59.407204,86.347039 C 59.407204,70.016797 72.660740,56.763265 88.990986,56.763265 C 105.32123,56.763265 118.57476,70.016797 118.57476,86.347039 z " />
  <path
     style="fill:url(#linearGradient2357);fill-opacity:1.0000000;fill-rule:evenodd;stroke-width:1.0000000pt"
     id="path863"
     d="M 102.01443,65.281897 C 106.02513,70.679066 101.30177,80.988234 91.471218,88.293443 C 81.640667,95.598652 70.407179,97.147190 66.396479,91.750023 C 62.385780,86.352866 67.109142,76.043691 76.939694,68.738488 C 86.770250,61.433285 98.003731,59.884735 102.01443,65.281897 z " />
  <path
     d="M 107.30481,110.62457 L 112.75085,106.54004 L 142.06461,134.93236 L 135.25706,140.03802 L 107.30481,110.62457 z "
     id="path1766"
     sodipodi:nodetypes="ccccc"
     style="fill:url(#linearGradient2351);fill-opacity:1.0000000;fill-rule:evenodd;stroke:none;stroke-width:1.0000000pt;stroke-linecap:butt;stroke-linejoin:miter;stroke-opacity:1.0000000" />
</svg>
