<?xml version="1.0" encoding="UTF-8" standalone="no"?>
<!-- Created with Inkscape (http://www.inkscape.org/) -->
<svg
   xmlns:svg="http://www.w3.org/2000/svg"
   xmlns="http://www.w3.org/2000/svg"
   version="1.0"
   width="210mm"
   height="297mm"
   id="svg2">
  <defs
     id="defs4" />
  <g
     id="layer1">
    <g
       transform="matrix(1.246245,0,0,1.246245,-88.723934,-100.72073)"
       id="g2396">
      <path
         d="M 81.281607,859.73121 C 78.576489,858.3392 75.064346,854.96528 73.476845,852.23362 C 70.633209,847.34049 70.590476,845.39711 70.590476,720.97171 C 70.590476,622.88767 71.005814,592.43485 72.449853,584.64121 C 73.982989,576.3667 73.982989,572.88097 72.449853,564.77454 C 69.744789,550.47159 69.833431,437.5966 72.563011,420.68084 C 74.294691,409.94927 74.259841,406.57047 72.277595,393.00942 C 70.363359,379.91362 70.06392,363.08934 70.310497,282.486 C 70.623302,180.2331 70.417391,183.06803 78.130753,174.81837 C 85.603931,166.8256 88.24424,166.39151 131.60952,166.02617 C 153.46286,165.84205 175.49357,166.30371 180.56667,167.05208 C 198.04447,169.63034 208.60685,170.0224 217.74011,168.43191 C 236.52623,165.16045 256.22955,164.90653 284.58154,167.5705 C 310.68143,170.02287 313.36749,170.03314 338.19567,167.77541 C 368.11836,165.05443 463.81829,164.46734 480.66159,166.90143 C 486.10642,167.68828 495.55831,169.91063 501.6658,171.83999 C 515.5179,176.21586 519.12474,176.2122 535.58093,171.80552 C 554.08002,166.85178 563.68849,166.1402 577.19048,168.72401 C 587.41584,170.68079 589.59944,170.67737 599.18571,168.68958 C 613.04714,165.81529 650.27588,165.37168 657.67498,167.99263 C 664.07941,170.26124 669.56743,176.47296 671.49644,183.63672 C 672.42645,187.09056 672.91903,252.43888 672.89986,369.82219 C 672.87446,525.22381 672.56603,552.46809 670.70903,563.34461 C 668.91353,573.86106 668.84099,577.64392 670.2804,585.69836 C 671.59942,593.07918 671.63489,598.18714 670.42901,607.09687 C 669.55783,613.53374 668.45706,627.81029 667.98286,638.82251 C 667.25716,655.67577 667.58408,661.24593 670.04844,674.01598 C 672.59935,687.23445 672.97183,694.52054 672.94233,730.62231 C 672.90744,773.33854 672.21914,780.65517 667.66128,786.75992 C 661.37498,795.17974 658.47733,796.18406 640.58054,796.14613 C 619.05682,796.10052 613.72302,793.87791 599.76374,779.13771 C 587.93465,766.64687 586.13533,766.24418 572.22381,772.97442 C 564.70049,776.61412 560.84274,777.53393 551.29856,777.96369 C 541.21079,778.41791 538.37325,779.15977 530.72237,783.34327 C 525.84126,786.01226 514.45769,791.04198 505.42556,794.52045 C 496.39344,797.99892 485.63649,802.55114 481.52125,804.63649 C 477.40601,806.72185 468.42717,809.65284 461.56828,811.14982 C 454.70938,812.64679 444.41148,816.11732 438.68405,818.86213 C 421.44214,827.12509 412.51213,825.42828 399.89444,811.4916 C 392.96571,803.83859 390.51106,803.53703 377.5036,808.74083 C 372.42989,810.77062 362.00141,813.44148 354.32916,814.67607 C 337.82991,817.33106 323.76017,822.98087 312.13567,831.61917 C 301.21424,839.73501 297.77536,840.39968 285.83173,836.70318 L 276.17421,833.71422 L 266.49261,836.70455 C 254.93934,840.273 246.21066,839.94266 228.97943,835.28487 C 211.71831,830.619 200.2682,831.8893 183.78802,840.2985 C 171.81869,846.406 171.19359,846.55744 157.95143,846.55814 C 147.7322,846.55868 142.50155,847.27318 136.77053,849.4514 C 132.5848,851.04231 124.60265,852.92234 119.03244,853.62925 C 113.46222,854.33616 106.03119,856.1766 102.51905,857.71909 C 92.552184,862.09642 86.915755,862.63044 81.281607,859.73121 z M 92.592303,848.60541 L 97.552381,842.13911 L 110.11946,842.92442 C 124.63154,843.83128 130.75664,841.84911 134.82362,834.92979 C 137.68065,830.06902 140.07581,830.1187 151.752,835.28087 C 158.19538,838.12958 159.8079,838.3345 164.56506,836.90922 C 167.55819,836.01246 173.28052,832.4846 177.28139,829.06952 L 184.55567,822.86031 L 203.49212,821.90536 C 222.51705,820.94594 228.91688,821.73388 235.12194,825.7996 C 236.83867,826.92445 240.88546,828.63639 244.11478,829.60392 C 249.80946,831.31009 250.38913,831.16045 263.3635,824.63479 C 270.72096,820.93424 277.91126,818.13194 279.34195,818.40747 C 280.77263,818.68299 284.7278,822.90033 288.1312,827.77933 C 291.53462,832.65831 294.90633,836.28737 295.6239,835.84389 C 296.34147,835.40041 296.92857,832.53568 296.92857,829.47783 C 296.92857,822.69153 297.73165,822.09937 321.09856,811.65605 C 336.79016,804.64303 339.14769,803.986 348.61957,803.986 C 358.40696,803.986 359.92921,803.51828 376.1941,795.51347 C 385.9322,790.72085 394.36956,787.40942 395.62011,787.8893 C 396.83604,788.3559 400.32467,793.69756 403.37264,799.75968 C 406.42061,805.82179 410.60094,812.10833 412.66228,813.72978 C 416.10909,816.44104 416.79667,816.51636 421.22168,814.66748 C 423.868,813.56177 428.4343,810.73483 431.36897,808.38539 C 437.34044,803.60476 450.25126,799.72886 460.20428,799.72886 C 465.24723,799.72886 468.14481,798.74632 472.58284,795.53143 C 477.5548,791.92976 489.0637,787.20756 516.46006,777.52824 C 522.54407,775.37871 528.45092,769.62214 532.77924,761.62421 C 534.10877,759.16748 535.83416,757.15743 536.61345,757.15743 C 537.39273,757.15743 540.0074,760.031 542.42381,763.54314 C 545.42651,767.90741 547.82482,769.92886 550.00005,769.92886 C 551.75056,769.92886 558.14752,766.79382 564.21553,762.96214 C 572.99036,757.42117 576.98781,755.79352 583.74831,755.00888 C 594.15523,753.80102 596.19399,755.24957 602.45362,768.29906 C 608.75925,781.44444 613.62975,784.25425 632.68846,785.74171 C 640.90259,786.38278 648.16502,787.24214 648.82719,787.65138 C 649.48935,788.06062 652.00091,786.73799 654.40842,784.7122 L 658.78571,781.02894 L 658.78571,730.36943 C 658.78571,682.23664 658.64191,679.42952 655.90258,674.08842 C 653.20271,668.82432 653.06147,666.56125 653.68073,638.48982 C 654.18388,615.68211 654.87343,607.24093 656.56388,603.1951 C 659.50502,596.15596 659.36599,592.15322 655.94762,585.45266 C 654.38667,582.39294 653.10952,577.60366 653.10952,574.80981 C 653.10952,572.01596 654.38667,567.22667 655.94762,564.16695 C 658.6774,558.81613 658.78571,555.80341 658.78571,485.22332 C 658.78571,418.14515 658.57849,411.61383 656.37287,409.17664 C 654.20544,406.78166 654.16935,406.04862 656.0181,401.96967 C 657.75012,398.14827 658.13067,379.83638 658.42001,286.38838 L 658.76383,175.3479 L 631.27711,175.3479 C 608.57562,175.3479 603.48282,175.71847 602.02381,177.47647 C 601.0522,178.64719 598.26008,179.63307 595.81911,179.66733 C 593.37812,179.70159 588.82667,180.64501 585.70476,181.76383 C 580.19121,183.73974 579.85928,183.67697 574.1204,179.57297 C 567.31717,174.70783 558.86519,173.95932 550.44745,177.47647 C 547.64554,178.64719 543.25719,179.61128 540.69558,179.61891 C 538.13396,179.62653 532.62219,181.22296 528.44718,183.16653 C 518.16188,187.95459 512.38423,187.62821 496.80193,181.37886 L 483.53333,176.05743 L 417.54762,175.61779 C 361.45976,175.24411 349.38669,175.53028 337.06049,177.52559 C 319.5121,180.36625 283.14742,180.05711 279.51226,177.03636 C 277.77879,175.59589 271.09905,175.31483 249.85175,175.78835 C 222.17045,176.40526 210.16752,177.81752 207.1754,180.80965 C 204.68403,183.30101 199.99824,182.78911 189.65392,178.89552 C 180.27159,175.36402 180.0087,175.34794 131.79534,175.35688 L 83.361905,175.36585 L 80.878572,179.72902 C 78.625941,183.68685 78.395238,189.44321 78.395238,241.69164 C 78.395238,290.21701 78.721858,299.652 80.468515,301.58204 C 82.287294,303.59178 82.281564,304.8695 80.421831,311.99121 C 78.743948,318.41651 78.396464,327.57934 78.755493,355.93104 C 79.152232,387.26074 79.548133,392.57307 81.91267,398.2952 C 84.598427,404.79466 84.595748,404.92124 81.505732,417.52088 C 78.543324,429.6002 78.395238,433.18172 78.395238,492.74993 C 78.395238,544.71892 78.755194,556.31607 80.52381,561.32886 C 83.203281,568.92329 83.202906,576.89165 80.522611,586.87171 C 78.744909,593.49097 78.430256,614.4528 78.451086,724.87409 L 78.47565,855.07171 L 83.053937,855.07171 C 86.816809,855.07171 88.51564,853.92003 92.592303,848.60541 z M 139.68653,643.98909 L 98.09688,643.59049 L 98.640573,615.58586 C 98.939605,600.18332 99.91422,574.49052 100.80638,558.49076 C 103.74601,505.7724 105.48036,453.57828 106.20543,396.00981 C 106.59863,364.79076 107.39751,315.30147 107.98072,286.03362 C 108.56392,256.76576 108.69113,230.58433 108.2634,227.85266 C 107.83567,225.121 107.805,219.37386 108.19524,215.08124 L 108.90476,207.27647 L 138.70476,206.37857 C 155.09476,205.88472 172.33619,205.32816 177.01905,205.14177 C 186.89359,204.74873 312.79493,206.18628 377.10476,207.42635 C 401.29952,207.8929 422.0531,208.20594 423.22381,208.12201 C 431.79273,207.50765 553.3022,207.98851 590.11733,208.78247 L 635.68229,209.76512 L 636.58216,237.61128 C 637.83514,276.38328 638.03817,342.94261 636.93982,354.85743 C 634.80651,377.99948 631.85448,478.74826 630.9628,558.84552 L 630.00309,645.05266 L 405.63964,644.72018 C 282.23974,644.53732 162.56084,644.20833 139.68653,643.98909 z"
         id="path2410"
         style="fill:#d3b59b" />
      <path
         d="M 94.395823,847.6046 L 97.962313,843.00981 L 112.38554,843.53186 L 126.80877,844.05391 L 133.28669,837.29317 L 139.76461,830.53245 L 147.03945,834.20145 L 154.31429,837.87046 L 149.00808,837.95679 C 146.08967,838.00429 140.34252,839.35753 136.23665,840.964 C 132.13078,842.57047 123.34357,844.77576 116.70952,845.86462 C 110.07548,846.95348 101.5385,848.82426 97.738476,850.02188 L 90.829334,852.19939 L 94.395823,847.6046 z M 160.43393,838.49282 C 161.4583,838.0829 162.68223,838.13331 163.15377,838.60484 C 163.62531,839.07638 162.78718,839.41177 161.29127,839.35015 C 159.63816,839.28207 159.30191,838.94581 160.43393,838.49282 z M 168.50476,836.35727 C 170.06571,835.47752 174.49262,832.14443 178.34232,828.95042 L 185.34178,823.14314 L 202.46613,822.34534 C 219.77937,821.53872 231.47314,823.07402 234.94778,826.6099 C 236.24372,827.92869 235.66301,828.04907 232.3619,827.14593 C 230.02048,826.50535 220.12262,825.98124 210.36667,825.98124 L 192.62857,825.98124 L 181.39416,832.01219 C 175.21523,835.32921 169.1488,838.02373 167.9132,837.99999 C 166.1957,837.96699 166.335,837.58016 168.50476,836.35727 z M 263.58095,825.27171 C 274.53661,819.07616 279.67928,818.26965 283.22768,822.19059 C 286.73066,826.06133 286.13293,826.80936 280.25476,825.91116 C 276.71695,825.37058 272.124,826.0784 266.55166,828.02296 C 253.71941,832.50101 252.61159,831.47502 263.58095,825.27171 z M 298.34762,825.4858 C 298.34762,823.55662 302.0112,821.14227 312.18333,816.36788 C 335.24838,805.54207 340.11267,803.986 350.88928,803.986 C 360.03439,803.986 361.93225,803.39972 376.89129,795.95351 C 386.28014,791.27999 393.97419,788.28402 395.29044,788.78912 C 396.5347,789.26659 398.91989,792.33711 400.59087,795.6125 L 403.629,801.56774 L 399.75408,798.51973 C 394.51443,794.39822 391.1983,794.65516 376.71945,800.30456 C 369.90708,802.96262 361.14048,805.55346 357.2381,806.06198 C 339.33594,808.39479 324.94374,813.46477 309.07396,823.02888 C 299.4121,828.85171 298.34762,829.09553 298.34762,825.4858 z M 429.60952,810.50124 C 436.28542,804.56724 446.27024,801.1479 456.92227,801.1479 C 464.79806,801.1479 468.69024,799.80983 473.6,795.41433 C 475.16095,794.01688 484.73952,789.88059 494.88571,786.22259 C 525.8116,775.0729 526.40516,774.70934 532.77924,763.01245 C 535.79234,757.4832 538.27451,757.39269 541.40832,762.6978 C 544.45166,767.84975 544.44619,768.50406 541.35952,768.53346 C 539.99369,768.54648 534.12975,771.41183 528.32854,774.90093 C 522.52733,778.39004 514.86447,782.29478 511.29997,783.57814 C 507.73546,784.86149 497.47548,789.08134 488.5,792.95558 C 479.52452,796.82981 465.9144,801.54491 458.25528,803.43355 C 450.59617,805.32219 441.33689,808.37142 437.67909,810.20961 C 434.0213,812.04781 429.43214,814.00061 427.48095,814.5492 C 424.44472,815.40286 424.75154,814.81935 429.60952,810.50124 z M 632.53333,788.37647 C 626.95936,787.37847 626.99769,787.35693 634.6619,787.18053 C 638.95452,787.08172 643.42452,787.61989 644.59524,788.37647 C 647.1133,790.00377 641.62198,790.00377 632.53333,788.37647 z M 655.94762,785.0026 C 655.94762,784.70794 657.06512,783.59044 658.43095,782.51927 C 660.68165,780.75416 660.73184,780.80435 658.96673,783.05505 C 657.11293,785.41882 655.94762,786.17054 655.94762,785.0026 z M 658.78571,729.41553 C 658.78571,685.10896 658.49805,678.41611 656.42218,674.42743 C 654.0011,669.77541 653.88075,666.84992 654.46053,626.73932 C 654.60158,616.98105 655.49853,608.24737 656.71944,604.74408 C 659.51442,596.72412 659.2853,590.57602 655.94762,584.03362 C 652.41409,577.10732 652.42002,573.62859 655.97878,565.7858 C 658.65987,559.87721 658.78571,556.29627 658.78571,485.91444 C 658.78571,421.44428 658.50796,411.8051 656.56479,408.83943 C 654.54959,405.76384 654.54959,405.05205 656.56479,401.15508 C 658.5225,397.36928 658.78571,384.15419 658.78571,289.65171 C 658.78571,221.99064 659.28901,182.44314 660.15007,182.44314 C 664.05035,182.44314 664.40629,198.30766 664.38574,371.22598 C 664.36706,528.48896 664.0984,550.75 662.08372,561.97483 C 660.17618,572.60279 660.07632,576.46901 661.47362,585.59667 C 662.62945,593.14705 662.72667,599.28936 661.78904,605.52688 C 661.04363,610.48583 660.00859,624.76028 659.48897,637.2479 C 658.66758,656.98758 658.9306,661.95423 661.50305,675.27946 C 664.06369,688.54354 664.46084,695.89626 664.45399,729.91279 C 664.44645,767.32889 663.36351,779.86219 660.13807,779.86219 C 659.30632,779.86219 658.78571,760.44184 658.78571,729.41553 z M 557.41952,768.76152 C 567.07057,760.60933 573.72384,757.22641 583.11049,755.6987 C 592.31317,754.20093 595.32975,755.33002 598.49892,761.45853 L 600.67962,765.67552 L 596.03028,762.84083 C 589.84238,759.06806 583.23078,759.30659 572.93333,763.67408 C 562.9058,767.92709 555.55275,770.33836 557.41952,768.76152 z M 98.273548,619.86457 C 98.279951,606.79159 98.941937,590.36243 99.744627,583.35531 C 100.54732,576.3482 101.80953,553.35963 102.54955,532.2696 C 103.28957,511.17957 104.59277,479.87552 105.44555,462.70505 C 106.29833,445.53457 106.72522,420.94957 106.39419,408.07171 C 106.06317,395.19386 106.30713,367.416 106.93633,346.34314 C 107.56554,325.27028 108.17614,285.92265 108.29323,258.90396 C 108.41031,231.88526 108.98475,209.00461 109.56975,208.05805 C 110.38895,206.73257 135.70919,206.35313 219.74527,206.40702 C 279.7568,206.44551 349.29143,206.8279 374.26667,207.25679 C 399.2419,207.68567 468.13085,208.32093 527.35321,208.66847 C 586.57557,209.01601 635.21599,209.4861 635.44301,209.71313 C 636.43718,210.7073 638.11001,342.86879 637.2173,349.89076 C 635.08485,366.66454 631.81646,474.00308 630.91959,556.71695 L 629.97715,643.63362 L 364.11953,643.63362 L 98.261905,643.63362 L 98.273548,619.86457 z M 79.926315,305.07251 C 79.994407,303.41939 80.33066,303.08315 80.783657,304.21516 C 81.193579,305.23953 81.143164,306.46346 80.671628,306.93501 C 80.200089,307.40655 79.864699,306.56841 79.926315,305.07251 z M 504.10952,183.29659 C 491.65837,178.78277 487.48842,176.96436 489.34213,176.8569 C 490.19555,176.80743 494.66555,178.11441 499.27547,179.7613 C 504.27087,181.54591 511.55583,182.83585 517.30712,182.95416 C 526.16876,183.13645 526.63248,183.29235 522.98331,184.86247 C 517.31693,187.30055 514.51243,187.06787 504.10952,183.29659 z M 193.49103,179.58852 C 189.28251,178.0748 185.45109,176.39966 184.97674,175.866 C 184.50238,175.33234 185.38355,175.35494 186.9349,175.91622 C 188.48623,176.4775 193.75588,177.31029 198.64523,177.76686 C 205.91124,178.44537 207.24347,178.94825 205.93897,180.52007 C 203.88573,182.99407 202.7158,182.90652 193.49103,179.58852 z M 574.35238,179.00001 L 570.09524,175.45179 L 575.05254,176.81889 C 577.77905,177.5708 583.84548,178.26593 588.53349,178.36362 C 596.78523,178.53557 596.87607,178.57794 591.38095,179.69189 C 588.25905,180.32476 584.10833,181.22633 582.15714,181.69539 C 579.59983,182.31016 577.42114,181.55775 574.35238,179.00001 z M 281.74097,177.05775 C 280.16768,176.05771 323.84236,176.31677 330.27619,177.34564 C 331.83714,177.59527 321.93929,177.87668 308.28095,177.97102 C 294.62262,178.06535 282.67963,177.65438 281.74097,177.05775 z M 337.81488,175.79758 C 338.83926,175.38766 340.06318,175.43807 340.53473,175.90961 C 341.00626,176.38115 340.16813,176.71654 338.67223,176.65492 C 337.01911,176.58683 336.68286,176.25058 337.81488,175.79758 z M 117.86152,174.28601 C 129.81202,174.0484 148.96916,174.04892 160.43295,174.28716 C 171.89673,174.5254 162.11905,174.71981 138.70476,174.71918 C 115.29048,174.71854 105.91102,174.52361 117.86152,174.28601 z M 241.23095,174.29215 C 247.66988,174.02921 258.20631,174.02921 264.64524,174.29215 C 271.08417,174.55509 265.81595,174.77022 252.9381,174.77022 C 240.06024,174.77022 234.79202,174.55509 241.23095,174.29215 z M 381.71667,174.28492 C 399.86274,174.06032 429.55631,174.06032 447.70238,174.28492 C 465.84845,174.50953 451.00167,174.6933 414.70952,174.6933 C 378.41738,174.6933 363.5706,174.50953 381.71667,174.28492 z M 622.30426,174.29426 C 627.60492,174.02049 635.90635,174.02252 640.75188,174.29878 C 645.59738,174.57503 641.26048,174.79903 631.11429,174.79655 C 620.9681,174.79406 617.00357,174.56804 622.30426,174.29426 z"
         id="path2408"
         style="fill:#c7aa8d" />
      <path
         d="M 98.956459,642.19035 C 97.729868,640.20568 98.459006,597.04756 99.939405,584.00922 C 100.60251,578.16906 101.66464,556.94996 102.2997,536.85565 C 102.93476,516.76134 103.72284,500.06453 104.05098,499.75164 C 104.37913,499.43874 114.22619,501.09014 125.93333,503.42141 L 147.21905,507.66009 L 188.83788,506.03593 C 211.72824,505.14264 231.92844,503.85223 233.72721,503.16834 C 236.51854,502.10707 237.33293,500.09139 239.28586,489.41022 C 245.83566,453.5874 245.94544,423.04675 239.64121,390.5493 C 237.69595,380.52173 235.86237,372.07534 235.56657,371.77956 C 235.27078,371.48375 208.17361,370.8059 175.35066,370.27319 L 115.67254,369.30465 L 112.62166,378.40008 C 105.97384,398.21888 105.44021,395.85529 106.98609,353.43838 C 107.66875,334.70695 108.41988,294.64965 108.65527,264.42216 C 108.89065,234.19466 109.56412,208.98219 110.15187,208.39444 C 112.49723,206.04909 606.2442,208.37013 615.6394,210.77068 C 618.08602,211.39581 621.08227,211.30459 622.40434,210.56473 C 623.70958,209.83428 627.16113,209.43417 630.07446,209.6756 L 635.37143,210.11457 L 636.25972,253.39552 C 637.52187,314.89192 637.66915,342.34093 636.78511,351.30981 C 634.46591,374.83891 631.67963,468.53043 630.86645,550.33124 L 629.93893,643.63362 L 364.89369,643.63362 C 186.76213,643.63362 99.555947,643.16034 98.956459,642.19035 z M 514.23985,493.77403 L 536.0381,482.98109 L 558.03333,484.0063 L 580.02857,485.0315 L 593.50952,491.79491 C 600.92405,495.51479 609.45846,499.58904 612.47487,500.8488 L 617.95927,503.13928 L 616.94536,494.98407 C 615.30715,481.8073 609.89742,462.35011 602.88767,444.42266 C 599.29064,435.22327 596.34762,426.53425 596.34762,425.11369 C 596.34762,423.69314 603.05262,413.46997 611.24762,402.39552 C 632.0404,374.29686 631.76018,371.14104 608.48048,371.23251 L 594.21905,371.28855 L 577.19048,386.94133 C 567.82476,395.55036 558.74704,403.28051 557.01776,404.11945 C 553.25583,405.9445 551.08021,404.4459 529.84842,385.40473 L 515.56557,372.59552 L 501.32325,372.59552 L 487.08095,372.59552 L 487.08095,380.51613 L 487.08095,388.43676 L 501.16653,405.24677 C 508.91361,414.49228 515.93706,423.33659 516.77418,424.90079 C 518.04437,427.27415 516.34374,431.5768 506.49745,450.90111 C 498.22103,467.14444 493.57829,478.25534 490.94573,488.11912 C 488.88161,495.85305 487.52459,502.71769 487.93014,503.37389 C 489.35076,505.6725 492.61229,504.48243 514.23985,493.77403 z M 140.83333,482.697 L 123.09524,476.65995 L 121.93502,468.26346 C 120.30705,456.4819 121.92107,427.69806 124.8726,415.87584 L 127.35238,405.94314 L 142.9619,404.82947 C 165.80129,403.19997 217.38379,406.14426 220.54801,409.25802 C 221.07466,409.77626 222.30733,420.14466 223.28729,432.29889 L 225.06904,454.39749 L 216.8731,469.90365 C 212.36534,478.43204 208.02126,486.20802 207.2196,487.18362 C 206.1529,488.48173 199.43431,488.92747 182.16673,488.84575 L 158.57143,488.73405 L 140.83333,482.697 z"
         id="path2406"
         style="fill:#a28568" />
      <path
         d="M 117.77381,642.57478 L 98.261905,642.13448 L 98.339305,629.04833 C 98.381875,621.85095 99.021693,606.7029 99.76112,595.386 C 100.50055,584.06909 101.67682,558.32621 102.37506,538.17958 C 103.0733,518.03295 104.01225,501.18168 104.46161,500.73233 C 104.91097,500.28296 114.39594,501.60142 125.53931,503.66225 C 140.0933,506.35382 150.39648,507.39774 162.11905,507.36852 C 182.46541,507.3178 235.98209,504.96739 236.86369,504.08579 C 238.02402,502.92547 242.74432,471.59712 244.33616,454.49154 C 246.11514,435.37487 244.73377,416.06404 239.6452,388.91457 L 236.45356,371.886 L 222.34583,370.97933 C 199.85293,369.53376 116.61466,369.26973 115.40873,370.64013 C 114.80573,371.32536 112.85039,375.89786 111.06351,380.80125 C 109.27663,385.70464 107.52016,389.42204 107.16025,389.06212 C 106.80033,388.70221 107.21175,360.74391 108.07452,326.93257 C 108.93729,293.12125 109.50437,259.38446 109.33471,251.96195 C 109.16505,244.53944 109.51551,237.6748 110.11353,236.70719 C 110.97224,235.31777 166.36793,234.9479 373.60697,234.9479 L 636.01311,234.9479 L 636.4018,287.80743 C 636.61556,316.88016 636.35105,349.28766 635.81397,359.82409 C 632.20799,430.56716 631.28751,463.37318 630.53838,547.8479 L 629.69524,642.92409 L 383.49048,642.96959 C 248.07786,642.99461 128.50536,642.81694 117.77381,642.57478 z M 515.28596,493.96505 L 536.71128,483.36313 L 557.50221,484.2611 L 578.29313,485.15908 L 596.82013,494.1535 C 607.00999,499.10041 616.09236,503.1479 617.00318,503.1479 C 621.04623,503.1479 612.26932,465.99478 602.5015,441.76152 C 599.11686,433.36449 596.34762,425.81737 596.34762,424.99015 C 596.34762,424.16292 602.00264,416.02679 608.91434,406.90985 C 625.96639,384.41718 626.4063,383.65004 625.88498,377.3159 L 625.4381,371.886 L 609.38021,371.48388 L 593.32234,371.08177 L 586.56317,377.16007 C 582.84564,380.50314 574.27026,388.26286 567.5068,394.4039 C 553.03847,407.5407 556.89431,408.43324 532.02151,386.1898 L 515.23348,371.17647 L 501.15722,371.17647 L 487.08095,371.17647 L 487.08095,380.53208 L 487.08095,389.88768 L 502.57944,408.32007 L 518.07792,426.75245 L 506.37848,449.69542 C 495.85873,470.32496 487.08095,494.30692 487.08095,502.41865 C 487.08095,506.58142 493.95053,504.52246 515.28596,493.96505 z M 173.47143,487.6479 C 156.15908,486.90773 152.77696,486.30511 138.35,481.3901 L 122.38571,475.95134 L 122.38571,451.68076 C 122.38571,427.15883 124.6254,411.24208 128.68023,406.94756 C 129.96966,405.58192 137.6274,405.06274 158.68197,404.91349 C 191.68177,404.67958 218.32897,407.20577 220.19075,410.7446 C 220.85446,412.00618 222.19081,422.07499 223.1604,433.11975 L 224.9233,453.20112 L 215.79713,470.72451 L 206.67096,488.2479 L 199.64976,488.35742 C 195.78811,488.41766 184.00786,488.09838 173.47143,487.6479 z"
         id="path2404"
         style="fill:#8b6f51" />
      <path
         d="M 99.05325,640.9279 C 98.123157,639.42299 100.7077,567.36879 101.7524,565.67842 C 102.14082,565.04995 102.78351,550.60375 103.18061,533.57576 C 103.57771,516.54777 104.44161,502.07678 105.10038,501.418 C 105.75916,500.75922 114.86679,501.91397 125.33956,503.98411 C 144.17624,507.70752 144.83864,507.73837 186.95238,506.85248 C 210.36667,506.35995 231.42833,505.44162 233.75608,504.81175 L 237.98833,503.66654 L 241.33222,482.47627 C 246.36555,450.57977 246.26389,421.17284 241.02346,393.17171 C 238.83246,381.46457 236.62587,371.48314 236.11991,370.99078 C 235.61396,370.4984 208.14651,369.85983 175.08114,369.57173 L 114.96227,369.0479 L 111.22399,378.98124 L 107.48571,388.91457 L 107.07195,374.01457 C 106.56263,355.6739 107.09031,353.35609 112.08241,352.00618 C 114.23708,351.42354 143.45857,350.67395 177.01905,350.3404 L 238.0381,349.73396 L 251.70121,363.64807 L 265.36434,377.56219 L 266.82282,427.93838 C 267.625,455.64528 268.69994,479.35675 269.21158,480.63051 C 270.06276,482.7496 271.0692,482.70838 281.05187,480.14565 C 288.53188,478.22538 294.08105,477.62417 298.70238,478.23334 L 305.44286,479.12185 L 305.42919,431.18011 C 305.41991,398.58536 304.74476,377.10584 303.32013,364.08124 C 299.77957,331.71178 301.83747,335.98089 282.24393,320.35866 L 265,306.60981 L 187.00845,305.90028 L 109.01689,305.19076 L 109.44438,291.72068 C 109.6795,284.31213 110.17088,277.76677 110.53635,277.17544 C 110.90181,276.5841 148.38373,276.10028 193.82951,276.10028 L 276.45819,276.10028 L 294.8529,287.81479 C 304.97,294.25776 314.60104,300.48557 316.25521,301.65434 C 317.90938,302.82311 323.8886,313.0134 329.54239,324.29943 L 339.82198,344.81947 L 338.77274,402.17991 L 337.72349,459.54034 L 342.51413,458.63752 C 347.5114,457.69575 382.84478,444.84474 387.31098,442.34456 C 389.73624,440.98691 389.84808,437.55495 389.36102,379.43537 L 388.84585,317.96219 L 409.81641,298.09552 L 430.78696,278.22886 L 495.47443,277.16214 C 531.05254,276.57545 577.08405,276.25616 597.76667,276.45262 L 635.37143,276.80981 L 635.77526,305.19076 C 635.99738,320.80028 635.50857,351.13243 634.68901,372.59552 C 630.66724,477.92067 629.23789,540.95262 629.77368,589.35505 L 630.3588,642.21457 L 365.10362,642.21457 C 207.99277,642.21457 99.524246,641.69 99.05325,640.9279 z M 516.28423,494.2461 L 537.45714,483.92526 L 558.22583,484.93001 L 578.9945,485.93477 L 595.83059,494.35245 C 605.09043,498.98218 614.1723,503.2393 616.01251,503.81273 C 619.31483,504.84175 619.34584,504.75651 618.39579,497.26114 C 616.60339,483.1202 610.67786,460.88502 604.77557,446.15214 C 595.39747,422.74315 595.25795,425.76538 606.37905,411.41891 C 621.69154,391.66545 627.56847,382.5154 627.54494,378.46477 C 627.50297,371.23867 626.04052,370.55693 609.35643,369.98586 L 593.85007,369.45513 L 577.71551,384.38071 C 568.8415,392.58979 559.93964,400.59603 557.9336,402.17236 L 554.28624,405.0384 L 535.22884,388.10117 L 516.17143,371.16396 L 501.27143,371.52498 L 486.37143,371.886 L 485.95206,380.63562 L 485.53267,389.38524 L 494.50805,399.79276 C 499.44449,405.5169 506.60725,413.90932 510.42526,418.44258 L 517.36713,426.68486 L 505.77519,449.66163 C 494.93355,471.15119 487.08095,492.7909 487.08095,501.17808 C 487.08095,506.88951 493.44636,505.37855 516.28423,494.2461 z M 455.76146,413.36213 L 467.72293,407.36219 L 471.66914,387.68834 C 476.86127,361.803 477.69076,359.58393 484.09992,354.4334 L 489.54696,350.05604 L 511.66367,358.48769 C 523.82786,363.1251 535.43131,366.91933 537.44911,366.91933 C 542.40496,366.91933 549.48716,363.16272 572.93333,348.0974 C 606.43085,326.57358 631.00566,308.57181 628.79918,307.17402 C 627.73106,306.49736 586.88114,305.93396 538.02155,305.92201 L 449.18598,305.90028 L 435.47844,326.12171 L 421.77089,346.34314 L 421.78783,386.19472 C 421.79714,408.11311 422.16853,426.41009 422.61314,426.85469 C 423.64792,427.88948 440.36565,421.08476 455.76146,413.36213 z M 139.41429,481.37896 L 123.09524,475.41475 L 123.09524,449.19323 C 123.09524,428.273 123.59474,421.35844 125.56591,414.9921 C 127.7517,407.93259 128.54937,406.90994 132.48377,406.12305 C 145.7027,403.47926 216.39021,406.52701 219.74874,409.88554 C 220.28306,410.41985 221.65134,420.28783 222.78938,431.81437 L 224.85852,452.77171 L 215.83878,470.13254 L 206.81905,487.49337 L 181.27619,487.41827 L 155.73333,487.34317 L 139.41429,481.37896 z M 195.33546,447.45028 C 194.88625,437.88945 194.24342,429.19136 193.90695,428.12118 C 193.41271,426.54917 189.08488,426.28852 171.37751,426.76427 C 159.32279,427.08816 149.03336,427.77962 148.51213,428.30085 C 147.65052,429.16246 149.79397,451.47629 151.64658,460.93124 L 152.41122,464.83362 L 174.28172,464.83362 L 196.15224,464.83362 L 195.33546,447.45028 z M 139.88371,253.45099 C 123.36166,253.03025 109.46393,252.3047 108.99988,251.83867 C 108.53582,251.37264 108.65265,247.54121 109.2595,243.32438 L 110.36287,235.65743 L 373.22191,235.29891 L 636.08095,234.94039 L 636.08095,243.93434 L 636.08095,252.92829 L 520.90354,253.87143 C 395.42775,254.8989 187.74144,254.66973 139.88371,253.45099 z"
         id="path2402"
         style="fill:#7d6143" />
      <path
         d="M 99.236237,641.15028 C 98.899521,640.56493 98.943882,634.81778 99.334817,628.37886 L 100.04561,616.67171 L 365.22519,616.67171 L 630.40476,616.67171 L 630.40476,629.44314 L 630.40476,642.21457 L 365.12661,642.21457 C 219.22362,642.21457 99.572953,641.73564 99.236237,641.15028 z M 100.35807,595.33355 C 99.470068,593.89675 100.55807,575.75146 101.98749,568.15859 L 102.70534,564.34547 L 178.17648,563.77803 C 253.45264,563.21207 253.69344,563.20085 271.38571,559.43707 C 281.14167,557.36162 289.23458,555.66109 289.36996,555.6581 C 289.50533,555.65511 293.33676,546.23374 297.88424,534.72171 L 306.15238,513.79076 L 306.15238,445.67647 C 306.15238,387.65969 305.75791,374.37653 303.49143,356.07283 C 302.0279,344.25368 300.43148,334.01565 299.94381,333.32163 C 299.45614,332.62763 291.4196,326.04748 282.08484,318.69909 L 265.11253,305.33836 L 187.36341,304.72872 L 109.61429,304.11908 L 109.61429,298.11251 C 109.61429,294.80888 110.02037,289.14323 110.51669,285.52215 L 111.4191,278.93838 L 194.95351,278.93838 L 278.48793,278.93838 L 298.41207,291.35505 L 318.3362,303.77171 L 328.20858,323.1876 L 338.08095,342.60351 L 338.08095,432.37979 L 338.08095,522.15607 L 328.73434,545.82145 L 319.38771,569.48683 L 296.33978,583.14595 L 273.29184,596.80505 L 187.27967,596.80505 C 129.42537,596.80505 100.96978,596.32332 100.35807,595.33355 z M 465.60012,595.2899 C 461.20019,594.64035 452.57948,592.8681 446.44298,591.35155 C 440.30649,589.835 433.55655,588.20122 431.44313,587.72093 C 428.90944,587.14512 421.2964,580.03758 409.09313,566.85495 L 390.58571,546.86225 L 390.58571,432.40147 L 390.58571,317.94069 L 411.23334,298.43953 L 431.88095,278.93838 L 521.91905,278.62096 C 571.44,278.44638 617.22536,278.28674 623.66429,278.2662 L 635.37143,278.22886 L 635.77367,291.70981 L 636.17592,305.19076 L 542.29045,305.19076 L 448.40498,305.19076 L 434.32994,325.79171 L 420.25492,346.39267 L 421.25776,437.59788 L 422.26062,528.80309 L 433.55861,541.87312 C 439.77252,549.06163 445.68475,555.42491 446.69693,556.01374 C 447.70911,556.60258 455.7728,558.44148 464.61625,560.10017 C 479.35523,562.86466 486.86465,563.1697 554.72299,563.76042 L 628.75076,564.40484 L 629.71116,575.99304 C 630.23937,582.36655 630.45189,589.49695 630.18339,591.83838 L 629.69524,596.09552 L 551.64762,596.28322 C 508.72143,596.38644 470.00006,595.93946 465.60012,595.2899 z M 162.54339,531.56064 C 127.14726,531.10069 105.05979,530.28076 104.34618,529.40028 C 103.71363,528.61981 103.40835,522.07445 103.6678,514.85505 C 104.22348,499.39231 102.6127,500.14452 125.22662,504.78741 C 138.5699,507.52694 143.9723,507.81098 177.01905,507.51051 C 197.31143,507.326 219.33894,506.74786 225.96905,506.22576 L 238.02382,505.27647 L 239.69015,496.05266 C 247.05167,455.30366 247.49152,421.2512 241.07188,389.08043 C 239.06543,379.02545 237.15227,370.52716 236.82044,370.19533 C 236.48861,369.8635 208.84897,369.21119 175.39903,368.74576 L 114.58095,367.89952 L 111.8994,375.56895 C 107.35777,388.55829 106.33374,387.44725 107.30499,370.58418 C 107.79576,362.06341 108.4908,354.79837 108.84954,354.43963 C 111.09055,352.19863 128.27399,351.22415 179.14762,350.45303 L 236.61905,349.58192 L 250.41054,363.57205 L 264.20204,377.56219 L 266.43024,445.50281 C 267.65575,482.87015 268.47386,513.62222 268.24827,513.84075 C 268.02267,514.05927 259.29595,518.44778 248.85557,523.59299 C 234.52554,530.65508 228.61294,532.86875 224.73176,532.62493 C 221.90405,532.44731 193.91928,531.96838 162.54339,531.56064 z M 575.95825,513.03656 L 557.7897,495.96798 L 545.49486,507.23543 C 538.73268,513.43252 530.99937,520.79514 528.30972,523.59682 C 524.92255,527.12507 522.16681,528.69076 519.34404,528.69076 C 512.79171,528.69076 483.76603,524.21857 481.03519,522.78826 C 478.62146,521.52403 469.5849,504.77588 462.91271,489.20047 L 459.67342,481.63873 L 477.79845,463.47339 L 495.92348,445.30803 L 484.59281,429.17321 C 467.14349,404.32544 468.00579,408.02484 473.89712,383.28684 C 478.47114,364.08031 479.40331,361.65537 484.18155,356.53283 L 489.43607,350.89972 L 509.18946,358.76036 C 529.18522,366.71746 538.38687,368.81393 560.87143,370.53542 L 572.93333,371.45892 L 594.89112,360.67484 C 606.9679,354.74359 617.19442,349.89076 617.61673,349.89076 C 618.03904,349.89076 622.04697,354.95459 626.52324,361.14372 C 635.54877,373.62291 635.59584,373.86144 633.73893,397.71386 L 632.83297,409.35125 L 623.82068,420.41862 C 618.86392,426.50568 614.80544,432.05349 614.80182,432.74708 C 614.7982,433.44068 618.46702,438.4972 622.95476,443.98379 L 631.11429,453.95943 L 630.71839,479.61795 C 630.50063,493.73014 629.95928,508.53967 629.51537,512.52803 L 628.70829,519.7796 L 613.59224,524.31913 C 605.27841,526.81586 597.49757,529.13911 596.30149,529.48189 C 594.96427,529.86514 587.12995,523.53193 575.95825,513.03656 z M 516.69798,494.60634 L 537.09121,484.6216 L 557.82703,485.60136 L 578.56285,486.58113 L 597.03381,495.57297 C 607.19283,500.51848 616.30298,504.56529 617.27857,504.56589 C 622.05802,504.56877 615.86981,474.07854 605.48091,446.43713 C 601.23808,435.14835 597.76667,425.30924 597.76667,424.57245 C 597.76667,423.83566 604.47167,414.37604 612.66667,403.55109 C 627.04054,384.56431 628.25092,382.34161 627.59161,376.14314 C 626.98098,370.40216 625.03655,369.7549 608.59054,369.81822 L 592.8,369.87901 L 574.35238,386.84348 C 564.20619,396.17393 555.36331,403.80943 554.70152,403.81125 C 553.38852,403.81487 525.38671,379.44576 519.82646,373.46056 C 516.63079,370.02067 515.52114,369.7588 504.21693,369.7768 C 486.20627,369.80548 486.17905,369.82036 485.24195,380.15487 C 484.48886,388.46012 484.67568,389.16123 488.95783,394.09937 C 507.35965,415.32024 515.4619,425.52601 515.4619,427.48445 C 515.4619,428.73651 511.26599,437.67028 506.13767,447.33731 C 501.00934,457.00433 495.24314,469.40826 493.32388,474.90159 C 488.72987,488.05066 485.33785,502.8946 486.49814,504.77197 C 488.13479,507.42014 495.78868,504.84375 516.69798,494.60634 z M 150.76667,484.60949 C 146.47405,483.11265 138.2707,480.1985 132.53701,478.1336 L 122.11211,474.37922 L 122.70476,450.09451 C 123.12191,433.0008 124.03874,423.03385 125.80096,416.43511 L 128.30452,407.06043 L 141.17264,406.14702 C 161.10162,404.73242 179.5354,405.08283 200.20539,407.26917 C 210.61645,408.37038 219.36434,409.50113 219.64517,409.78195 C 219.92598,410.06278 221.07476,419.85035 222.19799,431.53212 L 224.24023,452.77171 L 214.968,470.15505 L 205.69577,487.53838 L 182.13361,487.43469 C 162.75485,487.34942 157.1857,486.84781 150.76667,484.60949 z M 196.66508,450.9979 C 196.32164,442.60778 195.72293,433.66778 195.3346,431.13124 L 194.62853,426.51933 L 170.56904,426.51933 C 142.58298,426.51933 145.35731,423.82662 148.6381,447.80505 C 149.75936,456.00005 150.69698,463.50326 150.72171,464.47886 C 150.7558,465.82393 156.38896,466.25266 174.02809,466.25266 L 197.28952,466.25266 L 196.66508,450.9979 z M 109.89489,244.52647 L 110.32381,237.07647 L 123.09524,236.16245 C 130.11952,235.65973 248.02112,235.1808 385.09878,235.09816 L 634.3309,234.9479 L 635.18654,238.14076 C 635.65715,239.89683 636.05093,243.72826 636.06158,246.65505 L 636.08095,251.97647 L 372.77346,251.97647 L 109.46597,251.97647 L 109.89489,244.52647 z"
         id="path2400"
         style="fill:#674c2d" />
      <path
         d="M 99.680952,629.44314 L 99.680952,618.09076 L 315.37619,617.74585 C 434.00857,617.55615 553.26179,617.39651 580.38333,617.39108 L 629.69524,617.38124 L 630.10739,629.08838 L 630.51953,640.79552 L 365.10024,640.79552 L 99.680952,640.79552 L 99.680952,629.44314 z M 102.04603,594.43996 C 100.86036,593.25429 100.83754,578.00572 102.01081,570.90743 L 102.89039,565.586 L 139.24519,565.47887 C 159.24034,565.41996 194.11857,564.81665 216.75238,564.13819 C 250.94665,563.11321 260.54405,562.35152 273.51429,559.63341 L 289.12381,556.36219 L 293.65307,547.13838 C 296.14416,542.06528 300.20108,532.48671 302.66845,525.85266 C 306.76838,514.82909 307.22063,511.92606 307.9222,492.12925 L 308.68985,470.46776 L 321.6116,466.43558 L 334.53333,462.40341 L 335.42973,466.10185 C 335.92274,468.13598 336.39223,480.33671 336.47303,493.21457 C 336.64415,520.48635 335.59705,525.98262 325.52398,550.686 L 318.5804,567.71457 L 296.04734,581.45047 L 273.51429,595.18637 L 188.25318,595.28618 C 141.35956,595.34109 102.56635,594.96028 102.04603,594.43996 z M 448.78395,590.4756 C 429.65953,586.0861 427.9268,585.41387 423.95062,580.84119 C 421.59968,578.13757 413.45012,569.21419 405.84048,561.01144 L 392.00476,546.09737 L 392.00476,493.59805 L 392.00476,441.09874 L 404.80581,435.73072 C 411.8464,432.77831 418.07247,430.82746 418.64152,431.39549 C 419.21059,431.96352 419.8679,454.20119 420.10223,480.81252 L 420.52827,529.19675 L 432.41016,542.91844 L 444.29204,556.64014 L 456.10793,558.9269 C 480.77835,563.70147 493.78778,564.50965 560.1619,565.39104 L 628.27619,566.29552 L 628.68059,580.84076 L 629.08501,595.386 L 549.21392,595.29017 L 469.34286,595.19436 L 448.78395,590.4756 z M 105.7119,529.17 C 103.0644,528.10171 103.36324,515.02452 106.0588,513.99014 C 109.98875,512.48207 144.10739,510.30295 186.95238,508.82354 C 210.36667,508.01507 231.5774,506.97889 234.08732,506.52094 C 238.84253,505.65333 239.38027,504.75804 240.85146,495.2595 L 241.74357,489.49967 L 253.68989,486.5903 C 260.26037,484.99015 265.97199,484.01671 266.38239,484.42712 C 266.7928,484.83752 267.12857,491.44766 267.12857,499.11633 L 267.12857,513.05935 L 250.12183,521.58458 L 233.11506,530.10981 L 170.3004,529.99777 C 135.75232,529.93616 106.6875,529.56366 105.7119,529.17 z"
         id="path2398"
         style="fill:#5d4223" />
    </g>
    <path
       d="M 12.120057,689.93361 C 12.869029,538.68361 13.500514,411.07647 13.523314,406.36218 C 13.546086,401.6479 12.910714,338.00504 12.111286,264.93361 C 11.311829,191.86218 11.369971,129.18361 12.240457,125.6479 C 13.820229,119.23155 13.938486,119.21938 74.483,119.25024 C 120.36931,119.27361 138.61274,120.33367 149.39006,123.6027 C 161.20571,127.18664 165.10671,127.30398 172.2472,124.29024 C 178.31163,121.7307 194.37263,120.89487 226.57143,121.46327 C 296.28491,122.69395 305.04534,122.65021 410.93723,120.54364 L 509.58866,118.58115 L 531.05751,126.2027 L 552.52637,133.82424 L 577.72569,126.52184 C 607.0752,118.01664 613.76297,117.62027 625.50109,123.6903 C 632.82437,127.47727 636.19,127.62575 647.50206,124.66087 C 654.84729,122.73564 676.61257,120.65015 695.86917,120.02644 L 730.8812,118.89235 L 729.57191,362.62727 C 728.19646,618.65487 728.18671,619.98184 727.50397,644.93361 C 726.87903,667.7701 727.63266,728.15584 729.50726,805.46947 C 731.14017,872.81307 731.11754,873.16464 724.942,876.4697 C 718.10326,880.12958 691.91457,878.18055 678.72917,873.03021 C 673.86931,871.13193 667.54189,864.12047 662.09091,854.59315 C 654.25851,840.9035 652.26649,839.21933 643.90723,839.21933 C 638.74409,839.21933 626.94551,843.06018 617.68834,847.75455 C 597.09597,858.19718 594.62929,858.29601 587.29603,848.97333 L 581.48389,841.58453 L 569.58237,853.97327 C 561.73409,862.14284 552.38311,868.21407 542.12603,871.7997 C 533.57106,874.79033 519.31409,880.84758 510.444,885.26024 C 501.57389,889.6729 486.26826,894.57941 476.4314,896.16358 C 466.13554,897.8217 453.90983,902.11213 447.62006,906.27447 C 431.16611,917.16321 427.01731,915.90964 415.21657,896.48353 C 403.69417,877.5157 406.68429,877.91784 376.57143,891.28647 C 367.92857,895.12347 354.20674,899.04855 346.07849,900.00884 C 330.30509,901.87238 292.86494,916.51664 284.48477,924.10058 C 281.70391,926.6173 279.42857,931.3415 279.42857,934.59884 C 279.42857,939.56484 278.01066,938.8011 270.64914,929.8703 C 265.82046,924.01227 260.19471,919.21933 258.14751,919.21933 C 256.10029,919.21933 246.982,922.51113 237.88457,926.53441 L 221.34386,933.84944 L 204.80489,927.66433 C 191.48697,922.68381 183.616,921.67644 164.39103,922.4921 C 143.29977,923.38701 139.4278,924.42121 131.18077,931.36301 C 118.68903,941.87767 111.81991,943.17655 96.781257,937.86744 C 84.345971,933.47733 84.008057,933.52315 76.624914,940.59664 C 70.226486,946.72667 66.456029,947.79075 51.132829,947.79075 C 34.835686,947.79075 32.399114,948.59435 25.142857,956.36218 C 20.739057,961.07647 15.700971,964.93361 13.947114,964.93361 C 11.612771,964.93361 11.123171,891.24513 12.120057,689.93361 z M 697.76843,698.50504 C 698.48657,694.96933 699.80777,631.00504 700.70437,556.36218 C 701.60094,481.71933 703.59677,395.57647 705.13951,364.93361 C 706.68223,334.29075 707.11209,275.46933 706.09471,234.21933 L 704.24494,159.21933 L 663.97951,159.13387 C 641.83369,159.08687 512.5,157.82461 376.57143,156.32887 C 240.64286,154.83313 110.62949,154.41895 87.6528,155.4085 L 45.877029,157.2077 L 43.900714,300.35633 C 42.813743,379.08813 40.715914,472.43361 39.238886,507.79075 C 37.761914,543.1479 35.710514,601.31387 34.680371,637.04847 L 32.807314,702.0205 L 169.68946,702.7911 C 244.97451,703.21498 394.29694,703.87044 501.517,704.2477 L 696.4626,704.93361 L 697.76843,698.50504 z"
       id="path3202"
       style="opacity:1;fill:#d2b49a;fill-opacity:1;stroke:none;stroke-width:0.5;stroke-linejoin:round;stroke-miterlimit:4;stroke-dasharray:none" />
  </g>
</svg>
