<?xml version="1.0" encoding="UTF-8" standalone="no"?>
<!-- Created with Inkscape (http://www.inkscape.org/) -->
<svg
   xmlns:svg="http://www.w3.org/2000/svg"
   xmlns="http://www.w3.org/2000/svg"
   version="1.0"
   width="48"
   height="48"
   id="svg7051">
  <defs
     id="defs7054" />
  <g
     id="g7080">
    <path
       d="M 31.5,46.78678 C 28.037577,45.568786 26,44.126487 26,42.893606 C 26,42.419778 27.704139,42.920348 29.786974,44.005983 C 34.889101,46.66536 42.244564,47.650039 43.613693,45.856973 C 44.893526,44.180851 47,36.972379 47,34.268839 C 47,33.169322 46.015763,31.018463 44.812807,29.489152 L 42.625614,26.708587 L 45.434106,28.548781 C 48.116527,30.306371 48.219414,30.660803 47.726143,36.444488 C 47.442092,39.77502 46.723646,43.7375 46.129595,45.25 C 45.134901,47.782566 44.632443,47.993758 39.774751,47.921053 C 36.873638,47.877632 33.15,47.367209 31.5,46.78678 z M 4.5,41 C 2.3375617,38.610533 2.8099498,38.498576 6.6356931,40.493839 C 10.240742,42.374002 17.022961,42.434913 19.519298,40.609547 C 21.137348,39.4264 21.247516,38.838654 20.258219,36.667385 C 19.329591,34.629268 19.402616,33.500212 20.621033,31.057838 C 22.235546,27.821471 22.748892,27.582059 25.668213,28.70396 C 27.26821,29.318843 27.184321,29.482563 25.005251,29.997806 C 22.076284,30.690362 21.298323,33.320387 23.052748,36.598561 C 24.15555,38.659165 24.019949,39.169748 21.901385,40.933854 C 18.428604,43.825602 7.0961183,43.868678 4.5,41 z M 36.024751,23.4349 C 37.430745,19.736856 37.214696,14.935286 35.493839,11.635693 C 33.51254,7.8367234 33.610033,7.3371094 35.924011,9.431231 C 38.679653,11.925053 39.402545,26.005873 36.774751,26.002328 C 35.336172,26.000387 35.211551,25.573778 36.024751,23.4349 z"
       id="path7094"
       style="fill:#cfcfcf" />
    <path
       d="M 34,45.831529 C 32.075,45.288077 30.05,44.362432 29.5,43.774539 C 28.799843,43.026144 29.099687,42.935418 30.5,43.47196 C 34.948252,45.176346 40.037566,46.199562 41.422781,45.668005 C 43.31436,44.942138 46.123981,35.522816 45.464851,32.116864 C 44.962305,29.520032 44.967588,29.517619 46.155044,31.80158 C 47.092496,33.604682 47.069093,35.22904 46.046988,39.30158 C 45.329418,42.160711 44.295195,45.0625 43.748713,45.75 C 42.594182,47.202456 38.963609,47.232819 34,45.831529 z M 7.25,40.968838 C 6.0125,40.471424 4.9989863,39.937448 4.9977472,39.782224 C 4.9965082,39.627001 8.1465082,39.649427 11.997747,39.832059 L 19,40.164118 L 19.06768,37.332059 L 19.135361,34.5 L 20.271524,36.864362 C 21.222359,38.843052 21.098583,39.454746 19.512714,40.614362 C 17.397325,42.161172 10.698149,42.354824 7.25,40.968838 z M 23.100391,36.704522 C 21.835473,34.598213 21.856783,34.576903 23.578723,36.22619 C 24.569949,37.175595 25.165703,38.16763 24.902621,38.430712 C 24.639539,38.693794 23.828536,37.917008 23.100391,36.704522 z M 2.4047896,22.5 C 2.4060552,13.7 2.5590396,10.233867 2.7447549,14.797482 C 2.9304702,19.361096 2.9294347,26.561096 2.7424537,30.797482 C 2.5554728,35.033867 2.4035239,31.3 2.4047896,22.5 z M 18.441365,32.5 C 18.89007,31.4 19.476784,29.4875 19.745173,28.25 C 20.27446,25.809547 20.7897,25.580367 22.833846,26.876149 C 23.907783,27.556917 23.859069,27.840103 22.583846,28.329452 C 21.712731,28.66373 21,29.571253 21,30.34617 C 21,31.121088 20.240746,32.372711 19.312769,33.127555 C 17.810898,34.349223 17.715165,34.280279 18.441365,32.5 z M 25.510081,27.983688 C 25.855545,27.424717 26.557102,27.226274 27.069098,27.542705 C 28.456142,28.399945 28.197509,29 26.440983,29 C 25.583524,29 25.164618,28.54266 25.510081,27.983688 z M 34.223794,25.823794 C 33.384106,24.984106 33.352848,24.279771 34.11454,23.361988 C 34.703752,22.652031 35.02892,19.393359 34.840747,16.084307 C 34.613491,12.087986 34.833066,10.426435 35.5,11.095657 C 36.63245,12.231994 36.62056,27 35.487196,27 C 35.439238,27 34.870707,26.470707 34.223794,25.823794 z"
       id="path7092"
       style="fill:#afafaf" />
    <path
       d="M 43.374939,39.466242 C 44.476492,35.934245 45.559398,33.226064 45.781396,33.448063 C 46.370883,34.03755 43.116686,44.80985 42.172919,45.39313 C 41.732477,45.665338 42.273386,42.998238 43.374939,39.466242 z M 6.8125,39.316886 C 7.534375,39.028015 8.396875,39.063542 8.7291667,39.395833 C 9.0614583,39.728125 8.4708333,39.964474 7.4166667,39.921053 C 6.2517237,39.873069 6.0147673,39.636112 6.8125,39.316886 z M 17,32.259017 C 17,31.631476 17.45,30.839919 18,30.5 C 18.55,30.160081 19,28.531966 19,26.881966 C 19,25.231966 19.416847,24.139592 19.926327,24.454468 C 20.489717,24.802662 20.496555,26.268615 19.943778,28.196033 C 18.97903,31.559915 17,34.291359 17,32.259017 z M 30,23.940878 C 27.647121,23.242997 27.688449,23.193494 30.702283,23.09968 L 33.904565,23 L 34.259603,16.75 L 34.614641,10.5 L 34.80732,16.627555 C 35.022331,23.465268 33.941262,25.109886 30,23.940878 z"
       id="path7090"
       style="fill:#8d9090" />
    <path
       d="M 10.75,39.294267 C 11.9875,39.055914 14.0125,39.055914 15.25,39.294267 C 16.4875,39.53262 15.475,39.727636 13,39.727636 C 10.525,39.727636 9.5125,39.53262 10.75,39.294267 z M 26.63617,24.494256 C 26.3208,23.672415 26.472089,23 26.972368,23 C 28.327922,23 29.169682,24.777097 28.121097,25.425158 C 27.619757,25.735003 26.95154,25.316097 26.63617,24.494256 z"
       id="path7088"
       style="fill:#7b8383" />
    <path
       d="M 24.564293,37.293128 C 24.021608,35.86793 24.136472,35.753066 25.124088,36.733333 C 25.807506,37.411667 26.114759,38.218574 25.806872,38.526461 C 25.498985,38.834349 24.939824,38.279349 24.564293,37.293128 z M 18.078947,36.416667 C 18.126931,35.251724 18.363888,35.014767 18.683114,35.8125 C 18.971985,36.534375 18.936458,37.396875 18.604167,37.729167 C 18.271875,38.061458 18.035526,37.470833 18.078947,36.416667 z M 14.218166,31.845503 C 14.429824,31.210529 15.615134,30.316592 16.85219,29.858975 C 18.279474,29.330988 18.87858,29.387445 18.491673,30.013473 C 18.156334,30.556063 17.206966,31 16.381966,31 C 15.556966,31 15.160081,31.45 15.5,32 C 15.839919,32.55 15.603976,33 14.975684,33 C 14.347391,33 14.006508,32.480476 14.218166,31.845503 z M 28.315355,27.078328 C 28.41691,25.746408 29.175,24.474649 30,24.252197 C 30.991104,23.984956 31.115167,24.128015 30.365682,24.673869 C 29.741807,25.128241 28.983717,26.4 28.681037,27.5 C 28.247104,29.077003 28.169762,28.98782 28.315355,27.078328 z M 36.8125,26.316886 C 37.534375,26.028015 38.396875,26.063542 38.729167,26.395833 C 39.061458,26.728125 38.470833,26.964474 37.416667,26.921053 C 36.251724,26.873069 36.014767,26.636112 36.8125,26.316886 z M 28.269032,22.307009 C 29.241999,22.053466 30.591999,22.07014 31.269032,22.344063 C 31.946064,22.617986 31.15,22.825431 29.5,22.805051 C 27.85,22.784672 27.296064,22.560553 28.269032,22.307009 z"
       id="path7086"
       style="fill:#6a7272" />
    <path
       d="M 30.80024,41.527009 C 28.215372,40.815223 25.866482,40.466852 25.580483,40.75285 C 25.294484,41.038849 25.243839,39.824071 25.467937,38.053344 C 25.772514,35.646719 25.533287,34.965117 24.520453,35.353778 C 22.902406,35.974681 21.870765,33.82714 22.948999,32.082521 C 23.369176,31.40266 24.565042,30.993468 25.606479,31.173205 C 27.004126,31.414419 27.750565,30.648892 28.456797,28.25 C 29.060157,26.200536 30.054194,25 31.14778,25 C 33.234846,25 34.496095,26.667968 32.82918,27.223607 C 31.284076,27.738641 32.69302,30 34.559017,30 C 35.351558,30 36,29.325 36,28.5 C 36,27.605746 36.919722,27 38.277494,27 C 40.95808,27 45.006594,29.59956 44.984687,31.306704 C 44.975445,32.02693 44.585076,31.905341 44,31 C 43.261647,29.857481 43.026976,29.820801 43.015313,30.846093 C 43.006891,31.586444 42.293069,34.623944 41.429042,37.596093 C 39.669193,43.64976 39.17406,43.832878 30.80024,41.527009 z M 3,21.973267 L 3,6.9465338 L 17.75,7.2232669 L 32.5,7.5 L 32.795127,14.225326 L 33.090255,20.950652 L 29.404076,20.725326 C 26.997265,20.578204 25.548291,20.98215 25.229217,21.889196 C 24.890175,22.853005 25.163024,23.023883 26.120268,22.447237 C 27.291011,21.741978 27.292115,21.872365 26.127555,23.308042 C 24.450775,25.375187 22.330921,25.473778 20.430161,23.573018 C 19.194185,22.337042 19.237209,22.084863 20.751589,21.689019 C 21.825366,21.408345 21.438897,21.187243 19.75,21.116001 C 17.269009,21.011347 17,21.330966 17,24.383369 C 17,26.972733 16.510232,27.894814 14.913026,28.312493 C 12.379791,28.974949 12.713043,32.570073 15.288315,32.361111 C 16.464975,32.265635 17,32.968922 17,34.611111 C 17,36.902116 16.713178,37 10,37 L 3,37 L 3,21.973267 z"
       id="path7084"
       style="fill:#505151" />
    <path
       d="M 33,43.338892 C 25.092887,41.212054 24.5911,39.935712 32.396258,41.803219 C 36.006154,42.666944 39.213589,43.119744 39.523891,42.809443 C 39.834192,42.499141 40.933864,39.377575 41.967605,35.872629 C 43.001347,32.367683 43.88153,30.555742 43.923568,31.846093 C 44.04483,35.568233 40.977217,45.009181 39.679042,44.909135 C 39.030569,44.85916 36.025,44.15255 33,43.338892 z M 3.5,38 C 3.1105061,37.369786 5.4651743,37 9.8676588,37 C 15.679815,37 16.930178,36.706015 17.310674,35.25 C 17.592036,34.173338 17.812631,34.558103 17.883999,36.25 C 17.999874,38.99701 17.992453,39 11.059017,39 C 7.2414763,39 3.8399187,38.55 3.5,38 z M 13.078947,30.65638 C 13.034209,29.611621 13.866622,28.586134 15,28.289749 C 16.50286,27.896742 17,26.925733 17,24.383369 C 17,21.343721 17.279376,21.00644 19.75,21.063386 C 22.453738,21.125706 22.460933,21.142437 20.177716,22.057902 C 18.605959,22.688104 17.914566,23.71797 18.038407,25.244515 C 18.360917,29.220005 18.040245,30 16.083333,30 C 15.029167,30 13.939693,30.5625 13.662281,31.25 C 13.374529,31.963125 13.123987,31.708165 13.078947,30.65638 z M 32,28 C 32,27.45 32.476558,27 33.059017,27 C 33.641476,27 33.839919,27.45 33.5,28 C 33.160081,28.55 32.683524,29 32.440983,29 C 32.198442,29 32,28.55 32,28 z M 23.165465,26.123425 C 22.150827,25.480255 22.330606,25.146807 23.915465,24.732357 C 25.298448,24.370699 26,24.660558 26,25.59362 C 26,27.1887 25.108785,27.355277 23.165465,26.123425 z M 25.356482,21.507402 C 25.555261,20.953331 27.335311,20.596605 29.312148,20.714677 L 32.906399,20.929354 L 33.26052,14.714677 L 33.614641,8.5 L 33.80732,15.149306 L 34,21.798613 L 29.497533,22.156708 C 26.75746,22.374635 25.136534,22.120478 25.356482,21.507402 z"
       id="path7082"
       style="fill:#334f4f" />
  </g>
</svg>
