<?xml version="1.0" encoding="UTF-8" standalone="no"?>
<!-- Created with Inkscape (http://www.inkscape.org/) -->

<svg
   xmlns:dc="http://purl.org/dc/elements/1.1/"
   xmlns:cc="http://creativecommons.org/ns#"
   xmlns:rdf="http://www.w3.org/1999/02/22-rdf-syntax-ns#"
   xmlns:svg="http://www.w3.org/2000/svg"
   xmlns="http://www.w3.org/2000/svg"
   xmlns:sodipodi="http://sodipodi.sourceforge.net/DTD/sodipodi-0.dtd"
   xmlns:inkscape="http://www.inkscape.org/namespaces/inkscape"
   id="svg2"
   sodipodi:version="0.32"
   inkscape:version="0.47 r22583"
   width="156"
   height="130"
   version="1.0"
   sodipodi:docname="spbordereffects.svg"
   inkscape:output_extension="org.inkscape.output.svg.inkscape">
  <metadata
     id="metadata7">
    <rdf:RDF>
      <cc:Work
         rdf:about="">
        <dc:format>image/svg+xml</dc:format>
        <dc:type
           rdf:resource="http://purl.org/dc/dcmitype/StillImage" />
        <dc:title></dc:title>
      </cc:Work>
    </rdf:RDF>
  </metadata>
  <defs
     id="defs5">
    <inkscape:perspective
       sodipodi:type="inkscape:persp3d"
       inkscape:vp_x="0 : 526.18109 : 1"
       inkscape:vp_y="0 : 1000 : 0"
       inkscape:vp_z="744.09448 : 526.18109 : 1"
       inkscape:persp3d-origin="372.04724 : 350.78739 : 1"
       id="perspective9" />
    <inkscape:perspective
       id="perspective2908"
       inkscape:persp3d-origin="0.5 : 0.33333333 : 1"
       inkscape:vp_z="1 : 0.5 : 1"
       inkscape:vp_y="0 : 1000 : 0"
       inkscape:vp_x="0 : 0.5 : 1"
       sodipodi:type="inkscape:persp3d" />
  </defs>
  <sodipodi:namedview
     inkscape:window-height="719"
     inkscape:window-width="1272"
     inkscape:pageshadow="2"
     inkscape:pageopacity="0.0"
     guidetolerance="10.0"
     gridtolerance="10.0"
     objecttolerance="10.0"
     borderopacity="1.0"
     bordercolor="#666666"
     pagecolor="#ffffff"
     id="base"
     showgrid="false"
     inkscape:zoom="3.4551282"
     inkscape:cx="41.67718"
     inkscape:cy="65"
     inkscape:window-x="0"
     inkscape:window-y="25"
     inkscape:current-layer="svg2"
     inkscape:window-maximized="0" />
  <g
     id="g2914"
     transform="translate(19.825601,-1.0371078)">
    <path
       style="fill:#f8f8fa"
       d="m -5.825603,66.037106 0,-64.0000004 64,0 64.000003,0 0,64.0000004 0,64.000004 -64.000003,0 -64,0 0,-64.000004 z m 49.029697,59.473124 c 2.303587,-2.08471 8.390143,-4.43517 11.544281,-4.45806 1.140687,-0.008 4.155143,1.46459 6.698791,3.27306 l 4.624813,3.28812 14.801209,-0.20274 c 12.825511,-0.17568 15.329989,-0.48111 18.762649,-2.28812 2.178793,-1.14696 5.441293,-2.08538 7.250003,-2.08538 3.01853,0 3.28856,-0.25734 3.28856,-3.13398 0,-1.72369 0.53323,-4.91375 1.18496,-7.08901 0.9307,-3.10643 0.91584,-4.38596 -0.0693,-5.9634 -1.85111,-2.9641 -0.50093,-3.47589 3.49408,-1.32444 2.90358,1.56368 3.68031,1.65954 4.37246,0.53962 1.07764,-1.74366 -0.12623,-4.86447 -3.87031,-10.033021 -3.961,-5.467998 -4.65904,-9.037044 -2.56099,-13.094224 1.50275,-2.906002 1.52243,-3.5134 0.18864,-5.822989 -0.81902,-1.418208 -1.79814,-4.716679 -2.17582,-7.329936 -0.65073,-4.502565 -0.54663,-4.804627 1.98788,-5.768246 2.29093,-0.87101 2.57508,-1.408711 1.98094,-3.748624 -1.94353,-7.654339 -1.79515,-10.130954 0.79108,-13.204524 3.9221,-4.661142 5.03112,-12.015525 3.30867,-21.941108 -1.09729,-6.323094 -2.04733,-8.909884 -4.03382,-10.98333 -1.49475,-1.560192 -2.59847,-3.866176 -2.59847,-5.4289501 0,-1.9351567 -0.72699,-3.0479566 -2.52701,-3.8681012 -2.09895,-0.956347 -3.48363,-0.7548837 -8.1744,1.1893347 -4.508393,1.8686214 -7.235293,2.301646 -13.520416,2.147001 C 81.893039,8.030088 79.017838,8.4551179 75.470212,10.024402 71.20038,11.913151 70.728379,11.94344 69.062242,10.435607 67.720495,9.2213425 66.299738,8.9827398 63.469009,9.4962761 57.976196,10.492754 46.625249,10.194654 39.549151,8.8680896 33.909192,7.8107602 33.149176,7.8895738 29.956325,9.8628645 26.852961,11.780849 25.343116,11.969199 15.581571,11.656085 9.582625,11.463662 3.4076022,10.795673 1.8592973,10.171665 -3.3429774,8.0750111 -3.825603,8.4959012 -3.825603,15.129377 c 0,4.578074 0.4970876,6.724215 2,8.634858 2.55681,3.250458 2.55681,7.45899 0,9.772871 -2.3516261,2.128192 -2.7515389,8.950781 -0.6694685,11.421259 0.7317923,0.868308 2.1219675,3.723983 3.0892782,6.345946 1.0868102,2.945873 3.0618275,5.761112 5.1694683,7.368688 3.920094,2.990001 4.18764,4.671101 1.410722,8.864107 -1.092752,1.65 -1.989787,4.045427 -1.993411,5.32317 -0.00408,1.439901 -1.5273895,3.688421 -4.006589,5.914045 -4.7094398,4.227752 -4.9099545,5.930631 -1.3345206,11.333477 2.636855,3.984557 2.6524882,4.112676 1.455746,11.930302 -0.6653534,4.34637 -1.9199264,9.98679 -2.7879399,12.53427 -2.0079106,5.89289 -0.851028,8.80874 4.1497434,10.45914 3.2585411,1.07541 4.1441541,0.92673 8.9435571,-1.50155 4.385625,-2.21892 5.702065,-2.49437 7.450149,-1.55882 1.167796,0.62499 2.123265,1.7055 2.123265,2.40115 0,2.61348 2.239309,3.25098 10.98191,3.12638 7.243079,-0.10322 9.39204,-0.49001 11.047787,-1.98844 z m 9.655177,-44.268841 c -1.616044,-1.785708 -1.541367,-2.243433 1.434732,-8.79402 2.914229,-6.414408 3.205016,-6.734321 4.052427,-4.458329 0.502105,1.348563 0.781305,5.173563 0.620443,8.5 -0.252704,5.225635 -0.571944,6.088048 -2.347651,6.342086 -1.130346,0.161711 -2.822324,-0.55367 -3.759951,-1.589737 z M 21.674397,80.076954 c -1.851217,-0.758612 -1.786244,-0.903815 0.873395,-1.951879 2.908521,-1.146138 9.626605,-0.51339 9.626605,0.906691 0,1.784801 -6.995803,2.481176 -10.5,1.045188 z m 49,-6.739072 c -3.297524,-1.779728 -5.580379,-4.300171 -5.165406,-5.702998 0.146788,-0.496222 2.269054,-1.46591 4.716147,-2.154862 2.447092,-0.688953 5.537661,-1.592786 6.867929,-2.008518 2.116401,-0.661413 2.315524,-0.517086 1.593318,1.154862 -0.453944,1.050907 -1.307158,3.82324 -1.896031,6.16074 -1.180712,4.686773 -1.732178,4.916773 -6.115957,2.550776 z M 32.522793,71.871753 c -2.249035,-2.894581 -2.342865,-3.767239 -0.510504,-4.747889 1.993903,-1.067105 13.162108,1.432271 13.162108,2.9456 0,2.045898 -11.220394,3.644304 -12.651604,1.802289 z m 69.172867,-8.734611 c 1.40739,-1.436739 4.87073,-1.816047 5.47874,-0.600036 0.275,0.55 -1.075,1.144583 -3,1.321297 -2.41823,0.221991 -3.18435,-9.35e-4 -2.47874,-0.721261 z M 88.841064,57.370439 c -1.074992,-1.074992 -0.765881,-4.153982 0.495285,-4.933425 1.133946,-0.700817 4.838048,2.90592 4.838048,4.710876 0,1.030573 -4.344042,1.211841 -5.333333,0.222549 z"
       id="path2930" />
    <path
       style="fill:#cbcde7"
       d="m 22.169253,126.63197 c -0.547171,-0.54717 -0.994856,-1.56403 -0.994856,-2.25968 0,-0.69565 -0.955469,-1.77616 -2.123265,-2.40115 -1.748084,-0.93555 -3.064524,-0.6601 -7.450149,1.55882 -4.799403,2.42828 -5.685016,2.57696 -8.9435571,1.50155 -5.0007714,-1.6504 -6.157654,-4.56625 -4.1497434,-10.45914 0.8680135,-2.54748 2.1225865,-8.1879 2.7879399,-12.53427 1.1967422,-7.817626 1.181109,-7.945745 -1.455746,-11.930302 C -3.7355575,84.704952 -3.5350428,83.002073 1.174397,78.774321 3.6535965,76.548697 5.176902,74.300177 5.180986,72.860276 5.18461,71.582533 6.081645,69.187106 7.174397,67.537106 9.951315,63.3441 9.683769,61.663 5.763675,58.672999 3.6560342,57.065423 1.6810169,54.250184 0.5942067,51.304311 -0.373104,48.682348 -1.8094588,45.775645 -2.5976929,44.84497 c -0.788234,-0.930675 -1.1974995,-2.280675 -0.9094788,-3 0.4032888,-1.007205 0.5418228,-0.981137 0.6026213,0.113395 0.043421,0.781693 0.6776866,2.131693 1.4094789,3 0.7317923,0.868308 2.1267404,3.736481 3.0998846,6.373718 1.4143802,3.832994 2.3280871,4.906724 4.5543479,5.351976 1.70768,0.341536 3.893303,2.084505 5.650115,4.505799 1.575817,2.17184 3.663394,5.023125 4.639061,6.336188 1.970523,2.651952 12.408975,8.161478 13.464007,7.106447 0.369444,-0.369445 0.139185,-2.082554 -0.511686,-3.806909 -1.451612,-3.845761 -0.199958,-5.788478 3.729402,-5.788478 4.085395,0 14.044337,2.16722 14.044337,3.056265 0,2.450789 -1.613758,3.965192 -4.846551,4.54816 -5.331706,0.961465 -7.163575,2.174864 -8.644648,5.726066 -2.890309,6.930157 0.04179,26.419633 4.377884,29.099483 2.770668,1.71236 0.916727,2.82533 -3.779793,2.2691 -5.799166,-0.68683 -6.631077,-0.14802 -4.587347,2.9711 1.472356,2.2471 1.428096,2.32941 -1.246492,2.31796 -3.677312,-0.0157 -11.985463,-2.2691 -15.973393,-4.33236 -1.760187,-0.91067 -4.122687,-1.65577 -5.25,-1.65577 -2.99881,0 -2.672109,3.75927 0.45034,5.18195 1.375,0.6265 2.5,1.72602 2.5,2.44338 0,2.47393 3.902785,3.37472 14.684259,3.38922 6.976931,0.009 12.337456,0.54461 15.103132,1.50796 3.983726,1.38764 4.599579,1.35119 8.695136,-0.51455 4.772822,-2.17427 8.170645,-2.51286 10.49108,-1.04543 0.810484,0.51254 1.710484,0.5595 2,0.10436 0.289516,-0.45515 7.726393,-1.35615 16.526393,-2.00223 8.8,-0.64607 18.38701,-1.63692 21.30447,-2.20188 9.403463,-1.82095 15.813573,-7.86573 9.185313,-8.66182 -1.36938,-0.16446 -3.16478,-0.57488 -3.98978,-0.91204 -0.825,-0.33715 -7.207313,-0.49487 -14.182919,-0.35049 -6.975604,0.14439 -13.132018,-0.015 -13.680919,-0.35428 -0.605777,-0.37439 0.107001,-3.05107 1.813633,-6.810716 2.047435,-4.510411 3.523557,-6.431223 5.430919,-7.06701 2.487135,-0.829045 3.664188,-2.706428 1.696835,-2.706428 -0.507346,0 -1.437384,-1.560273 -2.066751,-3.467274 -1.316614,-3.989377 -5.266305,-7.615031 -12.028566,-11.041728 -2.60296,-1.31902 -5.014914,-3.206593 -5.359898,-4.194608 -0.559939,-1.603631 -0.492852,-1.625099 0.625209,-0.200065 1.35332,1.724884 6.994877,4.903675 8.702794,4.903675 0.577313,0 1.04966,-0.914453 1.04966,-2.032119 0,-1.117665 0.680907,-3.661758 1.513127,-5.65354 0.832219,-1.991782 1.323907,-3.81064 1.09264,-4.041908 -0.443951,-0.443951 -9.879705,2.401635 -12.855767,3.876977 -1.207451,0.598576 -1.75,0.470356 -1.75,-0.413576 0,-0.704612 1.9125,-1.778548 4.25,-2.386524 2.3375,-0.607976 6.905881,-2.24423 10.151958,-3.636121 4.641375,-1.990184 6.199124,-3.237463 7.293273,-5.839678 1.348112,-3.206212 2.900212,-4.826567 4.653559,-4.858198 1.316792,-0.02376 6.76464,6.152835 7.77818,8.81864 0.83379,2.193038 1.28094,2.331965 5.479293,1.702383 3.62216,-0.543176 4.97317,-0.321938 6.5062,1.065441 2.65978,2.407064 4.32982,0.691715 2.9247,-3.004037 -1.59037,-4.182995 -1.31104,-10.55541 0.49303,-11.247699 0.8416,-0.322953 2.17359,-1.77133 2.95996,-3.218615 0.78638,-1.447284 1.44779,-2.103452 1.46981,-1.458151 0.022,0.645301 -1.13149,2.565555 -2.56335,4.26723 -2.66515,3.16735 -2.822,5.580134 -0.86406,13.291249 0.59414,2.339913 0.30999,2.877614 -1.98094,3.748624 -2.53451,0.963619 -2.63861,1.265681 -1.98788,5.768246 0.37768,2.613257 1.3568,5.911728 2.17582,7.329936 1.33379,2.309589 1.31411,2.916987 -0.18864,5.822989 -2.09805,4.05718 -1.40001,7.626226 2.56099,13.094224 3.74408,5.168551 4.94795,8.289361 3.87031,10.033021 -0.69215,1.11992 -1.46888,1.02406 -4.37246,-0.53962 -3.99501,-2.15145 -5.34519,-1.63966 -3.49408,1.32444 0.98513,1.57744 0.99999,2.85697 0.0693,5.9634 -0.65174,2.17526 -1.18497,5.36532 -1.18497,7.08901 0,2.87664 -0.27003,3.13398 -3.28856,3.13398 -1.80871,0 -5.07121,0.93842 -7.250003,2.08538 -3.43266,1.80701 -5.937138,2.11244 -18.762649,2.28812 l -14.801209,0.20274 -4.624813,-3.28812 c -2.543648,-1.80847 -5.558104,-3.28134 -6.698791,-3.27306 -3.154138,0.0229 -9.240694,2.37335 -11.544281,4.45806 -1.655747,1.49843 -3.804708,1.88522 -11.047787,1.98844 -4.945709,0.0705 -9.439883,-0.31953 -9.987054,-0.8667 z m 3.811888,-34.818105 c 0.4296,-2.246082 -4.599749,-5.357862 -12.09657,-7.48444 C 9.907751,83.201344 8.253957,82.272161 8.603186,81.362083 9.348078,79.420925 8.18361,77.037106 6.490485,77.037106 c -2.007909,0 -7.316088,5.455188 -7.316088,7.518706 0,2.346767 3.8323236,7.466105 6.373596,8.51405 1.169522,0.482276 6.171262,0.784701 11.114977,0.672055 7.614917,-0.173511 9.038942,-0.468161 9.318171,-1.928052 z m 85.834739,-11.28486 c 0.31829,-0.829455 -0.0958,-2.966955 -0.92015,-4.75 -0.82438,-1.783044 -1.79046,-4.210975 -2.14686,-5.395402 -0.35639,-1.184426 -2.31895,-2.893301 -4.36123,-3.7975 -2.04228,-0.9042 -4.388243,-2.08167 -5.213243,-2.616602 -3.48486,-2.259589 -8.350035,-4.02355 -10.311272,-3.738545 -3.737023,0.543062 -4.922725,10.82974 -1.937174,16.80615 2.054622,4.112895 4.015438,4.710038 16.029829,4.881685 6.53552,0.09337 8.40339,-0.19962 8.8601,-1.389786 z M 29.924397,80.40682 c 1.2375,-0.331637 2.25,-0.950412 2.25,-1.375054 0,-1.420081 -6.718084,-2.052829 -9.626605,-0.906691 -2.659639,1.048064 -2.724612,1.193267 -0.873395,1.951879 2.463334,1.009452 5.292088,1.122556 8.25,0.329866 z m 13.877849,-9.057148 c 2.587746,-0.993011 1.365788,-2.035683 -4.261949,-3.636635 -5.86767,-1.669207 -10.160269,-0.871306 -8.738208,1.624242 1.996669,3.503916 2.801715,3.862521 7.192853,3.204029 2.439334,-0.365801 5.052621,-0.902037 5.807304,-1.191636 z M 107.1744,62.537106 c -0.60801,-1.216011 -4.07135,-0.836703 -5.47874,0.600036 -0.70561,0.720326 0.0605,0.943252 2.47874,0.721261 1.925,-0.176714 3.275,-0.771297 3,-1.321297 z M 94.174397,57.14789 c 0,-1.804956 -3.704102,-5.411693 -4.838048,-4.710876 -1.261166,0.779443 -1.570277,3.858433 -0.495285,4.933425 0.989291,0.989292 5.333333,0.808024 5.333333,-0.222549 z M 45.225496,91.610038 c -2.656956,-1.471417 -3.870802,-3.738291 -3.980814,-7.434223 -0.0639,-2.146835 0.235012,-2.304017 3.291226,-1.730668 3.979017,0.746469 4.30612,0.403024 8.007984,-8.408041 4.80061,-11.42627 5.081183,-11.518058 8.380505,-2.741658 3.436736,9.141929 3.069736,13.157217 -1.632353,17.859305 -3.195657,3.195657 -4.566448,3.876085 -7.75,3.846918 -2.127206,-0.01949 -4.969652,-0.645724 -6.316548,-1.391633 z M 58.966873,76.48904 c 0.160862,-3.326437 -0.118338,-7.151437 -0.620443,-8.5 -0.847411,-2.275992 -1.138198,-1.956079 -4.052427,4.458329 -2.976099,6.550587 -3.050776,7.008312 -1.434732,8.79402 0.937627,1.036067 2.629605,1.751448 3.759951,1.589737 1.775707,-0.254038 2.094947,-1.116451 2.347651,-6.342086 z m 11.707524,4.548066 c -0.339919,-0.55 0.08352,-1 0.940983,-1 0.857459,0 1.559017,0.45 1.559017,1 0,0.55 -0.423442,1 -0.940983,1 -0.517541,0 -1.219098,-0.45 -1.559017,-1 z M 11.866499,46.938708 c 1.729704,-1.759805 3.199155,-2.19216 6.966256,-2.049671 4.25065,0.160779 7.463327,1.441357 6.274975,2.501213 -0.238333,0.212563 -3.808333,0.69973 -7.933333,1.082593 l -7.5,0.696116 2.192102,-2.230251 z M 118.25335,39.453773 c 0.048,-1.164943 0.28494,-1.4019 0.60416,-0.604167 0.28887,0.721875 0.25335,1.584375 -0.0789,1.916667 -0.3323,0.332291 -0.56864,-0.258334 -0.52522,-1.3125 z M -3.825603,36.268819 c 0,-0.506956 0.9,-1.736227 2,-2.731713 2.55681,-2.313881 2.55681,-6.522413 0,-9.772871 -2.836912,-3.606549 -2.4834541,-4.54083 0.5,-1.32163 3.25556,3.512808 3.25556,7.907857 0,11.77687 -1.375,1.634095 -2.5,2.5563 -2.5,2.049344 z M 118.76717,31.024927 c -0.36569,-2.756699 -0.90764,-5.794199 -1.20433,-6.75 -0.46281,-1.490936 -0.39526,-1.5172 0.47547,-0.184866 1.09276,1.672044 2.72147,11.947045 1.89375,11.947045 -0.275,0 -0.7992,-2.255481 -1.16489,-5.012179 z M 117.1744,19.571902 c 0,-0.805862 -1.28806,-2.943362 -2.86235,-4.75 -2.56925,-2.948442 -4.97832,-10.4223911 -2.95671,-9.1729668 0.45048,0.2784124 0.81906,1.65774 0.81906,3.0651724 0,1.4173394 1.33839,4.0833044 3,5.9757794 2.63418,3.000168 3.9525,6.347219 2.5,6.347219 -0.275,0 -0.5,-0.659342 -0.5,-1.465204 z M 9.674397,12.037106 c 1.65,-0.419854 4.125,-0.763371 5.5,-0.763371 2.230007,0 2.176008,0.08244 -0.5,0.763371 -1.65,0.419854 -4.125,0.76337 -5.5,0.76337 -2.230007,0 -2.176008,-0.08244 0.5,-0.76337 z m 13,0.09936 c 2.75,-0.340475 6.112628,-1.402116 7.472506,-2.3592026 1.359879,-0.9570868 2.934879,-1.7378523 3.5,-1.7350344 0.565122,0.00282 -0.772506,1.1137735 -2.972506,2.46879 -2.821874,1.73804 -5.325392,2.431391 -8.5,2.354079 l -4.5,-0.109588 5,-0.619044 z m 45.639216,-1.13263 C 67.015182,9.9221344 66.304749,9.0371056 66.734872,9.0371056 c 0.430124,0 1.56406,0.7077151 2.519858,1.5727004 1.580427,1.430267 2.013249,1.430267 4.77908,0 4.340158,-2.244383 5.337862,-1.8706114 1.140587,0.4273 -4.296324,2.352138 -3.995688,2.353596 -6.860784,-0.03327 z M 52.986897,10.353992 c 0.721875,-0.288871 1.584375,-0.253345 1.916667,0.07895 0.332291,0.332291 -0.258334,0.56864 -1.3125,0.525219 -1.164943,-0.04798 -1.4019,-0.28494 -0.604167,-0.604166 z m 7.1875,-0.316886 c 0.825,-0.5331563 1.95,-0.9693749 2.5,-0.9693749 0.55,0 0.325,0.4362186 -0.5,0.9693749 -0.825,0.533156 -1.95,0.969374 -2.5,0.969374 -0.55,0 -0.325,-0.436218 0.5,-0.969374 z m -63.25,-0.6622811 c 0.6875,-0.2774123 1.8125,-0.2774123 2.5,0 0.6875,0.2774123 0.125,0.504386 -1.25,0.504386 -1.375,0 -1.9375,-0.2269737 -1.25,-0.504386 z m 43.0625,-0.020833 c 0.721875,-0.2888706 1.584375,-0.2533443 1.916667,0.078947 0.332291,0.3322917 -0.258334,0.5686401 -1.3125,0.5252193 -1.164943,-0.047984 -1.4019,-0.28494 -0.604167,-0.6041663 z m 39.9375,-0.9791667 c 0.6875,-0.2774123 1.8125,-0.2774123 2.5,0 0.6875,0.2774123 0.125,0.504386 -1.25,0.504386 -1.375,0 -1.9375,-0.2269737 -1.25,-0.504386 z m 9.0625,-0.020833 c 0.721875,-0.2888706 1.584375,-0.2533443 1.916667,0.078947 0.332291,0.3322917 -0.258334,0.5686404 -1.3125,0.5252193 -1.164943,-0.047984 -1.4019,-0.2849403 -0.604167,-0.6041666 z m 6.6875,-0.2455992 c 1.65,-0.3981944 3.98292,-1.2521317 5.184263,-1.8976385 1.20134,-0.6455067 2.55134,-1.1547866 3,-1.1317331 2.07848,0.1067994 -6.483743,3.8670125 -8.684263,3.8138075 -2.258301,-0.054602 -2.209961,-0.1304412 0.5,-0.7844359 z M 105.9244,4.3748249 c 0.6875,-0.2774123 1.8125,-0.2774123 2.5,0 0.6875,0.2774123 0.125,0.504386 -1.25,0.504386 -1.375,0 -1.9375,-0.2269737 -1.25,-0.504386 z"
       id="path2928" />
    <path
       style="fill:#a5aed2"
       d="m 39.674397,121.50827 c -2.538529,-0.91453 -7.951723,-1.44655 -14.815741,-1.4561 -10.78162,-0.015 -14.684259,-0.9159 -14.684259,-3.38973 0,-0.71736 -1.125,-1.81688 -2.5,-2.44338 -3.122449,-1.42268 -3.44915,-5.18195 -0.45034,-5.18195 1.127313,0 3.489813,0.7451 5.25,1.65577 3.98793,2.06326 12.296081,4.31662 15.973393,4.33236 2.674588,0.0114 2.718848,-0.0709 1.246492,-2.31796 -2.04373,-3.11912 -1.211819,-3.65793 4.587347,-2.9711 4.69652,0.55623 6.550461,-0.55674 3.779793,-2.2691 -4.336091,-2.67985 -7.268193,-22.169326 -4.377884,-29.099483 1.307043,-3.133927 4.12454,-5.367236 6.675458,-5.291349 0.723657,0.02153 -0.118645,0.662984 -1.871784,1.425457 -4.64233,2.019038 -6.369323,8.041055 -3.644163,12.707174 1.066985,1.82693 2.703108,3.468657 3.63583,3.648283 1.444174,0.278122 1.695858,-0.574758 1.695858,-5.746732 0,-6.425895 0.346011,-6.882551 3.44113,-4.541521 1.067621,0.807509 2.417621,1.467706 3,1.467105 0.582378,-6e-4 2.601913,-3.4881 4.487854,-7.75 5.529574,-12.495875 9.071016,-16.513025 9.071016,-10.289489 0,3.356295 6.283564,18.301769 7.924647,18.848797 0.591444,0.197148 1.075353,-0.504049 1.075353,-1.558216 0,-2.70105 0.956906,-3.343431 3.195666,-2.145283 1.50742,0.806747 1.791071,1.679184 1.289062,3.964817 -0.576329,2.62401 -0.385078,2.930466 1.828828,2.930466 1.359856,0 2.731488,0.675 3.04807,1.5 0.938162,2.444809 3.638374,1.789019 3.638374,-0.883638 0,-2.788322 -5.877866,-8.493082 -11.934333,-11.582861 -3.817099,-1.947339 -7.065667,-6.248944 -7.065667,-9.356033 0,-0.886215 1.511074,-1.663482 4.01116,-2.063262 6.391654,-1.022067 15.066366,-5.986505 17.983954,-10.292011 3.802469,-5.61133 5.868708,-5.417473 11.673366,1.095211 4.661613,5.230206 5.118793,5.491373 8.618673,4.923422 2.22892,-0.361705 4.25786,-0.133401 5.11165,0.575185 1.19908,0.995149 1.39166,0.157516 1.25847,-5.473675 -0.14457,-6.111787 0.0446,-6.767871 2.34273,-8.125451 2.48369,-1.467193 2.48533,-1.465725 0.25,0.225116 -2.50575,1.895392 -3.0435,7.240732 -1.21284,12.055737 1.40512,3.695752 -0.26492,5.411101 -2.9247,3.004037 -1.53303,-1.387379 -2.88404,-1.608617 -6.5062,-1.065441 -4.198353,0.629582 -4.645503,0.490655 -5.479293,-1.702383 -1.01354,-2.665805 -6.461388,-8.842396 -7.77818,-8.81864 -1.753347,0.03163 -3.305447,1.651986 -4.653559,4.858198 -1.096577,2.607989 -2.641598,3.840925 -7.293273,5.820075 -3.246077,1.381109 -7.701958,3.008225 -9.901958,3.615814 -5.175785,1.429431 -4.967424,1.147925 -3.489883,4.715024 0.855225,2.064696 2.841592,3.880216 5.992046,5.476672 6.742884,3.416878 10.693193,7.045795 12.008638,11.03163 0.629367,1.907001 1.559405,3.467274 2.066751,3.467274 1.967353,0 0.7903,1.877383 -1.696835,2.706428 -1.907362,0.635787 -3.383484,2.556599 -5.430919,7.06701 -1.706632,3.759646 -2.41941,6.436326 -1.813633,6.810716 0.548901,0.33924 6.705315,0.49867 13.680919,0.35428 6.975606,-0.14438 13.357919,0.0133 14.182919,0.35049 0.825,0.33716 2.6204,0.74758 3.98978,0.91204 6.62826,0.79609 0.21815,6.84087 -9.185313,8.66182 -2.91746,0.56496 -12.50447,1.55581 -21.30447,2.20188 -8.8,0.64608 -16.236877,1.54708 -16.526393,2.00223 -0.289516,0.45514 -1.189516,0.40818 -2,-0.10436 -2.294397,-1.45097 -6.102949,-1.07371 -10.473607,1.03747 -4.751605,2.29519 -4.04032,2.25795 -9,0.47116 z m 7.479244,-1.22116 c -0.02522,-0.91132 -11.386176,-8.25 -12.771764,-8.25 -0.541892,0 -0.922758,0.7875 -0.846369,1.75 0.111713,1.40758 -0.810708,1.81046 -4.714187,2.059 -2.669192,0.16995 -6.899411,-0.12744 -9.400488,-0.66087 -5.049775,-1.07701 -7.246436,-0.63478 -7.246436,1.45886 0,0.83092 1.109642,1.42973 2.75,1.484 1.5125,0.05 7.025,0.18599 12.25,0.30208 5.225,0.1161 10.4,0.73647 11.5,1.3786 2.223217,1.29782 8.511741,1.65257 8.479244,0.47833 z m 40.435719,-4.31582 c 6.553229,-0.57486 13.30323,-1.67131 15,-2.43656 3.91519,-1.76577 7.11117,-4.30483 6.36182,-5.05417 -0.31746,-0.31747 -7.89912,-0.7975 -16.848132,-1.06674 -8.949004,-0.26923 -17.064323,-0.91414 -18.034042,-1.43311 -0.96972,-0.51898 -2.950078,-0.9436 -4.400798,-0.9436 -1.450719,0 -4.601389,-1.15082 -7.001488,-2.55737 -3.316271,-1.94347 -5.159412,-2.40861 -7.67807,-1.93766 -4.849789,0.90683 -12.883554,-1.208117 -16.034707,-4.221246 -2.430889,-2.324415 -2.791272,-2.416745 -3.385796,-0.867442 -1.834165,4.779758 6.670579,16.957218 14.10625,20.197938 3.711214,1.61747 21.419951,1.76691 37.914963,0.31996 z M 59.292044,89.154753 c 4.702089,-4.702088 5.069089,-8.717376 1.632353,-17.859305 -3.299322,-8.7764 -3.579895,-8.684612 -8.380505,2.741658 -3.701864,8.811065 -4.028967,9.15451 -8.007984,8.408041 -3.056214,-0.573349 -3.355128,-0.416167 -3.291226,1.730668 0.172218,5.785792 3.648063,8.764935 10.297362,8.825856 3.183552,0.02917 4.554343,-0.651261 7.75,-3.846918 z m 13.882353,-8.117647 c 0,-0.55 -0.701558,-1 -1.559017,-1 -0.857459,0 -1.280902,0.45 -0.940983,1 0.339919,0.55 1.041476,1 1.559017,1 0.517541,0 0.940983,-0.45 0.940983,-1 z M 5.547993,93.069862 c -2.5412724,-1.047945 -6.373596,-6.167283 -6.373596,-8.51405 0,-2.063518 5.308179,-7.518706 7.316088,-7.518706 1.693125,0 2.857593,2.383819 2.112701,4.324977 -0.349229,0.910078 1.304565,1.839261 5.281385,2.967342 7.496821,2.126578 12.52617,5.238358 12.09657,7.48444 -0.279229,1.459891 -1.703254,1.754541 -9.318171,1.928052 C 11.719255,93.854563 6.717515,93.552138 5.547993,93.069862 z M 91.674397,81.168791 C 86.498199,80.078882 83.78118,71.29634 86.065072,63.037106 c 1.081159,-3.909796 6.203299,-3.545486 13.109325,0.932395 0.825,0.534932 3.170963,1.712402 5.213243,2.616602 2.04228,0.904199 4.00484,2.613074 4.36123,3.7975 0.3564,1.184427 1.32248,3.612358 2.14686,5.395402 2.5217,5.454194 1.4614,6.274102 -7.93995,6.139786 -4.554763,-0.06507 -9.631383,-0.402573 -11.281383,-0.75 z M 110.1744,78.732887 c 0,-0.717321 -1.34012,-3.417363 -2.97803,-6.000093 -2.19897,-3.467402 -4.41531,-5.400777 -8.472063,-7.390393 -3.02171,-1.481985 -5.777442,-2.411096 -6.123849,-2.06469 -1.187637,1.187638 2.626669,10.435753 5.350669,12.973154 3.236923,3.015184 4.658433,3.60248 8.973273,3.707294 2.04575,0.04969 3.25,-0.404318 3.25,-1.225272 z M 23.374394,72.449478 C 20.518413,71.026283 17.392558,68.799132 16.428049,67.500255 15.463541,66.201377 13.385093,63.361698 11.809276,61.189858 10.052464,58.768564 7.866841,57.025595 6.159161,56.684059 3.9329002,56.238807 3.0191933,55.165077 1.6048131,51.332083 0.6316689,48.694846 -0.7632792,45.826673 -1.4950715,44.958365 -2.2268638,44.090058 -2.825603,42.97743 -2.825603,42.485859 c 0,-1.615491 3.4681153,3.931526 5.0226881,8.033452 1.2139315,3.203103 2.0917889,4.083508 4.3293059,4.34187 1.953253,0.225539 5.274702,2.810002 10.923857,8.5 7.67559,7.731082 8.136649,8.033713 8.47397,5.562166 0.400545,-2.934787 3.694613,-4.886241 8.248011,-4.886241 3.762958,0 13.257669,1.985533 14.345266,2.99988 1.219473,1.137342 -2.273416,6.021384 -4.208108,5.884119 -1.43929,-0.102117 -1.431148,-0.169658 0.06802,-0.564276 1.582265,-0.41649 3.474191,-3.975853 2.585615,-4.864429 -0.216692,-0.216692 -3.655965,-0.953353 -7.64283,-1.637025 -5.311975,-0.910902 -7.702672,-0.948915 -8.947321,-0.142263 -1.721535,1.115719 -1.772045,1.657079 -0.613364,6.573994 0.800246,3.395882 0.137513,3.412735 -6.385115,0.162372 z m 41.70428,-18.027711 c -1.159853,-1.397537 -1.08641,-1.56608 0.544689,-1.25 1.036916,0.200936 2.072591,0.927839 2.301501,1.615339 0.593964,1.78389 -1.25999,1.545915 -2.84619,-0.365339 z M 23.174397,52.037106 c -1.269718,-2.37249 -5.513016,-2.645371 -10.282119,-0.66123 -3.86072,1.606217 -5.717881,1.156028 -5.717881,-1.386052 0,-3.057675 6.731721,-6.955201 11.982135,-6.937405 5.420385,0.01837 6.557414,0.643409 7.98077,4.387121 1.994284,5.245363 -1.467077,9.261063 -3.962905,4.597566 z M 25.10773,47.39025 c 1.188352,-1.059856 -2.024325,-2.340434 -6.274975,-2.501213 -3.767101,-0.142489 -5.236552,0.289866 -6.966256,2.049671 l -2.192102,2.230251 7.5,-0.696116 c 4.125,-0.382863 7.695,-0.87003 7.933333,-1.082593 z m 91.80293,-5.853144 c 0.99456,-3.906676 0.92281,-11.210092 -0.14736,-15 -0.70189,-2.485696 -0.61771,-2.784158 0.49103,-1.740966 1.7576,1.653698 1.87176,15.008567 0.15164,17.740966 -1.12082,1.780427 -1.1752,1.67064 -0.49531,-1 z m -57.236263,-0.5 c -1.611862,-0.692641 -1.283694,-0.87307 1.690983,-0.929715 2.030041,-0.03866 3.969098,0.379715 4.309017,0.929715 0.745764,1.206672 -3.191924,1.206672 -6,0 z M -3.7354147,39.363831 c -0.049604,-1.195301 1.0348117,-3.510261 2.4098117,-5.144356 3.25556,-3.869013 3.25556,-8.264062 0,-11.77687 -2.7684704,-2.987229 -3.3307867,-4.33988 -1,-2.405499 1.1904225,0.987963 1.8069492,0.990144 2.9872651,0.01057 0.8179957,-0.678876 2.1679957,-0.973099 3,-0.653829 2.0014979,0.768045 2.0124999,5.643259 0.012735,5.643259 -1.0343808,0 -1.5,1.038335 -1.5,3.345012 0,2.083384 -0.7600348,4.032835 -2.0151136,5.168666 -1.1083125,1.003009 -2.4177278,3.210253 -2.9098117,4.904987 -0.6848697,2.358687 -0.9158495,2.571649 -0.9848864,0.90806 z M 112.86149,14.232387 c -1.55774,-1.625935 -2.68709,-3.937507 -2.68709,-5.5000003 0,-2.2222988 -0.44743,-2.6952811 -2.54966,-2.6952811 -1.40231,0 -3.91913,0.7081813 -5.59293,1.5737363 -1.6738,0.865555 -3.231043,1.3859672 -3.460543,1.1564717 -0.85585,-0.8558593 7.411503,-3.8934789 9.711683,-3.5682956 1.82152,0.257515 2.46948,1.0530437 2.71885,3.3380876 0.18007,1.6500004 1.50176,4.2375004 2.93709,5.7500004 1.43533,1.5125 2.38469,2.75 2.10969,2.75 -0.275,0 -1.70919,-1.262123 -3.18709,-2.804719 z M 8.986897,13.353992 c 0.721875,-0.288871 1.584375,-0.253344 1.916667,0.07895 0.332291,0.332292 -0.258334,0.568641 -1.3125,0.52522 -1.164943,-0.04798 -1.4019,-0.284941 -0.604167,-0.604167 z m 11.949159,-0.02415 c 1.243913,-0.239193 3.043913,-0.230112 4,0.02018 0.956088,0.250296 -0.06166,0.446 -2.261659,0.434901 -2.2,-0.0111 -2.982253,-0.215885 -1.738341,-0.455078 z m 50.238341,0.277632 c 0,-0.275 0.9,-0.981666 2,-1.570368 1.1,-0.588702 2,-0.845368 2,-0.570368 0,0.275 -0.9,0.981666 -2,1.570368 -1.1,0.588702 -2,0.845368 -2,0.570368 z m -57.75,-1.259694 c 0.9625,-0.251527 2.5375,-0.251527 3.5,0 0.9625,0.251528 0.175,0.457323 -1.75,0.457323 -1.925,0 -2.7125,-0.205795 -1.75,-0.457323 z M 68.046842,11.287106 C 66.802971,9.70105 66.838341,9.6656797 68.424397,10.90955 c 1.665748,1.30637 2.195479,2.127556 1.372445,2.127556 -0.207656,0 -0.995156,-0.7875 -1.75,-1.75 z m -69.372445,-0.25 c -2.7221529,-0.692671 -2.7684607,-0.767819 -0.5,-0.8114 1.375,-0.02642 3.4,0.338713 4.5,0.8114 2.465769,1.059577 0.164075,1.059577 -4,0 z m 55.25,0.337719 c 0.6875,-0.277412 1.8125,-0.277412 2.5,0 0.6875,0.277412 0.125,0.504386 -1.25,0.504386 -1.375,0 -1.9375,-0.226974 -1.25,-0.504386 z m -11,-1.061115 c 1.7875,-0.221827 4.7125,-0.221827 6.5,0 1.7875,0.221827 0.325,0.403322 -3.25,0.403322 -3.575,0 -5.0375,-0.181495 -3.25,-0.403322 z m 19.25,-0.276604 c 0.825,-0.5331563 2.175,-0.9446372 3,-0.9144024 0.989055,0.036247 0.81874,0.3477199 -0.5,0.9144024 -2.749085,1.181322 -4.327966,1.181322 -2.5,0 z m 15,0.04569 c 0.825,-0.5582851 2.3625,-1.0219546 3.416667,-1.0303766 2.558447,-0.02044 1.760261,0.5519161 -1.916667,1.3743876 -2.190916,0.490074 -2.595458,0.397296 -1.5,-0.344011 z m 8.5,-1.07205 c -1.819627,-0.479005 -0.245797,-0.5753846 4,-0.2449555 3.85,0.2996263 7.1875,0.7082467 7.41667,0.9080453 0.76627,0.6680772 -8.377274,0.1370118 -11.41667,-0.6630893 z"
       id="path2926" />
    <path
       style="fill:#529ac6"
       d="m 18.924397,118.37483 c 0.6875,-0.27741 1.8125,-0.27741 2.5,0 0.6875,0.27741 0.125,0.50439 -1.25,0.50439 -1.375,0 -1.9375,-0.22698 -1.25,-0.50439 z m 14,0 c 0.6875,-0.27741 1.8125,-0.27741 2.5,0 0.6875,0.27741 0.125,0.50439 -1.25,0.50439 -1.375,0 -1.9375,-0.22698 -1.25,-0.50439 z m -7.480968,-2.03071 c 0.972967,-0.25354 2.322967,-0.23687 3,0.037 0.677032,0.27393 -0.119032,0.48137 -1.769032,0.46099 -1.65,-0.0204 -2.203936,-0.2445 -1.230968,-0.49804 z m 51.480968,0.0307 c 0.6875,-0.27741 1.8125,-0.27741 2.5,0 0.6875,0.27741 0.125,0.50439 -1.25,0.50439 -1.375,0 -1.9375,-0.22698 -1.25,-0.50439 z m -39.75,-2.42707 c -2.153766,-1.76168 -2.196103,-1.89635 -0.305694,-0.97239 1.206869,0.58987 2.470927,1.52008 2.809017,2.06712 0.902576,1.4604 0.296404,1.19531 -2.503323,-1.09473 z m 52.75,1.42707 c 0.6875,-0.27741 1.8125,-0.27741 2.5,0 0.6875,0.27741 0.125,0.50439 -1.25,0.50439 -1.375,0 -1.9375,-0.22698 -1.25,-0.50439 z m 14.250003,-2.71528 c 0,-0.20765 0.7875,-0.99515 1.75,-1.75 1.58606,-1.24387 1.62143,-1.2085 0.37756,0.37756 -1.30637,1.66575 -2.12756,2.19548 -2.12756,1.37244 z m 1.26903,-4.31543 c 0.97297,-0.25354 2.32297,-0.23687 3,0.037 0.67703,0.27393 -0.11903,0.48137 -1.76903,0.46099 -1.65,-0.0204 -2.20394,-0.2445 -1.23097,-0.49804 z M 97.870557,76.241849 c -2.7221,-2.841255 -6.417694,-11.816543 -5.318207,-12.916029 0.331589,-0.33159 1.619701,-0.112657 2.862467,0.486517 1.88321,0.907951 1.95687,1.100682 0.44219,1.157089 -2.459758,0.0916 -1.46851,3.14071 3.02912,9.31768 3.799733,5.21849 3.206063,6.361175 -1.01557,1.954743 z M 17.450248,63.361181 C 11.801093,57.671183 8.479644,55.08672 6.526391,54.861181 4.288874,54.602819 3.4110166,53.722414 2.1970851,50.519311 1.3596067,48.309525 -0.113103,45.396897 -1.075603,44.046805 c -0.9625,-1.350091 -1.7039373,-3.592084 -1.6476385,-4.982205 0.087273,-2.154934 0.2180286,-2.038805 0.8870625,0.787838 0.4315856,1.823433 1.8163344,4.413456 3.0772195,5.755607 2.2226629,2.365916 2.3556064,2.385504 4.3629375,0.642845 3.622492,-3.144857 9.478725,-5.213784 14.757956,-5.213784 4.690834,0 5.429008,0.335059 8.812463,4 l 3.69278,4 9.79052,0 9.790521,0 -0.532067,6.25 c -0.292636,3.4375 -0.998375,7.435599 -1.568309,8.884665 L 49.3116,66.806435 43.492998,65.437392 c -10.741779,-2.527406 -16.915246,-1.302481 -17.56878,3.485955 -0.337321,2.471547 -0.79838,2.168916 -8.47397,-5.562166 z M 27.632476,52.169188 c 0.679326,-2.140367 -1.008959,-7.226243 -2.77064,-8.346417 -2.727138,-1.734065 -10.208393,-0.795706 -13.955304,1.750386 -6.073141,4.126806 -4.56673,8.528816 1.985746,5.802719 4.769103,-1.984141 9.012401,-1.71126 10.282119,0.66123 1.346423,2.515814 3.679572,2.584939 4.458079,0.132082 z m 75.946914,16.617918 -1.90499,-2.25 2.25,1.904988 c 2.11444,1.790218 2.70524,2.595012 1.90499,2.595012 -0.18976,0 -1.20226,-1.0125 -2.25,-2.25 z M 63.174397,61.737494 c 0,-1.599553 1.028521,-3.359481 2.75,-4.705595 1.5125,-1.182703 2.975,-3.320083 3.25,-4.749735 0.462609,-2.404979 0.948696,-2.62503 6.5,-2.942545 3.3,-0.188749 7.9125,-1.070166 10.25,-1.958704 3.919623,-1.489941 4.582976,-1.48836 8.53343,0.02033 9.069003,3.463481 17.473103,1.351711 21.347413,-5.364142 l 1.44223,-2.5 -0.65342,2.5 c -0.35938,1.375 -1.79776,3.437506 -3.19641,4.583346 -2.38886,1.957076 -2.50316,2.464382 -1.88589,8.370142 0.57788,5.528848 0.47557,6.13614 -0.84859,5.037185 -0.94381,-0.783295 -2.88489,-1.025797 -5.20161,-0.649845 -3.49988,0.567951 -3.95706,0.306784 -8.618673,-4.923422 -5.804658,-6.512681 -7.870897,-6.706538 -11.673366,-1.095208 -2.917588,4.305506 -11.5923,9.269944 -17.983954,10.292011 -3.802369,0.608023 -4.01116,0.508404 -4.01116,-1.913818 z m 2.596179,-20.310346 c -0.454892,-1.185428 -1.623029,-1.502187 -4.520668,-1.225853 -2.149002,0.204941 -3.693572,0.02684 -3.432377,-0.395785 0.261195,-0.422622 1.937334,-0.768404 3.724753,-0.768404 3.577231,0 7.60075,2.283315 5.888388,3.341613 -0.575688,0.355795 -1.322731,-0.07241 -1.660096,-0.951571 z m 51.482774,-4.973375 c 0.048,-1.164943 0.28494,-1.4019 0.60416,-0.604167 0.28887,0.721875 0.25335,1.584375 -0.0789,1.916667 -0.3323,0.332291 -0.56864,-0.258334 -0.52522,-1.3125 z M -1.825603,35.659551 c 0,-0.207656 0.7875,-0.995156 1.75,-1.75 1.5860556,-1.243871 1.6214259,-1.208501 0.3775553,0.377555 -1.3063698,1.665748 -2.1275553,2.195479 -2.1275553,1.372445 z m 4.0789474,-7.872445 c -0.054441,-1.896373 0.4218988,-2.75 1.534552,-2.75 1.2175306,0 1.5073456,-0.723268 1.1809436,-2.947187 -0.237905,-1.620953 -0.06398,-2.719396 0.386501,-2.440983 0.450481,0.278412 0.819056,0.971168 0.819056,1.539458 0,0.568289 0.893869,2.169623 1.986375,3.55852 2.458915,3.126004 1.658887,4.669244 -2.037343,3.929998 C 4.389782,28.330183 3.1269797,28.578649 2.8236569,29.326168 2.553406,29.992184 2.2967654,29.299606 2.2533444,27.787106 z M 115.79794,27.498447 c -0.96498,-2.514694 -0.68031,-3.163555 0.49853,-1.136338 0.58369,1.003751 0.8506,2.035659 0.59313,2.293128 -0.25747,0.257469 -0.74872,-0.263087 -1.09166,-1.15679 z M -1.825603,20.644095 c 0,-0.216156 0.698372,-0.661002 1.5519378,-0.988546 0.8899251,-0.341496 1.2913218,-0.173849 0.940983,0.393011 -0.5872579,0.950204 -2.4929208,1.405448 -2.4929208,0.595535 z"
       id="path2924" />
    <path
       style="fill:#5c709a"
       d="m 38.309587,119.49797 c -2.26642,-0.98399 -6.898846,-1.46086 -14.190983,-1.46086 -6.864549,0 -11.077615,-0.40684 -11.513305,-1.1118 -1.328894,-2.1502 1.850586,-2.62605 8.068982,-1.20762 7.327055,1.67131 13.09457,0.74375 12.853057,-2.06708 -0.08088,-0.94135 0.144118,-1.57668 0.5,-1.41185 2.808861,1.30096 12.260522,7.17292 12.706045,7.89379 0.870107,1.40786 -4.682935,0.98954 -8.423796,-0.63458 z m 12.26904,-3.46386 c -7.225252,-2.27382 -16.929653,-15.57943 -15.01048,-20.580718 0.594524,-1.549303 0.954907,-1.456973 3.385796,0.867442 3.151153,3.013129 11.184918,5.128076 16.034707,4.221246 2.518658,-0.47095 4.361799,-0.006 7.67807,1.93766 2.400099,1.40655 5.550769,2.55737 7.001488,2.55737 1.45072,0 3.483203,0.45251 4.516629,1.00559 1.033427,0.55307 7.866343,1.19809 15.184259,1.43338 7.317911,0.23529 14.880304,0.86171 16.805304,1.39205 1.925,0.53034 2.854,1.01032 2.06445,1.06662 -0.78955,0.0563 -2.40589,1.01395 -3.59186,2.12811 -1.56483,1.47008 -4.46272,2.29721 -10.564459,3.01534 -12.546163,1.47661 -39.936903,2.07846 -43.503904,0.95591 z m 43.09577,-2.03527 c 8.627713,-1.23963 10.500003,-1.80205 10.500003,-3.15412 0,-0.64179 -1.17951,-0.82171 -3,-0.45761 -1.650003,0.33 -3.000003,0.21557 -3.000003,-0.25428 0,-0.46985 -5.7375,-1.06369 -12.75,-1.31964 -9.45672,-0.34515 -13.447488,-0.11804 -15.45034,0.87928 -3.216545,1.60168 -7.206895,1.73225 -9.841917,0.32202 -3.398865,-1.81901 -19.957743,-5.74196 -19.957743,-4.72816 0,1.85523 8.382714,8.64275 11.940051,9.66789 4.113961,1.18556 30.953338,0.56857 41.559949,-0.95538 z M 35.163437,87.787106 c -2.358353,-3.867979 -2.41829,-4.786896 -0.596609,-9.146795 1.362654,-3.261289 5.392534,-5.603205 9.641782,-5.603205 2.198125,0 4.402646,-3.348167 6.323126,-9.60339 1.013349,-3.300597 1.518902,-4.081754 1.551047,-2.39661 0.05621,2.946482 -2.987489,10.019923 -4.999908,11.61961 -0.774663,0.615785 -3.034198,1.412086 -5.02119,1.769557 -4.047734,0.728211 -6.445628,2.894151 -7.318797,6.610833 -0.654569,2.786199 1.182184,7.094632 3.326398,7.802661 1.101749,0.363802 1.288258,-0.48543 0.887491,-4.041022 -0.279069,-2.475891 -0.09691,-5.235125 0.404801,-6.13163 0.983153,-1.756797 3.812819,-2.250467 3.812819,-0.665193 0,0.530649 0.906676,1.450055 2.014837,2.043124 1.636394,0.875772 2.128058,0.74151 2.617631,-0.714816 2.704749,-8.045768 6.044851,-15.297029 8.243042,-17.895394 1.44347,-1.706248 3.393395,-4.522816 4.333168,-6.25904 0.939773,-1.736224 2.80856,-3.574945 4.152861,-4.086047 1.3443,-0.511102 2.739453,-1.407034 3.100339,-1.99096 0.360886,-0.583926 1.394598,-1.061683 2.297139,-1.061683 1.27632,0 1.374316,0.266667 0.440983,1.2 -0.66,0.66 -1.2,2.325 -1.2,3.7 0,1.944444 -0.266667,2.233333 -1.2,1.3 -0.66,-0.66 -1.8401,-1.2 -2.622445,-1.2 -1.158821,0 -1.188842,0.281474 -0.161988,1.518758 1.027575,1.238152 0.957818,1.85317 -0.377555,3.32874 -2.055468,2.271267 -2.113826,8.331698 -0.117405,12.192351 0.836333,1.617291 3.33161,3.864434 5.54506,4.993652 6.056467,3.089779 11.934333,8.794539 11.934333,11.582861 0,2.672657 -2.700212,3.328447 -3.638374,0.883638 -0.316582,-0.825 -1.688214,-1.5 -3.04807,-1.5 -2.213906,0 -2.405157,-0.306456 -1.828828,-2.930466 0.502009,-2.285633 0.218358,-3.15807 -1.289062,-3.964817 -2.23876,-1.198148 -3.195666,-0.555767 -3.195666,2.145283 0,1.054167 -0.483909,1.755364 -1.075353,1.558216 -1.641083,-0.547028 -7.924647,-15.492502 -7.924647,-18.848797 0,-6.223536 -3.541442,-2.206386 -9.071016,10.289489 -1.885941,4.2619 -3.905476,7.7494 -4.487854,7.75 -0.582379,6.01e-4 -1.932379,-0.659596 -3,-1.467105 -3.091367,-2.338191 -3.44113,-1.884035 -3.44113,4.468197 0,7.045958 -1.792035,8.029421 -5.01096,2.75 z M 67.479698,74.458402 c -3.501955,-2.798797 -3.8949,-2.462136 -1.816764,1.556536 1.364855,2.639339 1.883465,2.958323 3.129037,1.924591 1.29148,-1.071834 1.114334,-1.541759 -1.312273,-3.481127 z m 36.481202,4.896409 c -1.98339,-0.521219 -8.184753,-8.689322 -9.274263,-12.215569 -0.701912,-2.271756 -0.567392,-2.363166 2.55783,-1.738123 1.81428,0.362857 4.183823,1.441896 5.265633,2.397864 2.13897,1.890146 7.6643,10.133047 7.6643,11.433904 0,0.836809 -3.25044,0.90059 -6.2135,0.121924 z M 0.0468417,44.287106 C -1.1970289,42.70105 -1.1616586,42.66568 0.424397,43.909551 c 0.9625,0.754844 1.75,1.542344 1.75,1.75 0,0.823034 -0.8211855,0.293303 -2.1275553,-1.372445 z M 55.501778,42.447863 c -0.877609,-2.287012 2.227758,-4.451272 6.113749,-4.260925 l 3.05887,0.149832 -3,0.427115 c -4.965998,0.707018 -5.032749,2.070785 -0.137289,2.804904 4.994931,0.749036 6.310495,0.515871 5.820962,-1.031683 -0.173979,-0.55 0.474235,-0.223214 1.440477,0.72619 2.582311,2.537315 0.969883,3.290457 -4.601318,2.149209 -2.863113,-0.586501 -5.578702,-0.643822 -6.484565,-0.136876 -1.097079,0.613956 -1.751696,0.368864 -2.210886,-0.827766 z M -1.825603,37.294409 c 0,-0.556827 0.6265859,-1.532434 1.3924131,-2.168014 0.7658273,-0.63558 1.9369413,-2.470207 2.6024757,-4.076949 1.0299066,-2.486415 1.6233938,-2.838683 3.9863062,-2.366101 3.59068,0.718136 4.462833,-0.796808 2.175397,-3.778702 C 7.332102,23.602498 6.205746,21.69329 5.827975,20.661958 5.258354,19.106868 4.479159,18.892663 1.2628341,19.406974 c -4.2872483,0.685558 -5.0884371,-0.17282 -5.0884371,-5.451655 0,-2.549853 0.3471276,-2.901023 2.75,-2.782031 2.3578445,0.116762 2.4291455,0.197981 0.5,0.569551 -1.6860636,0.32475 -2.25,1.126079 -2.25,3.197151 0,3.490328 0.7886153,4.280613 3.0590407,3.065518 2.6509775,-1.41876 4.5950633,-0.270972 7.9427933,4.689422 3.418403,5.065114 3.542745,5.645326 1.562088,7.289125 -1.053047,0.873952 -1.975368,0.90322 -3.458012,0.109732 -1.685941,-0.902288 -2.2198624,-0.706101 -3.213016,1.180606 -1.7494844,3.32352 -4.892894,7.191042 -4.892894,6.020016 z M 117.2904,33.751923 c -0.0638,-0.981851 -0.83771,-2.886647 -1.71979,-4.232881 -1.23357,-1.882654 -1.37547,-3.102678 -0.61471,-5.284988 1.16444,-3.340305 -0.37736,-7.727055 -3.66831,-10.437161 -1.16226,-0.957116 -2.11319,-2.869617 -2.11319,-4.2499999 0,-3.1275274 -2.11567,-3.2657207 -8.1408,-0.5317495 -2.397563,1.0879214 -6.159203,1.9317804 -8.359203,1.8752444 -3.890998,-0.09999 -3.862694,-0.122967 1.038665,-0.843072 2.771265,-0.4071533 6.461418,-1.4760132 8.200338,-2.3752445 1.73893,-0.8992312 4.30903,-1.6349659 5.71134,-1.6349659 2.13134,0 2.54966,0.4636113 2.54966,2.825686 0,1.6960574 0.96728,3.7344034 2.41959,5.0987774 3.5255,3.312027 5.01367,7.397472 3.6338,9.975778 -0.86442,1.615177 -0.7576,2.771082 0.47666,5.15786 0.87491,1.69189 1.39076,3.833454 1.14635,4.759031 -0.39392,1.491701 -0.45757,1.480078 -0.5604,-0.102315 z M 8.986897,14.353992 c 0.721875,-0.288871 1.584375,-0.253344 1.916667,0.07895 0.332291,0.332292 -0.258334,0.568641 -1.3125,0.52522 -1.164943,-0.04798 -1.4019,-0.284941 -0.604167,-0.604167 z m 13.728887,-0.231563 c 2.222763,-0.365389 5.747889,-1.719021 7.833615,-3.00807 3.368913,-2.0821029 4.214445,-2.217226 7.574632,-1.2104895 2.080323,0.6232795 5.980196,1.1665915 8.666386,1.2073595 2.686189,0.04077 6.90898,0.450647 9.38398,0.910843 3.314876,0.61636 2.129752,0.714649 -4.5,0.373207 -4.95,-0.254931 -10.812767,-0.92037 -13.028371,-1.478752 -3.553597,-0.895585 -4.555386,-0.714011 -8.5,1.540625 -2.677338,1.530295 -5.876043,2.510472 -7.971629,2.442742 l -3.5,-0.113121 4.041387,-0.664344 z M 13.424397,13.34778 c 0.9625,-0.251527 2.5375,-0.251527 3.5,0 0.9625,0.251528 0.175,0.457323 -1.75,0.457323 -1.925,0 -2.7125,-0.205795 -1.75,-0.457323 z m 54.678458,-0.896877 c -0.915659,-1.103302 -2.246798,-1.408166 -4.372445,-1.001397 -2.203223,0.421613 -2.637433,0.310415 -1.556013,-0.398485 2.332765,-1.5291897 4.524633,-1.1966718 6.5,0.986085 0.995486,1.1 1.570331,2 1.277432,2 -0.292898,0 -1.124937,-0.713791 -1.848974,-1.586203 z m 5.604623,0.200693 c 2.475959,-1.73423 9.162237,-3.6271303 12.466919,-3.5294136 1.375,0.040658 -0.390058,0.700706 -3.922351,1.4667746 -3.532293,0.766068 -6.884793,1.855293 -7.45,2.4205 -0.565207,0.565207 -1.487777,1.027649 -2.050155,1.027649 -0.562379,0 -0.132365,-0.62348 0.955587,-1.38551 z"
       id="path2922" />
    <path
       style="fill:#2458a0"
       d="m 69.924397,115.33138 c 1.2375,-0.23836 3.2625,-0.23836 4.5,0 1.2375,0.23835 0.225,0.43337 -2.25,0.43337 -2.475,0 -3.4875,-0.19502 -2.25,-0.43337 z m 12.51375,-1.01185 c 1.520062,-0.22986 3.770062,-0.22371 5,0.0136 1.229937,0.23736 -0.01375,0.42542 -2.76375,0.41792 -2.75,-0.008 -3.756313,-0.20172 -2.23625,-0.43157 z m 11.48625,-0.9447 c 0.6875,-0.27741 1.8125,-0.27741 2.5,0 0.6875,0.27741 0.125,0.50439 -1.25,0.50439 -1.375,0 -1.9375,-0.22698 -1.25,-0.50439 z m 5.88837,-1.83772 c 0.316593,-0.825 1.427463,-1.5 2.468623,-1.5 2.29738,0 2.4994,1.55333 0.31122,2.39301 -2.55178,0.97921 -3.394403,0.70853 -2.779843,-0.89301 z m -47.535899,-56.750004 -0.102471,-5.75 -9.65361,0 -9.65361,0 -3.69278,-4 c -3.478083,-3.767442 -4.024364,-4 -9.39605,-4 -5.806805,0 -10.361524,1.644679 -14.16692,5.115582 C 3.579544,48.005968 3.5182494,47.992904 1.543896,45.285715 -2.0207978,40.397887 -2.0465116,39.157417 1.3095012,33.978208 4.0223672,29.791544 4.72446,29.261123 6.380296,30.1473 c 1.926872,1.03123 4.794101,-0.277494 4.794101,-2.18823 0,-1.415406 -4.981089,-8.327975 -7.3009765,-10.132022 L 1.674397,16.116991 3.9954042,16.712249 c 2.1530418,0.55218 3.9367218,2.676075 9.3008408,11.074857 l 2.075704,3.25 10.151224,0.137652 c 5.583173,0.07571 14.876224,0.08111 20.651224,0.01201 5.775,-0.0691 22.776623,-0.131048 37.781385,-0.137652 20.944568,-0.0092 27.370838,-0.302354 27.666478,-1.262008 0.2118,-0.6875 0.65625,-2.4875 0.98767,-4 0.33142,-1.5125 1.07433,-2.75 1.65091,-2.75 0.60161,0 0.77122,0.873119 0.39802,2.048963 -0.38104,1.200564 0.005,3.049279 0.93261,4.464817 3.00417,4.584932 1.24763,12.259526 -3.82122,16.695579 -2.48271,2.172766 -4.11144,2.717409 -8.22373,2.75 -2.82033,0.02235 -6.870333,-0.68838 -9.000003,-1.579406 -3.537193,-1.479918 -4.304605,-1.48443 -8.87212,-0.05217 C 74.291247,50.934376 69.209508,50.157953 69.971568,44.965707 70.316,42.618942 69.814799,41.78815 67.030577,40.090715 60.45165,36.079793 55.766505,37.769236 55.494506,44.250572 c -0.09894,2.357593 -0.840328,6.986532 -1.647529,10.286532 l -1.467639,6 -0.10247,-5.75 z M -2.3937135,17.926901 c -0.3476883,-0.562572 -0.3620995,-1.292918 -0.032025,-1.622993 0.3300745,-0.330074 0.6001355,-0.08926 0.6001355,0.535147 0,0.624405 0.675,0.87626 1.5,0.559677 0.825,-0.316582 1.5,-0.350604 1.5,-0.0756 0,1.068396 -2.9703221,1.571015 -3.5681105,0.603773 z M 68.763676,14.181563 c -0.290815,-0.470549 0.582628,-0.643089 1.940983,-0.383423 1.358356,0.259666 2.469738,0.644661 2.469738,0.855543 0,0.77375 -3.898641,0.356443 -4.410721,-0.47212 z"
       id="path2920" />
    <path
       style="fill:#163685"
       d="m 67.756995,114.17076 c -0.294489,-0.4765 0.374071,-1.68945 1.485691,-2.69545 1.832143,-1.65807 2.46109,-1.70497 6.726419,-0.50166 2.58791,0.7301 6.280292,1.6277 8.205292,1.99468 3.380011,0.64436 3.311445,0.69096 -2,1.35931 -7.547661,0.94975 -13.775349,0.88198 -14.417402,-0.15688 z M 25.407814,31.037106 C 13.997205,30.48139 15.604334,31.446092 9.018421,21.199143 6.547985,17.355421 3.6069419,15.941234 0.5094754,17.107658 c -1.5922746,0.599609 -2.328353,0.389357 -2.7827826,-0.794867 -1.0995779,-2.865454 1.0310518,-3.749677 6.1889878,-2.568464 2.6172944,0.599384 8.7990994,1.1258 13.7373444,1.169813 7.137998,0.06362 9.851331,-0.342443 13.235685,-1.980781 3.513032,-1.70063 4.827576,-1.877366 7.521372,-1.011223 3.86224,1.241835 20.107313,1.683257 23.952687,0.650858 1.847142,-0.495917 3.637491,-0.161111 5.721529,1.069961 2.922965,1.726638 3.170425,1.72428 6.811628,-0.06491 2.640985,-1.297703 7.089954,-2.039973 14.778471,-2.465649 6.05,-0.33496 11.982923,-1.1639289 13.184263,-1.842154 3.02971,-1.7104431 5.31574,-1.5402888 5.31574,0.3956628 0,0.8958392 1.575,3.3721362 3.5,5.5028812 3.82576,4.234655 4.29207,6.219105 2,8.511177 -0.825,0.825 -1.5,2.60698 -1.5,3.959956 0,1.352976 -0.5625,2.656149 -1.25,2.89594 -1.878,0.655022 -73.713482,1.076078 -85.516586,0.501247 z"
       id="path2918" />
    <path
       style="fill:#283d69"
       d="m 52.660695,114.9179 c -3.878322,-0.8745 -12.486298,-7.51445 -12.486298,-9.63157 0,-1.0138 16.558878,2.90915 19.957743,4.72816 2.594282,1.38842 7.04265,1.22879 9.899186,-0.35523 3.143046,-1.74289 26.954941,-0.95313 28.865451,0.95737 1.604653,1.60465 0.94491,1.99767 -4.72238,2.81323 -4.515541,0.64981 -9.447993,-0.0188 -18.205292,-2.4678 -4.23699,-1.18488 -4.902084,-1.13775 -6.682561,0.47356 -1.087498,0.98417 -1.734471,2.42212 -1.437719,3.19545 0.428364,1.11629 -0.667407,1.38397 -5.317439,1.29895 -3.221344,-0.0589 -7.663155,-0.51436 -9.870691,-1.01212 z M 36.096842,87.443658 c -1.9235,-2.317676 -1.625704,-7.971978 0.546262,-10.371974 1.027789,-1.135693 3.607178,-2.34289 5.731976,-2.682659 6.283747,-1.004812 7.831843,-3.903188 12.205782,-22.851919 0.888697,-3.85 2.252457,-7.475228 3.030579,-8.056063 1.782008,-1.330194 12.562956,0.469189 12.562956,2.096807 0,1.371602 -3.871384,4.938978 -6.286547,5.792883 -0.9826,0.347409 -2.5576,2.055943 -3.5,3.796743 -0.942399,1.7408 -2.894473,4.561112 -4.337943,6.26736 -2.198191,2.598365 -5.538293,9.849626 -8.243042,17.895394 -0.489573,1.456326 -0.981237,1.590588 -2.617631,0.714816 -1.108161,-0.593069 -2.014837,-1.512475 -2.014837,-2.043124 0,-1.585274 -2.829666,-1.091604 -3.812819,0.665193 -0.501709,0.896505 -0.690546,3.596505 -0.419637,6 0.516222,4.579912 -0.514016,5.585326 -2.845099,2.776543 z m 29.566092,-11.42872 c -2.078136,-4.018672 -1.685191,-4.355333 1.816764,-1.556536 2.426607,1.939368 2.603753,2.409293 1.312273,3.481127 -1.245572,1.033732 -1.764182,0.714748 -3.129037,-1.924591 z M -2.825603,12.943486 c 0,-0.498509 0.9,-0.90638 2,-0.90638 1.1,0 2,0.172516 2,0.383369 0,0.210852 -0.9,0.618724 -2,0.90638 -1.1,0.287656 -2,0.115141 -2,-0.383369 z m 32,0.663988 c 0,-0.275 0.9,-0.981666 2,-1.570368 1.1,-0.588702 2,-0.845368 2,-0.570368 0,0.275 -0.9,0.981666 -2,1.570368 -1.1,0.588702 -2,0.845368 -2,0.570368 z m 13.727696,-1.2921 c 1.775232,-0.220912 4.925232,-0.224542 7,-0.0081 2.074767,0.216509 0.622304,0.397255 -3.227696,0.401692 -3.85,0.0044 -5.547537,-0.17268 -3.772304,-0.393592 z m 21.772304,-0.278268 c -1.928236,-0.828592 -1.921383,-0.861952 0.190983,-0.929715 1.205041,-0.03866 2.469098,0.379715 2.809017,0.929715 0.731,1.182783 -0.247516,1.182783 -3,0 z m 14.3125,-0.683114 c 0.721875,-0.288871 1.584375,-0.253345 1.916667,0.07895 0.332291,0.332291 -0.258334,0.56864 -1.3125,0.525219 -1.164943,-0.04798 -1.4019,-0.28494 -0.604167,-0.604166 z M 108.1744,10.037106 c 0,-2.3722815 -2.37811,-2.5704576 -6,-0.5000004 -1.375,0.7860214 -2.950003,1.4262134 -3.500003,1.4226494 -2.04781,-0.01327 6.088373,-3.8404645 8.250003,-3.8807339 1.74451,-0.032499 2.25,0.5197392 2.25,2.4580845 0,1.3750004 -0.225,2.5000004 -0.5,2.5000004 -0.275,0 -0.5,-0.9 -0.5,-2 z M 83.424397,10.34778 c 0.9625,-0.251527 2.5375,-0.251527 3.5,0 0.9625,0.251528 0.175,0.457323 -1.75,0.457323 -1.925,0 -2.7125,-0.205795 -1.75,-0.457323 z"
       id="path2916" />
  </g>
</svg>
