<?xml version="1.0" encoding="UTF-8" standalone="no"?>
<!-- Created with Inkscape (http://www.inkscape.org/) -->
<svg
   xmlns:svg="http://www.w3.org/2000/svg"
   xmlns="http://www.w3.org/2000/svg"
   version="1.0"
   width="48"
   height="48"
   id="svg7237">
  <defs
     id="defs7240" />
  <g
     id="g7264">
    <path
       d="M 5.1958604,35.75 L 5.3917208,28.5 L 5.7406449,35.210281 L 6.089569,41.920563 L 14.294785,42.256736 L 22.5,42.592909 L 13.75,42.796455 L 5,43 L 5.1958604,35.75 z M 9.25,32.75 C 9.4791667,32.0625 10.266667,31.5 11,31.5 C 11.733333,31.5 12.520833,32.0625 12.75,32.75 C 12.997863,33.49359 12.288889,34 11,34 C 9.7111111,34 9.0021368,33.49359 9.25,32.75 z M 33.234186,27.614637 C 32.407041,25.799251 31.381818,25.087991 29.836415,25.257394 C 28.371982,25.417922 27.217935,24.708856 26.425293,23.161544 C 25.611152,21.572263 24.991909,21.204074 24.492406,22.012288 C 23.190468,24.118868 15,21.475714 15,18.948984 C 15,18.505614 15.707143,17.435714 16.571429,16.571429 C 17.435714,15.707143 17.730459,15 17.226416,15 C 16.722374,15 15.495486,15.9 14.5,17 C 13.504514,18.1 12.111327,19 11.404029,19 C 9.4417377,19 8.5673032,21.111835 10.121885,22.096491 C 11.211823,22.786846 11.134058,22.972577 9.75,22.984687 C 7.353465,23.005657 7.4430582,18.425624 9.9185994,14.36583 C 13.324832,8.7797355 18.447701,5.6873289 24.822136,5.3693473 C 27.944961,5.2135687 29.7125,5.3247338 28.75,5.6163809 C 27.7875,5.908028 27,6.4914207 27,6.9128091 C 27,7.3341976 25.816848,8.21805 24.370774,8.8769255 C 22.9247,9.5358011 22.013825,10.347158 22.346608,10.679941 C 22.679391,11.012724 23.656614,10.699948 24.518216,9.9848823 C 25.742132,8.969122 26.348891,8.9488905 27.292382,9.8923816 C 27.956572,10.556572 28.5,11.5275 28.5,12.05 C 28.5,13.320126 29.01164,13.326272 32.25,12.09505 C 34.891086,11.090911 36.073327,9 34,9 C 33.45,9 33,9.45 33,10 C 33,10.55 32.4949,11 31.877555,11 C 31.102049,11 31.139896,10.536363 32,9.5 C 33.431837,7.774742 36,7.4916129 36,9.059017 C 36,9.6414763 36.413966,9.8621887 36.919925,9.549489 C 38.663175,8.4721012 41.700652,13.679509 41.223861,16.928096 C 40.721253,20.352581 39.079203,21.018875 38.317805,18.107285 C 38.02035,16.969818 36.586288,15.967258 34.723924,15.594785 C 30.631552,14.77631 28.806261,16.578901 32.832065,17.463115 C 38.381186,18.681907 40.23824,23.448933 36.745674,27.509282 L 34.418756,30.214486 L 33.234186,27.614637 z M 18.593011,10 C 19.799167,10 21.045044,9.325 21.361626,8.5 C 21.678209,7.675 21.479007,7 20.918955,7 C 18.996651,7 14,10.051653 14,11.22568 C 14,12.110507 14.295824,12.104176 15.2,11.2 C 15.86,10.54 17.386855,10 18.593011,10 z M 10.202231,28.288355 C 11.756643,28.05137 13.16576,27.053096 13.519619,25.938187 C 14.304735,23.464505 16.208123,23.467504 18.451093,25.945959 C 19.419681,27.016236 21.851926,28.06559 23.856081,28.277856 C 25.860236,28.490122 23,28.672016 17.5,28.682065 C 12,28.692114 8.7160039,28.514944 10.202231,28.288355 z"
       id="path7280"
       style="fill:#dee4ea" />
    <path
       d="M 26,34.059017 C 26,31.341476 26.45,28.839919 27,28.5 C 27.620859,28.116288 28,29.989616 28,33.440983 C 28,36.498442 27.55,39 27,39 C 26.45,39 26,36.776558 26,34.059017 z M 8.5,35 C 8.8399187,34.45 9.7664763,34 10.559017,34 C 11.351558,34 12,34.45 12,35 C 12,35.55 11.073442,36 9.940983,36 C 8.8085237,36 8.1600813,35.55 8.5,35 z M 34.041627,32.331787 C 34.018732,31.689271 33.73255,30.339271 33.405668,29.331787 C 32.96865,27.984857 33.064233,27.853175 33.766782,28.834294 C 34.518066,29.883474 35.172408,29.596277 36.829003,27.490258 C 37.98773,26.017175 39.425411,24.975137 40.02385,25.174617 C 40.622289,25.374096 39.530471,27.328913 37.597587,29.518653 C 35.664703,31.708394 34.064521,32.974304 34.041627,32.331787 z M 6.25,28.369258 C 7.2941672,28.061434 8,26.874593 8,25.426676 C 8,23.936297 8.578753,23 9.5,23 C 10.325,23 10.890862,22.6625 10.757472,22.25 C 10.442724,21.276668 16.052121,15 17.236726,15 C 17.735098,15 17.435714,15.707143 16.571429,16.571429 C 15.707143,17.435714 15,18.505614 15,18.948984 C 15,21.44128 22.250552,23.866876 24.390843,22.090592 C 25.453818,21.208402 25.867451,21.385131 26.260874,22.88958 C 26.671046,24.458082 26.082905,24.954607 23.133016,25.530211 C 20.039545,26.133832 19.797023,26.35943 21.5,27.049271 C 22.970458,27.644923 23.077687,27.878039 21.904988,27.929715 C 21.027731,27.968372 19.495486,27.1 18.5,26 C 16.442257,23.726219 14.404608,23.410319 13.662281,25.25 C 13.384868,25.9375 13.086842,25.375 13,24 C 12.913158,22.625 12.615132,22.0625 12.337719,22.75 C 12.060307,23.4375 11.227131,24 10.486218,24 C 9.745304,24 8.995304,25.007903 8.819551,26.239784 C 8.6232792,27.615485 7.728422,28.557806 6.5,28.682367 C 4.9424972,28.840296 4.887185,28.771021 6.25,28.369258 z M 31,26 C 30.098708,25.41754 29.975367,25.024514 30.690983,25.015313 C 31.346024,25.006891 32.160081,25.45 32.5,26 C 33.267305,27.241525 32.921123,27.241525 31,26 z M 38.091594,20.317058 C 35.232729,17.566628 36.482049,17.261746 39.886032,19.879146 C 41.19835,20.888218 41.87335,21.920888 41.386032,22.173969 C 40.898714,22.42705 39.416217,21.59144 38.091594,20.317058 z M 42.25,19.279762 C 40.670604,18.715692 40.598254,15 42.166667,15 C 42.808333,15 43.037238,15.296096 42.675343,15.657991 C 42.313448,16.019886 42.527573,16.93076 43.151177,17.682157 C 44.451428,19.248864 44.067793,19.928974 42.25,19.279762 z M 31.5,17 C 29.869592,16.29939 29.812487,16.127582 31.190983,16.070285 C 32.121024,16.031628 33.160081,16.45 33.5,17 C 34.210664,18.149879 34.175913,18.149879 31.5,17 z M 28.875,13.508474 C 28.80625,13.228813 28.69375,12.5875 28.625,12.083333 C 28.55625,11.579167 28.1625,10.829167 27.75,10.416667 C 27.3375,10.004167 27,8.7666667 27,7.6666667 C 27,6.5666667 27.296096,5.9627625 27.657991,6.3246574 C 28.019886,6.6865523 28.822478,6.5622934 29.441529,6.0485265 C 30.145218,5.4645164 31.116711,5.5031242 32.033538,6.1515347 C 33.1948,6.9728167 33.083759,7.0644612 31.5,6.5918785 C 29.529825,6.0039923 29.528948,6.0174983 31.44113,7.4975463 C 32.508751,8.3238958 33.746251,9 34.19113,9 C 34.636008,9 35,9.5051001 35,10.122445 C 35,10.929428 34.603448,10.915781 33.589028,10.073886 C 32.720694,9.3532332 31.949128,9.2732954 31.582797,9.8660315 C 31.255405,10.395763 31.444784,10.981595 32.003639,11.16788 C 32.562494,11.354165 32.115297,12.071412 31.009869,12.761764 C 29.904441,13.452115 28.94375,13.788135 28.875,13.508474 z M 14,11.140983 C 14,10.416787 13.46901,10.187537 12.75,10.601308 C 12.023755,11.019243 11.84917,10.93922 12.333333,10.410325 C 12.791667,9.9096464 13.579167,9.44375 14.083333,9.375 C 14.5875,9.30625 15.476558,9.19375 16.059017,9.125 C 16.641476,9.05625 16.91032,8.6625 16.656448,8.25 C 16.402576,7.8375 17.479289,7.4073204 19.049144,7.2940453 C 21.185137,7.1399199 21.762827,7.4544867 21.344725,8.5440453 C 21.037438,9.3448204 19.799167,10 18.593011,10 C 17.386855,10 15.86,10.54 15.2,11.2 C 14.266667,12.133333 14,12.120218 14,11.140983 z M 22,10.535184 C 22,10.279535 23.0125,9.5308609 24.25,8.871464 C 26.290222,7.7843398 26.372041,7.8276768 25.127555,9.3362802 C 23.84973,10.885299 22,11.594367 22,10.535184 z"
       id="path7278"
       style="fill:#b4c8dc" />
    <path
       d="M 7,35.122445 C 7,34.089789 7.6893341,32.672793 8.5318535,31.973564 C 9.8748421,30.858982 9.9395396,31.028824 9.0566044,33.351119 C 8.2249349,35.538576 8.3308293,36 9.6645082,36 C 10.552762,36 11.821608,35.258643 12.484166,34.352541 C 13.353718,33.163358 14.452076,32.896648 16.432659,33.393743 C 20.929609,34.522405 17.800131,37 11.877555,37 C 7.7726965,37 7,36.70256 7,35.122445 z M 33.345077,32.456872 C 33.019392,31.608151 33.033515,30.633151 33.376461,30.290205 C 33.719408,29.947259 34,30.495108 34,31.507647 C 34,33.160249 34.255813,33.108304 36.5,31 C 37.875,29.708255 39,29.110069 39,29.670698 C 39,30.787463 35.76459,34 34.639875,34 C 34.25342,34 33.670761,33.305592 33.345077,32.456872 z M 7.7616592,29.292739 C 9.0055717,29.053546 10.805572,29.062627 11.761659,29.31292 C 12.717747,29.563212 11.7,29.758916 9.5,29.747817 C 7.3,29.736717 6.5177466,29.531932 7.7616592,29.292739 z M 28,29.127808 C 28,28.648103 26.0875,27.924984 23.75,27.520877 C 19.523187,26.790147 19.515237,26.780733 22.292913,25.795431 C 23.829015,25.250543 26.304015,25.129144 27.792913,25.525656 C 29.281811,25.922168 29.96278,26.445178 29.306177,26.687901 C 28.649574,26.930624 28.360219,27.775142 28.663166,28.564608 C 28.966112,29.354073 28.940833,30 28.606989,30 C 28.273145,30 28,29.607514 28,29.127808 z M 9,26.073324 C 9,24.932996 9.6375,24 10.416667,24 C 11.195833,24 12.081485,23.4375 12.384781,22.75 C 12.688077,22.0625 12.838077,22.846152 12.718114,24.491449 C 12.458815,28.047756 9,29.519311 9,26.073324 z M 39.5,24 C 39.839919,23.45 40.316476,23 40.559017,23 C 40.801558,23 41,23.45 41,24 C 41,24.55 40.523442,25 39.940983,25 C 39.358524,25 39.160081,24.55 39.5,24 z M 9,20.977089 C 9,20.405167 9.6944076,19.670761 10.543128,19.345077 C 12.888505,18.445071 13.163895,19.416552 10.954522,20.796329 C 9.7174492,21.568893 9,21.635245 9,20.977089 z M 32.55887,16.468197 C 31.491249,15.660688 31.116945,15 31.727083,15 C 33.624067,15 36,16.17158 36,17.106989 C 36,18.383833 34.796092,18.160346 32.55887,16.468197 z M 30.542705,7.0690983 C 30.226274,6.5571024 30.494245,5.8125735 31.138197,5.4145898 C 31.923037,4.9295318 32.039168,5.1276086 31.490464,6.0154302 C 30.896118,6.9771014 31.127705,7.1649728 32.335955,6.7013235 C 33.25118,6.3501189 34,6.4986464 34,7.0313848 C 34,8.2690291 31.302489,8.2984546 30.542705,7.0690983 z"
       id="path7276"
       style="fill:#9fb3cd" />
    <path
       d="M 4.3428103,35.5 C 4.3464426,31.1 4.5222514,29.424395 4.7334966,31.776433 C 4.9447418,34.128471 4.94177,37.728471 4.7268925,39.776433 C 4.5120151,41.824395 4.3391781,39.9 4.3428103,35.5 z M 22.519399,42.031388 C 22.215787,41.540133 22.424717,40.855545 22.983688,40.510081 C 23.54266,40.164618 24.006891,40.246024 24.015313,40.690983 C 24.023735,41.135942 24.373112,40.961254 24.791706,40.302786 C 25.214346,39.637955 26.109524,39.449656 26.804771,39.879342 C 27.689368,40.426053 27.325297,40.986385 25.564089,41.788845 C 24.154981,42.430878 22.831458,42.536311 22.519399,42.031388 z M 6.2151294,34 C 6.1836503,31.525 6.385803,30.065304 6.6643576,30.756231 C 6.9429121,31.447157 7.6948858,31.698276 8.3354102,31.314272 C 9.2178249,30.785251 9.2203467,30.965463 8.3458182,32.058042 C 7.7110181,32.851119 6.9848001,34.625 6.7320002,36 C 6.4678961,37.436485 6.2480161,36.585672 6.2151294,34 z M 23.5717,36.25 C 24.069468,35.8375 24.812577,35.05 25.223054,34.5 C 25.648961,33.929324 25.975949,34.251317 25.984687,35.25 C 25.993199,36.222792 25.259802,37 24.333333,37 C 23.416667,37 23.073932,36.6625 23.5717,36.25 z M 33.70989,34.99862 C 33.408418,33.84579 33.597676,33.25135 34.156272,33.596581 C 34.689637,33.926219 36.059232,33.36434 37.199817,32.347961 L 39.273608,30.5 L 37.611124,33.75 C 35.70646,37.473438 34.461287,37.871966 33.70989,34.99862 z M 15.727696,29.278268 C 17.502928,29.057356 20.652928,29.053726 22.727696,29.270202 C 24.802463,29.486677 23.35,29.667423 19.5,29.67186 C 15.65,29.676296 13.952463,29.49918 15.727696,29.278268 z M 39,28.059017 C 39,27.541476 39.444846,26.843104 39.988546,26.507079 C 40.555406,26.15674 40.723053,26.558137 40.381557,27.448062 C 39.716766,29.180479 39,29.497449 39,28.059017 z M 41.271113,20.94902 C 41.120693,18.952142 42.448557,18.29873 43.429973,19.886693 C 43.731376,20.374374 43.401968,21.251433 42.697954,21.835713 C 41.736041,22.63403 41.381442,22.413668 41.271113,20.94902 z M 0,3.5 L 0,0 L 24.222222,0 L 48.444444,0 L 46.386176,2.0582685 C 44.439484,4.0049606 43.207738,4.1151527 23.663954,4.0909994 C 6.1559283,4.069362 3,4.2895522 3,5.5327308 C 3,6.3397289 2.325,7 1.5,7 C 0.45238095,7 0,5.9444444 0,3.5 z"
       id="path7274"
       style="fill:#9c9fa4" />
    <path
       d="M 28.8125,40.316886 C 29.534375,40.028015 30.396875,40.063542 30.729167,40.395833 C 31.061458,40.728125 30.470833,40.964474 29.416667,40.921053 C 28.251724,40.873069 28.014767,40.636112 28.8125,40.316886 z M 6.9124501,37.685864 C 7.3611527,37.238088 9.7019115,37.02131 12.114136,37.204133 L 16.5,37.53654 L 11.298314,38.01827 C 8.4373861,38.283221 6.4637475,38.133639 6.9124501,37.685864 z M 28.34737,33.266956 C 28.43355,28.85947 28.889658,26.872584 29.904673,26.483086 C 33.036153,25.281424 34.075233,30.847412 31.069812,32.724329 C 30.008208,33.387311 28.933945,35.183057 28.68256,36.714876 C 28.431175,38.246694 28.280339,36.69513 28.34737,33.266956 z M 23,34.622445 C 23,32.8442 21.466882,32.435552 20.523306,33.96229 C 19.835182,35.075699 15.313378,33.410903 13,31.192429 C 11.689935,29.936109 12.069805,29.853901 16,30.543195 C 18.475,30.977271 21.7375,31.370129 23.25,31.416212 C 26.278434,31.508483 26.823625,33.071563 24.5,35 C 23.271492,36.019571 23,35.951235 23,34.622445 z M 7,30.968615 C 7,30.435877 7.675,30 8.5,30 C 9.325,30 10,30.176855 10,30.393011 C 10,30.609167 9.325,31.045044 8.5,31.361626 C 7.675,31.678209 7,31.501354 7,30.968615 z M 43.160037,25.690983 C 43.048546,23.734055 42.620824,23.109767 41.75,23.632941 C 40.75293,24.231962 40.751174,24.073528 41.741324,22.849949 C 42.424052,22.006267 42.765302,21.016136 42.499657,20.649657 C 42.234012,20.283179 42.495696,20.379862 43.081176,20.864509 C 43.666656,21.349156 43.959922,23.265406 43.732879,25.122842 C 43.367175,28.114671 43.301814,28.179495 43.160037,25.690983 z M 1.25,13.855998 C -0.54778817,12.049583 -0.36365805,7 1.5,7 C 2.325,7 3,6.25 3,5.3333333 C 3,4.4166667 3.1893271,3.8559937 3.4207268,4.0873935 C 3.6521266,4.3187932 3.5396266,6.8939924 3.1707268,9.8100584 C 2.6335936,14.05597 2.2510282,14.86183 1.25,13.855998 z"
       id="path7272"
       style="fill:#6f8aae" />
    <path
       d="M -1.487314e-15,30.532543 C -2.7936625e-15,15.178734 0.19618001,12.917926 1.4389932,13.949369 C 2.6464046,14.951431 2.9401548,14.448104 3.2642859,10.821814 C 3.4767507,8.4448161 3.7292038,15.092756 3.8252928,25.595012 C 3.9894825,43.54049 3.8795984,44.798987 2,46.5 C 0.0071260713,48.303526 1.9854433e-17,48.246633 -1.487314e-15,30.532543 z M 13.955318,41.253349 C 18.055742,41.061258 22.105742,40.363172 22.955318,39.702046 C 24.310881,38.64717 24.331968,38.714257 23.127555,40.25 C 22.006395,41.679587 20.358559,41.96362 14.127555,41.801303 L 6.5,41.602606 L 13.955318,41.253349 z M 29.897267,40.240936 C 27.397001,39.72479 29.381193,32 32.014037,32 C 32.437068,32 33.065541,33.125 33.410644,34.5 C 33.755747,35.875 34.39838,37 34.838717,37 C 36.110598,37 39.670186,32.510559 39.293739,31.381216 C 38.938206,30.314619 41.893086,22.514372 42.414941,23.141914 C 42.578719,23.338861 42.995581,24.98487 43.341302,26.799711 C 43.7915,29.163003 43.642143,29.896866 42.815003,29.385666 C 42.04229,28.908103 41.87431,29.230073 42.30738,30.358636 C 43.106578,32.441313 35.523859,40.415001 33.487289,39.633496 C 32.740348,39.346868 31.987642,39.440729 31.814608,39.842076 C 31.641573,40.243423 30.77877,40.42291 29.897267,40.240936 z M 6.6516593,38.75 C 6.9081654,38.3375 8.92106,38 11.124758,38 C 13.328457,38 15.991772,37.539587 17.043236,36.976861 C 18.556802,36.166825 18.84005,36.253248 18.403151,37.391788 C 18.033225,38.3558 15.92848,38.94031 12.018299,39.164927 C 8.8101411,39.349217 6.3951532,39.1625 6.6516593,38.75 z M 22.625331,36.919925 C 20.138277,34.963609 19.884157,33 22.118034,33 C 22.668034,33 22.801757,33.511747 22.415197,34.137215 C 22.022811,34.772109 22.769737,36.087421 24.10618,37.114979 C 25.422781,38.127281 26.223186,38.965534 25.884859,38.977764 C 25.546531,38.989994 24.079743,38.063966 22.625331,36.919925 z M 19,31 C 16.971437,30.350341 17.40686,30.180563 21.309017,30.09968 C 24.282792,30.03804 25.882177,30.381625 25.5,31 C 24.790133,32.148589 22.58647,32.148589 19,31 z M 6.2105734,26.600859 C 6.919758,25.831332 7.657561,25.351393 7.8501355,25.534328 C 8.4432841,26.097787 6.939997,28 5.9015564,28 C 5.3623312,28 5.5013888,27.370387 6.2105734,26.600859 z M 11,10.622445 C 11,10.414789 11.7875,9.6272893 12.75,8.8724447 C 14.336056,7.6285741 14.371426,7.6639444 13.127555,9.25 C 11.821186,10.915748 11,11.445479 11,10.622445 z"
       id="path7270"
       style="fill:#586e91" />
    <path
       d="M 8.75,43.262758 C 11.6375,43.060756 16.3625,43.060756 19.25,43.262758 C 22.1375,43.464761 19.775,43.630035 14,43.630035 C 8.225,43.630035 5.8625,43.464761 8.75,43.262758 z M 39,42.248446 C 41.528011,40.985563 42.587874,39.736294 42.816422,37.75 C 43.184042,34.555049 42.439469,34.320349 39.643979,36.75 C 38.365347,37.8613 38.686817,37.040115 40.524789,34.5 C 42.11666,32.3 43.549803,30.3125 43.70955,30.083333 C 43.869298,29.854167 44,32.891667 44,36.833333 L 44,44 L 39.75,43.998446 L 35.5,43.996892 L 39,42.248446 z M 28.8125,41.316886 C 29.534375,41.028015 30.396875,41.063542 30.729167,41.395833 C 31.061458,41.728125 30.470833,41.964474 29.416667,41.921053 C 28.251724,41.873069 28.014767,41.636112 28.8125,41.316886 z M 6.651195,39.75 C 6.9079564,39.3375 9.5361519,39 12.491629,39 C 17.049477,39 17.965072,38.685408 18.522954,36.927679 C 18.900846,35.737045 19.752947,35.074955 20.525734,35.371501 C 21.265512,35.655381 22.051105,35.575426 22.271497,35.193823 C 22.491889,34.81222 22.539653,35.050599 22.377638,35.723553 C 22.215624,36.396507 22.845516,37.373795 23.777399,37.895303 C 25.250323,38.719592 25.146888,38.915777 22.985866,39.396604 C 18.968472,40.290473 6.1420481,40.56797 6.651195,39.75 z M 4,15.968615 L 4,4 L 13.25,4.0859527 C 19.687279,4.1457692 21.676362,4.4201859 19.791359,4.9884082 C 12.554708,7.1698512 7,14.864986 7,22.708736 C 7,25.4105 6.4939567,26.980209 5.5,27.361626 C 4.2181567,27.853516 4,26.196542 4,15.968615 z M 44.232003,23 C 44.232003,21.075 44.437798,20.2875 44.689326,21.25 C 44.940853,22.2125 44.940853,23.7875 44.689326,24.75 C 44.437798,25.7125 44.232003,24.925 44.232003,23 z M 42.509589,14.030214 C 41.617497,11.21948 36.564497,6.7146997 32.752961,5.3321204 C 29.709904,4.2282953 29.96782,4.1472468 36.75,4.0760779 L 44,4 L 44,10 C 44,16.237026 43.57487,17.386617 42.509589,14.030214 z"
       id="path7268"
       style="fill:#5c5c61" />
    <path
       d="M 2.4435365,46.062392 C 3.9078244,44.444372 5.8714292,44.06349 14.348524,43.753173 C 26.021752,43.325856 33.405019,41.453929 38.378051,37.660812 C 42.743277,34.331292 43.208712,34.340645 42.816422,37.75 C 42.587874,39.736294 41.528011,40.985563 39,42.248446 L 35.5,43.996892 L 39.75,43.998446 L 44,44 L 44.185051,34.75 C 44.286828,29.6625 44.234954,20.939375 44.069774,15.365277 C 43.796917,6.1575493 43.962925,5.0370749 45.884723,3.1152768 L 48,1 L 48,24.5 L 48,48 L 24.345012,48 C 1.0072654,48 0.71354148,47.974014 2.4435365,46.062392 z M 10.776433,40.266503 C 13.128471,40.055258 16.728471,40.05823 18.776433,40.273107 C 20.824395,40.487985 18.9,40.660822 14.5,40.65719 C 10.1,40.653557 8.4243949,40.477749 10.776433,40.266503 z"
       id="path7266"
       style="fill:#313132" />
  </g>
</svg>
