<?xml version="1.0" encoding="UTF-8" standalone="no"?>
<!-- Created with Inkscape (http://www.inkscape.org/) -->
<svg
   xmlns:dc="http://purl.org/dc/elements/1.1/"
   xmlns:cc="http://creativecommons.org/ns#"
   xmlns:rdf="http://www.w3.org/1999/02/22-rdf-syntax-ns#"
   xmlns:svg="http://www.w3.org/2000/svg"
   xmlns="http://www.w3.org/2000/svg"
   xmlns:sodipodi="http://sodipodi.sourceforge.net/DTD/sodipodi-0.dtd"
   xmlns:inkscape="http://www.inkscape.org/namespaces/inkscape"
   id="svg2"
   sodipodi:version="0.32"
   inkscape:version="0.46"
   width="156"
   height="130"
   version="1.0"
   sodipodi:docname="gsppolaroid.svg"
   inkscape:output_extension="org.inkscape.output.svg.inkscape">
  <metadata
     id="metadata7">
    <rdf:RDF>
      <cc:Work
         rdf:about="">
        <dc:format>image/svg+xml</dc:format>
        <dc:type
           rdf:resource="http://purl.org/dc/dcmitype/StillImage" />
      </cc:Work>
    </rdf:RDF>
  </metadata>
  <defs
     id="defs5">
    <inkscape:perspective
       sodipodi:type="inkscape:persp3d"
       inkscape:vp_x="0 : 526.18109 : 1"
       inkscape:vp_y="0 : 1000 : 0"
       inkscape:vp_z="744.09448 : 526.18109 : 1"
       inkscape:persp3d-origin="372.04724 : 350.78739 : 1"
       id="perspective9" />
  </defs>
  <sodipodi:namedview
     inkscape:window-height="949"
     inkscape:window-width="1279"
     inkscape:pageshadow="2"
     inkscape:pageopacity="0.0"
     guidetolerance="10.0"
     gridtolerance="10.0"
     objecttolerance="10.0"
     borderopacity="1.0"
     bordercolor="#666666"
     pagecolor="#ffffff"
     id="base"
     showgrid="false"
     inkscape:zoom="3.4551282"
     inkscape:cx="78"
     inkscape:cy="65"
     inkscape:window-x="0"
     inkscape:window-y="26"
     inkscape:current-layer="svg2" />
  <g
     id="g2384"
     transform="translate(2.0259738,2.0259737)">
    <path
       style="fill:#cbcde8"
       d="M 69,118.51002 C 29.862596,114.30905 8.4119056,111.60595 6.3205619,110.6115 C 4.4491395,109.72162 2.4232623,107.58687 1.3961935,105.42249 C -0.26221042,101.92766 -0.26297555,100.87146 1.3807636,84.12266 C 2.3319887,74.430197 3.5168325,62.9 4.0137498,58.5 C 4.510667,54.1 5.3895529,46 5.9668295,40.5 C 9.1564791,10.110628 10.242202,1.4211271 10.940618,0.69267304 C 12.039786,-0.45377027 138.59423,12.799025 143.59325,14.584071 C 149.16837,16.574832 150.5483,19.525427 150.29864,28.921631 C 150.02886,39.075153 142.30094,112.55014 141.02561,117.0872 C 139.70192,121.79628 137.02629,124.08675 132.32762,124.5331 C 130.22243,124.73308 101.725,122.0227 69,118.51002 z M 132.38899,111.75 C 132.72783,109.4125 133.45393,103.1125 134.00253,97.75 C 134.55114,92.3875 135.45,83.725 136,78.5 C 136.55,73.275 137.46181,64.6125 138.02625,59.25 C 138.59069,53.8875 139.49784,45.45 140.04213,40.5 C 142.33439,19.65357 142.4383,15 140.61152,15 C 139.68448,15 111.12779,12.075 77.152227,8.5 C 43.176661,4.925 14.668938,2 13.801731,2 C 12.045778,2 12.176396,1.0846146 7.0952568,49 C 6.541177,54.225 5.5827093,63.45 4.9653288,69.5 C 4.3479482,75.55 3.4281844,83.795062 2.9214093,87.822359 C 2.4146342,91.849657 2,96.842531 2,98.917634 L 2,102.69055 L 23.25,104.92251 C 34.9375,106.15009 62.5,109.08831 84.5,111.45189 C 136.28123,117.01504 131.62997,116.98609 132.38899,111.75 z M 65.5,103.60851 L 8.5,97.456286 L 8.6250057,93.478143 C 8.7568145,89.283499 12.359643,48.143628 14.008961,32 C 14.542774,26.775 15.275167,19.2375 15.636501,15.25 C 16.268778,8.2725158 16.391325,8.0002548 18.896736,8.006779 C 20.328531,8.0105074 46.925,10.707457 78,14 C 109.075,17.292543 135.09488,19.989493 135.82196,19.993221 C 136.82309,19.998355 137.00346,21.274119 136.5652,25.25 C 136.2469,28.1375 135.30228,36.8 134.46603,44.5 C 131.87392,68.3675 131.52655,70 129.03996,70 C 126.31483,70 125.58261,71.732752 127.98548,72.495391 C 130.39234,73.2593 130.61794,78.005258 128.93101,92.386664 C 128.34307,97.398999 127.64049,103.4125 127.36974,105.75 C 126.95216,109.35503 126.5453,109.98185 124.68873,109.88037 C 123.48493,109.81457 96.85,106.99224 65.5,103.60851 z M 118.11649,71.92977 C 115.64071,70.420409 114.4357,70.164304 113.62485,70.975148 C 112.12691,72.47309 114.54779,73.965701 118.5,73.980949 L 121.5,73.992524 L 118.11649,71.92977 z M 71.369714,68.75 C 72.23932,65.505077 72.136267,59.202251 71.204187,58.626194 C 70.76649,58.355683 69.357005,60.348842 68.071998,63.055437 C 66.162723,67.076923 65.964976,68.252872 66.990256,69.488259 C 68.796991,71.665242 70.67322,71.34896 71.369714,68.75 z M 61.729167,69.395833 C 61.396875,69.063542 60.534375,69.028015 59.8125,69.316886 C 59.014767,69.636112 59.251724,69.873069 60.416667,69.921053 C 61.470833,69.964474 62.061458,69.728125 61.729167,69.395833 z M 84,65.134859 C 84,63.559031 85.001026,60.997119 86.224503,59.44172 C 87.946378,57.252711 88.073486,56.757823 86.787049,57.251475 C 82.486585,58.901718 76.848609,60.024469 75.877159,59.42408 C 73.842341,58.166494 77.210047,63.46059 79.878356,65.714037 C 83.346127,68.642648 84,68.550765 84,65.134859 z M 53,66.113499 C 53,65.060353 47.076024,64.045408 45.166154,64.771339 C 44.05436,65.193926 44.05436,65.419085 45.166154,66.123851 C 46.938301,67.247213 53,67.239203 53,66.113499 z M 63.833664,60.576584 C 65.234268,59.160578 65.252363,58.985275 63.947134,59.477303 C 63.093058,59.799262 60.745011,59.373579 58.729253,58.531341 C 54.150482,56.618209 52,56.585366 52,58.428571 C 52,62.711107 60.24248,64.207258 63.833664,60.576584 z M 107,60 C 107,58.726315 102.97089,58.726315 101,60 C 99.884248,60.721055 100.46062,60.973297 103.25,60.984687 C 105.3125,60.993109 107,60.55 107,60 z M 35.547749,56.353977 C 36.896487,54.898665 38,53.128989 38,52.421365 C 38,50.093576 34.289772,49.853004 30.838691,51.957024 C 27.31078,54.107886 23,54.681456 23,53 C 23,52.45 22.31,52 21.466667,52 C 20.463492,52 21.143478,53.210145 23.433333,55.5 C 27.840813,59.907479 31.983811,60.19953 35.547749,56.353977 z M 97,54 C 97,52.666667 96.333333,52 95,52 C 93.07281,52 92.290103,53.956769 93.666667,55.333333 C 95.043231,56.709897 97,55.92719 97,54 z"
       id="path2398" />
    <path
       style="fill:#a5add4"
       d="M 71,115.95637 C 4.4120058,108.83753 8.2752929,109.40009 5.5139217,106.42052 C 4.280127,105.08923 2.5347604,104 1.6353293,104 C 0.57172814,104 0.04055528,103.21338 0.11600135,101.75 C 0.20329471,100.05683 0.34518087,99.93309 0.68932551,101.25 C 0.94085306,102.2125 1.3769315,103 1.6583887,103 C 1.9398459,103 30.14435,105.93157 64.335065,109.5146 C 98.525779,113.09763 127.84095,116.13513 129.47988,116.2646 L 132.45976,116.5 L 137.59855,67.714667 C 140.42488,40.882734 143.06017,18.607734 143.45475,18.214667 C 144.85696,16.817821 148,22.202311 148,26.001354 C 148,32.626395 139.07482,114.67301 138.06529,117.32827 C 136.81896,120.60638 134.09428,122.02739 129.31574,121.89145 C 127.21708,121.83174 100.975,119.16095 71,115.95637 z M 124.55165,105.08357 C 124.24014,104.57954 124.42622,101.99204 124.96516,99.333572 C 125.5041,96.675107 126.06992,92.959655 126.22253,91.077012 C 126.37514,89.194368 127.13421,87.445466 127.90935,87.190562 C 128.88437,86.869929 129.12203,87.239613 128.68053,88.390141 C 128.32954,89.304813 127.74313,93.641216 127.3774,98.026591 C 126.76187,105.40741 125.97158,107.38106 124.55165,105.08357 z M 62.194563,97.9665 C 58.176572,96.969005 54.351572,95.718346 53.694563,95.187258 C 53.037553,94.656171 48.731835,93.895011 44.126299,93.495792 C 37.173697,92.893123 35.670413,92.455661 35.268329,90.918088 C 35.00198,89.899571 33.932646,88.79601 32.892029,88.465731 C 31.851413,88.135453 31,87.472107 31,86.991629 C 31,85.13967 32.821077,85.156212 36.336002,87.0401 C 38.347214,88.118045 41.006882,89.031628 42.246376,89.070285 C 44.395395,89.137308 44.407167,89.180462 42.5,90 C 40.859135,90.705104 41.128486,90.874502 44,90.943369 C 45.925,90.989536 48.625,91.325512 50,91.689981 C 52.449014,92.339139 52.438817,92.296923 49.5,89.620003 C 47.117284,87.449626 46.911523,86.98646 48.5,87.369019 C 49.6,87.633936 52.010143,88.155501 53.855873,88.528052 L 57.211747,89.205418 L 55.14537,86.352709 C 52.808052,83.125955 51.058987,73 52.838945,73 C 53.559368,73 53.646262,72.228153 53.092247,70.75 C 51.773853,67.232427 55.24357,63 59.445649,63 C 62.272566,63 66.090761,60.631132 64.892501,59.620688 C 63.33636,58.308458 54.282319,56.142023 52.365223,56.623183 C 49.579998,57.32223 49.483572,57.817683 51.556704,60.777494 C 52.846647,62.619146 52.871989,63 51.704587,63 C 48.878912,63 43.437861,58.321951 40.964255,53.765791 C 39.569596,51.196954 38.127579,48.794246 37.759774,48.426441 C 37.391969,48.058636 34.550707,49.191379 31.445857,50.943647 C 26.279367,53.859434 25.654057,53.996901 24.071598,52.564795 C 22.225311,50.893928 20,50.478029 20,51.803833 C 20,53.462762 26.67258,58.870734 31.25,60.921697 C 35.945143,63.025408 37.640146,65.934275 34.25,66.070128 C 33.2875,66.108698 34.887079,66.953347 37.80462,67.947126 C 43.356128,69.838093 48.34516,73.632502 47.365067,75.218326 C 46.691894,76.307543 39.584026,75.70485 32.5,73.957881 C 24.98193,72.103874 17.864631,66.209448 22.75,65.883097 C 23.7125,65.818801 22.036694,65.357995 19.025987,64.859084 C 16.015279,64.360173 13.156775,63.556775 12.673755,63.073755 C 11.459578,61.859578 15.812439,9.8542279 17.248436,8.4182305 C 17.800509,7.8661572 133.15266,19.576444 135.5904,20.432037 C 136.19012,20.642526 136.54061,22.093926 136.36926,23.657372 C 136.19791,25.220817 135.12159,35.05 133.97743,45.5 C 132.83327,55.95 131.48559,65.500086 130.98258,66.722412 C 130.47957,67.944739 128.92771,69.231023 127.53401,69.58082 C 124.57096,70.324499 124.29702,71.491174 126.75,72.919901 C 129.45806,74.497201 126.3123,74.213447 123.20034,72.599715 C 121.71515,71.829558 118.59593,69.242058 116.26873,66.849715 C 109.41683,59.806015 106.43292,57.853239 103.60597,58.56276 C 101.46635,59.09977 100.90488,58.708305 99.708047,55.84507 C 98.939015,54.005282 97.507658,51.834727 96.527253,51.021615 C 94.91393,49.683584 94.495739,49.828458 92.122349,52.547609 C 89.253994,55.833832 80.149101,59.533759 76.973916,58.70343 C 73.148262,57.702999 74.957402,61.20463 81.5,67.463765 C 85.075,70.883876 88,74.406305 88,75.291384 C 88,76.176464 88.7875,77.397145 89.75,78.004009 C 91.198238,78.917135 90.945728,79.042687 88.285627,78.732121 C 85.468601,78.403234 84.94169,78.728512 84.023132,81.363488 C 83.446665,83.017142 82.276319,85.142177 81.422362,86.085789 C 80.532873,87.068664 80.276274,88.052713 80.82159,88.389736 C 81.345121,88.713297 86.661935,89.473614 92.636733,90.07933 C 117.66532,92.616691 118.59165,92.808345 116.40345,94.99655 C 115.78583,95.614172 113.17208,95.594491 109.11859,94.941696 C 104.50787,94.199161 102.4237,94.233401 101.41781,95.068208 C 100.49374,95.835122 94.17546,96.204806 82.269338,96.18859 C 72.496202,96.175279 65.591637,96.477314 66.925861,96.859777 C 68.260085,97.242241 69.535085,98.105254 69.759194,98.777583 C 69.983304,99.449912 70.016667,99.950529 69.833333,99.890064 C 69.65,99.829599 66.212553,98.963996 62.194563,97.9665 z M 63,94 C 63,93.45 62.523442,93 61.940983,93 C 61.358524,93 61.160081,93.45 61.5,94 C 61.839919,94.55 62.316476,95 62.559017,95 C 62.801558,95 63,94.55 63,94 z M 71.836017,74.867057 C 74.480057,71.161004 74.803148,68.797646 73.585906,62.066922 C 72.588789,56.553381 72.274421,55.964417 71.09022,57.391291 C 69.48971,59.319788 66.357644,64.77021 65.424946,67.25 C 64.976556,68.442148 63.688212,69 61.383369,69 C 58.514711,69 58,69.351638 58,71.311439 C 58,72.58273 58.840023,74.524536 59.866718,75.626564 C 62.552668,78.509593 69.55426,78.06531 71.836017,74.867057 z M 81.15,70.5 C 81.15,69.9775 80.66625,69.38875 80.075,69.191667 C 79.48375,68.994583 79,69.583333 79,70.5 C 79,71.416667 79.48375,72.005417 80.075,71.808333 C 80.66625,71.61125 81.15,71.0225 81.15,70.5 z M 50,42.478692 C 50,40.371811 43.274261,40.178226 40.223097,42.197287 L 37.5,43.999253 L 43.75,43.868912 C 48.040503,43.779436 50,43.343575 50,42.478692 z M 77.5,42 C 77.839919,41.45 77.641476,41 77.059017,41 C 76.476558,41 76,41.45 76,42 C 76,42.55 76.198442,43 76.440983,43 C 76.683524,43 77.160081,42.55 77.5,42 z M 1.2860141,93.5 C 1.2935217,90.75 1.4877269,89.743687 1.7175812,91.26375 C 1.9474356,92.783812 1.9412931,95.033812 1.7039312,96.26375 C 1.4665693,97.493687 1.2785066,96.25 1.2860141,93.5 z M 2.2320027,84 C 2.2320027,82.075 2.437798,81.2875 2.6893255,82.25 C 2.9408531,83.2125 2.9408531,84.7875 2.6893255,85.75 C 2.437798,86.7125 2.2320027,85.925 2.2320027,84 z M 3.2860141,74.5 C 3.2935217,71.75 3.4877269,70.743687 3.7175812,72.26375 C 3.9474356,73.783812 3.9412931,76.033812 3.7039312,77.26375 C 3.4665693,78.493687 3.2785066,77.25 3.2860141,74.5 z M 99.130371,72.969901 C 96.177075,72.540578 93.129071,71.557642 92.357028,70.7856 C 89.430445,67.859017 90.428623,57 93.624221,57 C 94.486092,57 96.60139,58.0125 98.324885,59.25 C 100.04838,60.4875 102.36785,61.95153 103.47926,62.503401 C 105.69606,63.604158 110.25241,71.782577 109.40907,73.14713 C 108.81009,74.116299 106.77502,74.08121 99.130371,72.969901 z M 4.2320027,65 C 4.2320027,63.075 4.437798,62.2875 4.6893255,63.25 C 4.9408531,64.2125 4.9408531,65.7875 4.6893255,66.75 C 4.437798,67.7125 4.2320027,66.925 4.2320027,65 z M 5.2860141,55.5 C 5.2935217,52.75 5.4877269,51.743687 5.7175812,53.26375 C 5.9474356,54.783812 5.9412931,57.033812 5.7039312,58.26375 C 5.4665693,59.493687 5.2785066,58.25 5.2860141,55.5 z M 6.1949487,45.5 C 6.2153284,43.85 6.4394473,43.296064 6.6929907,44.269032 C 6.9465341,45.241999 6.9298598,46.591999 6.6559367,47.269032 C 6.3820136,47.946064 6.174569,47.15 6.1949487,45.5 z M 7.2860141,36.5 C 7.2935217,33.75 7.4877269,32.743687 7.7175812,34.26375 C 7.9474356,35.783812 7.9412931,38.033812 7.7039312,39.26375 C 7.4665693,40.493687 7.2785066,39.25 7.2860141,36.5 z M 8.1949487,26.5 C 8.2153284,24.85 8.4394473,24.296064 8.6929907,25.269032 C 8.9465341,26.241999 8.9298598,27.591999 8.6559367,28.269032 C 8.3820136,28.946064 8.174569,28.15 8.1949487,26.5 z M 9.2860141,17.5 C 9.2935217,14.75 9.4877269,13.743687 9.7175812,15.26375 C 9.9474356,16.783812 9.9412931,19.033812 9.7039312,20.26375 C 9.4665693,21.493687 9.2785066,20.25 9.2860141,17.5 z M 75.5,8.1247516 C 41.4,4.4811382 14.442987,1.3653114 15.595526,1.2006919 C 18.076221,0.8463693 142.17705,13.84372 142.86303,14.529695 C 143.68578,15.352446 138.75681,14.883794 75.5,8.1247516 z M 10.157895,8 C 10.157895,6.625 10.384868,6.0625 10.662281,6.75 C 10.939693,7.4375 10.939693,8.5625 10.662281,9.25 C 10.384868,9.9375 10.157895,9.375 10.157895,8 z M 11.078947,1.4166667 C 11.126931,0.25172368 11.363888,0.014767303 11.683114,0.8125 C 11.971985,1.534375 11.936458,2.396875 11.604167,2.7291667 C 11.271875,3.0614583 11.035526,2.4708333 11.078947,1.4166667 z"
       id="path2396" />
    <path
       style="fill:#9f9fa2"
       d="M 70.5,114.9558 C 5.9844273,108.02186 8.6715048,108.39949 6.4601781,105.956 C 5.4865938,104.8802 3.7847693,104 2.6783458,104 C 1.5719223,104 0.86539863,103.80127 1.1082933,103.55837 C 1.3511879,103.31548 30.788688,106.19333 66.52496,109.95359 C 102.26123,113.71385 131.79662,116.50008 132.15915,116.14521 C 132.52169,115.79035 134.45134,99.75 136.44727,80.5 C 141.53923,31.389937 142.88551,19.781155 143.56804,19.098632 C 144.80934,17.857324 146.99987,22.548245 146.99677,26.44113 C 146.99062,34.173216 138.08899,114.96521 137.02396,116.95523 C 135.51713,119.77077 132.74658,121.01938 128.31574,120.87978 C 126.21708,120.81366 100.2,118.14787 70.5,114.9558 z M 125.63837,99.5 C 125.95496,98.675 126.39083,98 126.60699,98 C 126.82314,98 127,98.675 127,99.5 C 127,100.325 126.56412,101 126.03138,101 C 125.49865,101 125.32179,100.325 125.63837,99.5 z M 66.8,97.8 C 67.733333,96.866667 68.266667,96.866667 69.2,97.8 C 70.133333,98.733333 69.866667,99 68,99 C 66.133333,99 65.866667,98.733333 66.8,97.8 z M 55,95.587857 C 53.625,94.855219 50.25,93.961192 47.5,93.60113 C 36.0984,92.108299 34.802909,91.797091 35.807649,90.792351 C 36.473581,90.126419 38.524213,90.161157 41.95277,90.896451 C 44.78289,91.503403 48.313793,91.985688 49.799221,91.968197 C 52.381072,91.937794 52.415145,91.872196 50.573001,90.478529 C 49.513151,89.676704 48.838151,88.843467 49.073001,88.626892 C 49.811192,87.946143 54,89.888114 54,90.911096 C 54,91.447646 55.9125,93.032889 58.25,94.43386 C 61.978764,96.668679 62.193391,96.977329 60,96.950502 C 58.625,96.933684 56.375,96.320494 55,95.587857 z M 74,95.362617 C 61.731403,93.571312 56.67134,90.607724 54.061334,83.6849 C 52.703361,80.082992 52.660552,73.672176 54,74.5 C 54.55,74.839919 55,74.668034 55,74.118034 C 55,73.568034 54.55,72.839919 54,72.5 C 52.501428,71.573832 52.794865,67.737883 54.556704,65.222506 C 55.644271,63.669787 57.13401,63 59.5,63 C 61.869428,63 63.355736,62.330203 64.448583,60.769946 C 65.990551,58.568478 65.934827,58.521913 60.101436,57.137406 C 52.59927,55.356828 48.640291,56.157145 49.486144,59.283312 C 50.201316,61.926502 41.328268,52.609641 40.4275,49.771572 C 39.633245,47.269096 36.407393,47.571208 31.173971,50.638198 C 27.535893,52.770254 26.322569,53.058031 24.849682,52.138198 C 22.688776,50.788689 19,50.628165 19,51.883638 C 19,52.756596 23.970542,57.269135 29.996744,61.867104 C 31.703053,63.169012 32.871518,64.461815 32.593333,64.74 C 31.939695,65.393638 18.889539,61.967983 17.25,60.712388 C 16.5625,60.185885 16,57.72232 16,55.237798 C 16,52.54133 15.431477,50.272967 14.589558,49.610243 C 13.440793,48.705981 13.337583,46.737482 14.033255,39 C 15.991869,17.215675 16.887828,8.7788384 17.284781,8.3818854 C 17.515997,8.1506693 44.32151,10.762959 76.852587,14.186973 L 136,20.412454 L 135.98288,23.456227 C 135.95936,27.63837 131.15267,67.180664 130.60072,67.73261 C 130.35598,67.977357 128.26956,68.601398 125.96425,69.119368 C 121.88737,70.035381 121.63232,69.936693 116.63638,65.510152 C 113.81137,63.007114 110.7125,60.293359 109.75,59.479586 C 108.7875,58.665814 106.67879,58 105.06398,58 C 102.68572,58 101.70584,57.248924 99.905875,54.046316 C 98.683723,51.87179 97.047331,49.848404 96.269448,49.549903 C 94.31988,48.801783 91.261684,50.600146 90.522395,52.929439 C 90.179037,54.011263 88.614559,55.145383 86.966138,55.507437 C 85.347376,55.862977 83.766217,56.569252 83.452451,57.076937 C 83.138684,57.584621 81.108524,58 78.940983,58 C 76.773442,58 75,58.428826 75,58.952947 C 75,60.442616 77.246277,65 77.980516,65 C 78.343234,65 80.521002,66.610065 82.820001,68.577923 C 85.59133,70.950077 87,72.972092 87,74.577923 C 87,77.264238 85.534888,77.836278 84.638374,75.5 C 84.321791,74.675 83.148646,74 82.031385,74 C 79.869639,74 79.305336,72.54736 81.048558,71.469989 C 81.758027,71.031514 81.694835,70.337225 80.853152,69.323059 C 79.774169,68.022964 79.498434,68.123567 78.77411,70.081603 C 78.291682,71.385729 77.586099,71.950724 77.103283,71.419516 C 75.638445,69.807858 72.711752,57.193546 73.391609,55.421867 C 74.701617,52.008039 71.236929,55.969498 69.124404,60.300907 C 65.810923,67.094694 63.639379,69.337706 61.142706,68.545293 C 59.869585,68.14122 59.24456,67.368573 59.632184,66.678004 C 60.076572,65.886305 59.957326,65.827932 59.268554,66.5 C 58.704884,67.05 58.012662,69.695007 57.730283,72.377793 C 57.240556,77.03052 57.350286,77.305946 60.108433,78.347031 C 61.698795,78.947325 63,79.808048 63,80.259747 C 63,80.711447 64.8,80.974812 67,80.845002 C 69.2,80.715192 71,80.156963 71,79.604492 C 71,79.001579 71.448499,79.048499 72.121855,79.721855 C 72.738875,80.338875 73.868979,80.603772 74.633196,80.310514 C 75.542734,79.961492 75.830338,80.278558 75.465832,81.228446 C 74.719821,83.172519 77.315297,85.199976 79.484453,84.367592 C 80.440326,84.00079 81.829749,82.305526 82.57206,80.600339 C 83.314371,78.895153 83.937648,78.175 83.95712,79 C 83.976592,79.825 83.094206,81.973376 81.996262,83.77417 C 80.898318,85.574963 80,87.435694 80,87.909129 C 80,88.9909 95.641254,91.339751 97.049436,90.469447 C 97.620431,90.116552 98.630398,90.264924 99.293805,90.799161 C 99.957212,91.333398 103.53625,91.955886 107.24722,92.182467 C 111.04899,92.414592 114.54132,93.17342 115.24722,93.920739 C 116.28457,95.018977 115.18113,95.133906 108.83029,94.589098 C 103.91981,94.167852 100.93059,94.303292 100.52128,94.965575 C 99.921323,95.936319 79.974494,96.234938 74,95.362617 z M 52,45.934259 C 52,44.798101 51.534167,42.998101 50.964816,41.934259 C 48.902282,38.080377 37,40.322946 37,44.56544 C 37,45.732131 38.050759,45.893975 42.347075,45.389028 C 46.735467,44.873258 47.805586,45.050983 48.31569,46.380292 C 49.217692,48.730872 52,48.394038 52,45.934259 z M 80.461878,42.938317 C 79.341177,41.124985 74.791858,39.808142 73.637161,40.962839 C 72.920946,41.679054 73.12606,42.038681 74.3,42.125 C 77.28542,42.344516 77.817633,42.4843 78.583333,43.25 C 79.724325,44.390992 81.207583,44.144893 80.461878,42.938317 z M 126,34.5 C 123.41546,31.748884 120.44085,31.349401 117.75,33.392046 C 115.19451,35.331941 115.54342,35.596394 120.0867,35.163123 C 122.33438,34.948771 124.67438,35.27438 125.2867,35.886697 C 127.58552,38.185524 128.24958,36.894568 126,34.5 z M 39.2,26.8 C 38.54,26.14 38,24.79 38,23.8 C 38,21.427807 35.167663,21.522218 32,24 L 29.5,25.955528 L 33.190983,25.977764 C 35.221024,25.989994 37.160081,26.45 37.5,27 C 37.839919,27.55 38.631476,28 39.259017,28 C 40.080874,28 40.064367,27.664367 39.2,26.8 z M 126,94.5 C 126,93.675 126.43588,93 126.96862,93 C 127.50135,93 127.67821,93.675 127.36163,94.5 C 127.04504,95.325 126.60917,96 126.39301,96 C 126.17686,96 126,95.325 126,94.5 z M 1.1578947,93 C 1.1578947,91.625 1.3848684,91.0625 1.6622807,91.75 C 1.939693,92.4375 1.939693,93.5625 1.6622807,94.25 C 1.3848684,94.9375 1.1578947,94.375 1.1578947,93 z M 33.02896,88.03906 C 32.219889,87.527387 31.802739,86.863928 32.101961,86.564705 C 32.401183,86.265483 33.513151,86.676704 34.573001,87.478529 C 36.681375,89.073612 35.400236,89.538702 33.02896,88.03906 z M 3.1578947,74 C 3.1578947,72.625 3.3848684,72.0625 3.6622807,72.75 C 3.939693,73.4375 3.939693,74.5625 3.6622807,75.25 C 3.3848684,75.9375 3.1578947,75.375 3.1578947,74 z M 102.29197,72.299767 C 99.738029,71.804867 96.53297,66.950875 95.656179,62.25 C 94.911487,58.257371 95.994073,58.13096 100.63257,61.668915 C 103.53613,63.88357 108,70.421901 108,72.460162 C 108,73.043105 105.81048,72.98158 102.29197,72.299767 z M 5.1578947,55 C 5.1578947,53.625 5.3848684,53.0625 5.6622807,53.75 C 5.939693,54.4375 5.939693,55.5625 5.6622807,56.25 C 5.3848684,56.9375 5.1578947,56.375 5.1578947,55 z M 7.1578947,36 C 7.1578947,34.625 7.3848684,34.0625 7.6622807,34.75 C 7.939693,35.4375 7.939693,36.5625 7.6622807,37.25 C 7.3848684,37.9375 7.1578947,37.375 7.1578947,36 z M 9.1578947,17 C 9.1578947,15.625 9.3848684,15.0625 9.6622807,15.75 C 9.939693,16.4375 9.939693,17.5625 9.6622807,18.25 C 9.3848684,18.9375 9.1578947,18.375 9.1578947,17 z M 139.75,14.337719 C 140.4375,14.060307 141.5625,14.060307 142.25,14.337719 C 142.9375,14.615132 142.375,14.842105 141,14.842105 C 139.625,14.842105 139.0625,14.615132 139.75,14.337719 z M 130.76166,13.292739 C 132.00557,13.053546 133.80557,13.062627 134.76166,13.31292 C 135.71775,13.563212 134.7,13.758916 132.5,13.747817 C 130.3,13.736717 129.51775,13.531932 130.76166,13.292739 z M 121.25,12.310674 C 122.2125,12.059147 123.7875,12.059147 124.75,12.310674 C 125.7125,12.562202 124.925,12.767997 123,12.767997 C 121.075,12.767997 120.2875,12.562202 121.25,12.310674 z M 111.76166,11.292739 C 113.00557,11.053546 114.80557,11.062627 115.76166,11.31292 C 116.71775,11.563212 115.7,11.758916 113.5,11.747817 C 111.3,11.736717 110.51775,11.531932 111.76166,11.292739 z M 102.25,10.310674 C 103.2125,10.059147 104.7875,10.059147 105.75,10.310674 C 106.7125,10.562202 105.925,10.767997 104,10.767997 C 102.075,10.767997 101.2875,10.562202 102.25,10.310674 z M 92.761659,9.2927391 C 94.005572,9.0535459 95.805572,9.0626272 96.761659,9.3129198 C 97.717747,9.5632124 96.7,9.758916 94.5,9.7478166 C 92.3,9.7367172 91.517747,9.5319324 92.761659,9.2927391 z M 83.25,8.3106745 C 84.2125,8.0591469 85.7875,8.0591469 86.75,8.3106745 C 87.7125,8.562202 86.925,8.7679973 85,8.7679973 C 83.075,8.7679973 82.2875,8.562202 83.25,8.3106745 z M 73.25,7.3106745 C 74.2125,7.0591469 75.7875,7.0591469 76.75,7.3106745 C 77.7125,7.562202 76.925,7.7679973 75,7.7679973 C 73.075,7.7679973 72.2875,7.562202 73.25,7.3106745 z M 64.25,6.3106745 C 65.2125,6.0591469 66.7875,6.0591469 67.75,6.3106745 C 68.7125,6.562202 67.925,6.7679973 66,6.7679973 C 64.075,6.7679973 63.2875,6.562202 64.25,6.3106745 z M 54.25,5.3106745 C 55.2125,5.0591469 56.7875,5.0591469 57.75,5.3106745 C 58.7125,5.562202 57.925,5.7679973 56,5.7679973 C 54.075,5.7679973 53.2875,5.562202 54.25,5.3106745 z M 45.25,4.3106745 C 46.2125,4.0591469 47.7875,4.0591469 48.75,4.3106745 C 49.7125,4.562202 48.925,4.7679973 47,4.7679973 C 45.075,4.7679973 44.2875,4.562202 45.25,4.3106745 z M 35.25,3.3106745 C 36.2125,3.0591469 37.7875,3.0591469 38.75,3.3106745 C 39.7125,3.562202 38.925,3.7679973 37,3.7679973 C 35.075,3.7679973 34.2875,3.562202 35.25,3.3106745 z M 25.761659,2.2927391 C 27.005572,2.0535459 28.805572,2.0626272 29.761659,2.3129198 C 30.717747,2.5632124 29.7,2.758916 27.5,2.7478166 C 25.3,2.7367172 24.517747,2.5319324 25.761659,2.2927391 z M 16.25,1.3106745 C 17.2125,1.0591469 18.7875,1.0591469 19.75,1.3106745 C 20.7125,1.562202 19.925,1.7679973 18,1.7679973 C 16.075,1.7679973 15.2875,1.562202 16.25,1.3106745 z"
       id="path2394" />
    <path
       style="fill:#499ccc"
       d="M 54.971261,95.543955 C 53.580454,94.787172 48.886098,93.673333 44.539358,93.068757 C 40.192618,92.464181 36.418051,91.751384 36.151431,91.484764 C 34.925973,90.259307 37.119699,90.019068 41.118024,90.940863 C 43.528111,91.496498 47.3,91.964414 49.5,91.980677 C 51.959377,91.998858 55.040623,92.959142 57.5,94.473914 C 60.404977,96.263138 60.952489,96.935164 59.5,96.928753 C 58.4,96.923897 56.362067,96.300738 54.971261,95.543955 z M 72.230982,94.807841 C 64.155454,93.965929 61.497156,92.873803 58.518999,89.17446 C 53.83367,83.354539 52.28237,78.373279 56.454545,82.545455 C 57.838263,83.929172 60.077151,85 61.586511,85 C 64.063565,85 70.758495,88.327812 72.066419,90.209191 C 72.37795,90.657311 74.081106,90.519085 75.851211,89.902023 C 78.228681,89.073233 81.085429,89.072734 86.784792,89.900114 C 91.028156,90.516126 98.949388,91.437493 104.38753,91.947597 C 109.82567,92.4577 114.75317,93.35317 115.33753,93.937529 C 116.67177,95.271772 109.88105,95.399868 105.43358,94.12435 C 103.22486,93.490896 101.84373,93.644062 100.44018,94.678113 C 98.351727,96.216766 86.27782,96.272291 72.230982,94.807841 z M 50.5,90 C 49.717818,88.734403 51.041628,88.734403 53,90 C 54.292687,90.835399 54.266292,90.971491 52.809017,90.984687 C 51.878976,90.993109 50.839919,90.55 50.5,90 z M 85,75.225684 C 85,72.630299 83.946128,71.799821 82.342009,73.131121 C 81.46156,73.861829 81,73.887506 81,73.205778 C 81,72.634267 81.5625,71.932436 82.25,71.646155 C 83.136598,71.276967 82.935671,70.671296 81.55887,69.562821 C 79.060598,67.551439 78.236287,67.592077 77.762097,69.75 C 77.550593,70.7125 76.316157,68.275176 75.018904,64.333724 C 72.800632,57.593929 72.757696,57.018748 74.297444,54.668796 C 75.482059,52.860844 76.524401,52.324373 78.068177,52.72808 C 79.761066,53.17078 80.127152,52.895034 79.840649,51.393008 C 79.114393,47.585524 75.660695,48.66985 72.668054,53.644923 C 70.950249,56.500662 69.560053,57.906185 69.134427,57.217508 C 68.738786,56.577346 67.383741,58.790193 66.027605,62.291083 C 64.704777,65.705987 63.546817,68.623092 63.45436,68.773539 C 62.844846,69.76534 60.233422,67.555287 60.670131,66.417241 C 60.969247,65.637759 60.770933,65 60.229434,65 C 58.443363,65 57.153813,67.466556 56.824513,71.51268 L 56.5,75.5 L 54.71965,72.240969 C 53.364669,69.760601 53.190951,68.511722 53.992568,67.013887 C 55.233132,64.695872 58.100522,63 60.779271,63 C 62.552301,63 66.830723,59.386663 65.910536,58.666395 C 65.684741,58.489656 62.959534,57.756827 59.85452,57.037885 C 53.4476,55.554413 48.503645,56.264136 49.377694,58.541872 C 49.685439,59.343842 49.511818,60 48.991869,60 C 47.894514,60 40,50.263585 40,48.910202 C 40,47.165695 35.644144,48.018502 31.173971,50.638198 C 27.535893,52.770254 26.322569,53.058031 24.849682,52.138198 C 22.688776,50.788689 19,50.628165 19,51.883638 C 19,52.828766 24.739934,58.125886 29.565054,61.633639 C 33.728956,64.660702 32.338432,65.197685 25.674842,63.135935 C 18.668726,60.968205 17.214947,59.609466 16.602766,54.65694 C 16.341494,52.543257 15.465923,50.293257 14.657054,49.65694 C 13.443709,48.702432 13.329149,46.925255 14.002321,39.5 C 15.195154,26.342748 17.082618,8.5840483 17.312636,8.3540308 C 17.422152,8.2445149 44.059111,10.946157 76.505878,14.35768 C 131.99648,20.19208 135.51643,20.677429 135.77668,22.530224 C 136.10625,24.87644 131.29666,67.036677 130.62254,67.710795 C 130.36579,67.96754 128.26956,68.601398 125.96425,69.119368 C 121.88737,70.035381 121.63232,69.936693 116.63638,65.510152 C 113.81137,63.007114 110.7125,60.293359 109.75,59.479586 C 108.7875,58.665814 106.67879,58 105.06398,58 C 102.68572,58 101.70584,57.248924 99.905875,54.046316 C 98.683723,51.87179 97.047331,49.848404 96.269448,49.549903 C 94.31988,48.801783 91.261684,50.600146 90.522395,52.929439 C 90.179037,54.011263 88.614559,55.145383 86.966138,55.507437 C 85.347376,55.862977 83.766217,56.569252 83.452451,57.076937 C 83.138684,57.584621 81.108524,58 78.940983,58 C 73.132539,58 73.713899,60.778999 81,67.842445 C 86.948675,73.609335 87.92944,75.30754 86,76.5 C 85.45,76.839919 85,76.266476 85,75.225684 z M 52,45.934259 C 52,44.798101 51.534167,42.998101 50.964816,41.934259 C 48.902282,38.080377 37,40.322946 37,44.56544 C 37,45.732131 38.050759,45.893975 42.347075,45.389028 C 46.735467,44.873258 47.805586,45.050983 48.31569,46.380292 C 49.217692,48.730872 52,48.394038 52,45.934259 z M 80.461878,42.938317 C 79.465016,41.325361 75.224387,39.976664 73.377773,40.685277 C 72.14211,41.159445 72.571101,41.615862 75.119089,42.537914 C 79.508637,44.12638 81.278098,44.258988 80.461878,42.938317 z M 126,34.5 C 123.41546,31.748884 120.44085,31.349401 117.75,33.392046 C 115.19451,35.331941 115.54342,35.596394 120.0867,35.163123 C 122.33438,34.948771 124.67438,35.27438 125.2867,35.886697 C 127.58552,38.185524 128.24958,36.894568 126,34.5 z M 39.2,26.8 C 38.54,26.14 38,24.79 38,23.8 C 38,21.427807 35.167663,21.522218 32,24 L 29.5,25.955528 L 33.190983,25.977764 C 35.221024,25.989994 37.160081,26.45 37.5,27 C 37.839919,27.55 38.631476,28 39.259017,28 C 40.080874,28 40.064367,27.664367 39.2,26.8 z M 104.5,72.208017 C 102.49861,71.783878 98.223339,68.013562 99.711045,67.984687 C 100.14497,67.976265 100.01121,67.638765 99.413801,67.234687 C 98.195376,66.410565 95.755864,59.910803 96.416881,59.249786 C 97.439749,58.226918 102.99986,63.611083 105.06281,67.62213 C 107.52888,72.416954 107.47709,72.83893 104.5,72.208017 z"
       id="path2392" />
    <path
       style="fill:#245aa2"
       d="M 55.908345,95.51099 C 54.482934,94.736076 49.574118,93.632777 44.999864,93.059214 C 40.42561,92.485651 36.454355,91.787688 36.174853,91.508186 C 34.908459,90.241792 37.151015,89.948218 40.656229,90.921528 C 42.770303,91.508553 46.525,92.0054 49,92.025633 C 51.983245,92.05002 54.848227,92.892815 57.5,94.526086 C 61.7024,97.114415 60.372028,97.937639 55.908345,95.51099 z M 76,94.979394 C 64.859026,93.997626 61.518535,92.907747 58.626435,89.311043 C 53.844626,83.364238 52.223543,78.314452 56.454545,82.545455 C 57.838263,83.929172 60.077151,85 61.586511,85 C 64.063565,85 70.758495,88.327812 72.066419,90.209191 C 72.37795,90.657311 73.987031,90.55188 75.642155,89.974901 C 77.863166,89.200652 81.775092,89.347348 90.575736,90.534904 C 97.134081,91.419885 105.2,92.412868 108.5,92.741534 C 113.47319,93.236843 114.0315,93.46586 111.76239,94.079757 C 110.25671,94.487113 107.41119,94.325179 105.43902,93.719903 C 102.54662,92.832199 101.68376,92.893657 100.97668,94.03774 C 99.895359,95.787346 89.58122,96.176203 76,94.979394 z M 84.821494,74.764831 C 84.591922,73.147562 83.928158,72.583402 82.5,72.791698 C 80.838173,73.034073 80.75363,72.904045 82,72.022695 C 83.303152,71.101192 83.245261,70.767639 81.55887,69.480997 C 79.035397,67.555698 78.228812,67.61304 77.775067,69.75 C 77.570697,70.7125 76.379269,68.472289 75.127451,64.771753 C 72.77711,57.823844 72.906124,55.146729 75.702446,52.840305 C 77.158437,51.639394 77.20641,51.727167 76.16372,53.684259 C 73.577429,58.53863 74.654043,61.690413 81,67.842445 C 86.889209,73.551686 87.924751,75.310439 86.071494,76.455814 C 85.560816,76.77143 84.998316,76.010488 84.821494,74.764831 z M 54.71965,72.240969 C 53.364669,69.760601 53.190951,68.511722 53.992568,67.013887 C 55.233132,64.695872 58.100522,63 60.779271,63 C 63.483876,63 65.469653,60.347546 67.517179,54 C 68.492952,50.975 69.47031,48.012036 69.689085,47.415635 C 69.931121,46.755821 68.405896,46.274726 65.793429,46.186846 C 59.792623,45.984987 54,44.960309 54,44.100664 C 54,43.702716 53.08247,42.39227 51.961045,41.188561 C 49.341302,38.376598 42.930307,38.263688 36.877118,40.922905 C 33.104789,42.580122 31.463721,42.72436 25,41.966818 C 20.875,41.483372 16.813723,41.068064 15.974939,41.043912 C 14.617436,41.004825 14.593392,39.22035 15.756095,24.802177 C 16.474515,15.893374 17.163437,8.5032294 17.287034,8.3796326 C 17.803367,7.8632992 134.89398,20.560214 135.53568,21.202121 C 136.25858,21.925254 134.58156,38.443675 132.84043,47.75 C 131.96448,52.431937 131.58597,53 129.34226,53 C 124.1702,53 101.61187,49.862648 99.795906,48.890772 C 98.75791,48.335254 95.341697,47.988442 92.204321,48.120078 C 89.066944,48.251715 85.0375,48.017794 83.25,47.600254 C 81.121662,47.103097 80,47.213638 80,47.920545 C 80,48.514245 78.984223,49 77.742718,49 C 76.124153,49 74.686174,50.323234 72.660772,53.676425 C 70.945738,56.515783 69.560462,57.906847 69.134427,57.217508 C 68.738786,56.577346 67.383741,58.790193 66.027605,62.291083 C 64.704777,65.705987 63.546817,68.623092 63.45436,68.773539 C 62.844846,69.76534 60.233422,67.555287 60.670131,66.417241 C 60.969247,65.637759 60.770933,65 60.229434,65 C 58.443363,65 57.153813,67.466556 56.824513,71.51268 L 56.5,75.5 L 54.71965,72.240969 z M 82.089289,43.607587 C 80.336513,41.495621 75.258652,39.685264 73.26796,40.46261 C 71.923954,40.987432 72.698993,41.593389 76.5,42.989555 C 82.710563,45.270785 83.546317,45.363198 82.089289,43.607587 z M 126.23422,33.933135 C 122.2889,30.389671 119.98367,30.24981 116.39552,33.336211 C 113.02355,36.236662 113.82085,38.267071 117.75432,36.796524 C 119.81525,36.026038 121.37287,36.140372 124,37.254976 C 129.08618,39.412874 130.3098,37.593589 126.23422,33.933135 z M 40.996262,28.75 C 40.992169,27.381168 37.325631,21 36.543212,21 C 34.930852,21 25,26.063802 25,26.885954 C 25,28.573762 26.461437,28.910844 30.16125,28.076401 C 32.584794,27.529803 34.472121,27.696776 36.106051,28.602341 C 39.151157,30.290017 41.001034,30.345873 40.996262,28.75 z M 102.87431,69.570451 C 101.6238,68.132241 100.03495,65.610103 99.343531,63.965699 C 98.156306,61.142123 98.19503,61.034009 100.03994,62.021373 C 102.05597,63.100324 106.52413,70.809208 105.64374,71.689594 C 105.37106,71.962275 104.12481,71.00866 102.87431,69.570451 z M 23.628538,59.922448 C 22.175889,58.779794 20.50614,56.945732 19.917985,55.846754 C 18.97799,54.090358 19.069494,53.968344 20.674306,54.83825 C 23.238355,56.228121 28.5959,62 27.32195,62 C 26.743222,62 25.081187,61.065102 23.628538,59.922448 z"
       id="path2390" />
    <path
       style="fill:#163684"
       d="M 54.444246,94.598609 C 53.343824,93.827843 51.331196,92.989125 49.97174,92.734791 L 47.5,92.272364 L 50,92.142771 C 51.375,92.071495 53.85,92.907248 55.5,94 C 57.15,95.092752 58.037628,95.989787 57.472506,95.993411 C 56.907385,95.997035 55.544668,95.369374 54.444246,94.598609 z M 70.463907,94.010523 C 62.904791,92.899845 61.402345,92.222276 58.061588,88.417363 C 53.995922,83.786826 54.199862,82.774692 58.75,85.000835 C 69.997094,90.503447 72.89334,91.368297 76.434276,90.281553 C 78.930102,89.515562 81.878654,89.565097 87.157111,90.461695 C 91.161341,91.141852 95.351585,91.513015 96.468764,91.286501 C 98.169836,90.941601 98.093641,91.136439 96,92.485183 L 93.5,94.095707 L 96.794028,93.714584 C 98.605744,93.504967 100.3198,93.708433 100.60305,94.166731 C 101.22527,95.173513 77.543703,95.050775 70.463907,94.010523 z M 107.26903,93.307009 C 108.242,93.053466 109.592,93.07014 110.26903,93.344063 C 110.94606,93.617986 110.15,93.825431 108.5,93.805051 C 106.85,93.784672 106.29606,93.560553 107.26903,93.307009 z M 39.5,92 L 36.5,91.23663 L 39.190983,91.118315 C 40.671024,91.053242 42.160081,91.45 42.5,92 C 42.839919,92.55 42.978976,92.946758 42.809017,92.881685 C 42.639058,92.816612 41.15,92.419854 39.5,92 z M 84.918659,74.100326 C 84.385689,71.045444 79.242816,66.989081 78.148191,68.760222 C 76.940956,70.71357 72.791796,58.178275 73.974838,56.151834 C 74.713646,54.886324 74.946294,55.411698 74.969591,58.398217 C 74.996391,61.83384 75.66537,62.910768 80.606999,67.473359 C 84.5715,71.133773 86.085591,73.214147 85.775658,74.575143 C 85.400703,76.22166 85.276779,76.153001 84.918659,74.100326 z M 55.25,72.8626 C 51.835196,69.413375 55.346618,63 60.649926,63 C 63.599728,63 66.307107,59.340869 68.998906,51.716023 C 70.222342,48.250491 71.820197,44.5988 72.549694,43.601152 C 73.825773,41.85601 74.052654,41.854693 78.5347,43.566402 L 83.193347,45.345556 L 80.846673,47.150542 C 79.556003,48.143284 77.825,48.966339 77,48.979552 C 76.175,48.992765 74.198608,51.063449 72.608017,53.581072 C 71.017427,56.098695 69.427295,57.691377 69.074391,57.120366 C 68.721486,56.549356 67.350433,58.876178 66.027605,62.291083 C 64.704777,65.705987 63.546817,68.623092 63.45436,68.773539 C 62.844846,69.76534 60.233422,67.555287 60.670131,66.417241 C 60.969247,65.637759 60.770933,65 60.229434,65 C 58.555718,65 57.17848,67.357711 56.831705,70.816615 C 56.565567,73.471205 56.252917,73.875627 55.25,72.8626 z M 131.68333,40.35 C 131.3075,39.974167 131,38.925858 131,38.020425 C 131,35.965563 126.28825,31.463383 123.14004,30.510056 C 119.404,29.378726 113.00394,32.730281 112.31414,36.17932 C 111.75532,38.973393 109.70072,39.942808 108.48992,37.983688 C 108.14446,37.424717 107.50609,37.187218 107.07133,37.455914 C 106.63657,37.72461 102.50517,37.490883 97.890431,36.93652 C 84.994615,35.387362 73.299128,34.1688 64.5,33.457546 C 44.108233,31.809231 44.960965,32.068018 41.96555,26.618764 C 38.400385,20.133019 37.341954,19.681935 31.068901,21.974816 C 25.042542,24.177527 23,25.636677 23,27.739076 C 23,28.800596 22.348475,29.058661 20.75,28.630286 C 19.5125,28.298649 17.875616,28.021165 17.112481,28.013655 C 15.981665,28.002526 15.855755,26.388038 16.431919,19.287129 C 16.820746,14.49505 17.44513,10.080165 17.819439,9.4762739 C 18.300842,8.6996016 35.548693,10.178853 76.758683,14.531161 C 108.80096,17.915241 135.22955,20.896221 135.48889,21.155562 C 136.11892,21.785587 133.86101,39.289572 133.02367,40.266667 C 132.66232,40.688333 132.05917,40.725833 131.68333,40.35 z M 73.8125,39.316886 C 74.534375,39.028015 75.396875,39.063542 75.729167,39.395833 C 76.061458,39.728125 75.470833,39.964474 74.416667,39.921053 C 73.251724,39.873069 73.014767,39.636112 73.8125,39.316886 z"
       id="path2388" />
    <path
       style="fill:#182b68"
       d="M 72,93.992101 C 63.700509,93.067731 60.953076,91.921378 57.661333,88.009364 C 54.016788,83.678068 54.322051,82.834473 58.75,85.000835 C 60.8125,86.009908 64.8625,87.849444 67.75,89.088694 C 70.6375,90.327943 73,91.714953 73,92.170937 C 73,92.626922 74.2375,93.031628 75.75,93.070285 C 77.2625,93.108942 79.4,93.527314 80.5,94 C 82.5,94.859429 82.5,94.859429 80.5,94.78774 C 79.4,94.748311 75.575,94.390273 72,93.992101 z M 84.799178,92.414428 C 82.213725,91.61898 79.777405,90.448851 79.385133,89.814141 C 78.889195,89.011696 79.255028,88.891424 80.585955,89.419353 C 82.155095,90.041773 91.481438,91.686932 95.5,92.050178 C 96.951107,92.181347 92.779106,93.859312 91,93.860063 C 90.175,93.860411 87.38463,93.209876 84.799178,92.414428 z M 49.75,92.337719 C 50.4375,92.060307 51.5625,92.060307 52.25,92.337719 C 52.9375,92.615132 52.375,92.842105 51,92.842105 C 49.625,92.842105 49.0625,92.615132 49.75,92.337719 z M 39.8125,91.316886 C 40.534375,91.028015 41.396875,91.063542 41.729167,91.395833 C 42.061458,91.728125 41.470833,91.964474 40.416667,91.921053 C 39.251724,91.873069 39.014767,91.636112 39.8125,91.316886 z M 84.918659,74.100326 C 84.385689,71.045444 79.242816,66.989081 78.148191,68.760222 C 77.68181,69.514842 76.543117,67.621823 75.173215,63.814481 C 73.660233,59.60948 73.279463,57.320537 73.976913,56.623087 C 74.674362,55.925638 75,56.665701 75,58.948217 C 75,61.732207 75.944865,63.168824 80.606999,67.473359 C 84.5715,71.133773 86.085591,73.214147 85.775658,74.575143 C 85.400703,76.22166 85.276779,76.153001 84.918659,74.100326 z M 55.25,72.8626 C 51.864752,69.443229 55.338683,63 60.567519,63 C 63.642298,63 65.623277,60.331326 69.531501,50.924177 C 71.439175,46.332378 73,42.445975 73,42.287726 C 73,41.633792 74.971816,42.090277 78.481526,43.556728 C 82.088264,45.063719 82.151112,45.175541 80.448662,47.056728 C 79.481412,48.125527 77.972269,49.000805 77.095012,49.001788 C 76.217756,49.002772 74.198608,51.063449 72.608017,53.581072 C 71.017427,56.098695 69.427295,57.691377 69.074391,57.120366 C 68.721486,56.549356 67.350433,58.876178 66.027605,62.291083 C 64.704777,65.705987 63.546817,68.623092 63.45436,68.773539 C 62.844846,69.76534 60.233422,67.555287 60.670131,66.417241 C 60.969247,65.637759 60.770933,65 60.229434,65 C 58.555718,65 57.17848,67.357711 56.831705,70.816615 C 56.565567,73.471205 56.252917,73.875627 55.25,72.8626 z M 126,28.447456 C 122.425,27.775187 119.18123,27.414474 118.79162,27.645871 C 118.40201,27.877268 114.13757,27.576285 109.31508,26.977021 C 101.19883,25.968458 98.397716,25.66951 86,24.488723 C 83.525,24.252999 79.7,23.791868 77.5,23.463989 C 75.3,23.136109 71.475,22.703429 69,22.502478 C 58.088936,21.61658 50.437902,20.737602 49.675754,20.28244 C 49.222419,20.011704 46.747419,19.63497 44.175754,19.445252 C 26.499662,18.141248 17.872982,17.206316 17.18696,16.520293 C 16.95209,16.285423 17.059331,14.497274 17.425275,12.546628 C 17.993062,9.5200604 18.487228,9.0010416 20.795313,9.0071035 C 24.745502,9.0174781 135.09147,20.758139 135.5502,21.216867 C 136.3515,22.018171 134.71178,28.895077 133.62898,29.274331 C 133.00804,29.491819 129.575,29.119725 126,28.447456 z"
       id="path2386" />
  </g>
</svg>
