<?xml version="1.0" encoding="UTF-8" standalone="no"?>
<!-- Created with Inkscape (http://www.inkscape.org/) -->
<svg
   xmlns:svg="http://www.w3.org/2000/svg"
   xmlns="http://www.w3.org/2000/svg"
   xmlns:xlink="http://www.w3.org/1999/xlink"
   version="1.0"
   width="48"
   height="48"
   id="svg6684">
  <defs
     id="defs6687" />
  <g
     id="g6732">
    <g
       id="g6729">
      <image
         xlink:href="/home/mario/code/workspace/gscrot/share/gscrot/resources/system/plugins/bash/gsppolaroid/gsppolaroid.png"
         x="0"
         y="0"
         width="48"
         height="48"
         id="image6693" />
    </g>
    <g
       id="g6713">
      <path
         d="M 6.9713805,45.374571 C 5.1957875,44.868185 2.5169333,41 3.941836,41 C 4.4691671,41 5.3170038,41.744037 5.8259177,42.653416 C 6.554948,43.956121 8.1033062,44.266994 13.125608,44.11902 C 25.741003,43.747327 42.342658,42.057342 43.358582,41.041418 C 44.785246,39.614754 42.615327,6.4463496 40.965257,4.4581377 C 39.251487,2.3931708 38.207114,2.6468886 37.705733,5.25 C 37.324186,7.2309448 37.256079,7.1799229 37.136182,4.8233242 C 37.054314,3.2141986 36.30204,1.9448817 35.25,1.6407575 C 34.2875,1.3625176 35.030368,1.300961 36.900817,1.503965 C 42.773733,2.1413656 43.18161,3.2271331 44.481715,21.684333 C 45.133177,30.93295 45.318284,39.470818 44.893063,40.657374 C 43.951268,43.285404 41.926525,43.718966 27,44.488857 C 20.675,44.815092 13.925,45.245926 12,45.446267 C 10.075,45.646607 7.8121212,45.614344 6.9713805,45.374571 z M 2.6284285,38.893128 C 2.2213183,37.538396 -0.013135934,8.4197677 -0.0043762846,4.5833333 C 0.0053221645,0.33573617 1.3408568,4.3645147 1.7053109,9.7407817 C 1.9200387,12.908352 2.4834742,20.9 2.9573899,27.5 C 3.7568623,38.633874 3.6511147,42.296298 2.6284285,38.893128 z M 13.269032,39.307009 C 14.241999,39.053466 15.591999,39.07014 16.269032,39.344063 C 16.946064,39.617986 16.15,39.825431 14.5,39.805051 C 12.85,39.784672 12.296064,39.560553 13.269032,39.307009 z M 28.75,38.337719 C 29.4375,38.060307 30.5625,38.060307 31.25,38.337719 C 31.9375,38.615132 31.375,38.842105 30,38.842105 C 28.625,38.842105 28.0625,38.615132 28.75,38.337719 z M 6.8125,37.316886 C 7.534375,37.028015 8.396875,37.063542 8.7291667,37.395833 C 9.0614583,37.728125 8.4708333,37.964474 7.4166667,37.921053 C 6.2517237,37.873069 6.0147673,37.636112 6.8125,37.316886 z M 39.194949,35.5 C 39.215328,33.85 39.439447,33.296064 39.692991,34.269032 C 39.946534,35.241999 39.92986,36.591999 39.655937,37.269032 C 39.382014,37.946064 39.174569,37.15 39.194949,35.5 z M 19.8125,36.316886 C 20.534375,36.028015 21.396875,36.063542 21.729167,36.395833 C 22.061458,36.728125 21.470833,36.964474 20.416667,36.921053 C 19.251724,36.873069 19.014767,36.636112 19.8125,36.316886 z M 34.8125,35.316886 C 35.534375,35.028015 36.396875,35.063542 36.729167,35.395833 C 37.061458,35.728125 36.470833,35.964474 35.416667,35.921053 C 34.251724,35.873069 34.014767,35.636112 34.8125,35.316886 z M 5.1949487,31.5 C 5.2153284,29.85 5.4394473,29.296064 5.6929907,30.269032 C 5.9465341,31.241999 5.9298598,32.591999 5.6559367,33.269032 C 5.3820136,33.946064 5.174569,33.15 5.1949487,31.5 z M 36.157895,28 C 36.157895,26.625 36.384868,26.0625 36.662281,26.75 C 36.939693,27.4375 36.939693,28.5625 36.662281,29.25 C 36.384868,29.9375 36.157895,29.375 36.157895,28 z M 12,27.166667 C 12,26.708333 12.675,26.333333 13.5,26.333333 C 14.325,26.333333 15,26.708333 15,27.166667 C 15,27.625 14.325,28 13.5,28 C 12.675,28 12,27.625 12,27.166667 z M 22.210573,24.399141 C 21.501389,23.629613 21.362331,23 21.901556,23 C 22.939997,23 24.443284,24.902213 23.850136,25.465672 C 23.657561,25.648607 22.919758,25.168668 22.210573,24.399141 z M 10.8125,24.316886 C 11.534375,24.028015 12.396875,24.063542 12.729167,24.395833 C 13.061458,24.728125 12.470833,24.964474 11.416667,24.921053 C 10.251724,24.873069 10.014767,24.636112 10.8125,24.316886 z M 27.559296,23.25 C 27.984597,22.2875 28.370242,20.15 28.416285,18.5 C 28.462328,16.85 28.895152,15.212812 29.378115,14.861803 C 30.536616,14.019828 29.244922,12 27.547972,12 C 26.032015,12 24.707961,14.718454 25.555773,16.090242 C 25.865016,16.590609 25.447774,17 24.628568,17 C 23.809362,17 22.944086,18.0125 22.705733,19.25 C 22.46738,20.4875 22.211082,19.5875 22.136182,17.25 C 22.022816,13.712061 21.664913,13 20,13 C 18.9,13 18.1125,13.486189 18.25,14.080419 C 18.3875,14.67465 17.375,15.896835 16,16.796387 L 13.5,18.431936 L 15.347961,16.278981 C 16.36434,15.094856 16.87059,13.599627 16.472961,12.956251 C 15.936189,12.087734 15.538659,12.128431 14.929373,13.114277 C 14.478028,13.844568 13.820234,14.153568 13.467609,13.800942 C 13.114984,13.448317 14.02892,12.371931 15.498579,11.408974 C 17.572117,10.05034 18.344618,9.9395703 18.947147,10.914481 C 19.3742,11.605468 20.123295,12.070375 20.611803,11.947608 C 21.100312,11.824841 22.006276,12.716052 22.625058,13.928076 L 23.750115,16.131757 L 24.39411,13.565878 C 25.233724,10.220589 28.422693,10.189285 30.595237,13.505006 C 31.899158,15.49504 31.98725,16.310437 31.023749,17.471384 C 30.356692,18.275138 30.017654,19.510386 30.270332,20.216378 C 30.854882,21.849639 29.266073,25 27.857827,25 C 27.209147,25 27.091294,24.309139 27.559296,23.25 z M 16.55887,22.468197 C 15.491249,21.660688 15.098649,21 15.686426,21 C 16.274202,21 17.315311,21.675 18,22.5 C 19.557204,24.376316 19.067337,24.365506 16.55887,22.468197 z M 11,18.833333 C 11,17.641667 11.313025,16.979692 11.695611,17.362278 C 12.776422,18.443089 12.92818,21 11.911516,21 C 11.410182,21 11,20.025 11,18.833333 z M 38.157895,19 C 38.157895,17.625 38.384868,17.0625 38.662281,17.75 C 38.939693,18.4375 38.939693,19.5625 38.662281,20.25 C 38.384868,20.9375 38.157895,20.375 38.157895,19 z M 4.1949487,17.5 C 4.2153284,15.85 4.4394473,15.296064 4.6929907,16.269032 C 4.9465341,17.241999 4.9298598,18.591999 4.6559367,19.269032 C 4.3820136,19.946064 4.174569,19.15 4.1949487,17.5 z M 35.194949,12.5 C 35.215328,10.85 35.439447,10.296064 35.692991,11.269032 C 35.946534,12.241999 35.92986,13.591999 35.655937,14.269032 C 35.382014,14.946064 35.174569,14.15 35.194949,12.5 z M 17.75,5.3377193 C 18.4375,5.060307 19.5625,5.060307 20.25,5.3377193 C 20.9375,5.6151316 20.375,5.8421053 19,5.8421053 C 17.625,5.8421053 17.0625,5.6151316 17.75,5.3377193 z M 31.75,4.3377193 C 32.4375,4.060307 33.5625,4.060307 34.25,4.3377193 C 34.9375,4.6151316 34.375,4.8421053 33,4.8421053 C 31.625,4.8421053 31.0625,4.6151316 31.75,4.3377193 z M 8.5,3 C 8.8399187,2.45 10.328976,2.0068907 11.809017,2.0153128 C 13.913783,2.0272897 14.173233,2.2417987 13,3 C 11.024143,4.2768968 7.7108344,4.2768968 8.5,3 z M 21.5,2 C 23.15,1.5801463 25.85,1.1902787 27.5,1.1336276 C 29.781265,1.0553026 30.140632,1.2628668 29,2 C 28.175,2.5331559 25.475,2.9230235 23,2.8663724 C 18.896044,2.7724356 18.764029,2.6961863 21.5,2 z"
         id="path6727"
         style="fill:#cecfd0" />
      <path
         d="M 23.078947,27.416667 C 23.126931,26.251724 23.363888,26.014767 23.683114,26.8125 C 23.971985,27.534375 23.936458,28.396875 23.604167,28.729167 C 23.271875,29.061458 23.035526,28.470833 23.078947,27.416667 z M 17.678122,22.25 C 16.230377,20.802627 15.779902,20.739011 15.07316,21.882128 C 14.411166,22.952867 14.057259,22.755767 13.502311,21.007282 C 12.606371,18.184423 14.735218,16.592361 16.733608,18.590751 C 18.45561,20.312753 19.246547,20.353453 20.8,18.8 C 21.733333,17.866667 22,17.984752 22,19.331385 C 22,20.283646 21.287269,21.33627 20.416154,21.670548 C 19.140931,22.159897 19.092217,22.443083 20.166154,23.123851 C 20.899769,23.588889 21.033929,23.976265 20.464286,23.984687 C 19.894643,23.993109 18.640869,23.2125 17.678122,22.25 z M 22.341774,13.178688 C 20.841596,10.772599 22.316955,7.916955 24.125732,9.7257322 C 24.940076,10.540076 25.035279,11.604207 24.417373,12.985538 C 23.534336,14.959572 23.456649,14.966802 22.341774,13.178688 z"
         id="path6725"
         style="fill:#b6c9dd" />
      <path
         d="M 21.8125,43.316886 C 22.534375,43.028015 23.396875,43.063542 23.729167,43.395833 C 24.061458,43.728125 23.470833,43.964474 22.416667,43.921053 C 21.251724,43.873069 21.014767,43.636112 21.8125,43.316886 z M 34.75,42.337719 C 35.4375,42.060307 36.5625,42.060307 37.25,42.337719 C 37.9375,42.615132 37.375,42.842105 36,42.842105 C 34.625,42.842105 34.0625,42.615132 34.75,42.337719 z M 15.8125,32.316886 C 16.534375,32.028015 17.396875,32.063542 17.729167,32.395833 C 18.061458,32.728125 17.470833,32.964474 16.416667,32.921053 C 15.251724,32.873069 15.014767,32.636112 15.8125,32.316886 z M 9.7111881,27.26951 C 9.2187524,24.693499 10.471172,24.179512 11.392186,26.579637 C 11.844428,27.758162 12.760337,27.991912 14.999175,27.500181 C 16.73147,27.119705 18,27.253003 18,27.815509 C 18,28.35144 16.232632,28.958475 14.072516,29.164475 C 10.640748,29.491747 10.090274,29.252569 9.7111881,27.26951 z M 43.078947,26.416667 C 43.126931,25.251724 43.363888,25.014767 43.683114,25.8125 C 43.971985,26.534375 43.936458,27.396875 43.604167,27.729167 C 43.271875,28.061458 43.035526,27.470833 43.078947,26.416667 z M 27,25.606989 C 27,25.390833 27.698372,24.945987 28.551938,24.618443 C 29.441863,24.276947 29.84326,24.444594 29.492921,25.011454 C 28.905663,25.961658 27,26.416902 27,25.606989 z M 15.8125,24.316886 C 16.534375,24.028015 17.396875,24.063542 17.729167,24.395833 C 18.061458,24.728125 17.470833,24.964474 16.416667,24.921053 C 15.251724,24.873069 15.014767,24.636112 15.8125,24.316886 z M 11,22.5 C 11,21.675 11.675,21 12.5,21 C 13.325,21 14,21.675 14,22.5 C 14,23.325 13.325,24 12.5,24 C 11.675,24 11,23.325 11,22.5 z M 21,23.046435 C 18.806548,22.486215 18.725122,22.321406 20.335942,21.702366 C 21.345711,21.314311 22.865998,21.385257 23.714359,21.860023 C 25.834854,23.046712 24.052061,23.825949 21,23.046435 z M 26,16 C 25.175,15.466844 24.95,15.030626 25.5,15.030626 C 26.05,15.030626 27.175,15.466844 28,16 C 28.825,16.533156 29.05,16.969374 28.5,16.969374 C 27.95,16.969374 26.825,16.533156 26,16 z M 42.157895,13 C 42.157895,11.625 42.384868,11.0625 42.662281,11.75 C 42.939693,12.4375 42.939693,13.5625 42.662281,14.25 C 42.384868,14.9375 42.157895,14.375 42.157895,13 z M 2.7616592,3.2927391 C 4.0055717,3.0535459 5.8055717,3.0626272 6.7616592,3.3129198 C 7.7177466,3.5632124 6.7,3.758916 4.5,3.7478166 C 2.3,3.7367172 1.5177466,3.5319324 2.7616592,3.2927391 z M 15.269032,2.3070093 C 16.241999,2.0534659 17.591999,2.0701402 18.269032,2.3440633 C 18.946064,2.6179864 18.15,2.825431 16.5,2.8050513 C 14.85,2.7846716 14.296064,2.5605527 15.269032,2.3070093 z M 30.75,1.3377193 C 31.4375,1.060307 32.5625,1.060307 33.25,1.3377193 C 33.9375,1.6151316 33.375,1.8421053 32,1.8421053 C 30.625,1.8421053 30.0625,1.6151316 30.75,1.3377193 z"
         id="path6723"
         style="fill:#a4b6cc" />
      <path
         d="M 6.2,42.8 C 4.3762643,40.976264 4.7562851,39.991449 7.25,40.078947 C 8.4875,40.122368 8.9375,40.384868 8.25,40.662281 C 7.5625,40.939693 7,41.625266 7,42.185777 C 7,42.85312 11.7461,43.029705 20.75,42.697363 C 30.351333,42.34297 32.237091,42.423485 27,42.964216 C 15.181136,44.184517 7.5240644,44.124064 6.2,42.8 z M 38.5,41.108095 L 42.5,40.5 L 42.34677,27.5 L 42.193541,14.5 L 43.208841,26.7625 C 44.373868,40.83335 43.952234,42.085949 38.127555,41.858095 L 34.5,41.716189 L 38.5,41.108095 z M 18.75,39.337719 C 19.4375,39.060307 20.5625,39.060307 21.25,39.337719 C 21.9375,39.615132 21.375,39.842105 20,39.842105 C 18.625,39.842105 18.0625,39.615132 18.75,39.337719 z M 33.75,38.337719 C 34.4375,38.060307 35.5625,38.060307 36.25,38.337719 C 36.9375,38.615132 36.375,38.842105 35,38.842105 C 33.625,38.842105 33.0625,38.615132 33.75,38.337719 z M 14.75,36.337719 C 15.4375,36.060307 16.5625,36.060307 17.25,36.337719 C 17.9375,36.615132 17.375,36.842105 16,36.842105 C 14.625,36.842105 14.0625,36.615132 14.75,36.337719 z M 29.75,35.337719 C 30.4375,35.060307 31.5625,35.060307 32.25,35.337719 C 32.9375,35.615132 32.375,35.842105 31,35.842105 C 29.625,35.842105 29.0625,35.615132 29.75,35.337719 z M 36.157895,33 C 36.157895,31.625 36.384868,31.0625 36.662281,31.75 C 36.939693,32.4375 36.939693,33.5625 36.662281,34.25 C 36.384868,34.9375 36.157895,34.375 36.157895,33 z M 10.5,33 C 10.839919,32.45 10.641476,32 10.059017,32 C 9.4765576,32 9.0612819,30.5375 9.1361821,28.75 C 9.2264546,26.595635 9.413685,26.222073 9.6915668,27.641897 C 9.9505619,28.965221 10.758404,29.688873 11.805385,29.535421 C 12.737423,29.398815 12.9375,29.480457 12.25,29.716848 C 10.178312,30.429178 10.843696,31.995117 13.25,32.070285 C 15.396901,32.13735 15.408356,32.179951 13.5,33 C 10.747516,34.182783 9.769,34.182783 10.5,33 z M 20.364307,31.493839 C 23.990347,29.602729 25.084314,29.621654 22.55887,31.531803 C 21.491249,32.339312 19.916249,32.997228 19.05887,32.993839 C 18.201492,32.990451 18.788938,32.315451 20.364307,31.493839 z M 39.157895,29 C 39.157895,27.625 39.384868,27.0625 39.662281,27.75 C 39.939693,28.4375 39.939693,29.5625 39.662281,30.25 C 39.384868,30.9375 39.157895,30.375 39.157895,29 z M 21.755249,26.5 C 22.018097,25.125 22.405695,24 22.616577,24 C 22.82746,24 23,25.125 23,26.5 C 23,27.875 22.612402,29 22.138672,29 C 21.664941,29 21.492401,27.875 21.755249,26.5 z M 5.1949487,25.5 C 5.2153284,23.85 5.4394473,23.296064 5.6929907,24.269032 C 5.9465341,25.241999 5.9298598,26.591999 5.6559367,27.269032 C 5.3820136,27.946064 5.174569,27.15 5.1949487,25.5 z M 27.593626,27.15149 C 27.202213,26.518171 27.373025,26 27.973207,26 C 28.57339,26 29.471424,24.9875 29.968838,23.75 C 30.530418,22.352864 30.897254,22.090891 30.936614,23.05887 C 31.032405,25.414672 28.46373,28.559347 27.593626,27.15149 z M 30.565983,20.106763 C 30.189774,19.498043 30.385081,19 31,19 C 31.614919,19 31.839919,18.55 31.5,18 C 31.160081,17.45 31.358524,17 31.940983,17 C 33.214105,17 33.27427,18.018812 32.109687,19.856763 C 31.510395,20.802569 31.042815,20.878293 30.565983,20.106763 z M 35.157895,18 C 35.157895,16.625 35.384868,16.0625 35.662281,16.75 C 35.939693,17.4375 35.939693,18.5625 35.662281,19.25 C 35.384868,19.9375 35.157895,19.375 35.157895,18 z M 38.157895,14 C 38.157895,12.625 38.384868,12.0625 38.662281,12.75 C 38.939693,13.4375 38.939693,14.5625 38.662281,15.25 C 38.384868,15.9375 38.157895,15.375 38.157895,14 z M 4.2521834,10.5 C 4.2632828,8.3 4.4680676,7.5177466 4.7072609,8.7616592 C 4.9464541,10.005572 4.9373728,11.805572 4.6870802,12.761659 C 4.4367876,13.717747 4.241084,12.7 4.2521834,10.5 z M 41.174707,10.578741 C 41.078618,8.422048 40.255256,5.834548 39.345012,4.8287407 C 38.434769,3.8229333 38.154669,3 38.722568,3 C 40.863536,3 42.111506,5.9720584 41.735816,10.176095 L 41.349414,14.5 L 41.174707,10.578741 z M 8.8125,6.316886 C 9.534375,6.0280154 10.396875,6.0635417 10.729167,6.3958333 C 11.061458,6.728125 10.470833,6.9644737 9.4166667,6.9210526 C 8.2517237,6.8730687 8.0147673,6.6361123 8.8125,6.316886 z M 23.269032,5.3070093 C 24.241999,5.0534659 25.591999,5.0701402 26.269032,5.3440633 C 26.946064,5.6179864 26.15,5.825431 24.5,5.8050513 C 22.85,5.7846716 22.296064,5.5605527 23.269032,5.3070093 z"
         id="path6721"
         style="fill:#9fa1a4" />
      <path
         d="M 14.8125,29.316886 C 15.534375,29.028015 16.396875,29.063542 16.729167,29.395833 C 17.061458,29.728125 16.470833,29.964474 15.416667,29.921053 C 14.251724,29.873069 14.014767,29.636112 14.8125,29.316886 z M 24.078947,26.309017 C 24.035526,24.553976 24.453178,22.837954 25.007063,22.495635 C 26.323071,21.682297 27.598008,25.002016 26.295661,25.850925 C 25.747986,26.207916 25.04294,27.175 24.728891,28 C 24.414843,28.825 24.122368,28.064058 24.078947,26.309017 z M 15.891694,26.764231 C 14.69156,26.320273 13.978982,25.687684 14.308188,25.358479 C 15.1035,24.563166 22,25.883457 22,26.831027 C 22,27.811449 18.622757,27.774518 15.891694,26.764231 z"
         id="path6719"
         style="fill:#6d89ae" />
      <path
         d="M 13.761659,42.292739 C 15.005572,42.053546 16.805572,42.062627 17.761659,42.31292 C 18.717747,42.563212 17.7,42.758916 15.5,42.747817 C 13.3,42.736717 12.517747,42.531932 13.761659,42.292739 z M 29.25,41.310674 C 30.2125,41.059147 31.7875,41.059147 32.75,41.310674 C 33.7125,41.562202 32.925,41.767997 31,41.767997 C 29.075,41.767997 28.2875,41.562202 29.25,41.310674 z M 41.210573,39.600859 C 41.919758,38.831332 42.657561,38.351393 42.850136,38.534328 C 43.443284,39.097787 41.939997,41 40.901556,41 C 40.362331,41 40.501389,40.370387 41.210573,39.600859 z M 6.0789474,35.416667 C 6.1269313,34.251724 6.3638877,34.014767 6.683114,34.8125 C 6.9719846,35.534375 6.9364583,36.396875 6.6041667,36.729167 C 6.271875,37.061458 6.0355263,36.470833 6.0789474,35.416667 z M 42.252183,33.5 C 42.263283,31.3 42.468068,30.517747 42.707261,31.761659 C 42.946454,33.005572 42.937373,34.805572 42.68708,35.761659 C 42.436788,36.717747 42.241084,35.7 42.252183,33.5 z M 20,32 C 19.098708,31.41754 18.975367,31.024514 19.690983,31.015313 C 20.346024,31.006891 21.160081,31.45 21.5,32 C 22.267305,33.241525 21.921123,33.241525 20,32 z M 11.75,30.337719 C 12.4375,30.060307 13.5625,30.060307 14.25,30.337719 C 14.9375,30.615132 14.375,30.842105 13,30.842105 C 11.625,30.842105 11.0625,30.615132 11.75,30.337719 z M 24.775429,30.442095 C 23.971002,29.637669 25.069324,26 26.116631,26 C 26.602484,26 27,26.45 27,27 C 27,27.55 27.59282,28 28.317378,28 C 29.041936,28 30.484238,25.4125 31.522493,22.25 C 32.957346,17.879477 33.500648,17.062574 33.787109,18.844945 C 34.630376,24.091787 27.544259,33.210926 24.775429,30.442095 z M 18.207482,28.25 C 18.778056,27.5625 19.591644,27 20.015456,27 C 20.439267,27 21.001874,27.5625 21.265692,28.25 C 21.563283,29.02551 20.876991,29.5 19.457718,29.5 C 17.740985,29.5 17.428972,29.188046 18.207482,28.25 z M 19.8125,25.316886 C 20.534375,25.028015 21.396875,25.063542 21.729167,25.395833 C 22.061458,25.728125 21.470833,25.964474 20.416667,25.921053 C 19.251724,25.873069 19.014767,25.636112 19.8125,25.316886 z M 5.0789474,21.416667 C 5.1269313,20.251724 5.3638877,20.014767 5.683114,20.8125 C 5.9719846,21.534375 5.9364583,22.396875 5.6041667,22.729167 C 5.271875,23.061458 5.0355263,22.470833 5.0789474,21.416667 z M 10.194949,19.5 C 10.215328,17.85 10.439447,17.296064 10.692991,18.269032 C 10.946534,19.241999 10.92986,20.591999 10.655937,21.269032 C 10.382014,21.946064 10.174569,21.15 10.194949,19.5 z M 41.232003,18 C 41.232003,16.075 41.437798,15.2875 41.689326,16.25 C 41.940853,17.2125 41.940853,18.7875 41.689326,19.75 C 41.437798,20.7125 41.232003,19.925 41.232003,18 z M 34.157895,8 C 34.157895,6.625 34.384868,6.0625 34.662281,6.75 C 34.939693,7.4375 34.939693,8.5625 34.662281,9.25 C 34.384868,9.9375 34.157895,9.375 34.157895,8 z M 20.8125,8.316886 C 21.534375,8.0280154 22.396875,8.0635417 22.729167,8.3958333 C 23.061458,8.728125 22.470833,8.9644737 21.416667,8.9210526 C 20.251724,8.8730687 20.014767,8.6361123 20.8125,8.316886 z M 39.100391,5.7045216 C 37.835473,3.5982128 37.856783,3.5769028 39.578723,5.2261905 C 40.569949,6.1755952 41.165703,7.16763 40.902621,7.4307121 C 40.639539,7.6937942 39.828536,6.9170085 39.100391,5.7045216 z M 27.8125,5.316886 C 28.534375,5.0280154 29.396875,5.0635417 29.729167,5.3958333 C 30.061458,5.728125 29.470833,5.9644737 28.416667,5.9210526 C 27.251724,5.8730687 27.014767,5.6361123 27.8125,5.316886 z"
         id="path6717"
         style="fill:#5a6e90" />
      <path
         d="M 8.1510816,42.128074 C 6.306773,40.940785 10.745767,40.24826 25,39.499483 C 42.174657,38.597297 40.710726,39.601947 39.887531,29.282633 C 38.060248,6.3763619 38.031982,4.361591 39.567077,6.4411296 C 40.355185,7.5087509 41.045096,10.658751 41.100213,13.44113 C 41.15533,16.223508 41.49283,22.967986 41.850213,28.428857 C 42.322976,35.652761 42.167919,38.689718 41.281056,39.576373 C 40.529262,40.32799 35.163876,41.047704 27.281056,41.454335 C 20.251475,41.816953 13.375,42.312272 12,42.555045 C 10.625,42.797819 8.8929867,42.605681 8.1510816,42.128074 z M 6.6249948,34.273226 C 6.3257297,32.747952 5.7825445,26.032489 5.4179166,19.349975 L 4.7549568,7.1999502 L 13.627478,6.588335 C 18.507365,6.2519467 25.032017,5.7696565 28.126704,5.5165791 L 33.753408,5.0564384 L 34.346132,8.7782192 C 34.67213,10.825199 35.242421,17.515645 35.613446,23.645878 L 36.288037,34.791756 L 26.394019,35.417566 C 20.952308,35.761762 14.40055,36.269069 11.834557,36.544914 C 7.3752629,37.024291 7.1450704,36.923913 6.6249948,34.273226 z M 25.740649,30.883722 C 36.827937,26.165469 36.2548,12.030603 24.851696,8.9600657 C 17.326766,6.9338126 9.3036935,13.474334 10.389317,20.75 C 10.656035,22.5375 10.452551,24 9.9371294,24 C 8.884397,24 8.6349345,32.301601 9.6569553,33.323622 C 10.738822,34.405489 21.190845,32.819915 25.740649,30.883722 z M 15.355612,30.369293 C 18.026198,29.549022 20.488166,29.154833 20.826651,29.493318 C 21.977266,30.643933 18.514096,31.969566 14.5,31.915036 L 10.5,31.860697 L 15.355612,30.369293 z"
         id="path6715"
         style="fill:#5a5b5c" />
    </g>
  </g>
</svg>
