<?xml version="1.0" encoding="UTF-8" standalone="no"?>
<svg
   xmlns:svg="http://www.w3.org/2000/svg"
   xmlns="http://www.w3.org/2000/svg"
   xmlns:xlink="http://www.w3.org/1999/xlink"
   version="1.0"
   width="48"
   height="48">
  <defs>
    <linearGradient id="lG3531">
      <stop style="stop-color:#ab8104" />
      <stop style="stop-color:#ab8104" offset="0.73602742" />
      <stop style="stop-color:#616471" offset="1" />
    </linearGradient>
    <linearGradient id="lG3584">
      <stop style="stop-color:#ffd800;stop-opacity:0" />
      <stop style="stop-color:#ffd800;stop-opacity:0.32743362" offset="0.5" />
      <stop style="stop-color:#ffd800;stop-opacity:0" offset="1" />
    </linearGradient>
    <linearGradient id="lG3300">
      <stop style="stop-color:#4c4428" />
      <stop style="stop-color:#e7b600;stop-opacity:0" offset="1" />
    </linearGradient>
    <linearGradient id="lG3311">
      <stop style="stop-color:#d6d87b" />
      <stop style="stop-color:#fbe843" offset="1" />
    </linearGradient>
    <linearGradient id="lG3265">
      <stop style="stop-color:#dcd763" />
      <stop style="stop-color:#d9bb05" offset="0.2647059" />
      <stop style="stop-color:#dcd763" offset="0.63235295" />
      <stop style="stop-color:#c7a107" offset="1" />
    </linearGradient>
    <linearGradient id="lG3175">
      <stop style="stop-color:#fffff1" />
      <stop style="stop-color:#f1f3ff;stop-opacity:0" offset="1" />
    </linearGradient>
    <linearGradient id="lG2399">
      <stop style="stop-color:#929470" />
      <stop style="stop-color:#fcffc1" offset="0.2647059" />
      <stop style="stop-color:#f3f5ba" offset="0.63235295" />
      <stop style="stop-color:#929470" offset="1" />
    </linearGradient>
    <linearGradient id="lG6339">
      <stop style="stop-color:#ffffff" />
      <stop style="stop-color:#ffffff;stop-opacity:0" offset="1" />
    </linearGradient>
    <linearGradient id="lG20428">
      <stop style="stop-color:#ffb812" />
      <stop style="stop-color:#ffb812;stop-opacity:0" offset="1" />
    </linearGradient>
    <linearGradient id="lG20393">
      <stop style="stop-color:#ffe708" />
      <stop style="stop-color:#ffd604;stop-opacity:0.43921569" offset="0.41176471" />
      <stop style="stop-color:#4c3e1c;stop-opacity:0.47843137" offset="1" />
    </linearGradient>
    <linearGradient id="lG20210">
      <stop style="stop-color:#000000;stop-opacity:0.51546389" />
      <stop style="stop-color:#000000;stop-opacity:0.14432989" offset="0.55172414" />
      <stop style="stop-color:#000000;stop-opacity:0" offset="1" />
    </linearGradient>
    <radialGradient
       cx="17.8335"
       cy="11.4873"
       r="22.709299"
       fx="17.8335"
       fy="11.4873" id="aigrd7"
       gradientUnits="userSpaceOnUse">
      <stop style="stop-color:#ffffff;stop-opacity:0.17525773" />
      <stop style="stop-color:#ffe300" offset="0.882" />
      <stop style="stop-color:#ffb900" offset="1" />
    </radialGradient>
    <linearGradient	
       x1="23.124001" y1="43.165001" x2="26.4785" y2="43.165001" id="aigrd1"
       gradientUnits="userSpaceOnUse">
      <stop style="stop-color:#686868;" offset="0.005618" />
      <stop style="stop-color:#777777;" offset="0.03012137" />
      <stop style="stop-color:#929292;" offset="0.08366583" />
      <stop style="stop-color:#a7a7a7;" offset="0.1422" />
      <stop style="stop-color:#b6b6b6;" offset="0.2074" />
      <stop style="stop-color:#bebebe;" offset="0.2846" />
      <stop style="stop-color:#c1c1c1;" offset="0.4045" />
      <stop style="stop-color:#bcbcbc;" offset="0.4962" />
      <stop style="stop-color:#adadad;" offset="0.6057" />
      <stop style="stop-color:#959595;" offset="0.7245" />
      <stop style="stop-color:#747474;" offset="0.8497" />
      <stop style="stop-color:#494949;" offset="0.9789" />
      <stop style="stop-color:#414141;" offset="1" />
    </linearGradient>
    <linearGradient
       x1="18.9951" y1="37.226601" x2="30.169901" y2="37.226601" id="lG19894"
       gradientUnits="userSpaceOnUse">
      <stop style="stop-color:#a3a349;" offset="0.005618" />
      <stop style="stop-color:#acac54;" offset="0.02078677" />
      <stop style="stop-color:#c1c172;" offset="0.066" />
      <stop style="stop-color:#d4d68e;" offset="0.1148" />
      <stop style="stop-color:#e2e4a6;" offset="0.1677" />
      <stop style="stop-color:#edf0b8;" offset="0.2265" />
      <stop style="stop-color:#f3f6c3;" offset="0.2963" />
      <stop style="stop-color:#f5f8c7;" offset="0.4045" />
      <stop style="stop-color:#eef0be;" offset="0.5239" />
      <stop style="stop-color:#dbdda9;" offset="0.6666" />
      <stop style="stop-color:#bebd88;" offset="0.8211" />
      <stop style="stop-color:#989564;" offset="0.9832" />
      <stop style="stop-color:#949160;" offset="1" />
    </linearGradient>
    <radialGradient
       cx="14.772334"
       cy="74.20993"
       r="7.8289828"
       fx="14.772334"
       fy="74.20993" id="rG20216"
       xlink:href="#lG20210"
       gradientUnits="userSpaceOnUse"
       gradientTransform="scale(1.764278,0.566804)" />
    <linearGradient
       x1="-22.87417" y1="38.675991" x2="-4.3908315" y2="38.675991" id="lG4108"
       xlink:href="#lG19894"
       gradientUnits="userSpaceOnUse"
       gradientTransform="scale(1.02645,0.974232)" />
    <linearGradient
       x1="-10.480865" y1="39.033951" x2="-23.851389" y2="39.142845" id="lG4110"
       xlink:href="#lG2399"
       gradientUnits="userSpaceOnUse"
       gradientTransform="scale(1.02645,0.974232)" />
    <linearGradient
       x1="-22.87417" y1="38.675991" x2="-4.3908315" y2="38.675991" id="lG4112"
       xlink:href="#lG19894"
       gradientUnits="userSpaceOnUse"
       gradientTransform="scale(1.02645,0.974232)" />
    <linearGradient
       x1="-10.480865" y1="39.033951" x2="-23.851389" y2="39.142845" id="lG4114"
       xlink:href="#lG2399"
       gradientUnits="userSpaceOnUse"
       gradientTransform="scale(1.02645,0.974232)" />
    <linearGradient
       x1="23.124001" y1="43.165001" x2="26.4785" y2="43.165001" id="lG2755"
       xlink:href="#aigrd1"
       gradientUnits="userSpaceOnUse"
       gradientTransform="matrix(1.7634105,0,0,1.5366701,-19.732605,-23.884032)" />
    <linearGradient
       x1="16.998856" y1="10.061084" x2="32.096882" y2="36.726292" id="lG2774"
       xlink:href="#lG6339"
       gradientUnits="userSpaceOnUse"
       gradientTransform="matrix(1.088532,0,0,0.9166207,0.7043474,-1.5743919)" />
    <linearGradient
       x1="37.940434" y1="16.651863" x2="-5.2517161" y2="3.8557322" id="lG2793"
       xlink:href="#lG3175"
       gradientUnits="userSpaceOnUse"
       gradientTransform="matrix(0.8533916,0,0,0.9752486,1.8913364,1.6641308)" />
    <radialGradient
       cx="68.137589"
       cy="29.869318"
       r="33.93409"
       fx="68.137589"
       fy="29.869318" id="rG2796"
       xlink:href="#aigrd7"
       gradientUnits="userSpaceOnUse"
       gradientTransform="matrix(0.5261727,0,0,0.7582733,-9.5647863,5.1185895)" />
    <linearGradient
       x1="17.879995" y1="55.362793" x2="11.906206" y2="54.863026" id="lG2799"
       xlink:href="#lG3311"
       gradientUnits="userSpaceOnUse"
       gradientTransform="matrix(1.5303857,0,0,0.5438301,1.0306099,1.6641308)" />
    <linearGradient
       x1="-29.007195" y1="-29.799353" x2="-37.641232" y2="-29.598314" id="lG2801"
       xlink:href="#lG3265"
       gradientUnits="userSpaceOnUse"
       gradientTransform="matrix(-0.8644621,-4.3417199e-2,0.1808757,-0.9536764,1.0306099,1.6641308)" />
    <linearGradient
       x1="14.637301" y1="31.504122" x2="9.3648205" y2="32.25098" id="lG3574"
       xlink:href="#lG20428"
       gradientUnits="userSpaceOnUse"
       gradientTransform="matrix(1.8610153,0,0,0.4669515,1.2553727,5.473386)" />
    <linearGradient
       x1="30.620375" y1="10.313651" x2="32.16608" y2="18.162935" id="lG3577"
       xlink:href="#lG20393"
       gradientUnits="userSpaceOnUse"
       gradientTransform="matrix(0.5899687,0,0,1.4729675,0.9038103,4.8940498)" />
    <linearGradient
       x1="30.620375" y1="10.313651" x2="32.16608" y2="18.162935" id="lG3580"
       xlink:href="#lG20393"
       gradientUnits="userSpaceOnUse"
       gradientTransform="matrix(-0.5899687,0,0,1.4729675,47.100499,4.7781825)" />
    <radialGradient
       cx="27.75"
       cy="18.625"
       r="15.0625"
       fx="27.75"
       fy="18.625" id="rG3590"
       xlink:href="#lG3584"
       gradientUnits="userSpaceOnUse" />
    <linearGradient
       x1="-22.87417" y1="38.675991" x2="-4.3908315" y2="38.675991" id="lG3833"
       xlink:href="#lG19894"
       gradientUnits="userSpaceOnUse"
       gradientTransform="matrix(0.6119217,-0.1311762,6.1942932e-2,0.7364078,30.37142,9.2548427)" />
    <linearGradient
       x1="-10.480865" y1="39.033951" x2="-23.851389" y2="39.142845" id="lG3835"
       xlink:href="#lG2399"
       gradientUnits="userSpaceOnUse"
       gradientTransform="matrix(0.6119217,-0.1311762,6.1942932e-2,0.7364078,30.37142,9.2548427)" />
    <linearGradient
       x1="-22.87417" y1="38.675991" x2="-4.3908315" y2="38.675991" id="lG3840"
       xlink:href="#lG19894"
       gradientUnits="userSpaceOnUse"
       gradientTransform="matrix(0.5604295,2.969716e-2,-0.1172615,0.6523102,35.381303,20.961615)" />
    <linearGradient
       x1="-10.480865" y1="39.033951" x2="-23.851389" y2="39.142845" id="lG3842"
       xlink:href="#lG2399"
       gradientUnits="userSpaceOnUse"
       gradientTransform="matrix(0.5604295,2.969716e-2,-0.1172615,0.6523102,35.381303,20.961615)" />
    <linearGradient
       x1="24.613028" y1="31.146202" x2="24.613028" y2="26.739624" id="lG3845"
       xlink:href="#lG3300"
       gradientUnits="userSpaceOnUse"
       gradientTransform="matrix(0.9917,0,0,0.9909251,-0.408739,1.0079205)" />
    <linearGradient
       x1="23.413288" y1="1.9996886" x2="23.413288" y2="34.005379" id="lG3537"
       xlink:href="#lG3531"
       gradientUnits="userSpaceOnUse" />
  </defs>
  <g>
    <path
       d="M 42.8125,18.625 A 15.0625,15.0625 0 1 1 12.6875,18.625 A 15.0625,15.0625 0 1 1 42.8125,18.625 z"
       transform="matrix(1.341774,0,0,1.0894455,-13.234228,-3.745426)"
       style="fill:url(#rG3590)" />
    <path
       d="M 39.875,42.0625 A 13.8125,4.4375 0 1 1 12.25,42.0625 A 13.8125,4.4375 0 1 1 39.875,42.0625 z"
       transform="matrix(1.197183,0,0,1.098591,-6.201582,-3.209507)"
       style="opacity:0.8;fill:url(#rG20216)" />
    <path
       d="M 21.0022,40.502514 L 21.0022,41.885518 C 21.0022,43.268522 22.41293,44.49786 24,44.49786 C 25.587071,44.49786 26.997799,43.268522 26.997799,41.885518 L 26.997799,40.502514 L 21.0022,40.502514 z"
       style="fill:url(#lG2755);stroke:#565656;stroke-width:1" />
    <path
       d="M 23.835146,28.498489 C 20.568356,28.490571 16.863715,29.45547 18.871175,31.279516 C 18.373451,31.481211 17.661992,31.931668 17.745861,32.985741 C 17.792166,33.536235 18.373009,33.874151 19.16735,34.122258 C 18.266846,34.756754 17.69385,35.427241 17.745861,36.045594 C 17.791626,36.58967 18.360241,36.962259 19.13834,37.211253 C 18.260527,37.838448 17.694562,38.524715 17.745861,39.13459 C 17.824264,40.066681 19.825462,41.11075 24.158774,40.990502 C 27.278707,40.90507 30.031875,40.343313 30.24916,39.13459 C 30.334481,38.659965 29.947798,38.21712 29.349851,37.823224 C 29.797477,37.370002 30.111067,36.910307 30.0751,36.482716 C 30.02912,35.936078 29.467193,35.565709 28.682622,35.317058 C 29.560435,34.689863 30.126399,34.003596 30.0751,33.393722 C 30.02912,32.847082 29.467193,32.505856 28.682622,32.257204 C 29.570902,31.626622 30.12673,30.947665 30.0751,30.333867 C 30.017711,29.65159 26.905491,28.505932 23.835146,28.498489 z"
       style="fill:#aeae57;stroke:url(#lG3845);stroke-width:2" />
    <path
       d="M 30.173604,39.09069 C 29.956318,40.299415 26.881192,40.981521 21.959277,40.733939 C 18.84209,40.577139 18.663717,39.70102 18.881001,38.492296 C 19.098287,37.28357 21.804177,36.436617 24.920935,36.601774 C 28.037693,36.766931 30.390888,37.881966 30.173604,39.09069 z"
       style="fill:url(#lG3840);stroke:url(#lG3842);stroke-width:0.08828904" />
    <path
       d="M -3.5355339,27.228739 A 10.341436,3.2703688 0 1 1 -24.218407,27.228739 A 10.341436,3.2703688 0 1 1 -3.5355339,27.228739 z"
       transform="matrix(0.5961539,-0.1277961,6.3581292e-2,0.7558855,30.37142,15.405948)"
       style="fill:url(#lG4108);stroke:url(#lG4110);stroke-width:0.13035245" />
    <path
       d="M -3.5355339,27.228739 A 10.341436,3.2703688 0 1 1 -24.218407,27.228739 A 10.341436,3.2703688 0 1 1 -3.5355339,27.228739 z"
       transform="matrix(0.5961539,-0.1277961,6.3581292e-2,0.7558855,30.37142,12.330395)"
       style="fill:url(#lG4112);stroke:url(#lG4114);stroke-width:0.13035245" />
    <path
       d="M 29.95391,30.45333 C 29.95391,31.82275 27.440912,33.35258 24.037784,34.082101 C 20.634656,34.811622 17.779542,34.296229 17.664762,32.931672 C 17.549982,31.567115 19.876831,29.975509 23.281921,29.790072 C 26.713996,29.603169 29.95391,29.746429 29.95391,30.45333 z"
       style="fill:url(#lG3833);stroke:url(#lG3835);stroke-width:0.08828908" />
    <path
       d="M 31,22.375 A 3.25,3.25 0 1 1 24.5,22.375 A 3.25,3.25 0 1 1 31,22.375 z"
       transform="matrix(0.3317984,0,0,0.3333023,11.209684,28.058576)"
       style="fill:#ffffff" />
    <path
       d="M 18.722092,34.171692 C 22.07941,34.673108 25.624644,34.13923 28.486351,32.27593 C 29.288753,31.753473 29.409442,31.156329 29.77868,30.689257 C 28.37011,31.808857 24.807659,34.82422 18.722092,34.171692 z"
       style="fill:#000000;fill-opacity:0.23391807;fill-rule:evenodd" />
    <path
       d="M 31,22.375 A 3.25,3.25 0 1 1 24.5,22.375 A 3.25,3.25 0 1 1 31,22.375 z"
       transform="matrix(0.3317984,0,0,0.3333023,11.209684,31.046854)"
       style="fill:#ffffff" />
    <path
       d="M 18.84517,40.271106 C 22.202489,40.772521 25.747722,40.238643 28.609429,38.375343 C 29.411832,37.852887 29.532521,37.255744 29.901758,36.788671 C 28.493189,37.90827 24.930738,40.923633 18.84517,40.271106 z"
       style="fill:#000000;fill-opacity:0.23391807;fill-rule:evenodd" />
    <path
       d="M 18.865684,37.180187 C 22.223002,37.681603 25.768235,37.147724 28.629942,35.284424 C 29.432345,34.761968 29.553034,34.164825 29.922272,33.697752 C 28.513702,34.817351 24.951251,37.832714 18.865684,37.180187 z"
       style="fill:#000000;fill-opacity:0.23391807;fill-rule:evenodd" />
    <path
       d="M 18.455672,30.967846 C 18.455672,30.184431 19.958059,29.247316 23.751094,29.299763 C 27.265262,29.348352 29.58021,30.186377 29.58021,31.440287 C 29.58021,32.667603 26.507522,33.488338 23.231348,33.323794 C 19.955175,33.15925 18.455672,32.195162 18.455672,30.967846 z"
       style="fill:url(#lG2799);stroke:url(#lG2801);stroke-width:0.08828903" />
    <path
       d="M 24,2.4934387 C 16.534362,2.4934387 10.47201,8.4078755 10.47201,15.691357 C 10.47201,23.157506 15.951984,23.984409 15.951984,26.736025 C 15.951984,29.969002 19.16489,33.635107 24.447906,33.502769 C 30.065591,33.36205 32.383945,30.173503 32.383945,26.736025 C 32.383945,23.797172 37.527989,23.718799 37.527989,15.691357 C 37.527989,8.4078755 31.465638,2.4934387 24,2.4934387 z"
       style="fill:url(#rG2796);stroke:url(#lG3537);stroke-width:0.9875" />
    <path
       d="M 24,3.5480659 C 17.042118,3.5480659 11.392081,9.0602482 11.392081,15.848363 C 11.392081,22.806721 16.499349,23.577385 16.499349,26.141857 C 16.499349,29.154953 19.493737,32.571716 24.417444,32.448379 C 29.653056,32.317229 31.813734,29.345544 31.813734,26.141857 C 31.813734,23.402883 36.607919,23.329839 36.607919,15.848363 C 36.607919,9.0602482 30.957882,3.5480659 24,3.5480659 z"
       style="fill:none;stroke:url(#lG2793);stroke-width:0.92033798" />
    <path
       d="M 29.53101,19.070048 C 29.824206,19.16668 30.01967,19.456572 29.921937,19.746464 L 26.305862,30.472473 C 26.208131,30.762365 25.914935,30.955626 25.621739,30.858996 C 25.328545,30.762365 25.133082,30.472473 25.230813,30.182581 L 28.846888,19.456572 C 28.94462,19.16668 29.237816,18.973418 29.53101,19.070048 z"
       style="fill:url(#lG3580)" />
    <path
       d="M 18.473303,19.185915 C 18.180107,19.282547 17.984643,19.572439 18.082376,19.862331 L 21.698451,30.58834 C 21.796182,30.878233 22.089378,31.071494 22.382574,30.974863 C 22.675768,30.878233 22.871232,30.58834 22.7735,30.298449 L 19.157425,19.572439 C 19.059693,19.282547 18.766497,19.089285 18.473303,19.185915 z"
       style="fill:url(#lG3577)" />
    <path
       d="M 18.569826,19.116755 C 18.339285,19.155747 18.15868,19.334255 18.119161,19.562185 C 18.079642,19.790114 18.189803,20.017906 18.394045,20.130593 C 18.394045,20.130593 20.121128,21.132492 22.37842,21.636867 C 24.635711,22.141243 27.524264,22.17396 29.702638,20.07266 C 29.866931,19.943785 29.9431,19.733942 29.899181,19.531185 C 29.855262,19.328428 29.698854,19.167834 29.495589,19.116792 C 29.292324,19.06575 29.077367,19.13309 28.94092,19.290556 C 27.112292,21.054483 24.680134,21.055994 22.612795,20.594062 C 20.545455,20.13213 18.950685,19.203655 18.950685,19.203655 C 18.838716,19.129696 18.703251,19.098787 18.569826,19.116755 z"
       style="fill:#ffd800;stroke:url(#lG3574);stroke-width:0.2" />
    <path
       d="M 24.306505,5.1682019 C 18.328329,5.1682019 13.477632,9.1530193 13.477632,14.060602 C 13.477632,16.020654 14.410653,17.736891 15.721183,19.207121 C 17.203106,19.832579 18.817211,20.282025 20.597168,20.282025 C 26.575344,20.282025 31.426039,16.297209 31.426041,11.389623 C 31.426041,9.4177529 30.477513,7.6854692 29.152576,6.2105349 C 27.677566,5.5924874 26.07516,5.1682018 24.306505,5.1682019 z"
       style="opacity:0.5977654;fill:url(#lG2774)" />
  </g>
</svg>

