<?xml version="1.0" encoding="UTF-8" standalone="no"?>
<!-- Created with Inkscape (http://www.inkscape.org/) -->
<svg
   xmlns:svg="http://www.w3.org/2000/svg"
   xmlns="http://www.w3.org/2000/svg"
   xmlns:xlink="http://www.w3.org/1999/xlink"
   version="1.0"
   width="48"
   height="48"
   id="svg1800">
  <defs
     id="defs3">
    <linearGradient
       id="linearGradient3101">
      <stop
         id="stop3103"
         style="stop-color:#000000;stop-opacity:1"
         offset="0" />
      <stop
         id="stop3105"
         style="stop-color:#000000;stop-opacity:0"
         offset="1" />
    </linearGradient>
    <radialGradient
       cx="17.3125"
       cy="25.53125"
       r="9.6875"
       fx="17.3125"
       fy="25.53125"
       id="radialGradient3107"
       xlink:href="#linearGradient3101"
       gradientUnits="userSpaceOnUse"
       gradientTransform="matrix(1,0,0,0.351613,0,16.55413)" />
  </defs>
  <g
     id="layer1">
    <path
       d="M 27,25.53125 C 27,27.41247 22.662759,28.9375 17.3125,28.9375 C 11.962241,28.9375 7.625,27.41247 7.625,25.53125 C 7.625,23.65003 11.962241,22.125 17.3125,22.125 C 22.662759,22.125 27,23.65003 27,25.53125 z"
       transform="matrix(2.182912,0,0,2.182912,-13.50372,-14.35012)"
       id="path3099"
       style="opacity:0.40909089;fill:url(#radialGradient3107)" />
    <path
       d="M 46.138718,23.42804 C 46.138718,35.143769 36.285088,44.641244 24.130018,44.641244 C 11.974949,44.641244 2.1213187,35.143769 2.1213188,23.42804 C 2.1213187,11.712311 11.974949,2.2148362 24.130018,2.2148362 C 36.285088,2.2148362 46.138718,11.712311 46.138718,23.42804 L 46.138718,23.42804 z"
       transform="matrix(0.94463,0,0,0.980053,1.504174,-1.556912)"
       id="path1650"
       style="opacity:1;fill:#f57900;fill-opacity:1;fill-rule:nonzero;stroke:#914900;stroke-width:1;stroke-linecap:round;stroke-linejoin:round;stroke-miterlimit:4" />
    <path
       d="M 46.138718,23.42804 C 46.138718,35.143769 36.285088,44.641244 24.130018,44.641244 C 11.974949,44.641244 2.1213187,35.143769 2.1213188,23.42804 C 2.1213187,11.712311 11.974949,2.2148362 24.130018,2.2148362 C 36.285088,2.2148362 46.138718,11.712311 46.138718,23.42804 L 46.138718,23.42804 z"
       transform="matrix(0.914086,0,0,0.948364,2.380576,-0.905815)"
       id="path3392"
       style="opacity:1;fill:none;fill-opacity:1;fill-rule:nonzero;stroke:#fcaf3e;stroke-width:1;stroke-linecap:round;stroke-linejoin:round;stroke-miterlimit:4" />
    <path
       d="M 24.671131,9.5255441 C 23.76643,9.525565 22.836453,9.6414862 21.868017,9.8489517 C 20.900177,10.056332 19.834697,10.354652 18.664474,10.789766 C 18.655608,10.788636 18.646644,10.788636 18.637776,10.789766 C 18.627467,10.797891 18.618452,10.80782 18.611066,10.819171 C 18.600773,10.827287 18.591751,10.837221 18.584383,10.848571 C 18.583356,10.858342 18.583356,10.868198 18.584383,10.877968 C 18.583356,10.887743 18.583356,10.897602 18.584383,10.907373 L 18.584383,15.758464 C 18.583356,15.768244 18.583356,15.778108 18.584383,15.787869 C 18.583356,15.797631 18.583356,15.807514 18.584383,15.817271 C 18.591751,15.828617 18.600773,15.83855 18.611066,15.846678 C 18.618452,15.858014 18.627467,15.867948 18.637776,15.876079 C 18.646644,15.877214 18.655608,15.877214 18.664474,15.876079 C 18.673342,15.877214 18.682292,15.877214 18.691159,15.876079 C 18.700031,15.877214 18.708994,15.877214 18.717866,15.876079 C 18.726732,15.877214 18.735688,15.877214 18.744551,15.876079 C 19.720528,15.199586 20.652464,14.683917 21.547677,14.347247 C 22.443076,14.000312 23.293068,13.818046 24.057116,13.81803 C 24.868016,13.818046 25.462345,14.016115 25.899158,14.406043 C 26.333751,14.784335 26.566559,15.330911 26.566566,16.023072 C 26.56656,16.475291 26.443396,16.918182 26.192817,17.375498 C 25.951068,17.833692 25.560432,18.345012 25.018181,18.87493 L 24.083814,19.756951 C 23.057429,20.773488 22.384444,21.630139 22.054899,22.314803 C 21.727615,22.984138 21.57436,23.744203 21.574362,24.608045 L 21.574362,25.372453 C 21.573333,25.382226 21.573333,25.392093 21.574362,25.401862 C 21.573333,25.411628 21.573333,25.42149 21.574362,25.431262 C 21.581736,25.442604 21.590748,25.452539 21.601057,25.460665 C 21.608423,25.472008 21.617453,25.481943 21.627761,25.490061 C 21.636624,25.4912 21.645585,25.4912 21.654452,25.490061 C 21.663322,25.4912 21.672283,25.4912 21.681157,25.490061 L 26.886929,25.490061 C 26.895793,25.4912 26.904747,25.4912 26.913618,25.490061 C 26.922493,25.4912 26.931444,25.4912 26.940315,25.490061 C 26.950613,25.481943 26.959638,25.472008 26.967013,25.460665 C 26.977322,25.452539 26.986334,25.442604 26.99371,25.431262 C 26.99475,25.42149 26.99475,25.411628 26.99371,25.401862 C 26.99475,25.392093 26.99475,25.382226 26.99371,25.372453 L 26.99371,24.666848 C 26.993702,24.226358 27.12046,23.826828 27.314063,23.461418 C 27.503976,23.093293 27.918962,22.567303 28.568796,21.932593 L 29.476465,21.050573 C 30.387633,20.126401 31.040367,19.277456 31.425291,18.463324 C 31.809091,17.641002 32.012592,16.700775 32.012614,15.670273 C 32.012592,13.669839 31.377216,12.157224 30.117173,11.113176 C 28.856949,10.058501 27.036425,9.525565 24.671131,9.5255441 z M 21.627761,27.5481 C 21.617453,27.556226 21.608423,27.566159 21.601057,27.577495 C 21.590748,27.585621 21.581736,27.595551 21.574362,27.606904 C 21.573333,27.616674 21.573333,27.626533 21.574362,27.636306 C 21.573333,27.646076 21.573333,27.655935 21.574362,27.66571 L 21.574362,33.163608 C 21.573333,33.173379 21.573333,33.183252 21.574362,33.193013 C 21.573333,33.202765 21.573333,33.212653 21.574362,33.222417 C 21.581736,33.233762 21.590748,33.243693 21.601057,33.251815 C 21.608423,33.263166 21.617453,33.2731 21.627761,33.281214 C 21.636624,33.282358 21.645585,33.282358 21.654452,33.281214 C 21.663322,33.282358 21.672283,33.282358 21.681157,33.281214 L 26.886929,33.281214 C 26.895793,33.282358 26.904747,33.282358 26.913618,33.281214 C 26.922493,33.282358 26.931444,33.282358 26.940315,33.281214 C 26.950613,33.2731 26.959638,33.263166 26.967013,33.251815 C 26.977322,33.243693 26.986334,33.233762 26.99371,33.222417 C 26.99475,33.212653 26.99475,33.202765 26.99371,33.193013 C 26.99475,33.183252 26.99475,33.173379 26.99371,33.163608 L 26.99371,27.66571 C 26.99475,27.655935 26.99475,27.646076 26.99371,27.636306 C 26.99475,27.626533 26.99475,27.616674 26.99371,27.606904 C 26.986334,27.595551 26.977322,27.585621 26.967013,27.577495 C 26.959638,27.566159 26.950613,27.556226 26.940315,27.5481 C 26.931444,27.546969 26.922493,27.546969 26.913618,27.5481 C 26.904747,27.546969 26.895793,27.546969 26.886929,27.5481 L 21.681157,27.5481 C 21.672283,27.546969 21.663322,27.546969 21.654452,27.5481 C 21.645585,27.546969 21.636624,27.546969 21.627761,27.5481 z"
       id="rect1872"
       style="fill:#ffffff" />
    <path
       d="M 43.676426,20.47678 C 43.676426,31.307396 37.624257,16.170581 25.001688,20.863168 C 12.279172,25.592912 4.4350535,31.307396 4.4350535,20.47678 C 4.4350535,9.6461627 13.22512,0.85609769 24.05574,0.85609769 C 34.886359,0.85609769 43.676426,9.6461627 43.676426,20.47678 z"
       id="path3068"
       style="fill:#fffeff;fill-opacity:0.21390375" />
  </g>
</svg>
