<?xml version="1.0" encoding="UTF-8" standalone="no"?>
<!-- Created with Inkscape (http://www.inkscape.org/) -->
<svg
   xmlns:svg="http://www.w3.org/2000/svg"
   xmlns="http://www.w3.org/2000/svg"
   version="1.0"
   width="48"
   height="48"
   id="svg6874">
  <defs
     id="defs6877" />
  <g
     transform="translate(9.7166093e-2,9.7165978e-2)"
     id="g6885">
    <path
       d="M 27.252183,31.5 C 27.263283,29.3 27.468068,28.517747 27.707261,29.761659 C 27.946454,31.005572 27.937373,32.805572 27.68708,33.761659 C 27.436788,34.717747 27.241084,33.7 27.252183,31.5 z M 14,31 C 14,30.45 14.675,30 15.5,30 C 16.325,30 17,30.45 17,31 C 17,31.55 16.325,32 15.5,32 C 14.675,32 14,31.55 14,31 z M 31.686741,26.910096 C 31.2903,25.394105 30.621437,24.931291 29.467115,25.374246 C 28.333099,25.809408 27.648819,25.373086 27.285317,23.983051 C 26.879537,22.431347 26.44569,22.215147 25.429704,23.05834 C 23.452628,24.699168 18.433813,22.007277 18.720904,19.460009 C 18.842401,18.382004 18.692401,18.0625 18.387571,18.75 C 18.08274,19.4375 17.222391,20 16.475684,20 C 14.455467,20 13.539785,22.094405 15.121885,23.096491 C 16.211823,23.786846 16.134058,23.972577 14.75,23.984687 C 13.7875,23.993109 13,23.340267 13,22.533927 C 13,20.189485 16.269314,13.986154 17.435773,14.117307 C 19.830208,14.38653 23.411857,13.806539 22.25,13.337719 C 20.205283,12.512658 20.82133,11.261659 23.617999,10.55974 C 27.137841,9.6763159 27.711656,10.530025 25.410536,13.226636 C 24.075727,14.790857 24.000201,15.079682 25.159905,14.185094 C 26.562987,13.102767 27.05983,13.247332 28.371115,15.119453 L 29.92242,17.334251 L 30.936459,14.667126 C 32.162213,11.443148 32.324419,11.425817 35.492394,14.180335 C 38.289701,16.612562 38.784711,19.761648 36.507115,20.635643 C 35.545813,21.00453 35.209905,21.988145 35.563758,23.39801 C 35.920825,24.820677 35.437497,26.199083 34.183728,27.333728 C 32.336594,29.005362 32.229933,28.987266 31.686741,26.910096 z M 35,19 C 34.175,18.466844 32.6,18.030626 31.5,18.030626 C 29.843864,18.030626 29.757898,18.197292 31,19 C 31.825,19.533156 33.4,19.969374 34.5,19.969374 C 36.156136,19.969374 36.242102,19.802708 35,19 z M 17,26 C 17.588702,24.9 18.21068,24 18.382174,24 C 18.553668,24 19.731689,24.9 21,26 L 23.306019,28 L 19.617826,28 C 16.23951,28 16.019563,27.831962 17,26 z"
       id="path6901"
       style="fill:#dce3e9" />
    <path
       d="M 11.252183,32.5 C 11.263283,30.3 11.468068,29.517747 11.707261,30.761659 C 11.946454,32.005572 11.937373,33.805572 11.68708,34.761659 C 11.436788,35.717747 11.241084,34.7 11.252183,32.5 z M 32,30.142929 C 32,29.706064 33.125,28.291745 34.5,27 C 37.118123,24.540401 37.668673,24.882056 36.02778,27.948092 C 35.003272,29.862403 32,31.49896 32,30.142929 z M 13.8125,27.316886 C 14.534375,27.028015 15.396875,27.063542 15.729167,27.395833 C 16.061458,27.728125 15.470833,27.964474 14.416667,27.921053 C 13.251724,27.873069 13.014767,27.636112 13.8125,27.316886 z M 24.269032,27.307009 C 25.241999,27.053466 26.591999,27.07014 27.269032,27.344063 C 27.946064,27.617986 27.15,27.825431 25.5,27.805051 C 23.85,27.784672 23.296064,27.560553 24.269032,27.307009 z M 20.147535,25.312853 C 19.450449,24.566619 18.457082,24.217508 17.940053,24.537049 C 17.423024,24.856591 17,24.641476 17,24.059017 C 17,23.476558 16.2125,22.964474 15.25,22.921053 C 14.194252,22.873425 13.998366,22.641184 14.756231,22.335642 C 15.447157,22.057088 15.7581,21.417614 15.447214,20.91459 C 15.136327,20.411565 15.546024,20 16.35765,20 C 17.169276,20 18.08274,19.4375 18.387571,18.75 C 18.692401,18.0625 18.842401,18.382004 18.720904,19.460009 C 18.420879,22.122034 23.453547,24.698405 25.551847,22.956971 C 26.699037,22.004888 27,22.046733 27,23.158318 C 27,25.333322 21.718025,26.994068 20.147535,25.312853 z M 36.735187,20.583333 C 37.694112,19.4375 38.54039,18.368092 38.615805,18.206872 C 38.69122,18.045651 39.028361,18.631523 39.365007,19.50881 C 39.719553,20.432742 39.561155,20.846813 38.988546,20.492921 C 38.444846,20.156896 38,20.508524 38,21.274316 C 38,22.040109 37.32313,22.666667 36.495844,22.666667 C 35.233558,22.666667 35.272045,22.331663 36.735187,20.583333 z M 28.144206,14.859303 C 27.074955,13.14716 26.636116,13.042655 25.194055,14.156753 C 23.970905,15.101725 24.052988,14.775387 25.489343,12.982767 C 26.583482,11.617245 27.56207,10.346412 27.663983,10.158694 C 27.765896,9.9709754 28.718893,10.093392 29.781755,10.430732 C 31.208093,10.883434 31.589425,11.696953 31.237713,13.536815 C 30.598681,16.879695 29.657294,17.282142 28.144206,14.859303 z M 17.321624,13.711382 C 16.973132,13.14751 17.180014,12.993221 17.784031,13.366524 C 18.385208,13.738071 19.242236,13.404041 19.68854,12.624233 C 20.349669,11.469069 20.720654,11.445663 21.691053,12.497892 C 22.635236,13.521694 22.3712,13.887048 20.417186,14.260582 C 19.06148,14.519742 17.668477,14.272602 17.321624,13.711382 z M 35,14 C 34.098708,13.41754 33.975367,13.024514 34.690983,13.015313 C 35.346024,13.006891 36.160081,13.45 36.5,14 C 37.267305,15.241525 36.921123,15.241525 35,14 z"
       id="path6899"
       style="fill:#b3c8de" />
    <path
       d="M 12.015313,33.307498 C 12.023735,32.863374 12.411111,31.899769 12.876149,31.166154 C 13.544691,30.111505 13.862323,30.198835 14.393619,31.583372 C 14.905759,32.917987 15.343159,33.056841 16.232783,32.167217 C 17.797432,30.602568 21.27642,30.666245 20.755613,32.25 C 20.306812,33.614787 11.990405,34.620998 12.015313,33.307498 z M 32,31.535184 C 32,31.279535 33.0125,30.530861 34.25,29.871464 C 36.290222,28.78434 36.372041,28.827677 35.127555,30.33628 C 33.84973,31.885299 32,32.594367 32,31.535184 z M 13.75,29.242116 C 11.480801,28.738011 11.54283,27.867837 14.038955,25.188561 C 16.554545,22.488393 17,22.460026 17,25 C 17,26.372351 16.293895,27.03713 14.75,27.118315 C 12.996563,27.210518 13.162084,27.382096 15.5,27.895761 C 17.427424,28.319235 17.963712,28.747238 17,29.092886 C 16.175,29.388782 14.7125,29.455936 13.75,29.242116 z M 28.015313,28.25 C 28.006415,27.523674 26.638447,26.971646 24.75,26.93232 C 21.684531,26.868482 21.627752,26.803027 23.75,25.779505 C 26.749466,24.332917 30.3575,25.861855 28.989991,28 C 28.351724,28.997953 28.0255,29.081627 28.015313,28.25 z M 36.875,25.5 C 36.80625,25.225 36.686859,24.6625 36.609687,24.25 C 36.532515,23.8375 36.052384,22.825 35.542729,22 C 34.772127,20.752594 34.874397,20.709034 36.150051,21.741324 C 36.993733,22.424052 38.077779,22.649052 38.559042,22.241324 C 39.040304,21.833596 38.890304,22.216404 38.225708,23.092009 C 37.561112,23.967614 37.313448,24.980114 37.675343,25.342009 C 38.037238,25.703904 38.033333,26 37.666667,26 C 37.3,26 36.94375,25.775 36.875,25.5 z M 44.252183,22.5 C 44.263283,20.3 44.468068,19.517747 44.707261,20.761659 C 44.946454,22.005572 44.937373,23.805572 44.68708,24.761659 C 44.436788,25.717747 44.241084,24.7 44.252183,22.5 z M 32,19 C 32,18.45 32.423442,18 32.940983,18 C 33.458524,18 34.160081,18.45 34.5,19 C 34.839919,19.55 34.416476,20 33.559017,20 C 32.701558,20 32,19.55 32,19 z"
       id="path6897"
       style="fill:#9fb4ce" />
    <path
       d="M 8.6497679e-16,25.581787 C 1.340714e-15,13.251771 0.27314496,2.4517706 0.6069888,1.5817875 C 1.1365469,0.20178111 4.1981128,0 24.606989,0 L 48,0 L 48,24 L 48,48 L 24,48 L 0,48 L 8.6497679e-16,25.581787 z M 44.194543,33.043045 C 44.442837,27.01672 44.44421,18.24172 44.197592,13.543045 L 43.749197,5 L 24.374598,5 L 5,5 L 5,24.5 L 5,44 L 24.371549,44 L 43.743098,44 L 44.194543,33.043045 z M 10.405527,37.614404 C 10.113091,36.852326 10.048595,34.264826 10.262205,31.864404 C 10.641831,27.598375 10.654524,27.619667 10.825293,32.809017 C 10.921382,35.728976 11.364061,37.893032 11.809024,37.61803 C 12.253986,37.343028 15.628986,37.020551 19.309024,36.901416 L 26,36.684806 L 26,32.899901 C 26,29.179218 25.927885,29.107912 21.75,28.697557 L 17.5,28.280118 L 22,28.390059 L 26.5,28.5 L 27.057552,32.67717 C 27.549903,36.365863 27.339756,36.979797 25.260499,37.92717 C 21.723906,39.53855 11.057715,39.313977 10.405527,37.614404 z M 33,33.122445 C 33,32.639789 33.748674,31.627289 34.66372,30.872445 C 36.172323,29.627959 36.21566,29.709778 35.128536,31.75 C 33.888626,34.076958 33,34.649929 33,33.122445 z"
       id="path6895"
       style="fill:#9a9a9c" />
    <path
       d="M 13.25,34.310674 C 14.2125,34.059147 15.7875,34.059147 16.75,34.310674 C 17.7125,34.562202 16.925,34.767997 15,34.767997 C 13.075,34.767997 12.2875,34.562202 13.25,34.310674 z M 28.116001,32.44113 C 28.052201,30.758751 28.642861,28.508751 29.42858,27.44113 C 30.8241,25.544921 30.874144,25.543845 31.59106,27.394608 C 32.070095,28.631266 31.788139,29.681748 30.779148,30.41954 C 29.928952,31.041219 29.008036,32.438646 28.73267,33.524933 C 28.387495,34.886603 28.195976,34.550005 28.116001,32.44113 z M 21,32.122445 C 21,31.5051 20.351558,31 19.559017,31 C 18.766476,31 17.809526,30.500824 17.432462,29.890721 C 16.945838,29.103348 18.016939,28.991403 21.123445,29.504961 C 26.304619,30.361498 26.744616,30.655384 25.183333,32.216667 C 24.272222,33.127778 24,33.095776 24,32.077555 C 24,31.015431 23.704728,31.000165 22.5,32 C 21.463637,32.860104 21,32.897951 21,32.122445 z M 39.059671,26 C 38.942689,25.175 38.687593,23.653686 38.49279,22.619301 C 38.253092,21.346531 38.466815,21.066815 39.153966,21.753966 C 39.712416,22.312416 39.967513,23.833731 39.720847,25.134665 C 39.474181,26.435599 39.176652,26.825 39.059671,26 z"
       id="path6893"
       style="fill:#6e89ab" />
    <path
       d="M 29.395341,36.386166 C 27.910072,35.773134 28.849957,31.271554 30.603734,30.598567 C 31.391798,30.296158 32,30.676779 32,31.472368 C 32,33.537729 34.080849,34.477666 35.112066,32.878115 C 35.600719,32.120152 36.504508,29.7 37.120487,27.5 C 38.164762,23.770315 38.299585,23.657085 39.11555,25.824475 C 40.185255,28.665861 39.099291,30.89722 34.945817,34.392139 C 31.799777,37.039357 31.360369,37.197215 29.395341,36.386166 z M 24.5,35 C 24.160081,34.45 24.358524,34 24.940983,34 C 25.523442,34 26,34.45 26,35 C 26,35.55 25.801558,36 25.559017,36 C 25.316476,36 24.839919,35.55 24.5,35 z M 18.8125,34.316886 C 19.534375,34.028015 20.396875,34.063542 20.729167,34.395833 C 21.061458,34.728125 20.470833,34.964474 19.416667,34.921053 C 18.251724,34.873069 18.014767,34.636112 18.8125,34.316886 z M 22,33.059017 C 22,32.541476 22.444846,31.843104 22.988546,31.507079 C 23.555406,31.15674 23.723053,31.558137 23.381557,32.448062 C 22.716766,34.180479 22,34.497449 22,33.059017 z M 22.269032,29.307009 C 23.241999,29.053466 24.591999,29.07014 25.269032,29.344063 C 25.946064,29.617986 25.15,29.825431 23.5,29.805051 C 21.85,29.784672 21.296064,29.560553 22.269032,29.307009 z M 40.078947,23.416667 C 40.126931,22.251724 40.363888,22.014767 40.683114,22.8125 C 40.971985,23.534375 40.936458,24.396875 40.604167,24.729167 C 40.271875,25.061458 40.035526,24.470833 40.078947,23.416667 z M 25.269032,9.3070093 C 26.241999,9.0534659 27.591999,9.0701402 28.269032,9.3440633 C 28.946064,9.6179864 28.15,9.825431 26.5,9.8050513 C 24.85,9.7846716 24.296064,9.5605527 25.269032,9.3070093 z"
       id="path6891"
       style="fill:#576e94" />
    <path
       d="M 24.727527,43.251294 L 5.9550539,42.955704 L 6.227527,24.727852 L 6.5,6.5 L 25,6 L 43.5,5.5 L 43.5,24.749612 C 43.5,35.336898 43.5,43.897447 43.5,43.773054 C 43.5,43.648661 35.052387,43.413869 24.727527,43.251294 z M 35.75,37.149112 C 36.9875,36.478398 38,35.495465 38,34.964816 C 38,33.633633 36.679939,33.757377 34.95775,35.25 C 34.164512,35.9375 34.758375,35.116125 36.277446,33.424723 C 43.11179,25.815051 41.436201,15.325941 32.711555,11.102412 C 27.304566,8.4849338 25.706753,8.4794543 20.375833,11.060108 C 15.411798,13.463157 11.360863,20.317341 12.4172,24.526122 C 12.873645,26.344744 12.635753,27 11.519052,27 C 10.330291,27 10,28.295449 10,32.957936 L 10,38.915871 L 17.75,39.207936 C 26.71615,39.545831 32.56151,38.877244 35.75,37.149112 z M 27.75,37.337719 C 28.4375,37.060307 29.5625,37.060307 30.25,37.337719 C 30.9375,37.615132 30.375,37.842105 29,37.842105 C 27.625,37.842105 27.0625,37.615132 27.75,37.337719 z M 13,36 C 13.825,35.466844 15.9625,35.023735 17.75,35.015313 C 19.5375,35.006891 21,34.523442 21,33.940983 C 21,33.358524 21.45,33.160081 22,33.5 C 22.55,33.839919 23.031628,33.528976 23.070285,32.809017 C 23.108942,32.089058 23.497521,32.4 23.933793,33.5 C 25.018038,36.233773 23.547886,36.969374 17,36.969374 C 13.084248,36.969374 11.932068,36.690151 13,36 z"
       id="path6889"
       style="fill:#545557" />
    <path
       d="M 5,24.5 L 5,4.9568144 L 24.25,5.2284072 L 43.5,5.5 L 43.574594,11 L 43.649188,16.5 L 43.27469,11.25 L 42.900192,6 L 24.450096,6 L 6,6 L 6,24.5 L 6,43 L 24.457936,43 L 42.915871,43 L 43.270941,35.75 L 43.62601,28.5 L 43.563005,36 L 43.5,43.5 L 24.25,43.771593 L 5,44.043186 L 5,24.5 z M 25.602013,38.834939 C 25.885825,38.375723 27.103976,37.998318 28.309017,37.996262 C 29.514058,37.994206 31.973376,37.094206 33.77417,35.996262 C 37.485313,33.733577 38,33.607952 38,34.964816 C 38,35.495465 36.9875,36.478398 35.75,37.149112 C 32.991996,38.643925 24.888028,39.990191 25.602013,38.834939 z"
       id="path6887"
       style="fill:#2a2a2b" />
  </g>
</svg>
