<?xml version="1.0" encoding="UTF-8" standalone="no"?>
<!-- Created with Inkscape (http://www.inkscape.org/) -->
<svg
   xmlns:svg="http://www.w3.org/2000/svg"
   xmlns="http://www.w3.org/2000/svg"
   xmlns:xlink="http://www.w3.org/1999/xlink"
   version="1.0"
   width="48"
   height="48"
   id="svg7654">
  <defs
     id="defs7657" />
  <g
     id="g7681">
    <image
       x="0"
       y="0"
       width="48"
       height="48"
       id="image7663" />
    <g
       id="g7665">
      <path
         d="M 0,24 L 0,0 L 24,0 L 48,0 L 48,24 L 48,48 L 24,48 L 0,48 L 0,24 z M 19.25,41.267795 C 16.9125,41.05726 13.0875,41.05726 10.75,41.267795 C 8.4125,41.47833 10.325,41.650586 15,41.650586 C 19.675,41.650586 21.5875,41.47833 19.25,41.267795 z M 27.594473,28.385596 C 27.290407,27.593213 25.653869,27 23.771932,27 C 21.5641,27 20.070044,26.341805 19.232073,25 C 17.64477,22.458325 15.31639,22.427783 14.519619,24.938187 C 14.16576,26.053096 12.756643,27.05137 11.202231,27.288355 C 9.7160039,27.514944 12.6625,27.76776 17.75,27.850168 L 27,28 L 27.174707,33.25 C 27.347421,38.440109 27.353845,38.450212 27.737795,34.135596 C 27.951405,31.735174 27.886909,29.147674 27.594473,28.385596 z M 13.770833,31.8125 C 13.152759,29.958277 11,29.65074 11,31.416667 C 11,32.2875 11.7125,33 12.583333,33 C 13.454167,33 13.988542,32.465625 13.770833,31.8125 z M 38,23.036142 C 38,18.898386 35.743163,16.6 31.680206,16.6 C 28.351929,16.6 28.252843,16.511203 30.121004,15.202692 C 32.645886,13.434196 37.246815,15.085232 38.811266,18.321178 C 39.819868,20.407395 39.867516,20.38061 39.93232,17.690983 C 39.974109,15.956559 40.410728,15.13581 41.073655,15.545522 C 41.664166,15.910477 41.182773,14.318427 40.003894,12.007633 C 38.825015,9.696839 37.598865,8.0678021 37.279116,8.3875511 C 36.959367,8.7073001 36.187491,8.2710868 35.563836,7.4181883 C 34.559405,6.0445466 34.216383,6.1034184 32.559972,7.9337319 C 31.519525,9.0834126 31.202372,10 31.845012,10 C 32.480256,10 33,9.55 33,9 C 33,8.45 33.45,8 34,8 C 36.039926,8 34.905133,9.9008421 32,11.350113 C 29.637667,12.528601 29,12.570195 29,11.5458 C 29,10.830299 28.325,9.6846892 27.5,9 C 26.303284,8.0068141 25.696716,8.0068141 24.5,9 C 23.675,9.6846892 23,9.9810123 23,9.6584957 C 23,9.3359792 24.679461,7.9308791 26.732135,6.536051 L 30.464269,4 L 26.182475,4 C 18.919944,4 12.370484,8.9651705 10.049526,16.23045 C 8.8187751,20.08306 9.2408249,22.011279 11.309017,21.984687 C 12.09205,21.97462 12.027951,21.670383 11.121885,21.096491 C 9.6305497,20.151895 10.410753,18 12.244566,18 C 12.864158,18 14.473673,16.9875 15.821266,15.75 L 18.271435,13.5 L 17.038096,15.866665 C 15.289748,19.221589 17.757071,21.498728 22.99182,21.361467 C 26.063224,21.280932 27.082701,21.685206 27.554168,23.170669 C 27.979006,24.509213 28.735172,24.901441 30.072557,24.476971 C 31.477603,24.031027 32.294155,24.551495 33.155557,26.442066 C 34.259022,28.863908 34.434313,28.916927 36.163652,27.351897 C 37.173643,26.437867 38,24.495778 38,23.036142 z M 18.8125,12.316886 C 19.534375,12.028015 20.396875,12.063542 20.729167,12.395833 C 21.061458,12.728125 20.470833,12.964474 19.416667,12.921053 C 18.251724,12.873069 18.014767,12.636112 18.8125,12.316886 z M 15,10.22568 C 15,9.5798042 16.35,8.3532482 18,7.5 C 20.677888,6.1152103 21,6.112453 21,7.4743199 C 21,8.3134439 20.19,9 19.2,9 C 18.21,9 16.86,9.54 16.2,10.2 C 15.295824,11.104176 15,11.110507 15,10.22568 z"
         id="path7679"
         style="fill:#b2c8de" />
      <path
         d="M 0,24 L 0,0 L 24,0 L 48,0 L 48,24 L 48,48 L 24,48 L 0,48 L 0,24 z M 15.259138,41.25616 L 7.0182761,40.919411 L 7.259138,34.709705 L 7.5,28.5 L 17,28.5 L 26.5,28.5 L 27.092896,33.5 L 27.685793,38.5 L 27.842896,32.75 C 27.988763,27.411259 27.839073,26.998905 25.75,26.984687 C 24.5125,26.976265 22.894741,26.585781 22.154979,26.116944 C 20.191948,24.872839 24.985294,23.847059 29.005079,24.651016 C 31.341689,25.118338 32.474096,26.061546 33.200584,28.145552 C 33.747871,29.715498 34.55718,31 34.999049,31 C 36.58171,31 39.804301,24.300393 38.904782,22.880175 C 38.423996,22.121079 38.023735,20.8824 38.015313,20.127555 C 38.002863,19.011727 38.284746,18.991429 39.522892,20.018999 C 40.796239,21.075783 40.94257,21.013916 40.415903,19.641444 C 39.991588,18.535695 40.314852,18 41.406431,18 C 42.88407,18 42.892118,17.669597 41.49778,14.25 C 39.566279,9.5130185 35.702823,6.003447 33.15356,6.670094 C 32.093247,6.9473722 30.926559,6.6901875 30.560921,6.0985725 C 30.140342,5.4180605 30.558077,5.2370326 31.698062,5.6057866 C 33.204648,6.0931261 33.254138,6.0118044 32,5.109645 C 31.175,4.5161843 28.53627,4.0237348 26.136155,4.0153128 C 18.092257,3.9870867 10.627817,10.356364 9.3296537,18.356008 C 8.8678675,21.201663 9.1095771,22.104818 10.472958,22.627997 C 11.492758,23.01933 12.564318,22.718992 13.085612,21.895717 C 13.705334,20.916996 13.973949,21.452963 13.984687,23.689635 C 13.998932,26.656825 13.738476,26.900914 10.25,27.189635 L 6.5,27.5 L 6.2061904,34.75 L 5.9123809,42 L 14.70619,41.796455 L 23.5,41.592909 L 15.259138,41.25616 z M 11,19 C 11.825,18.466844 12.95,18.030626 13.5,18.030626 C 14.05,18.030626 13.825,18.466844 13,19 C 12.175,19.533156 11.05,19.969374 10.5,19.969374 C 9.95,19.969374 10.175,19.533156 11,19 z M 32.55887,15.468197 C 29.981975,13.519131 32.576784,13.543113 36,15.5 C 38.209898,16.763292 38.267919,16.929551 36.5,16.932761 C 35.4,16.934759 33.626492,16.275705 32.55887,15.468197 z M 32.5,10 C 32.839919,9.45 33.316476,9 33.559017,9 C 33.801558,9 34,9.45 34,10 C 34,10.55 33.523442,11 32.940983,11 C 32.358524,11 32.160081,10.55 32.5,10 z M 13.425794,33.332783 C 14.246005,31.195345 12.415218,29.184782 10.967217,30.632783 C 9.8799167,31.720083 10.655569,35 12,35 C 12.432312,35 13.07392,34.249752 13.425794,33.332783 z"
         id="path7677"
         style="fill:#a1b4cb" />
      <path
         d="M 0,24 L 0,0 L 24,0 L 48,0 L 48,24 L 48,48 L 24,48 L 0,48 L 0,24 z M 15.5,41.06662 C 8.3555401,40.560596 7.5,40.286115 7.5,38.5 C 7.5,36.80737 8.3333333,36.423158 12.922355,36 C 18.746593,35.462942 20.769982,33.482341 16.571039,32.428474 C 15.156968,32.073564 14,31.381968 14,30.891592 C 14,29.331349 10.771514,29.932778 9.392046,31.75 C 8.1550688,33.379514 8.0614171,33.353232 8.0318034,31.368277 C 8.0026269,29.412631 8.6984653,29.178372 16.456152,28.53216 C 21.107036,28.144744 25.365286,28.107725 25.918931,28.449897 C 26.472576,28.792068 26.884884,31.098397 26.835172,33.575073 C 26.699307,40.343859 27.622641,39.884476 28.361475,32.815697 C 29.282656,24.002315 31.485567,22.249635 32.906916,29.199254 C 33.816747,33.64783 36.063628,33.393321 38.327578,28.585244 C 39.781971,25.496466 39.941875,24.167845 39.085447,22.288191 C 37.717179,19.285171 37.721535,17.917216 39.091869,20.271032 C 40.338181,22.411816 42.169332,21.604846 41.286387,19.30393 C 40.835804,18.129728 41.029228,17.90003 41.975904,18.485108 C 42.999254,19.117573 43.138118,18.653969 42.600715,16.399153 C 40.10512,5.9282141 26.565937,0.39694271 17.359186,6.0870277 C 12.42939,9.1338092 9,15.551759 9,21.730869 C 9,25.301848 8.5596055,26.955018 7.5,27.361626 C 6.3634609,27.797757 6,29.640986 6,34.968615 L 6,42 L 14.75,41.81662 L 23.5,41.633241 L 15.5,41.06662 z M 25.5,40 C 25.839919,39.45 25.641476,39 25.059017,39 C 24.476558,39 24,39.45 24,40 C 24,40.55 24.198442,41 24.440983,41 C 24.683524,41 25.160081,40.55 25.5,40 z"
         id="path7675"
         style="fill:#9b9da1" />
      <path
         d="M 1.3062944e-17,24.174314 L 0,0 L 24,0 C 37.2,0 48,0.39489988 48,0.87755528 C 48,1.3602107 47.325,2.3153108 46.5,3 C 45.478008,3.848178 45,6.117902 45,10.122445 C 45,14.680272 45.336805,16 46.5,16 C 47.769456,16 48,18.40611 48,31.654988 C 48,46.757943 47.935514,47.251616 46.171259,45.654988 C 44.598838,44.231966 41.559355,44 24.485711,44 C 5.4745654,44 4.5303345,44.0926 2.3144512,46.174314 L 2.6125888e-17,48.348628 L 1.3062944e-17,24.174314 z M 26.086055,40.718197 C 27.086525,39.949769 27.919542,37.116305 28.342277,33.043778 C 29.359704,23.24214 31.536855,22.138768 33.121623,30.621623 C 33.605993,33.214326 34.263571,35.596904 34.582908,35.916242 C 35.557063,36.890396 37.792426,33.06813 39.589049,27.356199 C 40.52664,24.375354 41.677664,21.699215 42.14688,21.409223 C 43.669915,20.467936 43.050569,15.862284 40.882114,12.00404 C 37.991418,6.8607393 32.617324,4 25.84598,4 C 15.99886,4 9,11.46176 9,21.960162 C 9,25.773351 8.6349143,27 7.5,27 C 6.3,27 6,28.5 6,34.5 L 6,42 L 15.25,41.968197 C 20.939414,41.948635 25.110517,41.467475 26.086055,40.718197 z M 8,38.5 C 8,36.142375 8.3071326,36 13.393011,36 C 17.264308,36 18.948437,35.576754 19.361626,34.5 C 19.699112,33.620526 19.375518,33 18.579399,33 C 17.832592,33 16.159215,32.114971 14.860784,31.033269 L 12.5,29.066539 L 19.25,29.033269 C 25.730442,29.001329 26,29.096508 26,31.416667 C 26,32.745833 25.4375,34.095833 24.75,34.416667 C 23.75,34.883333 23.75,35.116667 24.75,35.583333 C 26.503195,36.401491 26.31306,39 24.5,39 C 23.675,39 23,39.45 23,40 C 23,40.577778 19.833333,41 15.5,41 C 8.1666667,41 8,40.944444 8,38.5 z M 8,30 C 8,29.45 8.7015576,29 9.559017,29 C 10.416476,29 10.839919,29.45 10.5,30 C 10.160081,30.55 9.4585237,31 8.940983,31 C 8.4234424,31 8,30.55 8,30 z"
         id="path7673"
         style="fill:#708baf" />
      <path
         d="M 1.3062944e-17,24.174314 L 0,0 L 24,0 C 37.2,0 48,0.39489988 48,0.87755528 C 48,1.3602107 47.325,2.3153108 46.5,3 C 45.478008,3.848178 45,6.117902 45,10.122445 C 45,14.680272 45.336805,16 46.5,16 C 47.769456,16 48,18.40611 48,31.654988 C 48,46.757943 47.935514,47.251616 46.171259,45.654988 C 44.598838,44.231966 41.559355,44 24.485711,44 C 5.4745654,44 4.5303345,44.0926 2.3144512,46.174314 L 2.6125888e-17,48.348628 L 1.3062944e-17,24.174314 z M 27.5,40.528836 C 29.7,39.736259 30.9375,39.068034 30.25,39.043893 C 28.652685,38.987804 28.614677,33.785323 30.2,32.2 C 31.977978,30.422022 32.712796,30.719552 33.410644,33.5 C 34.614576,38.296849 37.028656,35.633599 39.982342,26.25 C 40.718119,23.9125 41.698092,22 42.16006,22 C 42.622027,22 42.997035,20.3125 42.993411,18.25 C 42.979681,10.436356 35.408492,4.0140252 26.20034,4.0051234 C 19.919425,3.9990514 15.992745,5.8107903 12.66776,10.248949 C 9.5853519,14.363316 8.6594897,17.401552 8.8582292,22.75 C 8.9768029,25.941039 8.6403889,27 7.5080761,27 C 6.2980258,27 6,28.482149 6,34.5 L 6,42 L 14.75,41.984944 C 19.81302,41.976232 25.185477,41.362673 27.5,40.528836 z M 8,39.127229 C 8,37.603567 8.9591921,37.162292 13.14552,36.760039 C 16.964687,36.393066 18.733697,35.678776 20.008305,33.98899 C 21.806227,31.605431 24.568444,32.076276 23.599558,34.601151 C 23.28983,35.408291 23.68399,36 24.531385,36 C 26.570776,36 26.364917,37.243066 23.988569,39.277759 C 22.501247,40.551244 20.156161,41 14.988569,41 C 8.824926,41 8,40.778939 8,39.127229 z M 19.5,30 C 17.951039,29.334389 18.458457,29.12472 21.75,29.070285 C 24.0875,29.031628 26,29.45 26,30 C 26,31.198372 22.288761,31.198372 19.5,30 z"
         id="path7671"
         style="fill:#5a6f91" />
      <path
         d="M 1.3062944e-17,24.174314 L 0,0 L 24.174314,0 L 48.348628,0 L 46.174314,2.3144512 C 44.45138,4.1484302 43.996585,5.8611022 43.98355,10.564451 L 43.967099,16.5 L 41.718322,12.529571 C 38.219824,6.352642 33.94509,4 26.220151,4 C 21.536171,4 18.859869,4.5415208 16.579944,5.950592 C 12.252845,8.6248864 8.7628933,15.164931 8.6177355,20.871487 C 8.5378317,24.012732 7.937677,25.91988 6.75,26.806704 C 5.3768254,27.832037 5,29.6085 5,35.056704 C 5,39.873191 5.3828889,42.041055 6.25,42.13403 C 11.141882,42.658557 24.486134,41.595406 29.24205,40.302227 C 33.694122,39.091667 35.884505,37.764087 38.99205,34.392798 C 41.196423,32.001337 43,29.333074 43,28.463326 C 43,27.593578 43.45,27.160081 44,27.5 C 45.12011,28.192266 45.298933,34.558291 44.358152,40.25 L 43.738315,44 L 24.183609,44 C 5.4826385,44 4.5278562,44.094928 2.3144512,46.174314 L 2.6125888e-17,48.348628 L 1.3062944e-17,24.174314 z M 8,39 C 8,38.45 10.406234,38 13.347186,38 C 17.904227,38 18.85472,37.667522 19.779505,35.75 C 20.489873,34.27707 20.912288,34.018046 21.002605,35 C 21.098559,36.043244 21.40227,35.890992 22,34.5 C 22.820049,32.591644 22.86265,32.603099 22.929715,34.75 C 22.968372,35.9875 23.482143,37 24.071429,37 C 24.660714,37 24.467857,37.675 23.642857,38.5 C 21.90547,40.237388 8,40.681855 8,39 z"
         id="path7669"
         style="fill:#58595d" />
      <path
         d="M -9.0767269e-18,24.134859 L 0,0 L 24.154988,7.1054274e-15 L 48.309975,1.4210855e-14 L 46.404988,2.106177 C 44.673836,4.0201585 43.587468,4.1877249 34.5,3.9424568 C 29,3.7940134 19.635441,3.7462338 13.689869,3.8362799 L 2.8797377,4 L 3.5851111,23.407625 C 4.2710967,42.281813 4.2315205,42.890211 2.1452423,45.542484 L -1.8153454e-17,48.269717 L -9.0767269e-18,24.134859 z M 23.5,42.616803 C 25.15,41.899101 28.197121,40.994518 30.271381,40.606621 C 32.34564,40.218723 35.631241,38.506648 37.572716,36.802011 C 40.278535,34.426271 41.377274,33.977274 42.278859,34.878859 C 45.651632,38.251632 35.654089,44.019952 26.53811,43.960858 C 20.693224,43.922969 20.596002,43.879958 23.5,42.616803 z M 12.25,39.271532 C 14.3125,39.055787 17.6875,39.055787 19.75,39.271532 C 21.8125,39.487276 20.125,39.663794 16,39.663794 C 11.875,39.663794 10.1875,39.487276 12.25,39.271532 z"
         id="path7667"
         style="fill:#343435" />
    </g>
  </g>
</svg>
